# 
# Wavefront OBJ file
# Created with Kaydara FBX
# 
mtllib b_point_08.mtl

g b_point_08_1_top
v 0.500000 0.500000 -0.500000
v -0.500000 0.500000 0.500000
v -0.500000 0.500000 -0.500000
v 0.500000 0.500000 0.500000
vt 0.328148 0.003915
vt 0.003907 0.328114
vt 0.003907 0.003915
vt 0.328148 0.328114
vn 0.000000 1.000000 0.000000
vn 0.000000 1.000000 0.000000
vn 0.000000 1.000000 0.000000
vn 0.000000 1.000000 0.000000
usemtl b_point_08
f 1/1/1 3/3/3 2/2/2
f 2/2/2 4/4/4 1/1/1
g b_point_08_2_bottom
v 0.500000 -0.500000 -0.500000
v -0.500000 -0.500000 0.500000
v 0.500000 -0.500000 0.500000
v -0.500000 -0.500000 -0.500000
vt 0.335964 0.335925
vt 0.660154 0.660130
vt 0.335964 0.660130
vt 0.660154 0.335925
vn 0.000000 -1.000000 -0.000000
vn 0.000000 -1.000000 -0.000000
vn 0.000000 -1.000000 -0.000000
vn 0.000000 -1.000000 -0.000000
usemtl b_point_08
f 5/5/5 7/7/7 6/6/6
f 6/6/6 8/8/8 5/5/5
g b_point_08_3_front
v 0.500000 0.500000 0.500000
v -0.500000 -0.500000 0.500000
v -0.500000 0.500000 0.500000
v 0.500000 -0.500000 0.500000
vt 0.328148 0.335925
vt 0.003907 0.660130
vt 0.003907 0.335925
vt 0.328148 0.660130
vn 0.000000 -0.000000 1.000000
vn 0.000000 -0.000000 1.000000
vn 0.000000 -0.000000 1.000000
vn 0.000000 -0.000000 1.000000
usemtl b_point_08
f 9/9/9 11/11/11 10/10/10
f 10/10/10 12/12/12 9/9/9
g b_point_08_4_back
v -0.500000 0.500000 -0.500000
v 0.500000 -0.500000 -0.500000
v 0.500000 0.500000 -0.500000
v -0.500000 -0.500000 -0.500000
vt 0.328148 0.335925
vt 0.003907 0.660130
vt 0.003907 0.335925
vt 0.328148 0.660130
vn 0.000000 0.000000 -1.000000
vn 0.000000 0.000000 -1.000000
vn 0.000000 0.000000 -1.000000
vn 0.000000 0.000000 -1.000000
usemtl b_point_08
f 13/13/13 15/15/15 14/14/14
f 14/14/14 16/16/16 13/13/13
g b_point_08_5_left
v -0.500000 0.500000 0.500000
v -0.500000 -0.500000 -0.500000
v -0.500000 0.500000 -0.500000
v -0.500000 -0.500000 0.500000
vt 0.328148 0.667969
vt 0.003907 0.992156
vt 0.003907 0.667969
vt 0.328148 0.992156
vn -1.000000 0.000000 0.000000
vn -1.000000 0.000000 0.000000
vn -1.000000 0.000000 0.000000
vn -1.000000 0.000000 0.000000
usemtl b_point_08
f 17/17/17 19/19/19 18/18/18
f 18/18/18 20/20/20 17/17/17
g b_point_08_6_right
v 0.500000 0.500000 -0.500000
v 0.500000 -0.500000 0.500000
v 0.500000 0.500000 0.500000
v 0.500000 -0.500000 -0.500000
vt 0.660154 0.667969
vt 0.335964 0.992156
vt 0.335964 0.667969
vt 0.660154 0.992156
vn 1.000000 0.000000 0.000000
vn 1.000000 0.000000 0.000000
vn 1.000000 0.000000 0.000000
vn 1.000000 0.000000 0.000000
usemtl b_point_08
f 21/21/21 23/23/23 22/22/22
f 22/22/22 24/24/24 21/21/21
