# 
# Wavefront OBJ file
# Created with Kaydara FBX
# 
mtllib chair01.mtl

g chair01
v -0.246960 -0.025606 0.246960
v 0.246960 -0.025606 -0.246960
v 0.246960 -0.025606 0.246960
v -0.246960 -0.025606 -0.246960
v 0.246960 -0.025606 0.246960
v -0.280000 -0.134887 0.280000
v -0.246960 -0.025606 0.246960
v 0.280000 -0.134887 0.280000
v -0.246960 -0.025606 0.246960
v -0.280000 -0.134887 -0.280000
v -0.246960 -0.025606 -0.246960
v -0.280000 -0.134887 0.280000
v -0.246960 -0.025606 -0.246960
v 0.280000 -0.134887 -0.280000
v 0.246960 -0.025606 -0.246960
v -0.280000 -0.134887 -0.280000
v 0.246960 -0.025606 -0.246960
v 0.280000 -0.134887 0.280000
v 0.246960 -0.025606 0.246960
v 0.280000 -0.134887 -0.280000
v -0.280000 -0.134887 0.280000
v 0.280000 -0.134887 -0.280000
v -0.280000 -0.134887 -0.280000
v 0.280000 -0.134887 0.280000
v -0.081286 -0.500000 0.081286
v 0.081286 -0.500000 -0.081286
v -0.081286 -0.500000 -0.081286
v 0.081286 -0.500000 0.081286
v 0.081286 -0.500000 0.081286
v -0.059201 -0.129141 0.059201
v 0.059201 -0.129141 0.059201
v -0.081286 -0.500000 0.081286
v -0.081286 -0.500000 0.081286
v -0.059201 -0.129141 -0.059201
v -0.059201 -0.129141 0.059201
v -0.081286 -0.500000 -0.081286
v -0.081286 -0.500000 -0.081286
v 0.059201 -0.129141 -0.059201
v -0.059201 -0.129141 -0.059201
v 0.081286 -0.500000 -0.081286
v 0.081286 -0.500000 -0.081286
v 0.059201 -0.129141 0.059201
v 0.059201 -0.129141 -0.059201
v 0.081286 -0.500000 0.081286
vt 0.230757 0.757193
vt 0.981795 0.006155
vt 0.981795 0.757193
vt 0.230757 0.006155
vt 0.981761 0.757193
vt 0.221253 0.884869
vt 0.230722 0.757193
vt 0.991231 0.884869
vt 0.981761 0.757193
vt 0.221253 0.884869
vt 0.230722 0.757193
vt 0.991231 0.884869
vt 0.981761 0.757193
vt 0.221253 0.884869
vt 0.230722 0.757193
vt 0.991231 0.884869
vt 0.981761 0.757193
vt 0.221253 0.884869
vt 0.230722 0.757193
vt 0.991231 0.884869
vt 0.006225 0.244869
vt 0.225603 0.025491
vt 0.006225 0.025491
vt 0.225603 0.244869
vt 0.222373 0.482791
vt 0.012210 0.272629
vt 0.222373 0.272629
vt 0.012210 0.482791
vt 0.224709 0.500370
vt 0.034447 0.982581
vt 0.196795 0.982581
vt 0.006533 0.500370
vt 0.224709 0.500370
vt 0.034447 0.982581
vt 0.196795 0.982581
vt 0.006533 0.500370
vt 0.224709 0.500370
vt 0.034447 0.982581
vt 0.196795 0.982581
vt 0.006533 0.500370
vt 0.224709 0.500370
vt 0.034447 0.982581
vt 0.196795 0.982581
vt 0.006533 0.500370
vn 0.000000 1.000000 0.000000
vn 0.000000 1.000000 0.000000
vn 0.000000 1.000000 0.000000
vn 0.000000 1.000000 0.000000
vn 0.650169 0.393142 0.650169
vn -0.650169 0.393142 0.650169
vn -0.650169 0.393142 0.650169
vn 0.650169 0.393142 0.650169
vn -0.650169 0.393142 0.650169
vn -0.650169 0.393143 -0.650169
vn -0.650169 0.393142 -0.650169
vn -0.650169 0.393142 0.650169
vn -0.650169 0.393142 -0.650169
vn 0.650169 0.393143 -0.650169
vn 0.650169 0.393143 -0.650169
vn -0.650169 0.393143 -0.650169
vn 0.650169 0.393143 -0.650169
vn 0.650169 0.393142 0.650169
vn 0.650169 0.393142 0.650169
vn 0.650169 0.393143 -0.650169
vn 0.000000 -1.000000 -0.000000
vn 0.000000 -1.000000 -0.000000
vn 0.000000 -1.000000 -0.000000
vn 0.000000 -1.000000 -0.000000
vn 0.000000 -1.000000 -0.000000
vn 0.000000 -1.000000 -0.000000
vn 0.000000 -1.000000 -0.000000
vn 0.000000 -1.000000 -0.000000
vn 0.704613 0.083919 0.704613
vn -0.704613 0.083919 0.704613
vn 0.704613 0.083919 0.704613
vn -0.704613 0.083919 0.704613
vn -0.704613 0.083919 0.704613
vn -0.704613 0.083919 -0.704613
vn -0.704613 0.083919 0.704613
vn -0.704613 0.083919 -0.704613
vn -0.704613 0.083919 -0.704613
vn 0.704613 0.083919 -0.704613
vn -0.704613 0.083919 -0.704613
vn 0.704613 0.083919 -0.704613
vn 0.704613 0.083919 -0.704613
vn 0.704613 0.083919 0.704613
vn 0.704613 0.083919 -0.704613
vn 0.704613 0.083919 0.704613
usemtl chair01
f 1/1/1 3/3/3 2/2/2
f 2/2/2 4/4/4 1/1/1
f 5/5/5 7/7/7 6/6/6
f 6/6/6 8/8/8 5/5/5
f 9/9/9 11/11/11 10/10/10
f 10/10/10 12/12/12 9/9/9
f 13/13/13 15/15/15 14/14/14
f 14/14/14 16/16/16 13/13/13
f 17/17/17 19/19/19 18/18/18
f 18/18/18 20/20/20 17/17/17
f 21/21/21 23/23/23 22/22/22
f 22/22/22 24/24/24 21/21/21
f 25/25/25 27/27/27 26/26/26
f 26/26/26 28/28/28 25/25/25
f 29/29/29 31/31/31 30/30/30
f 30/30/30 32/32/32 29/29/29
f 33/33/33 35/35/35 34/34/34
f 34/34/34 36/36/36 33/33/33
f 37/37/37 39/39/39 38/38/38
f 38/38/38 40/40/40 37/37/37
f 41/41/41 43/43/43 42/42/42
f 42/42/42 44/44/44 41/41/41
