# 
# Wavefront OBJ file
# Created with Kaydara FBX
# 
mtllib circlewindow.mtl

g circleWindow
v -0.500000 -0.500000 -0.500000
v 0.500000 0.500000 -0.500000
v -0.500000 0.500000 -0.500000
v 0.500000 -0.500000 -0.500000
v -0.500000 -0.500000 -0.400000
v 0.500000 0.500000 -0.400000
v 0.500000 -0.500000 -0.400000
v -0.500000 0.500000 -0.400000
v -0.500000 -0.500000 -0.500000
v 0.500000 -0.500000 -0.400000
v 0.500000 -0.500000 -0.500000
v -0.500000 -0.500000 -0.400000
v 0.500000 -0.500000 -0.500000
v 0.500000 0.500000 -0.400000
v 0.500000 0.500000 -0.500000
v 0.500000 -0.500000 -0.400000
v 0.500000 0.500000 -0.500000
v -0.500000 0.500000 -0.400000
v -0.500000 0.500000 -0.500000
v 0.500000 0.500000 -0.400000
v -0.500000 0.500000 -0.500000
v -0.500000 -0.500000 -0.400000
v -0.500000 -0.500000 -0.500000
v -0.500000 0.500000 -0.400000
v -0.490551 -0.000000 -0.410000
v -0.396864 -0.288339 -0.261001
v -0.396864 -0.288339 -0.410000
v -0.490551 -0.000000 -0.261001
v -0.151589 -0.466542 -0.261001
v -0.151589 -0.466542 -0.410000
v 0.151589 -0.466542 -0.261001
v 0.151589 -0.466542 -0.410000
v 0.396864 -0.288339 -0.261001
v 0.396864 -0.288339 -0.410000
v 0.490551 -0.000000 -0.261001
v 0.490551 -0.000000 -0.410000
v -0.490551 -0.000000 -0.261001
v -0.324391 -0.235684 -0.261001
v -0.396864 -0.288339 -0.261001
v -0.400970 -0.000000 -0.261001
v -0.123907 -0.381345 -0.261001
v -0.151589 -0.466542 -0.261001
v 0.123907 -0.381345 -0.261001
v 0.151589 -0.466542 -0.261001
v 0.324392 -0.235684 -0.261001
v 0.396864 -0.288339 -0.261001
v 0.400970 -0.000000 -0.261001
v 0.490551 -0.000000 -0.261001
v -0.305317 -0.221826 -0.299296
v -0.377393 -0.000000 -0.299296
v -0.116621 -0.358922 -0.299296
v 0.116621 -0.358922 -0.299296
v 0.305317 -0.221826 -0.299296
v 0.377393 -0.000000 -0.299296
v -0.305317 -0.221826 -0.299296
v 0.116621 -0.358922 -0.299296
v -0.116621 -0.358922 -0.299296
v 0.377393 -0.000000 -0.299296
v 0.305317 -0.221826 -0.299296
v -0.377393 -0.000000 -0.299296
v -0.490551 -0.000000 -0.410000
v -0.396864 0.288339 -0.261001
v -0.490551 -0.000000 -0.261001
v -0.396864 0.288339 -0.410000
v -0.151589 0.466542 -0.261001
v -0.151589 0.466542 -0.410000
v 0.151589 0.466542 -0.261001
v 0.151589 0.466542 -0.410000
v 0.396864 0.288339 -0.261001
v 0.396864 0.288339 -0.410000
v 0.490551 -0.000000 -0.261001
v 0.490551 -0.000000 -0.410000
v -0.490551 -0.000000 -0.261001
v -0.324391 0.235684 -0.261001
v -0.400970 -0.000000 -0.261001
v -0.396864 0.288339 -0.261001
v -0.123907 0.381345 -0.261001
v -0.151589 0.466542 -0.261001
v 0.123907 0.381345 -0.261001
v 0.151589 0.466542 -0.261001
v 0.324392 0.235684 -0.261001
v 0.396864 0.288339 -0.261001
v 0.400970 -0.000000 -0.261001
v 0.490551 -0.000000 -0.261001
v -0.305317 0.221826 -0.299296
v -0.377393 -0.000000 -0.299296
v -0.116621 0.358922 -0.299296
v 0.116621 0.358922 -0.299296
v 0.305317 0.221826 -0.299296
v 0.377393 -0.000000 -0.299296
v 0.377393 -0.000000 -0.299296
v 0.116621 0.358922 -0.299296
v 0.305317 0.221826 -0.299296
v -0.305317 0.221826 -0.299296
v -0.116621 0.358922 -0.299296
v -0.377393 -0.000000 -0.299296
vt 0.994602 0.991787
vt 0.831283 0.859975
vt 0.994602 0.859975
vt 0.831283 0.991787
vt 0.473351 0.529607
vt 0.988581 0.014377
vt 0.988581 0.529607
vt 0.473351 0.014377
vt 0.172218 0.012527
vt 0.250328 0.535516
vt 0.172218 0.535516
vt 0.250328 0.012527
vt 0.272010 0.012527
vt 0.350119 0.535516
vt 0.272010 0.535516
vt 0.350119 0.012527
vt 0.367333 0.012527
vt 0.445443 0.535516
vt 0.367333 0.535516
vt 0.445443 0.012527
vt 0.272010 0.012527
vt 0.350119 0.535516
vt 0.272010 0.535516
vt 0.350119 0.012527
vt 0.118376 0.012621
vt 0.022673 0.112091
vt 0.118376 0.112091
vt 0.022673 0.012621
vt 0.022673 0.216166
vt 0.118377 0.216166
vt 0.022673 0.331398
vt 0.118377 0.331398
vt 0.022673 0.435473
vt 0.118377 0.435473
vt 0.022673 0.534943
vt 0.118377 0.534943
vt 0.018907 0.554260
vt 0.179671 0.771130
vt 0.109552 0.819581
vt 0.105579 0.554260
vt 0.373645 0.905162
vt 0.346862 0.983558
vt 0.613411 0.905162
vt 0.640194 0.983558
vt 0.807385 0.771130
vt 0.877505 0.819581
vt 0.881477 0.554260
vt 0.968149 0.554260
vt 0.233515 0.742156
vt 0.172135 0.554260
vt 0.394212 0.858283
vt 0.592844 0.858283
vt 0.753540 0.742156
vt 0.814921 0.554260
vt 0.250385 0.729322
vt 0.586400 0.837517
vt 0.400656 0.837517
vt 0.794069 0.554260
vt 0.736671 0.729322
vt 0.192987 0.554260
vt 0.118376 0.012621
vt 0.022673 0.112091
vt 0.022673 0.012621
vt 0.118376 0.112091
vt 0.022673 0.216166
vt 0.118377 0.216166
vt 0.022673 0.331398
vt 0.118377 0.331398
vt 0.022673 0.435473
vt 0.118377 0.435473
vt 0.022673 0.534943
vt 0.118377 0.534943
vt 0.018907 0.554260
vt 0.179671 0.771130
vt 0.105579 0.554260
vt 0.109552 0.819581
vt 0.373645 0.905162
vt 0.346862 0.983558
vt 0.613411 0.905162
vt 0.640194 0.983558
vt 0.807385 0.771130
vt 0.877505 0.819581
vt 0.881477 0.554260
vt 0.968149 0.554260
vt 0.233515 0.742156
vt 0.172135 0.554260
vt 0.394212 0.858283
vt 0.592844 0.858283
vt 0.753540 0.742156
vt 0.814921 0.554260
vt 0.794069 0.554260
vt 0.586400 0.837517
vt 0.736671 0.729322
vt 0.250385 0.729322
vt 0.400656 0.837517
vt 0.192987 0.554260
vn 0.000000 0.000000 -1.000000
vn 0.000000 0.000000 -1.000000
vn 0.000000 0.000000 -1.000000
vn 0.000000 0.000000 -1.000000
vn 0.000000 -0.000000 1.000000
vn 0.000000 -0.000000 1.000000
vn 0.000000 -0.000000 1.000000
vn 0.000000 -0.000000 1.000000
vn 0.000000 -1.000000 -0.000000
vn 0.000000 -1.000000 -0.000000
vn 0.000000 -1.000000 -0.000000
vn 0.000000 -1.000000 -0.000000
vn 1.000000 0.000000 0.000000
vn 1.000000 0.000000 0.000000
vn 1.000000 0.000000 0.000000
vn 1.000000 0.000000 0.000000
vn 0.000000 1.000000 0.000000
vn 0.000000 1.000000 0.000000
vn 0.000000 1.000000 0.000000
vn 0.000000 1.000000 0.000000
vn -1.000000 0.000000 0.000000
vn -1.000000 0.000000 0.000000
vn -1.000000 0.000000 0.000000
vn -1.000000 0.000000 0.000000
vn -1.000000 0.000000 0.000000
vn -0.809017 -0.587785 -0.000000
vn -0.809017 -0.587785 -0.000000
vn -1.000000 0.000000 0.000000
vn -0.309017 -0.951057 -0.000000
vn -0.309017 -0.951057 -0.000000
vn 0.309017 -0.951056 -0.000000
vn 0.309017 -0.951056 -0.000000
vn 0.809017 -0.587785 -0.000000
vn 0.809017 -0.587785 -0.000000
vn 1.000000 0.000000 0.000000
vn 1.000000 0.000000 0.000000
vn 0.000000 -0.000000 1.000000
vn 0.328964 0.239006 0.913597
vn 0.000000 -0.000000 1.000000
vn 0.406622 -0.000000 0.913597
vn 0.125653 0.386720 0.913597
vn 0.000000 -0.000000 1.000000
vn -0.125653 0.386720 0.913597
vn 0.000000 -0.000000 1.000000
vn -0.328964 0.239006 0.913597
vn 0.000000 -0.000000 1.000000
vn -0.406622 -0.000000 0.913597
vn 0.000000 -0.000000 1.000000
vn 0.688916 0.500527 0.524278
vn 0.851548 -0.000000 0.524277
vn 0.263143 0.809870 0.524278
vn -0.263143 0.809870 0.524278
vn -0.688916 0.500527 0.524278
vn -0.851547 -0.000000 0.524277
vn 0.000000 -0.000000 1.000000
vn 0.000000 -0.000000 1.000000
vn 0.000000 -0.000000 1.000000
vn 0.000000 -0.000000 1.000000
vn 0.000000 -0.000000 1.000000
vn 0.000000 -0.000000 1.000000
vn -1.000000 0.000000 0.000000
vn -0.809017 0.587785 0.000000
vn -1.000000 0.000000 0.000000
vn -0.809017 0.587785 0.000000
vn -0.309017 0.951057 0.000000
vn -0.309017 0.951057 0.000000
vn 0.309017 0.951056 0.000000
vn 0.309017 0.951056 0.000000
vn 0.809017 0.587785 0.000000
vn 0.809017 0.587785 0.000000
vn 1.000000 0.000000 0.000000
vn 1.000000 0.000000 0.000000
vn 0.000000 -0.000000 1.000000
vn 0.328964 -0.239006 0.913597
vn 0.406622 -0.000000 0.913597
vn 0.000000 -0.000000 1.000000
vn 0.125653 -0.386720 0.913597
vn 0.000000 -0.000000 1.000000
vn -0.125653 -0.386720 0.913597
vn 0.000000 -0.000000 1.000000
vn -0.328964 -0.239006 0.913597
vn 0.000000 -0.000000 1.000000
vn -0.406622 -0.000000 0.913597
vn 0.000000 -0.000000 1.000000
vn 0.688916 -0.500527 0.524278
vn 0.851548 -0.000000 0.524277
vn 0.263143 -0.809870 0.524278
vn -0.263143 -0.809870 0.524278
vn -0.688916 -0.500527 0.524277
vn -0.851547 -0.000000 0.524277
vn 0.000000 -0.000000 1.000000
vn 0.000000 -0.000000 1.000000
vn 0.000000 -0.000000 1.000000
vn 0.000000 -0.000000 1.000000
vn 0.000000 -0.000000 1.000000
vn 0.000000 -0.000000 1.000000
usemtl circleWindow
f 1/1/1 3/3/3 2/2/2
f 2/2/2 4/4/4 1/1/1
f 5/5/5 7/7/7 6/6/6
f 6/6/6 8/8/8 5/5/5
f 9/9/9 11/11/11 10/10/10
f 10/10/10 12/12/12 9/9/9
f 13/13/13 15/15/15 14/14/14
f 14/14/14 16/16/16 13/13/13
f 17/17/17 19/19/19 18/18/18
f 18/18/18 20/20/20 17/17/17
f 21/21/21 23/23/23 22/22/22
f 22/22/22 24/24/24 21/21/21
f 25/25/25 27/27/27 26/26/26
f 26/26/26 28/28/28 25/25/25
f 29/29/29 26/26/26 27/27/27
f 27/27/27 30/30/30 29/29/29
f 31/31/31 29/29/29 30/30/30
f 30/30/30 32/32/32 31/31/31
f 33/33/33 31/31/31 32/32/32
f 32/32/32 34/34/34 33/33/33
f 35/35/35 33/33/33 34/34/34
f 34/34/34 36/36/36 35/35/35
f 37/37/37 39/39/39 38/38/38
f 38/38/38 40/40/40 37/37/37
f 41/41/41 38/38/38 39/39/39
f 39/39/39 42/42/42 41/41/41
f 43/43/43 41/41/41 42/42/42
f 42/42/42 44/44/44 43/43/43
f 45/45/45 43/43/43 44/44/44
f 44/44/44 46/46/46 45/45/45
f 47/47/47 45/45/45 46/46/46
f 46/46/46 48/48/48 47/47/47
f 40/40/40 38/38/38 49/49/49
f 49/49/49 50/50/50 40/40/40
f 38/38/38 41/41/41 51/51/51
f 51/51/51 49/49/49 38/38/38
f 41/41/41 43/43/43 52/52/52
f 52/52/52 51/51/51 41/41/41
f 43/43/43 45/45/45 53/53/53
f 53/53/53 52/52/52 43/43/43
f 45/45/45 47/47/47 54/54/54
f 54/54/54 53/53/53 45/45/45
f 55/55/55 57/57/57 56/56/56
f 55/55/55 56/56/56 58/58/58
f 56/56/56 59/59/59 58/58/58
f 60/60/60 55/55/55 58/58/58
f 61/61/61 63/63/63 62/62/62
f 62/62/62 64/64/64 61/61/61
f 64/64/64 62/62/62 65/65/65
f 65/65/65 66/66/66 64/64/64
f 66/66/66 65/65/65 67/67/67
f 67/67/67 68/68/68 66/66/66
f 68/68/68 67/67/67 69/69/69
f 69/69/69 70/70/70 68/68/68
f 70/70/70 69/69/69 71/71/71
f 71/71/71 72/72/72 70/70/70
f 73/73/73 75/75/75 74/74/74
f 74/74/74 76/76/76 73/73/73
f 76/76/76 74/74/74 77/77/77
f 77/77/77 78/78/78 76/76/76
f 78/78/78 77/77/77 79/79/79
f 79/79/79 80/80/80 78/78/78
f 80/80/80 79/79/79 81/81/81
f 81/81/81 82/82/82 80/80/80
f 82/82/82 81/81/81 83/83/83
f 83/83/83 84/84/84 82/82/82
f 85/85/85 74/74/74 75/75/75
f 75/75/75 86/86/86 85/85/85
f 74/74/74 85/85/85 87/87/87
f 87/87/87 77/77/77 74/74/74
f 77/77/77 87/87/87 88/88/88
f 88/88/88 79/79/79 77/77/77
f 79/79/79 88/88/88 89/89/89
f 89/89/89 81/81/81 79/79/79
f 81/81/81 89/89/89 90/90/90
f 90/90/90 83/83/83 81/81/81
f 91/91/91 93/93/93 92/92/92
f 91/91/91 92/92/92 94/94/94
f 92/92/92 95/95/95 94/94/94
f 96/96/96 91/91/91 94/94/94
