# 
# Wavefront OBJ file
# Created with Kaydara FBX
# 
mtllib colorcone.mtl

g colorcone
v -0.278351 -0.399376 -0.291000
v 0.077254 -0.394511 -0.237764
v -0.077254 -0.394511 -0.237764
v 0.278351 -0.399376 -0.291000
v 0.202254 -0.394511 -0.146946
v 0.291000 -0.399376 -0.278351
v 0.189483 -0.353513 -0.137668
v 0.234214 -0.353513 -0.000000
v 0.250000 -0.394511 0.000000
v 0.072376 -0.353513 -0.222751
v -0.072376 -0.353513 -0.222751
v -0.202254 -0.394511 -0.146946
v -0.189483 -0.353513 -0.137668
v -0.250000 -0.394511 0.000000
v -0.234214 -0.353513 -0.000000
v -0.202254 -0.394511 0.146946
v -0.189483 -0.353513 0.137668
v -0.077254 -0.394511 0.237764
v -0.278351 -0.399376 0.291000
v -0.291000 -0.399376 0.278351
v 0.077254 -0.394511 0.237764
v 0.278351 -0.399376 0.291000
v -0.072376 -0.353513 0.222751
v 0.072376 -0.353513 0.222751
v 0.202254 -0.394511 0.146946
v 0.189483 -0.353513 0.137668
v -0.170502 -0.348548 -0.123877
v -0.065126 -0.348548 -0.200437
v 0.065126 -0.348548 -0.200437
v 0.170502 -0.348548 -0.123877
v 0.210752 -0.348548 -0.000000
v -0.065126 -0.348548 0.200437
v -0.170502 -0.348548 0.123877
v 0.065126 -0.348548 0.200437
v 0.170502 -0.348548 0.123877
v -0.210752 -0.348548 -0.000000
v -0.291000 -0.399376 -0.278351
v -0.286959 -0.500000 -0.300000
v -0.278351 -0.399376 -0.291000
v -0.300000 -0.500000 -0.286959
v -0.291000 -0.399376 0.278351
v -0.300000 -0.500000 0.286959
v -0.278351 -0.399376 0.291000
v -0.300000 -0.500000 0.286959
v -0.291000 -0.399376 0.278351
v -0.286959 -0.500000 0.300000
v 0.278351 -0.399376 0.291000
v 0.286959 -0.500000 0.300000
v 0.291000 -0.399376 0.278351
v 0.286959 -0.500000 0.300000
v 0.278351 -0.399376 0.291000
v 0.300000 -0.500000 0.286959
v 0.291000 -0.399376 -0.278351
v 0.300000 -0.500000 -0.286959
v 0.278351 -0.399376 -0.291000
v 0.300000 -0.500000 -0.286959
v 0.291000 -0.399376 -0.278351
v 0.286959 -0.500000 -0.300000
v -0.278351 -0.399376 -0.291000
v -0.286959 -0.500000 -0.300000
v 0.016180 0.500000 -0.011756
v 0.235370 -0.420000 0.000000
v 0.020000 0.500000 0.000000
v 0.190418 -0.420000 -0.138347
v 0.006180 0.500000 -0.019021
v 0.072733 -0.420000 -0.223850
v -0.006180 0.500000 -0.019021
v -0.072733 -0.420000 -0.223850
v -0.016180 0.500000 -0.011756
v -0.190418 -0.420000 -0.138347
v -0.020000 0.500000 0.000000
v -0.235370 -0.420000 0.000000
v -0.016180 0.500000 0.011756
v -0.235370 -0.420000 0.000000
v -0.020000 0.500000 0.000000
v -0.190418 -0.420000 0.138347
v -0.006180 0.500000 0.019021
v -0.072733 -0.420000 0.223850
v 0.006180 0.500000 0.019021
v 0.072733 -0.420000 0.223850
v 0.016180 0.500000 0.011756
v 0.190418 -0.420000 0.138347
v 0.020000 0.500000 0.000000
v 0.235370 -0.420000 0.000000
v 0.016180 0.500000 0.011756
v 0.016180 0.500000 -0.011756
v 0.020000 0.500000 0.000000
v -0.006180 0.500000 -0.019021
v 0.006180 0.500000 -0.019021
v -0.020000 0.500000 0.000000
v -0.016180 0.500000 -0.011756
v -0.006180 0.500000 0.019021
v -0.016180 0.500000 0.011756
v 0.006180 0.500000 0.019021
v 0.300000 -0.500000 -0.286959
v 0.286959 -0.500000 0.300000
v 0.300000 -0.500000 0.286959
v -0.300000 -0.500000 0.286959
v -0.286959 -0.500000 0.300000
v -0.286959 -0.500000 -0.300000
v -0.300000 -0.500000 -0.286959
v 0.286959 -0.500000 -0.300000
v 0.291000 -0.399376 0.278351
v -0.291000 -0.399376 -0.278351
vt 0.021035 0.015606
vt 0.400144 0.080433
vt 0.239202 0.080434
vt 0.618581 0.015606
vt 0.530349 0.175033
vt 0.630527 0.029190
vt 0.501340 0.195080
vt 0.544225 0.328097
vt 0.580082 0.328097
vt 0.389064 0.112870
vt 0.250283 0.112870
vt 0.108998 0.175033
vt 0.138007 0.195080
vt 0.059264 0.328097
vt 0.095121 0.328097
vt 0.108998 0.481162
vt 0.138007 0.461115
vt 0.239202 0.575761
vt 0.018012 0.635055
vt 0.010084 0.628169
vt 0.400144 0.575761
vt 0.618581 0.635055
vt 0.250283 0.543324
vt 0.389064 0.543324
vt 0.530349 0.481162
vt 0.501340 0.461115
vt 0.160760 0.210703
vt 0.258974 0.138149
vt 0.380373 0.138149
vt 0.478587 0.210703
vt 0.516101 0.328097
vt 0.258974 0.518046
vt 0.160760 0.445492
vt 0.380373 0.518046
vt 0.478587 0.445492
vt 0.123245 0.328097
vt 0.024608 0.649232
vt 0.007197 0.741786
vt 0.007197 0.649232
vt 0.024608 0.741786
vt 0.632179 0.649232
vt 0.632179 0.741786
vt 0.024608 0.649232
vt 0.007197 0.741786
vt 0.007197 0.649232
vt 0.024608 0.741786
vt 0.632179 0.649232
vt 0.632179 0.741786
vt 0.024608 0.649232
vt 0.007197 0.741786
vt 0.007197 0.649232
vt 0.024608 0.741786
vt 0.632179 0.649232
vt 0.632179 0.741786
vt 0.024608 0.649232
vt 0.007197 0.741786
vt 0.007197 0.649232
vt 0.024608 0.741786
vt 0.632179 0.649232
vt 0.632179 0.741786
vt 0.783412 0.423646
vt 0.990360 0.984614
vt 0.791116 0.423646
vt 0.904529 0.984614
vt 0.775963 0.423646
vt 0.818990 0.984614
vt 0.767971 0.423646
vt 0.724944 0.984614
vt 0.760522 0.423646
vt 0.639405 0.984614
vt 0.752818 0.423646
vt 0.553574 0.984614
vt 0.760522 0.423646
vt 0.553574 0.984614
vt 0.752818 0.423646
vt 0.639405 0.984614
vt 0.767971 0.423646
vt 0.724944 0.984614
vt 0.775963 0.423646
vt 0.818990 0.984614
vt 0.783412 0.423646
vt 0.904529 0.984614
vt 0.791116 0.423646
vt 0.990360 0.984614
vt 0.931303 0.507209
vt 0.931303 0.456174
vt 0.939189 0.481691
vt 0.885142 0.440403
vt 0.910659 0.440403
vt 0.856612 0.481691
vt 0.864497 0.456174
vt 0.885142 0.522980
vt 0.864497 0.507209
vt 0.910659 0.522980
vt 0.952493 0.061674
vt 0.946510 0.330973
vt 0.952493 0.324989
vt 0.677211 0.324989
vt 0.683194 0.330973
vt 0.683194 0.055691
vt 0.677211 0.061674
vt 0.946510 0.055691
vt 0.630527 0.621471
vt 0.010084 0.026557
vn -0.281804 0.662344 -0.694180
vn 0.147576 0.855394 -0.496509
vn -0.147577 0.855394 -0.496509
vn 0.281804 0.662344 -0.694180
vn 0.403609 0.867649 -0.290318
vn 0.694232 0.662157 -0.282118
vn 0.564218 0.716671 -0.409928
vn 0.697412 0.716671 -0.000000
vn 0.530848 0.847467 0.000000
vn 0.215512 0.716671 -0.663278
vn -0.215512 0.716671 -0.663278
vn -0.403609 0.867649 -0.290318
vn -0.564218 0.716671 -0.409928
vn -0.530848 0.847467 0.000000
vn -0.697412 0.716671 0.000000
vn -0.403609 0.867649 0.290318
vn -0.564218 0.716671 0.409928
vn -0.147577 0.855394 0.496510
vn -0.281804 0.662344 0.694180
vn -0.694232 0.662157 0.282118
vn 0.147577 0.855394 0.496510
vn 0.281804 0.662344 0.694180
vn -0.215512 0.716671 0.663278
vn 0.215512 0.716671 0.663278
vn 0.403609 0.867649 0.290317
vn 0.564218 0.716671 0.409928
vn -0.167489 0.978335 -0.121688
vn -0.063975 0.978335 -0.196895
vn 0.063975 0.978335 -0.196895
vn 0.167489 0.978335 -0.121688
vn 0.207027 0.978335 0.000000
vn -0.063975 0.978335 0.196895
vn -0.167489 0.978335 0.121688
vn 0.063975 0.978335 0.196894
vn 0.167489 0.978335 0.121688
vn -0.207027 0.978335 0.000000
vn -0.694232 0.662157 -0.282118
vn -0.389676 0.115064 -0.913736
vn -0.281804 0.662344 -0.694180
vn -0.913736 0.115064 -0.389676
vn -0.694232 0.662157 0.282118
vn -0.913736 0.115064 0.389676
vn -0.281804 0.662344 0.694180
vn -0.913736 0.115064 0.389676
vn -0.694232 0.662157 0.282118
vn -0.389676 0.115064 0.913736
vn 0.281804 0.662344 0.694180
vn 0.389676 0.115064 0.913736
vn 0.694232 0.662157 0.282118
vn 0.389676 0.115064 0.913736
vn 0.281804 0.662344 0.694180
vn 0.913736 0.115064 0.389676
vn 0.694232 0.662157 -0.282118
vn 0.913736 0.115064 -0.389676
vn 0.281804 0.662344 -0.694180
vn 0.913736 0.115064 -0.389676
vn 0.694232 0.662157 -0.282118
vn 0.389676 0.115064 -0.913736
vn -0.281804 0.662344 -0.694180
vn -0.389676 0.115064 -0.913736
vn 0.555483 0.727022 -0.403582
vn 0.973676 0.227936 -0.000000
vn 0.686614 0.727022 0.000000
vn 0.787720 0.227935 -0.572313
vn 0.212175 0.727022 -0.653009
vn 0.300882 0.227935 -0.926021
vn -0.212176 0.727022 -0.653009
vn -0.300883 0.227936 -0.926021
vn -0.555483 0.727022 -0.403582
vn -0.787721 0.227935 -0.572312
vn -0.686614 0.727022 0.000000
vn -0.973676 0.227936 0.000000
vn -0.555483 0.727022 0.403582
vn -0.973676 0.227936 0.000000
vn -0.686614 0.727022 0.000000
vn -0.787720 0.227936 0.572313
vn -0.212176 0.727022 0.653009
vn -0.300882 0.227935 0.926021
vn 0.212176 0.727022 0.653009
vn 0.300883 0.227936 0.926021
vn 0.555483 0.727022 0.403582
vn 0.787721 0.227935 0.572312
vn 0.686614 0.727022 0.000000
vn 0.973676 0.227936 -0.000000
vn 0.555483 0.727022 0.403582
vn 0.555483 0.727022 -0.403582
vn 0.686614 0.727022 0.000000
vn -0.212176 0.727022 -0.653009
vn 0.212175 0.727022 -0.653009
vn -0.686614 0.727022 0.000000
vn -0.555483 0.727022 -0.403582
vn -0.212176 0.727022 0.653009
vn -0.555483 0.727022 0.403582
vn 0.212176 0.727022 0.653009
vn 0.000000 -1.000000 -0.000000
vn 0.000000 -1.000000 -0.000000
vn 0.000000 -1.000000 -0.000000
vn 0.000000 -1.000000 -0.000000
vn 0.000000 -1.000000 -0.000000
vn 0.000000 -1.000000 -0.000000
vn 0.000000 -1.000000 -0.000000
vn 0.000000 -1.000000 -0.000000
vn 0.694232 0.662157 0.282118
vn -0.694232 0.662157 -0.282118
usemtl colorcone_01
f 1/1/1 3/3/3 2/2/2
f 2/2/2 4/4/4 1/1/1
f 4/4/4 2/2/2 5/5/5
f 5/5/5 6/6/6 4/4/4
f 7/7/7 5/5/5 2/2/2
f 5/5/5 7/7/7 8/8/8
f 8/8/8 9/9/9 5/5/5
f 6/6/6 5/5/5 9/9/9
f 2/2/2 10/10/10 7/7/7
f 10/10/10 2/2/2 3/3/3
f 3/3/3 11/11/11 10/10/10
f 11/11/11 3/3/3 12/12/12
f 12/12/12 3/3/3 1/1/1
f 12/12/12 13/13/13 11/11/11
f 13/13/13 12/12/12 14/14/14
f 14/14/14 15/15/15 13/13/13
f 15/15/15 14/14/14 16/16/16
f 16/16/16 17/17/17 15/15/15
f 17/17/17 16/16/16 18/18/18
f 19/19/19 18/18/18 16/16/16
f 16/16/16 20/20/20 19/19/19
f 20/20/20 16/16/16 14/14/14
f 21/21/21 18/18/18 19/19/19
f 19/19/19 22/22/22 21/21/21
f 18/18/18 23/23/23 17/17/17
f 24/24/24 23/23/23 18/18/18
f 18/18/18 21/21/21 24/24/24
f 24/24/24 21/21/21 25/25/25
f 25/25/25 21/21/21 22/22/22
f 25/25/25 26/26/26 24/24/24
f 26/26/26 25/25/25 9/9/9
f 9/9/9 8/8/8 26/26/26
f 27/27/27 13/13/13 15/15/15
f 13/13/13 27/27/27 28/28/28
f 28/28/28 11/11/11 13/13/13
f 11/11/11 28/28/28 29/29/29
f 29/29/29 10/10/10 11/11/11
f 10/10/10 29/29/29 30/30/30
f 30/30/30 7/7/7 10/10/10
f 31/31/31 8/8/8 7/7/7
f 7/7/7 30/30/30 31/31/31
f 32/32/32 23/23/23 24/24/24
f 23/23/23 32/32/32 33/33/33
f 24/24/24 34/34/34 32/32/32
f 35/35/35 26/26/26 8/8/8
f 8/8/8 31/31/31 35/35/35
f 26/26/26 35/35/35 34/34/34
f 34/34/34 24/24/24 26/26/26
f 15/15/15 36/36/36 27/27/27
f 36/36/36 15/15/15 17/17/17
f 17/17/17 33/33/33 36/36/36
f 33/33/33 17/17/17 23/23/23
f 37/37/37 39/39/39 38/38/38
f 38/38/38 40/40/40 37/37/37
f 41/41/41 37/37/37 40/40/40
f 40/40/40 42/42/42 41/41/41
f 43/43/43 45/45/45 44/44/44
f 44/44/44 46/46/46 43/43/43
f 47/47/47 43/43/43 46/46/46
f 46/46/46 48/48/48 47/47/47
f 49/49/49 51/51/51 50/50/50
f 50/50/50 52/52/52 49/49/49
f 53/53/53 49/49/49 52/52/52
f 52/52/52 54/54/54 53/53/53
f 55/55/55 57/57/57 56/56/56
f 56/56/56 58/58/58 55/55/55
f 59/59/59 55/55/55 58/58/58
f 58/58/58 60/60/60 59/59/59
f 61/61/61 63/63/63 62/62/62
f 62/62/62 64/64/64 61/61/61
f 65/65/65 61/61/61 64/64/64
f 64/64/64 66/66/66 65/65/65
f 67/67/67 65/65/65 66/66/66
f 66/66/66 68/68/68 67/67/67
f 69/69/69 67/67/67 68/68/68
f 68/68/68 70/70/70 69/69/69
f 71/71/71 69/69/69 70/70/70
f 70/70/70 72/72/72 71/71/71
f 73/73/73 75/75/75 74/74/74
f 74/74/74 76/76/76 73/73/73
f 77/77/77 73/73/73 76/76/76
f 76/76/76 78/78/78 77/77/77
f 79/79/79 77/77/77 78/78/78
f 78/78/78 80/80/80 79/79/79
f 81/81/81 79/79/79 80/80/80
f 80/80/80 82/82/82 81/81/81
f 83/83/83 81/81/81 82/82/82
f 82/82/82 84/84/84 83/83/83
f 85/85/85 87/87/87 86/86/86
f 85/85/85 86/86/86 88/88/88
f 86/86/86 89/89/89 88/88/88
f 85/85/85 88/88/88 90/90/90
f 88/88/88 91/91/91 90/90/90
f 85/85/85 90/90/90 92/92/92
f 90/90/90 93/93/93 92/92/92
f 85/85/85 92/92/92 94/94/94
f 95/95/95 97/97/97 96/96/96
f 95/95/95 96/96/96 98/98/98
f 96/96/96 99/99/99 98/98/98
f 95/95/95 98/98/98 100/100/100
f 98/98/98 101/101/101 100/100/100
f 95/95/95 100/100/100 102/102/102
f 103/103/103 6/6/6 9/9/9
f 103/103/103 9/9/9 25/25/25
f 22/22/22 103/103/103 25/25/25
f 104/104/104 20/20/20 14/14/14
f 104/104/104 14/14/14 12/12/12
f 1/1/1 104/104/104 12/12/12
