# 
# Wavefront OBJ file
# Created with Kaydara FBX
# 
mtllib d38_barrel_t.mtl

g D38_BARREL_T
v 0.379728 -0.498673 0.000000
v 0.353553 -0.246825 -0.353553
v 0.268508 -0.498673 -0.268508
v 0.500000 -0.246825 0.000000
v -0.000000 -0.246825 -0.500000
v -0.000000 -0.498673 -0.379728
v 0.268508 -0.498673 0.268508
v 0.353553 -0.246825 0.353553
v 0.000000 -0.498673 0.379728
v 0.000000 -0.246825 0.500000
v 0.353553 0.199784 -0.353553
v 0.500000 0.199784 -0.000000
v -0.000000 0.199784 -0.500000
v 0.353553 0.199784 0.353553
v 0.000000 0.199784 0.500000
v 0.268508 0.458504 -0.268508
v 0.379728 0.458504 0.000000
v -0.000000 0.458504 -0.379728
v 0.268508 0.458504 0.268508
v 0.000000 0.458504 0.379728
v -0.000000 -0.498673 -0.379728
v -0.353553 -0.246825 -0.353553
v -0.268508 -0.498673 -0.268508
v -0.000000 -0.246825 -0.500000
v -0.500000 -0.246825 0.000000
v -0.379728 -0.498673 0.000000
v -0.353553 -0.246825 0.353553
v -0.268508 -0.498673 0.268508
v 0.000000 -0.246825 0.500000
v 0.000000 -0.498673 0.379728
v -0.353553 0.199784 -0.353553
v -0.000000 0.199784 -0.500000
v -0.500000 0.199784 0.000000
v -0.353553 0.199784 0.353553
v 0.000000 0.199784 0.500000
v -0.268508 0.458504 -0.268508
v -0.000000 0.458504 -0.379728
v -0.379728 0.458504 0.000000
v -0.268508 0.458504 0.268508
v 0.000000 0.458504 0.379728
v 0.000000 -0.498673 0.379728
v -0.379728 -0.498673 0.000000
v -0.268508 -0.498673 0.268508
v 0.379728 -0.498673 0.000000
v -0.000000 -0.498673 -0.379728
v -0.268508 -0.498673 -0.268508
v 0.268508 -0.498673 -0.268508
v 0.268508 -0.498673 0.268508
v 0.229661 0.423827 -0.229661
v -0.229661 0.423827 -0.229661
v -0.000000 0.423827 -0.324789
v 0.229661 0.423827 0.229661
v -0.229661 0.423827 0.229661
v -0.324789 0.423827 0.000000
v 0.000000 0.423827 0.324789
v 0.324789 0.423827 0.000000
v 0.379728 0.458504 0.000000
v 0.232501 0.458504 -0.232501
v 0.268508 0.458504 -0.268508
v 0.328806 0.458504 0.000000
v -0.000000 0.458504 -0.328806
v -0.000000 0.458504 -0.379728
v -0.232501 0.458504 -0.232501
v -0.268508 0.458504 -0.268508
v -0.328806 0.458504 0.000000
v -0.379728 0.458504 0.000000
v -0.232501 0.458504 0.232501
v -0.268508 0.458504 0.268508
v 0.000000 0.458504 0.328806
v 0.000000 0.458504 0.379728
v 0.232501 0.458504 0.232501
v 0.268508 0.458504 0.268508
v 0.328806 0.458504 0.000000
v 0.229661 0.423827 -0.229661
v 0.232501 0.458504 -0.232501
v 0.324789 0.423827 0.000000
v 0.232501 0.458504 -0.232501
v -0.000000 0.423827 -0.324789
v -0.000000 0.458504 -0.328806
v 0.229661 0.423827 -0.229661
v -0.000000 0.458504 -0.328806
v -0.229661 0.423827 -0.229661
v -0.232501 0.458504 -0.232501
v -0.000000 0.423827 -0.324789
v -0.232501 0.458504 -0.232501
v -0.324789 0.423827 0.000000
v -0.328806 0.458504 0.000000
v -0.229661 0.423827 -0.229661
v -0.328806 0.458504 0.000000
v -0.229661 0.423827 0.229661
v -0.232501 0.458504 0.232501
v -0.324789 0.423827 0.000000
v -0.232501 0.458504 0.232501
v 0.000000 0.423827 0.324789
v 0.000000 0.458504 0.328806
v -0.229661 0.423827 0.229661
v 0.000000 0.458504 0.328806
v 0.229661 0.423827 0.229661
v 0.232501 0.458504 0.232501
v 0.000000 0.423827 0.324789
v 0.232501 0.458504 0.232501
v 0.324789 0.423827 0.000000
v 0.328806 0.458504 0.000000
v 0.229661 0.423827 0.229661
v 0.265811 0.409464 0.000000
v 0.251353 0.498673 -0.045719
v 0.245384 0.409464 -0.035381
v 0.277749 0.498673 0.000000
v 0.245384 0.409464 -0.035381
v 0.198561 0.498673 -0.045719
v 0.204530 0.409464 -0.035381
v 0.251353 0.498673 -0.045719
v 0.204530 0.409464 -0.035381
v 0.172165 0.498673 0.000000
v 0.184103 0.409464 0.000000
v 0.198561 0.498673 -0.045719
v 0.184103 0.409464 0.000000
v 0.198561 0.498673 0.045719
v 0.204530 0.409464 0.035381
v 0.172165 0.498673 0.000000
v 0.204530 0.409464 0.035381
v 0.251353 0.498673 0.045719
v 0.245384 0.409464 0.035381
v 0.198561 0.498673 0.045719
v 0.245384 0.409464 0.035381
v 0.277749 0.498673 0.000000
v 0.265811 0.409464 0.000000
v 0.251353 0.498673 0.045719
v 0.251353 0.498673 -0.045719
v 0.172165 0.498673 0.000000
v 0.198561 0.498673 -0.045719
v 0.251353 0.498673 0.045719
v 0.198561 0.498673 0.045719
v 0.277749 0.498673 0.000000
vt 0.435091 0.984676
vt 0.227994 0.822026
vt 0.243857 0.984676
vt 0.435091 0.822026
vt 0.015324 0.822026
vt 0.065542 0.984676
vt 0.626325 0.984676
vt 0.642188 0.822026
vt 0.804640 0.984676
vt 0.854858 0.822026
vt 0.227994 0.553638
vt 0.435091 0.553638
vt 0.015324 0.553638
vt 0.642188 0.553638
vt 0.854858 0.553638
vt 0.243857 0.391226
vt 0.435091 0.391226
vt 0.065542 0.391226
vt 0.626325 0.391226
vt 0.804640 0.391226
vt 0.065542 0.984676
vt 0.227994 0.822026
vt 0.243857 0.984676
vt 0.015324 0.822026
vt 0.435091 0.822026
vt 0.435091 0.984676
vt 0.642188 0.822026
vt 0.626325 0.984676
vt 0.854858 0.822026
vt 0.804640 0.984676
vt 0.227994 0.553638
vt 0.015324 0.553638
vt 0.435091 0.553638
vt 0.642188 0.553638
vt 0.854858 0.553638
vt 0.243857 0.391226
vt 0.065542 0.391226
vt 0.435091 0.391226
vt 0.626325 0.391226
vt 0.804640 0.391226
vt 0.685309 0.264192
vt 0.495426 0.342724
vt 0.606607 0.342724
vt 0.606776 0.074308
vt 0.416893 0.152841
vt 0.416893 0.264023
vt 0.495595 0.074308
vt 0.685309 0.153010
vt 0.260858 0.057252
vt 0.061953 0.139190
vt 0.143658 0.057252
vt 0.343946 0.254062
vt 0.145993 0.337872
vt 0.061953 0.253007
vt 0.263193 0.337872
vt 0.343946 0.135465
vt 0.383546 0.118826
vt 0.268018 0.043620
vt 0.278022 0.016605
vt 0.359264 0.128938
vt 0.138128 0.043620
vt 0.128016 0.016605
vt 0.046634 0.132059
vt 0.022352 0.122055
vt 0.046634 0.259533
vt 0.022352 0.269646
vt 0.138833 0.351504
vt 0.128829 0.375786
vt 0.268723 0.351504
vt 0.278836 0.375786
vt 0.359264 0.258829
vt 0.383546 0.268832
vt 0.359264 0.128938
vt 0.260858 0.057252
vt 0.268018 0.043620
vt 0.343946 0.135465
vt 0.268018 0.043620
vt 0.143658 0.057252
vt 0.138128 0.043620
vt 0.260858 0.057252
vt 0.138128 0.043620
vt 0.061953 0.139190
vt 0.046634 0.132059
vt 0.143658 0.057252
vt 0.046634 0.132059
vt 0.061953 0.253007
vt 0.046634 0.259533
vt 0.061953 0.139190
vt 0.046634 0.259533
vt 0.145993 0.337872
vt 0.138833 0.351504
vt 0.061953 0.253007
vt 0.138833 0.351504
vt 0.263193 0.337872
vt 0.268723 0.351504
vt 0.145993 0.337872
vt 0.268723 0.351504
vt 0.343946 0.254062
vt 0.359264 0.258829
vt 0.263193 0.337872
vt 0.359264 0.258829
vt 0.343946 0.135465
vt 0.359264 0.128938
vt 0.343946 0.254062
vt 0.948164 0.187654
vt 0.885364 0.023432
vt 0.874268 0.187654
vt 0.980853 0.023432
vt 0.874268 0.187654
vt 0.787231 0.023432
vt 0.798326 0.187654
vt 0.885364 0.023432
vt 0.798326 0.187654
vt 0.691742 0.023432
vt 0.724431 0.187654
vt 0.787231 0.023432
vt 0.724431 0.187654
vt 0.787231 0.023432
vt 0.798326 0.187654
vt 0.691742 0.023432
vt 0.798326 0.187654
vt 0.885364 0.023432
vt 0.874268 0.187654
vt 0.787231 0.023432
vt 0.874268 0.187654
vt 0.980853 0.023432
vt 0.948164 0.187654
vt 0.885364 0.023432
vt 0.818720 0.249125
vt 0.879810 0.357169
vt 0.818720 0.321154
vt 0.940901 0.249125
vt 0.940901 0.321154
vt 0.879810 0.213110
vn 0.902381 -0.430939 -0.000000
vn 0.691319 -0.210135 -0.691319
vn 0.638080 -0.430939 -0.638080
vn 0.977672 -0.210135 -0.000000
vn 0.000000 -0.210135 -0.977672
vn 0.000000 -0.430939 -0.902381
vn 0.638080 -0.430939 0.638080
vn 0.691319 -0.210135 0.691319
vn 0.000000 -0.430939 0.902381
vn 0.000000 -0.210135 0.977672
vn 0.692010 0.205533 -0.692010
vn 0.978650 0.205533 0.000000
vn 0.000000 0.205533 -0.978650
vn 0.692010 0.205533 0.692010
vn 0.000000 0.205533 0.978650
vn 0.641208 0.421550 -0.641208
vn 0.906805 0.421550 0.000000
vn 0.000000 0.421550 -0.906805
vn 0.641208 0.421550 0.641208
vn 0.000000 0.421550 0.906805
vn 0.000000 -0.430939 -0.902381
vn -0.691319 -0.210135 -0.691319
vn -0.638080 -0.430939 -0.638080
vn 0.000000 -0.210135 -0.977672
vn -0.977672 -0.210135 -0.000000
vn -0.902381 -0.430939 -0.000000
vn -0.691319 -0.210135 0.691319
vn -0.638080 -0.430939 0.638080
vn 0.000000 -0.210135 0.977672
vn 0.000000 -0.430939 0.902381
vn -0.692010 0.205533 -0.692010
vn 0.000000 0.205533 -0.978650
vn -0.978650 0.205533 0.000000
vn -0.692010 0.205533 0.692010
vn 0.000000 0.205533 0.978650
vn -0.641208 0.421550 -0.641208
vn 0.000000 0.421550 -0.906805
vn -0.906805 0.421550 0.000000
vn -0.641208 0.421550 0.641208
vn 0.000000 0.421550 0.906805
vn 0.000000 -1.000000 -0.000000
vn 0.000000 -1.000000 -0.000000
vn 0.000000 -1.000000 -0.000000
vn 0.000000 -1.000000 -0.000000
vn 0.000000 -1.000000 -0.000000
vn 0.000000 -1.000000 -0.000000
vn 0.000000 -1.000000 -0.000000
vn 0.000000 -1.000000 -0.000000
vn 0.000000 1.000000 0.000000
vn 0.000000 1.000000 0.000000
vn 0.000000 1.000000 0.000000
vn 0.000000 1.000000 0.000000
vn 0.000000 1.000000 0.000000
vn 0.000000 1.000000 0.000000
vn 0.000000 1.000000 0.000000
vn 0.000000 1.000000 0.000000
vn 0.000000 1.000000 0.000000
vn 0.000000 1.000000 0.000000
vn 0.000000 1.000000 0.000000
vn 0.000000 1.000000 0.000000
vn 0.000000 1.000000 0.000000
vn 0.000000 1.000000 0.000000
vn 0.000000 1.000000 0.000000
vn 0.000000 1.000000 0.000000
vn 0.000000 1.000000 0.000000
vn 0.000000 1.000000 0.000000
vn 0.000000 1.000000 0.000000
vn 0.000000 1.000000 0.000000
vn 0.000000 1.000000 0.000000
vn 0.000000 1.000000 0.000000
vn 0.000000 1.000000 0.000000
vn 0.000000 1.000000 0.000000
vn -0.918635 0.106405 0.380511
vn -0.918635 0.106405 0.380511
vn -0.918635 0.106405 0.380511
vn -0.918635 0.106404 0.380511
vn -0.380511 0.106404 0.918635
vn -0.380511 0.106404 0.918635
vn -0.380511 0.106404 0.918635
vn -0.380511 0.106405 0.918635
vn 0.380511 0.106405 0.918635
vn 0.380511 0.106405 0.918635
vn 0.380511 0.106405 0.918635
vn 0.380511 0.106404 0.918635
vn 0.918635 0.106404 0.380511
vn 0.918635 0.106404 0.380511
vn 0.918635 0.106404 0.380511
vn 0.918635 0.106405 0.380511
vn 0.918635 0.106404 -0.380511
vn 0.918635 0.106404 -0.380511
vn 0.918635 0.106404 -0.380511
vn 0.918635 0.106404 -0.380511
vn 0.380511 0.106404 -0.918635
vn 0.380511 0.106404 -0.918635
vn 0.380511 0.106404 -0.918635
vn 0.380511 0.106405 -0.918635
vn -0.380511 0.106404 -0.918635
vn -0.380511 0.106404 -0.918635
vn -0.380511 0.106404 -0.918635
vn -0.380511 0.106404 -0.918635
vn -0.918635 0.106404 -0.380511
vn -0.918635 0.106404 -0.380511
vn -0.918635 0.106404 -0.380511
vn -0.918635 0.106404 -0.380511
vn 0.860268 -0.115121 -0.496676
vn 0.860268 -0.115121 -0.496676
vn 0.860268 -0.115121 -0.496676
vn 0.860268 -0.115121 -0.496676
vn 0.000000 -0.115121 -0.993351
vn 0.000000 -0.115121 -0.993351
vn 0.000000 -0.115121 -0.993351
vn 0.000000 -0.115121 -0.993351
vn -0.860268 -0.115121 -0.496676
vn -0.860268 -0.115121 -0.496676
vn -0.860268 -0.115121 -0.496676
vn -0.860268 -0.115121 -0.496676
vn -0.860268 -0.115121 0.496676
vn -0.860268 -0.115121 0.496676
vn -0.860268 -0.115121 0.496676
vn -0.860267 -0.115121 0.496676
vn 0.000000 -0.115121 0.993351
vn 0.000000 -0.115121 0.993351
vn 0.000000 -0.115121 0.993351
vn 0.000000 -0.115121 0.993351
vn 0.860268 -0.115121 0.496676
vn 0.860268 -0.115121 0.496676
vn 0.860268 -0.115121 0.496676
vn 0.860268 -0.115121 0.496676
vn 0.000000 1.000000 0.000000
vn 0.000000 1.000000 0.000000
vn 0.000000 1.000000 0.000000
vn 0.000000 1.000000 0.000000
vn 0.000000 1.000000 0.000000
vn 0.000000 1.000000 0.000000
usemtl D38_BARREL_T
f 1/1/1 3/3/3 2/2/2
f 2/2/2 4/4/4 1/1/1
f 5/5/5 2/2/2 3/3/3
f 3/3/3 6/6/6 5/5/5
f 7/7/7 1/1/1 4/4/4
f 4/4/4 8/8/8 7/7/7
f 9/9/9 7/7/7 8/8/8
f 8/8/8 10/10/10 9/9/9
f 4/4/4 2/2/2 11/11/11
f 11/11/11 12/12/12 4/4/4
f 8/8/8 4/4/4 12/12/12
f 2/2/2 5/5/5 13/13/13
f 13/13/13 11/11/11 2/2/2
f 10/10/10 8/8/8 14/14/14
f 12/12/12 14/14/14 8/8/8
f 14/14/14 15/15/15 10/10/10
f 12/12/12 11/11/11 16/16/16
f 16/16/16 17/17/17 12/12/12
f 14/14/14 12/12/12 17/17/17
f 11/11/11 13/13/13 18/18/18
f 18/18/18 16/16/16 11/11/11
f 15/15/15 14/14/14 19/19/19
f 17/17/17 19/19/19 14/14/14
f 19/19/19 20/20/20 15/15/15
f 21/21/21 23/23/23 22/22/22
f 22/22/22 24/24/24 21/21/21
f 25/25/25 22/22/22 23/23/23
f 23/23/23 26/26/26 25/25/25
f 27/27/27 25/25/25 26/26/26
f 26/26/26 28/28/28 27/27/27
f 29/29/29 27/27/27 28/28/28
f 28/28/28 30/30/30 29/29/29
f 24/24/24 22/22/22 31/31/31
f 31/31/31 32/32/32 24/24/24
f 22/22/22 25/25/25 33/33/33
f 33/33/33 31/31/31 22/22/22
f 25/25/25 27/27/27 34/34/34
f 34/34/34 33/33/33 25/25/25
f 27/27/27 29/29/29 35/35/35
f 35/35/35 34/34/34 27/27/27
f 32/32/32 31/31/31 36/36/36
f 36/36/36 37/37/37 32/32/32
f 31/31/31 33/33/33 38/38/38
f 38/38/38 36/36/36 31/31/31
f 33/33/33 34/34/34 39/39/39
f 39/39/39 38/38/38 33/33/33
f 34/34/34 35/35/35 40/40/40
f 40/40/40 39/39/39 34/34/34
f 41/41/41 43/43/43 42/42/42
f 41/41/41 42/42/42 44/44/44
f 42/42/42 45/45/45 44/44/44
f 42/42/42 46/46/46 45/45/45
f 45/45/45 47/47/47 44/44/44
f 48/48/48 41/41/41 44/44/44
f 49/49/49 51/51/51 50/50/50
f 49/49/49 50/50/50 52/52/52
f 50/50/50 53/53/53 52/52/52
f 50/50/50 54/54/54 53/53/53
f 53/53/53 55/55/55 52/52/52
f 56/56/56 49/49/49 52/52/52
f 57/57/57 59/59/59 58/58/58
f 58/58/58 60/60/60 57/57/57
f 61/61/61 58/58/58 59/59/59
f 59/59/59 62/62/62 61/61/61
f 63/63/63 61/61/61 62/62/62
f 62/62/62 64/64/64 63/63/63
f 65/65/65 63/63/63 64/64/64
f 64/64/64 66/66/66 65/65/65
f 67/67/67 65/65/65 66/66/66
f 66/66/66 68/68/68 67/67/67
f 69/69/69 67/67/67 68/68/68
f 68/68/68 70/70/70 69/69/69
f 71/71/71 69/69/69 70/70/70
f 70/70/70 72/72/72 71/71/71
f 72/72/72 57/57/57 60/60/60
f 60/60/60 71/71/71 72/72/72
f 73/73/73 75/75/75 74/74/74
f 74/74/74 76/76/76 73/73/73
f 77/77/77 79/79/79 78/78/78
f 78/78/78 80/80/80 77/77/77
f 81/81/81 83/83/83 82/82/82
f 82/82/82 84/84/84 81/81/81
f 85/85/85 87/87/87 86/86/86
f 86/86/86 88/88/88 85/85/85
f 89/89/89 91/91/91 90/90/90
f 90/90/90 92/92/92 89/89/89
f 93/93/93 95/95/95 94/94/94
f 94/94/94 96/96/96 93/93/93
f 97/97/97 99/99/99 98/98/98
f 98/98/98 100/100/100 97/97/97
f 101/101/101 103/103/103 102/102/102
f 102/102/102 104/104/104 101/101/101
f 105/105/105 107/107/107 106/106/106
f 106/106/106 108/108/108 105/105/105
f 109/109/109 111/111/111 110/110/110
f 110/110/110 112/112/112 109/109/109
f 113/113/113 115/115/115 114/114/114
f 114/114/114 116/116/116 113/113/113
f 117/117/117 119/119/119 118/118/118
f 118/118/118 120/120/120 117/117/117
f 121/121/121 123/123/123 122/122/122
f 122/122/122 124/124/124 121/121/121
f 125/125/125 127/127/127 126/126/126
f 126/126/126 128/128/128 125/125/125
f 129/129/129 131/131/131 130/130/130
f 129/129/129 130/130/130 132/132/132
f 130/130/130 133/133/133 132/132/132
f 134/134/134 129/129/129 132/132/132
