# 
# Wavefront OBJ file
# Created with Kaydara FBX
# 
mtllib d41_bench_t.mtl

g D41_BENCH_T
v 0.312938 -0.500000 0.375118
v 0.445499 -0.250818 0.343079
v 0.458059 -0.500000 0.375118
v 0.325499 -0.250818 0.343079
v 0.458059 -0.500000 -0.276459
v 0.325499 -0.189716 -0.244419
v 0.312938 -0.500000 -0.276459
v 0.445499 -0.189716 -0.244419
v 0.458059 -0.500000 -0.276459
v 0.312938 -0.500000 -0.106598
v 0.458059 -0.500000 -0.106598
v 0.312938 -0.500000 -0.276459
v 0.312938 -0.500000 0.375118
v 0.458059 -0.500000 0.205257
v 0.312938 -0.500000 0.205257
v 0.458059 -0.500000 0.375118
v 0.312938 -0.500000 0.205257
v 0.325499 -0.250818 0.343079
v 0.312938 -0.500000 0.375118
v 0.317913 -0.389481 0.049775
v 0.325499 -0.189716 -0.244419
v 0.312938 -0.500000 -0.106598
v 0.312938 -0.500000 -0.276459
v 0.458059 -0.500000 -0.106598
v 0.445499 -0.189716 -0.244419
v 0.458059 -0.500000 -0.276459
v 0.453084 -0.389481 0.049775
v 0.445499 -0.250818 0.343079
v 0.458059 -0.500000 0.205257
v 0.458059 -0.500000 0.375118
v 0.317913 -0.389481 0.049775
v 0.458059 -0.500000 -0.106598
v 0.312938 -0.500000 -0.106598
v 0.453084 -0.389481 0.049775
v 0.312938 -0.500000 0.205257
v 0.453084 -0.389481 0.049775
v 0.317913 -0.389481 0.049775
v 0.458059 -0.500000 0.205257
v -0.312938 -0.500000 0.375118
v -0.445498 -0.250818 0.343079
v -0.325498 -0.250818 0.343079
v -0.458059 -0.500000 0.375118
v -0.458059 -0.500000 -0.276459
v -0.325498 -0.189716 -0.244419
v -0.445498 -0.189716 -0.244419
v -0.312938 -0.500000 -0.276459
v -0.458059 -0.500000 -0.276459
v -0.312938 -0.500000 -0.106598
v -0.312938 -0.500000 -0.276459
v -0.458059 -0.500000 -0.106598
v -0.312938 -0.500000 0.375118
v -0.458059 -0.500000 0.205257
v -0.458059 -0.500000 0.375118
v -0.312938 -0.500000 0.205257
v -0.312938 -0.500000 0.205257
v -0.325498 -0.250818 0.343079
v -0.317912 -0.389481 0.049775
v -0.312938 -0.500000 0.375118
v -0.325498 -0.189716 -0.244419
v -0.312938 -0.500000 -0.106598
v -0.312938 -0.500000 -0.276459
v -0.458059 -0.500000 -0.106598
v -0.445498 -0.189716 -0.244419
v -0.453084 -0.389481 0.049775
v -0.458059 -0.500000 -0.276459
v -0.445498 -0.250818 0.343079
v -0.458059 -0.500000 0.205257
v -0.458059 -0.500000 0.375118
v -0.317912 -0.389481 0.049775
v -0.458059 -0.500000 -0.106598
v -0.453084 -0.389481 0.049775
v -0.312938 -0.500000 -0.106598
v -0.312938 -0.500000 0.205257
v -0.453084 -0.389481 0.049775
v -0.458059 -0.500000 0.205257
v -0.317912 -0.389481 0.049775
v -0.500000 -0.265565 0.387211
v 0.500000 -0.198875 -0.278730
v -0.500000 -0.198875 -0.278730
v 0.500000 -0.265565 0.387211
v -0.500000 -0.089883 0.387211
v 0.500000 -0.073950 -0.294028
v 0.500000 -0.089883 0.387211
v -0.500000 -0.073950 -0.294028
v -0.500000 -0.265565 0.387211
v 0.500000 -0.089883 0.387211
v 0.500000 -0.265565 0.387211
v -0.500000 -0.089883 0.387211
v 0.500000 -0.265565 0.387211
v 0.500000 -0.073950 -0.294028
v 0.500000 -0.198875 -0.278730
v 0.500000 -0.089883 0.387211
v 0.500000 -0.198875 -0.278730
v -0.500000 -0.073950 -0.294028
v -0.500000 -0.198875 -0.278730
v 0.500000 -0.073950 -0.294028
v -0.500000 -0.198875 -0.278730
v -0.500000 -0.089883 0.387211
v -0.500000 -0.265565 0.387211
v -0.500000 -0.073950 -0.294028
v 0.398243 0.484042 -0.250869
v -0.398243 0.455340 -0.366410
v 0.398243 0.455340 -0.366410
v -0.398243 0.484042 -0.250869
v 0.398243 -0.081179 -0.198802
v -0.398243 0.369034 -0.214653
v 0.398243 0.369034 -0.214653
v -0.398243 -0.081179 -0.198802
v 0.495000 -0.078444 -0.289750
v 0.495000 0.372199 -0.196582
v 0.495000 0.336485 -0.346819
v 0.495000 -0.081662 -0.178099
v 0.495000 0.464394 -0.387211
v 0.495000 0.500000 -0.236973
v -0.398243 -0.078902 -0.270973
v 0.398243 0.340512 -0.328920
v -0.398243 0.340512 -0.328920
v 0.398243 -0.078902 -0.270973
v -0.495000 -0.081662 -0.178099
v -0.495000 0.336485 -0.346819
v -0.495000 0.372199 -0.196582
v -0.495000 -0.078444 -0.289750
v -0.495000 0.500000 -0.236973
v -0.495000 0.464394 -0.387211
v -0.398243 0.484042 -0.250869
v 0.398243 0.369034 -0.214653
v -0.398243 0.369034 -0.214653
v 0.398243 0.484042 -0.250869
v 0.398243 0.455340 -0.366410
v -0.398243 0.340512 -0.328920
v 0.398243 0.340512 -0.328920
v -0.398243 0.455340 -0.366410
v 0.495000 0.500000 -0.236973
v 0.408243 0.464394 -0.387211
v 0.495000 0.464394 -0.387211
v 0.408243 0.500000 -0.236973
v -0.495000 0.464394 -0.387211
v -0.408243 0.500000 -0.236973
v -0.495000 0.500000 -0.236973
v -0.408243 0.464394 -0.387211
v 0.495000 -0.081662 -0.178099
v 0.408243 0.372199 -0.196582
v 0.495000 0.372199 -0.196582
v 0.408243 -0.081662 -0.178099
v -0.495000 0.372199 -0.196582
v -0.408243 -0.081662 -0.178099
v -0.495000 -0.081662 -0.178099
v -0.408243 0.372199 -0.196582
v -0.495000 -0.078444 -0.289750
v -0.408243 0.336485 -0.346819
v -0.495000 0.336485 -0.346819
v -0.408243 -0.078444 -0.289750
v 0.495000 0.336485 -0.346819
v 0.408243 -0.078444 -0.289750
v 0.495000 -0.078444 -0.289750
v 0.408243 0.336485 -0.346819
v -0.495000 0.500000 -0.236973
v -0.408243 0.372199 -0.196582
v -0.495000 0.372199 -0.196582
v -0.408243 0.500000 -0.236973
v 0.495000 0.372199 -0.196582
v 0.408243 0.500000 -0.236973
v 0.495000 0.500000 -0.236973
v 0.408243 0.372199 -0.196582
v 0.495000 0.464394 -0.387211
v 0.408243 0.336485 -0.346819
v 0.495000 0.336485 -0.346819
v 0.408243 0.464394 -0.387211
v -0.495000 0.336485 -0.346819
v -0.408243 0.464394 -0.387211
v -0.495000 0.464394 -0.387211
v -0.408243 0.336485 -0.346819
v -0.408243 -0.078444 -0.289750
v -0.398243 0.340512 -0.328920
v -0.408243 0.336485 -0.346819
v -0.398243 -0.078902 -0.270973
v -0.408243 0.336485 -0.346819
v -0.398243 0.455340 -0.366410
v -0.408243 0.464394 -0.387211
v -0.398243 0.340512 -0.328920
v -0.408243 0.464394 -0.387211
v -0.398243 0.484042 -0.250869
v -0.408243 0.500000 -0.236973
v -0.398243 0.484042 -0.250869
v -0.408243 0.464394 -0.387211
v -0.398243 0.455340 -0.366410
v -0.408243 0.500000 -0.236973
v -0.398243 0.369034 -0.214653
v -0.408243 0.372199 -0.196582
v -0.398243 0.484042 -0.250869
v -0.408243 0.372199 -0.196582
v -0.398243 -0.081179 -0.198802
v -0.408243 -0.081662 -0.178099
v -0.398243 -0.081179 -0.198802
v -0.408243 0.372199 -0.196582
v -0.398243 0.369034 -0.214653
v 0.408243 -0.081662 -0.178099
v 0.398243 0.369034 -0.214653
v 0.408243 0.372199 -0.196582
v 0.398243 0.369034 -0.214653
v 0.408243 -0.081662 -0.178099
v 0.398243 -0.081179 -0.198802
v 0.408243 0.372199 -0.196582
v 0.398243 0.484042 -0.250869
v 0.408243 0.500000 -0.236973
v 0.398243 0.369034 -0.214653
v 0.408243 0.500000 -0.236973
v 0.398243 0.455340 -0.366410
v 0.408243 0.464394 -0.387211
v 0.398243 0.455340 -0.366410
v 0.408243 0.500000 -0.236973
v 0.398243 0.484042 -0.250869
v 0.408243 0.464394 -0.387211
v 0.398243 0.340512 -0.328920
v 0.408243 0.336485 -0.346819
v 0.398243 0.455340 -0.366410
v 0.408243 0.336485 -0.346819
v 0.398243 -0.078902 -0.270973
v 0.408243 -0.078444 -0.289750
v 0.398243 0.340512 -0.328920
vt 0.909586 0.983903
vt 0.844464 0.861898
vt 0.838293 0.983903
vt 0.903416 0.861898
vt 0.733586 0.986214
vt 0.798708 0.834292
vt 0.804879 0.986214
vt 0.739757 0.834292
vt 0.642471 0.985125
vt 0.699249 0.930071
vt 0.642471 0.930071
vt 0.699249 0.985125
vt 0.699249 0.985125
vt 0.642471 0.930071
vt 0.699249 0.930071
vt 0.642471 0.985125
vt 0.878324 0.680879
vt 0.939891 0.567093
vt 0.954203 0.680879
vt 0.808867 0.630412
vt 0.677446 0.539191
vt 0.739013 0.680879
vt 0.663133 0.680879
vt 0.705821 0.832280
vt 0.644253 0.690592
vt 0.629941 0.832280
vt 0.775675 0.781812
vt 0.906698 0.718494
vt 0.845131 0.832280
vt 0.921011 0.832280
vt 0.697303 0.854346
vt 0.642471 0.930071
vt 0.699249 0.930071
vt 0.644417 0.854346
vt 0.699249 0.930071
vt 0.644417 0.854346
vt 0.697303 0.854346
vt 0.642471 0.930071
vt 0.909586 0.983903
vt 0.844464 0.861898
vt 0.903416 0.861898
vt 0.838293 0.983903
vt 0.733586 0.986214
vt 0.798708 0.834292
vt 0.739757 0.834292
vt 0.804879 0.986214
vt 0.642471 0.985125
vt 0.699249 0.930071
vt 0.699249 0.985125
vt 0.642471 0.930071
vt 0.699249 0.985125
vt 0.642471 0.930071
vt 0.642471 0.985125
vt 0.699249 0.930071
vt 0.878324 0.680879
vt 0.939891 0.567093
vt 0.808867 0.630412
vt 0.954203 0.680879
vt 0.677446 0.539191
vt 0.739013 0.680879
vt 0.663133 0.680879
vt 0.705820 0.832280
vt 0.644253 0.690592
vt 0.775675 0.781812
vt 0.629941 0.832280
vt 0.906698 0.718493
vt 0.845131 0.832280
vt 0.921011 0.832280
vt 0.697303 0.854346
vt 0.642471 0.930071
vt 0.644417 0.854346
vt 0.699249 0.930071
vt 0.699249 0.930071
vt 0.644417 0.854346
vt 0.642471 0.930071
vt 0.697303 0.854346
vt 0.016574 0.275642
vt 0.430027 0.008756
vt 0.016574 0.008756
vt 0.430027 0.275642
vt 0.447973 0.431591
vt 0.976697 0.082274
vt 0.976697 0.431591
vt 0.447973 0.082274
vt 0.447973 0.528598
vt 0.976697 0.431591
vt 0.976697 0.528598
vt 0.447973 0.431591
vt 0.407628 0.389076
vt 0.086016 0.298648
vt 0.093239 0.357603
vt 0.407628 0.306167
vt 0.976697 0.011030
vt 0.447973 0.082274
vt 0.447973 0.011030
vt 0.976697 0.082274
vt 0.093239 0.357603
vt 0.407628 0.306167
vt 0.407628 0.389076
vt 0.086016 0.298648
vt 0.549072 0.635390
vt 0.078841 0.554598
vt 0.549072 0.554598
vt 0.078841 0.635390
vt 0.549072 0.984780
vt 0.078841 0.722423
vt 0.549072 0.722423
vt 0.078841 0.984780
vt 0.368686 0.414888
vt 0.099008 0.480186
vt 0.117293 0.390021
vt 0.373038 0.481243
vt 0.039305 0.368791
vt 0.021085 0.458954
vt 0.078841 0.984780
vt 0.549072 0.722423
vt 0.078841 0.722423
vt 0.549072 0.984780
vt 0.373038 0.481243
vt 0.117293 0.390021
vt 0.099008 0.480186
vt 0.368686 0.414888
vt 0.021085 0.458954
vt 0.039305 0.368791
vt 0.078841 0.648746
vt 0.549072 0.722423
vt 0.078841 0.722423
vt 0.549072 0.648746
vt 0.549072 0.648746
vt 0.078841 0.722423
vt 0.549072 0.722423
vt 0.078841 0.648746
vt 0.615920 0.641215
vt 0.562996 0.544303
vt 0.615920 0.544303
vt 0.562996 0.641215
vt 0.011994 0.544304
vt 0.064918 0.641215
vt 0.011994 0.641215
vt 0.064918 0.544304
vt 0.615920 0.984780
vt 0.562996 0.722683
vt 0.615920 0.722683
vt 0.562996 0.984780
vt 0.011994 0.722683
vt 0.064918 0.984780
vt 0.011994 0.984780
vt 0.064918 0.722683
vt 0.011994 0.984780
vt 0.064918 0.722683
vt 0.011994 0.722683
vt 0.064918 0.984780
vt 0.615920 0.722683
vt 0.562996 0.984780
vt 0.615920 0.984780
vt 0.562996 0.722683
vt 0.011994 0.641215
vt 0.064918 0.722683
vt 0.011994 0.722683
vt 0.064918 0.641215
vt 0.615920 0.722683
vt 0.562996 0.641215
vt 0.615920 0.641215
vt 0.562996 0.722683
vt 0.615920 0.641215
vt 0.562996 0.722683
vt 0.615920 0.722683
vt 0.562996 0.641215
vt 0.011994 0.722683
vt 0.064918 0.641215
vt 0.011994 0.641215
vt 0.064918 0.722683
vt 0.064918 0.984780
vt 0.078841 0.722423
vt 0.064918 0.722683
vt 0.078841 0.984780
vt 0.064918 0.722683
vt 0.078841 0.648746
vt 0.064918 0.641215
vt 0.078841 0.722423
vt 0.064918 0.544304
vt 0.078841 0.635390
vt 0.064918 0.641215
vt 0.078841 0.635390
vt 0.064918 0.544304
vt 0.078841 0.554598
vt 0.064918 0.641215
vt 0.078841 0.722423
vt 0.064918 0.722683
vt 0.078841 0.648746
vt 0.064918 0.722683
vt 0.078841 0.984780
vt 0.064918 0.984780
vt 0.078841 0.984780
vt 0.064918 0.722683
vt 0.078841 0.722423
vt 0.562996 0.984780
vt 0.549072 0.722423
vt 0.562996 0.722683
vt 0.549072 0.722423
vt 0.562996 0.984780
vt 0.549072 0.984780
vt 0.562996 0.722683
vt 0.549072 0.648746
vt 0.562996 0.641215
vt 0.549072 0.722423
vt 0.562996 0.641215
vt 0.549072 0.554598
vt 0.562996 0.544303
vt 0.549072 0.554598
vt 0.562996 0.641215
vt 0.549072 0.635390
vt 0.562996 0.641215
vt 0.549072 0.722423
vt 0.562996 0.722683
vt 0.549072 0.648746
vt 0.562996 0.722683
vt 0.549072 0.984780
vt 0.562996 0.984780
vt 0.549072 0.722423
vn 0.000000 0.127530 0.991835
vn 0.000000 0.127530 0.991835
vn 0.000000 0.127530 0.991835
vn 0.000000 0.127530 0.991835
vn 0.000000 0.102713 -0.994711
vn 0.000000 0.102713 -0.994711
vn 0.000000 0.102713 -0.994711
vn -0.000000 0.102713 -0.994711
vn 0.000000 -1.000000 -0.000000
vn 0.000000 -1.000000 -0.000000
vn 0.000000 -1.000000 -0.000000
vn 0.000000 -1.000000 -0.000000
vn 0.000000 -1.000000 0.000000
vn 0.000000 -1.000000 0.000000
vn 0.000000 -1.000000 0.000000
vn 0.000000 -1.000000 0.000000
vn -0.998732 0.050345 0.000000
vn -0.998732 0.050345 0.000000
vn -0.998732 0.050345 0.000000
vn -0.998803 0.048828 0.002749
vn -0.999134 0.041529 0.002436
vn -0.999134 0.041529 0.002436
vn -0.999182 0.040449 0.000000
vn 0.999182 0.040449 0.000000
vn 0.999182 0.040449 0.000000
vn 0.999182 0.040449 0.000000
vn 0.999134 0.041529 0.002436
vn 0.998803 0.048828 0.002748
vn 0.998803 0.048828 0.002748
vn 0.998732 0.050345 0.000000
vn 0.000000 -0.816628 0.577164
vn 0.000000 -0.816628 0.577164
vn 0.000000 -0.816628 0.577164
vn 0.000000 -0.816628 0.577164
vn 0.000000 -0.815070 -0.579363
vn 0.000000 -0.815070 -0.579363
vn 0.000000 -0.815070 -0.579363
vn 0.000000 -0.815070 -0.579363
vn 0.000000 0.127530 0.991835
vn 0.000000 0.127530 0.991835
vn 0.000000 0.127530 0.991835
vn 0.000000 0.127530 0.991835
vn 0.000000 0.102713 -0.994711
vn 0.000000 0.102713 -0.994711
vn 0.000000 0.102713 -0.994711
vn 0.000000 0.102713 -0.994711
vn 0.000000 -1.000000 -0.000000
vn 0.000000 -1.000000 -0.000000
vn 0.000000 -1.000000 -0.000000
vn 0.000000 -1.000000 -0.000000
vn 0.000000 -1.000000 0.000000
vn 0.000000 -1.000000 0.000000
vn 0.000000 -1.000000 0.000000
vn 0.000000 -1.000000 0.000000
vn 0.998803 0.048828 0.002749
vn 0.998803 0.048828 0.002749
vn 0.998803 0.048828 0.002749
vn 0.998732 0.050345 0.000000
vn 0.999182 0.040449 0.000000
vn 0.999182 0.040449 0.000000
vn 0.999182 0.040449 0.000000
vn -0.999134 0.041529 0.002436
vn -0.999134 0.041529 0.002436
vn -0.999134 0.041529 0.002436
vn -0.999182 0.040449 0.000000
vn -0.998732 0.050345 0.000000
vn -0.998732 0.050345 0.000000
vn -0.998732 0.050345 0.000000
vn 0.000000 -0.816628 0.577164
vn 0.000000 -0.816628 0.577164
vn 0.000000 -0.816628 0.577164
vn 0.000000 -0.816628 0.577164
vn 0.000000 -0.815070 -0.579363
vn 0.000000 -0.815070 -0.579363
vn 0.000000 -0.815070 -0.579363
vn 0.000000 -0.815070 -0.579363
vn 0.000000 -0.995023 -0.099647
vn 0.000000 -0.995023 -0.099647
vn 0.000000 -0.995023 -0.099647
vn 0.000000 -0.995023 -0.099647
vn 0.000000 0.999727 0.023382
vn 0.000000 0.999727 0.023382
vn 0.000000 0.999727 0.023382
vn 0.000000 0.999727 0.023382
vn 0.000000 -0.000000 1.000000
vn 0.000000 -0.000000 1.000000
vn 0.000000 -0.000000 1.000000
vn 0.000000 -0.000000 1.000000
vn 1.000000 0.000000 0.000000
vn 1.000000 0.000000 0.000000
vn 1.000000 0.000000 0.000000
vn 1.000000 0.000000 0.000000
vn 0.000000 -0.121553 -0.992585
vn 0.000000 -0.121553 -0.992585
vn 0.000000 -0.121553 -0.992585
vn 0.000000 -0.121553 -0.992585
vn -1.000000 0.000000 0.000000
vn -1.000000 0.000000 0.000000
vn -1.000000 0.000000 0.000000
vn -1.000000 0.000000 0.000000
vn 0.000000 0.970504 -0.241084
vn 0.000000 0.970504 -0.241084
vn 0.000000 0.970504 -0.241084
vn 0.000000 0.970504 -0.241085
vn 0.000000 0.035187 0.999381
vn 0.000000 0.035187 0.999381
vn 0.000000 0.035187 0.999381
vn 0.000000 0.035187 0.999381
vn 1.000000 0.000000 0.000000
vn 1.000000 0.000000 0.000000
vn 1.000000 0.000000 0.000000
vn 1.000000 -0.000000 0.000001
vn 1.000000 0.000000 0.000000
vn 1.000000 0.000000 0.000000
vn 0.000000 -0.136862 -0.990590
vn 0.000000 -0.136862 -0.990590
vn 0.000000 -0.136862 -0.990590
vn 0.000000 -0.136862 -0.990590
vn -1.000000 0.000000 0.000000
vn -1.000000 0.000000 0.000000
vn -1.000000 0.000000 0.000000
vn -1.000000 0.000000 0.000000
vn -1.000000 0.000000 0.000000
vn -1.000000 0.000000 0.000000
vn 0.000000 0.300358 0.953826
vn 0.000000 0.300358 0.953826
vn 0.000000 0.300358 0.953826
vn 0.000000 0.300358 0.953826
vn 0.000000 -0.310367 -0.950617
vn 0.000000 -0.310367 -0.950617
vn 0.000000 -0.310367 -0.950617
vn 0.000000 -0.310367 -0.950617
vn 0.000000 0.973047 -0.230608
vn 0.000000 0.973047 -0.230608
vn 0.000000 0.973047 -0.230608
vn 0.000000 0.973047 -0.230608
vn 0.000000 0.973047 -0.230609
vn 0.000000 0.973047 -0.230609
vn 0.000000 0.973047 -0.230609
vn 0.000000 0.973047 -0.230609
vn 0.000000 0.040688 0.999172
vn 0.000000 0.040688 0.999172
vn 0.000000 0.040688 0.999172
vn 0.000000 0.040688 0.999172
vn 0.000000 0.040688 0.999172
vn 0.000000 0.040688 0.999172
vn 0.000000 0.040688 0.999172
vn 0.000000 0.040688 0.999172
vn 0.000000 -0.136257 -0.990674
vn 0.000000 -0.136257 -0.990674
vn 0.000000 -0.136257 -0.990674
vn 0.000000 -0.136257 -0.990674
vn 0.000000 -0.136257 -0.990673
vn 0.000000 -0.136257 -0.990673
vn 0.000000 -0.136257 -0.990673
vn -0.000001 -0.136257 -0.990674
vn 0.000000 0.301359 0.953511
vn 0.000000 0.301359 0.953511
vn 0.000000 0.301359 0.953511
vn 0.000000 0.301359 0.953511
vn 0.000000 0.301359 0.953511
vn 0.000000 0.301359 0.953511
vn 0.000000 0.301359 0.953511
vn 0.000000 0.301359 0.953511
vn -0.000001 -0.301126 -0.953584
vn -0.000001 -0.301126 -0.953584
vn -0.000001 -0.301126 -0.953584
vn 0.000000 -0.301127 -0.953584
vn 0.000000 -0.301126 -0.953584
vn 0.000000 -0.301126 -0.953584
vn 0.000000 -0.301126 -0.953584
vn 0.000000 -0.301126 -0.953584
vn 0.877320 -0.065390 -0.475431
vn 0.877320 -0.065390 -0.475431
vn 0.877320 -0.065390 -0.475431
vn 0.880111 -0.064977 -0.470301
vn 0.863341 -0.151954 -0.481198
vn 0.863341 -0.151954 -0.481198
vn 0.863341 -0.151954 -0.481198
vn 0.877143 -0.149047 -0.456513
vn 0.776510 0.613122 -0.145308
vn 0.776510 0.613122 -0.145308
vn 0.776510 0.613122 -0.145308
vn 0.809785 0.569420 -0.141451
vn 0.809785 0.569420 -0.141451
vn 0.809785 0.569420 -0.141451
vn 0.876256 0.145209 0.459445
vn 0.876256 0.145209 0.459445
vn 0.876256 0.145209 0.459445
vn 0.874698 0.145575 0.462290
vn 0.900150 0.017723 0.435219
vn 0.900150 0.017723 0.435219
vn 0.900150 0.017723 0.435219
vn 0.876103 0.016964 0.481825
vn 0.876103 0.016964 0.481825
vn 0.876103 0.016964 0.481825
vn -0.876256 0.019606 0.481447
vn -0.876256 0.019606 0.481447
vn -0.876256 0.019606 0.481447
vn -0.900208 0.015322 0.435190
vn -0.900208 0.015322 0.435190
vn -0.900208 0.015322 0.435190
vn -0.874829 0.145988 0.461911
vn -0.874829 0.145988 0.461911
vn -0.874829 0.145988 0.461911
vn -0.876284 0.144711 0.459549
vn -0.805793 0.576235 -0.136565
vn -0.805793 0.576235 -0.136565
vn -0.805793 0.576235 -0.136565
vn -0.771787 0.617125 -0.153301
vn -0.771787 0.617125 -0.153301
vn -0.771787 0.617125 -0.153301
vn -0.877319 -0.144513 -0.457631
vn -0.877319 -0.144513 -0.457631
vn -0.877319 -0.144513 -0.457631
vn -0.861455 -0.157615 -0.482755
vn -0.880130 -0.064686 -0.470304
vn -0.880130 -0.064686 -0.470304
vn -0.880130 -0.064686 -0.470304
vn -0.877330 -0.065678 -0.475372
usemtl D41_BENCH_T
f 1/1/1 3/3/3 2/2/2
f 2/2/2 4/4/4 1/1/1
f 5/5/5 7/7/7 6/6/6
f 6/6/6 8/8/8 5/5/5
f 9/9/9 11/11/11 10/10/10
f 10/10/10 12/12/12 9/9/9
f 13/13/13 15/15/15 14/14/14
f 14/14/14 16/16/16 13/13/13
f 17/17/17 19/19/19 18/18/18
f 18/18/18 20/20/20 17/17/17
f 20/20/20 18/18/18 21/21/21
f 22/22/22 20/20/20 21/21/21
f 21/21/21 23/23/23 22/22/22
f 24/24/24 26/26/26 25/25/25
f 25/25/25 27/27/27 24/24/24
f 27/27/27 25/25/25 28/28/28
f 29/29/29 27/27/27 28/28/28
f 28/28/28 30/30/30 29/29/29
f 31/31/31 33/33/33 32/32/32
f 32/32/32 34/34/34 31/31/31
f 35/35/35 37/37/37 36/36/36
f 36/36/36 38/38/38 35/35/35
f 39/39/39 41/41/41 40/40/40
f 40/40/40 42/42/42 39/39/39
f 43/43/43 45/45/45 44/44/44
f 44/44/44 46/46/46 43/43/43
f 47/47/47 49/49/49 48/48/48
f 48/48/48 50/50/50 47/47/47
f 51/51/51 53/53/53 52/52/52
f 52/52/52 54/54/54 51/51/51
f 55/55/55 57/57/57 56/56/56
f 56/56/56 58/58/58 55/55/55
f 57/57/57 59/59/59 56/56/56
f 59/59/59 57/57/57 60/60/60
f 60/60/60 61/61/61 59/59/59
f 62/62/62 64/64/64 63/63/63
f 63/63/63 65/65/65 62/62/62
f 64/64/64 66/66/66 63/63/63
f 66/66/66 64/64/64 67/67/67
f 67/67/67 68/68/68 66/66/66
f 69/69/69 71/71/71 70/70/70
f 70/70/70 72/72/72 69/69/69
f 73/73/73 75/75/75 74/74/74
f 74/74/74 76/76/76 73/73/73
f 77/77/77 79/79/79 78/78/78
f 78/78/78 80/80/80 77/77/77
f 81/81/81 83/83/83 82/82/82
f 82/82/82 84/84/84 81/81/81
f 85/85/85 87/87/87 86/86/86
f 86/86/86 88/88/88 85/85/85
f 89/89/89 91/91/91 90/90/90
f 90/90/90 92/92/92 89/89/89
f 93/93/93 95/95/95 94/94/94
f 94/94/94 96/96/96 93/93/93
f 97/97/97 99/99/99 98/98/98
f 98/98/98 100/100/100 97/97/97
f 101/101/101 103/103/103 102/102/102
f 102/102/102 104/104/104 101/101/101
f 105/105/105 107/107/107 106/106/106
f 106/106/106 108/108/108 105/105/105
f 109/109/109 111/111/111 110/110/110
f 110/110/110 112/112/112 109/109/109
f 110/110/110 111/111/111 113/113/113
f 113/113/113 114/114/114 110/110/110
f 115/115/115 117/117/117 116/116/116
f 116/116/116 118/118/118 115/115/115
f 119/119/119 121/121/121 120/120/120
f 120/120/120 122/122/122 119/119/119
f 120/120/120 121/121/121 123/123/123
f 123/123/123 124/124/124 120/120/120
f 125/125/125 127/127/127 126/126/126
f 126/126/126 128/128/128 125/125/125
f 129/129/129 131/131/131 130/130/130
f 130/130/130 132/132/132 129/129/129
f 133/133/133 135/135/135 134/134/134
f 134/134/134 136/136/136 133/133/133
f 137/137/137 139/139/139 138/138/138
f 138/138/138 140/140/140 137/137/137
f 141/141/141 143/143/143 142/142/142
f 142/142/142 144/144/144 141/141/141
f 145/145/145 147/147/147 146/146/146
f 146/146/146 148/148/148 145/145/145
f 149/149/149 151/151/151 150/150/150
f 150/150/150 152/152/152 149/149/149
f 153/153/153 155/155/155 154/154/154
f 154/154/154 156/156/156 153/153/153
f 157/157/157 159/159/159 158/158/158
f 158/158/158 160/160/160 157/157/157
f 161/161/161 163/163/163 162/162/162
f 162/162/162 164/164/164 161/161/161
f 165/165/165 167/167/167 166/166/166
f 166/166/166 168/168/168 165/165/165
f 169/169/169 171/171/171 170/170/170
f 170/170/170 172/172/172 169/169/169
f 173/173/173 175/175/175 174/174/174
f 174/174/174 176/176/176 173/173/173
f 177/177/177 179/179/179 178/178/178
f 178/178/178 180/180/180 177/177/177
f 181/181/181 183/183/183 182/182/182
f 184/184/184 186/186/186 185/185/185
f 187/187/187 189/189/189 188/188/188
f 188/188/188 190/190/190 187/187/187
f 191/191/191 193/193/193 192/192/192
f 194/194/194 196/196/196 195/195/195
f 197/197/197 199/199/199 198/198/198
f 200/200/200 202/202/202 201/201/201
f 203/203/203 205/205/205 204/204/204
f 204/204/204 206/206/206 203/203/203
f 207/207/207 209/209/209 208/208/208
f 210/210/210 212/212/212 211/211/211
f 213/213/213 215/215/215 214/214/214
f 214/214/214 216/216/216 213/213/213
f 217/217/217 219/219/219 218/218/218
f 218/218/218 220/220/220 217/217/217
