# 
# Wavefront OBJ file
# Created with Kaydara FBX
# 
mtllib d43_torch_t.mtl

g D43_TORCH_T
v -0.037766 -0.494376 -0.442061
v 0.037766 -0.440967 -0.495470
v -0.037766 -0.440967 -0.495470
v 0.037766 -0.494376 -0.442061
v 0.037766 -0.494376 -0.442061
v -0.037766 -0.224193 -0.171878
v 0.037766 -0.224193 -0.171878
v -0.037766 -0.494376 -0.442061
v 0.037766 -0.440967 -0.495470
v 0.037766 -0.224193 -0.171878
v 0.037766 -0.170785 -0.225287
v 0.037766 -0.494376 -0.442061
v 0.052326 -0.184902 -0.111995
v -0.052326 -0.231194 -0.158287
v -0.052326 -0.184902 -0.111995
v 0.052326 -0.231194 -0.158287
v 0.052326 -0.110901 -0.185996
v 0.052326 -0.231194 -0.158287
v 0.052326 -0.184902 -0.111995
v 0.052326 -0.157193 -0.232288
v -0.037766 -0.224193 -0.171878
v 0.052326 -0.231194 -0.158287
v 0.037766 -0.224193 -0.171878
v -0.052326 -0.231194 -0.158287
v 0.037766 -0.224193 -0.171878
v 0.052326 -0.157193 -0.232288
v 0.037766 -0.170785 -0.225287
v 0.052326 -0.231194 -0.158287
v 0.052326 -0.110901 -0.185996
v -0.052326 -0.184902 -0.111995
v -0.052326 -0.110901 -0.185996
v 0.052326 -0.184902 -0.111995
v -0.037766 -0.440967 -0.495470
v 0.037766 -0.170785 -0.225287
v -0.037766 -0.170785 -0.225287
v 0.037766 -0.440967 -0.495470
v -0.037766 -0.494376 -0.442061
v -0.037766 -0.170785 -0.225287
v -0.037766 -0.224193 -0.171878
v -0.037766 -0.440967 -0.495470
v -0.052326 -0.110901 -0.185996
v 0.052326 -0.157193 -0.232288
v 0.052326 -0.110901 -0.185996
v -0.052326 -0.157193 -0.232288
v -0.052326 -0.184902 -0.111995
v -0.052326 -0.157193 -0.232288
v -0.052326 -0.110901 -0.185996
v -0.052326 -0.231194 -0.158287
v 0.037766 -0.170785 -0.225287
v -0.052326 -0.157193 -0.232288
v -0.037766 -0.170785 -0.225287
v 0.052326 -0.157193 -0.232288
v -0.037766 -0.170785 -0.225287
v -0.052326 -0.231194 -0.158287
v -0.037766 -0.224193 -0.171878
v -0.052326 -0.157193 -0.232288
vt 0.975137 0.141398
vt 0.807126 0.059444
vt 0.975137 0.059444
vt 0.807126 0.141398
vt 0.518419 0.989416
vt 0.841921 0.198004
vt 0.518419 0.198004
vt 0.841921 0.989416
vt 0.189492 0.989416
vt 0.518419 0.198004
vt 0.189492 0.198004
vt 0.518419 0.989416
vt 0.459980 0.008559
vt 0.017756 0.141351
vt 0.017756 0.008559
vt 0.459980 0.141351
vt 0.017756 0.008559
vt 0.459980 0.141351
vt 0.459980 0.008559
vt 0.017756 0.141351
vt 0.075672 0.174501
vt 0.459980 0.141351
vt 0.402064 0.174501
vt 0.017756 0.141351
vt 0.402064 0.174501
vt 0.017756 0.141351
vt 0.075672 0.174501
vt 0.459980 0.141351
vt 0.772126 0.022532
vt 0.490150 0.141483
vt 0.490150 0.022532
vt 0.772126 0.141483
vt 0.518419 0.989416
vt 0.841921 0.198004
vt 0.518419 0.198004
vt 0.841921 0.989416
vt 0.189492 0.989416
vt 0.518419 0.198004
vt 0.189492 0.198004
vt 0.518419 0.989416
vt 0.459980 0.008559
vt 0.017756 0.141351
vt 0.017756 0.008559
vt 0.459980 0.141351
vt 0.017756 0.008559
vt 0.459980 0.141351
vt 0.459980 0.008559
vt 0.017756 0.141351
vt 0.075672 0.174501
vt 0.459980 0.141351
vt 0.402064 0.174501
vt 0.017756 0.141351
vt 0.402064 0.174501
vt 0.017756 0.141351
vt 0.075672 0.174501
vt 0.459980 0.141351
vn 0.000000 -0.707107 -0.707107
vn 0.000000 -0.707107 -0.707107
vn 0.000000 -0.707107 -0.707107
vn 0.000000 -0.707107 -0.707107
vn -0.000000 -0.707107 0.707107
vn -0.000000 -0.707107 0.707107
vn -0.000000 -0.707107 0.707107
vn 0.000000 -0.707107 0.707107
vn 1.000000 0.000000 0.000000
vn 1.000000 0.000000 0.000000
vn 1.000000 0.000000 0.000000
vn 1.000000 0.000000 0.000000
vn 0.000000 -0.707107 0.707106
vn 0.000000 -0.707107 0.707106
vn 0.000000 -0.707107 0.707106
vn -0.000000 -0.707107 0.707107
vn 1.000000 0.000000 0.000000
vn 1.000000 0.000000 0.000000
vn 1.000000 0.000000 0.000000
vn 1.000000 0.000000 0.000000
vn -0.000000 -0.889003 -0.457902
vn -0.000000 -0.889003 -0.457902
vn -0.000000 -0.889003 -0.457902
vn 0.000000 -0.889002 -0.457904
vn 0.304834 -0.673453 -0.673452
vn 0.304834 -0.673453 -0.673452
vn 0.304834 -0.673453 -0.673452
vn 0.304834 -0.673453 -0.673452
vn 0.000000 0.707107 0.707106
vn 0.000000 0.707107 0.707106
vn 0.000000 0.707107 0.707106
vn 0.000000 0.707107 0.707107
vn 0.000000 0.707107 -0.707107
vn 0.000000 0.707107 -0.707107
vn 0.000000 0.707107 -0.707107
vn 0.000000 0.707107 -0.707107
vn -1.000000 0.000000 -0.000000
vn -1.000000 0.000000 -0.000000
vn -1.000000 0.000000 -0.000000
vn -1.000000 0.000000 0.000000
vn 0.000000 0.707106 -0.707107
vn 0.000000 0.707106 -0.707107
vn 0.000000 0.707106 -0.707107
vn 0.000000 0.707106 -0.707107
vn -1.000000 0.000000 0.000000
vn -1.000000 0.000000 0.000000
vn -1.000000 0.000000 0.000000
vn -1.000000 0.000000 0.000000
vn -0.000000 -0.457904 -0.889002
vn -0.000000 -0.457904 -0.889002
vn -0.000000 -0.457904 -0.889002
vn 0.000000 -0.457902 -0.889002
vn -0.304832 -0.673453 -0.673453
vn -0.304832 -0.673453 -0.673453
vn -0.304832 -0.673453 -0.673453
vn -0.304832 -0.673453 -0.673453
usemtl D43_TORCH_T
f 1/1/1 3/3/3 2/2/2
f 2/2/2 4/4/4 1/1/1
f 5/5/5 7/7/7 6/6/6
f 6/6/6 8/8/8 5/5/5
f 9/9/9 11/11/11 10/10/10
f 10/10/10 12/12/12 9/9/9
f 13/13/13 15/15/15 14/14/14
f 14/14/14 16/16/16 13/13/13
f 17/17/17 19/19/19 18/18/18
f 18/18/18 20/20/20 17/17/17
f 21/21/21 23/23/23 22/22/22
f 22/22/22 24/24/24 21/21/21
f 25/25/25 27/27/27 26/26/26
f 26/26/26 28/28/28 25/25/25
f 29/29/29 31/31/31 30/30/30
f 30/30/30 32/32/32 29/29/29
f 33/33/33 35/35/35 34/34/34
f 34/34/34 36/36/36 33/33/33
f 37/37/37 39/39/39 38/38/38
f 38/38/38 40/40/40 37/37/37
f 41/41/41 43/43/43 42/42/42
f 42/42/42 44/44/44 41/41/41
f 45/45/45 47/47/47 46/46/46
f 46/46/46 48/48/48 45/45/45
f 49/49/49 51/51/51 50/50/50
f 50/50/50 52/52/52 49/49/49
f 53/53/53 55/55/55 54/54/54
f 54/54/54 56/56/56 53/53/53
