# 
# Wavefront OBJ file
# Created with Kaydara FBX
# 
mtllib d44_flag_01m.mtl

g Dummy_root
v -0.250000 -0.500000 0.250000
v 0.250000 -0.500000 -0.250000
v -0.250000 -0.500000 -0.250000
v 0.250000 -0.500000 0.250000
v -0.212920 -0.320000 0.212920
v 0.212920 -0.320000 -0.212920
v 0.212920 -0.320000 0.212920
v -0.212920 -0.320000 -0.212920
v -0.250000 -0.500000 0.250000
v 0.212920 -0.320000 0.212920
v 0.250000 -0.500000 0.250000
v -0.212920 -0.320000 0.212920
v 0.250000 -0.500000 0.250000
v 0.212920 -0.320000 -0.212920
v 0.250000 -0.500000 -0.250000
v 0.212920 -0.320000 0.212920
v 0.250000 -0.500000 -0.250000
v -0.212920 -0.320000 -0.212920
v -0.250000 -0.500000 -0.250000
v 0.212920 -0.320000 -0.212920
v -0.250000 -0.500000 -0.250000
v -0.212920 -0.320000 0.212920
v -0.250000 -0.500000 0.250000
v -0.212920 -0.320000 -0.212920
v -0.400000 0.865276 0.186359
v 0.400000 1.365138 0.182236
v 0.400000 0.865276 0.186359
v -0.400000 1.365138 0.182236
v -0.400000 0.366907 0.146933
v 0.400000 0.366907 0.146933
v -0.400000 -0.127431 0.073210
v 0.400000 -0.127431 0.073210
v 0.400000 1.864234 0.156216
v -0.400000 1.864234 0.156216
v 0.400000 0.865324 0.184984
v -0.400000 1.365097 0.180859
v -0.400000 0.865324 0.184984
v 0.400000 1.365097 0.180859
v 0.400000 0.367063 0.145565
v -0.400000 0.367063 0.145565
v 0.400000 -0.127228 0.071848
v -0.400000 -0.127228 0.071848
v -0.400000 1.864163 0.154840
v 0.400000 1.864163 0.154840
v -0.040721 2.374587 0.040721
v 0.040721 2.374587 -0.040721
v 0.040721 2.374587 0.040721
v -0.040721 2.374587 -0.040721
v -0.040721 -0.330000 0.040721
v 0.040721 2.374587 0.040721
v 0.040721 -0.330000 0.040721
v -0.040721 2.374587 0.040721
v 0.040721 -0.330000 0.040721
v 0.040721 2.374587 -0.040721
v 0.040721 -0.330000 -0.040721
v 0.040721 2.374587 0.040721
v 0.040721 -0.330000 -0.040721
v -0.040721 2.374587 -0.040721
v -0.040721 -0.330000 -0.040721
v 0.040721 2.374587 -0.040721
v -0.040721 -0.330000 -0.040721
v -0.040721 2.374587 0.040721
v -0.040721 -0.330000 0.040721
v -0.040721 2.374587 -0.040721
v 0.500000 1.917406 0.084871
v -0.500000 1.846695 0.155582
v 0.500000 1.846695 0.155582
v -0.500000 1.917406 0.084871
v 0.500000 1.988117 0.155582
v -0.500000 1.917406 0.226293
v -0.500000 1.988117 0.155582
v 0.500000 1.917406 0.226293
v 0.500000 1.917406 0.226293
v -0.500000 1.846695 0.155582
v -0.500000 1.917406 0.226293
v 0.500000 1.846695 0.155582
v 0.500000 1.988117 0.155582
v 0.500000 1.846695 0.155582
v 0.500000 1.917406 0.226293
v 0.500000 1.917406 0.084871
v -0.500000 1.988117 0.155582
v 0.500000 1.917406 0.084871
v 0.500000 1.988117 0.155582
v -0.500000 1.917406 0.084871
v -0.500000 1.917406 0.226293
v -0.500000 1.917406 0.084871
v -0.500000 1.988117 0.155582
v -0.500000 1.846695 0.155582
v 0.330296 2.062708 0.039779
v -0.330296 2.062708 0.197881
v 0.330296 2.062708 0.197881
v -0.330296 2.062708 0.039779
v 0.330296 2.312708 0.197881
v -0.330296 2.312708 0.039779
v 0.330296 2.312708 0.039779
v -0.330296 2.312708 0.197881
v 0.330296 2.062708 0.197881
v -0.330296 2.312708 0.197881
v 0.330296 2.312708 0.197881
v -0.330296 2.062708 0.197881
v 0.450000 2.187708 0.197881
v -0.450000 2.187708 0.197881
v -0.330296 2.062708 0.039779
v 0.330296 2.312708 0.039779
v -0.330296 2.312708 0.039779
v 0.330296 2.062708 0.039779
v -0.450000 2.187708 0.039779
v 0.450000 2.187708 0.039779
v 0.450000 2.187708 0.039779
v 0.330296 2.062708 0.197881
v 0.450000 2.187708 0.197881
v 0.330296 2.062708 0.039779
v -0.450000 2.187708 0.197881
v -0.330296 2.062708 0.039779
v -0.450000 2.187708 0.039779
v -0.330296 2.062708 0.197881
v 0.450000 2.187708 0.197881
v 0.330296 2.312708 0.039779
v 0.450000 2.187708 0.039779
v 0.330296 2.312708 0.197881
v -0.450000 2.187708 0.039779
v -0.330296 2.312708 0.197881
v -0.450000 2.187708 0.197881
v -0.330296 2.312708 0.039779
v 0.322050 1.964183 0.173080
v 0.244417 2.068189 0.173080
v 0.322050 2.068189 0.173080
v 0.244417 1.964183 0.173080
v 0.244417 1.964183 0.173080
v 0.244417 2.068189 0.138085
v 0.244417 2.068189 0.173080
v 0.244417 1.964183 0.138085
v 0.244417 1.964183 0.138085
v 0.322050 2.068189 0.138085
v 0.244417 2.068189 0.138085
v 0.322050 1.964183 0.138085
v 0.322050 1.964183 0.138085
v 0.322050 2.068189 0.173080
v 0.322050 2.068189 0.138085
v 0.322050 1.964183 0.173080
v -0.322050 1.964183 0.173080
v -0.244417 2.068189 0.173080
v -0.244417 1.964183 0.173080
v -0.322050 2.068189 0.173080
v -0.244417 1.964183 0.173080
v -0.244417 2.068189 0.138085
v -0.244417 1.964183 0.138085
v -0.244417 2.068189 0.173080
v -0.244417 1.964183 0.138085
v -0.322050 2.068189 0.138085
v -0.322050 1.964183 0.138085
v -0.244417 2.068189 0.138085
v -0.322050 1.964183 0.138085
v -0.322050 2.068189 0.173080
v -0.322050 1.964183 0.173080
v -0.322050 2.068189 0.138085
vt 0.920390 0.296983
vt 0.763161 0.139754
vt 0.920390 0.139754
vt 0.763161 0.296983
vt 0.763161 0.296983
vt 0.920390 0.139754
vt 0.920390 0.296983
vt 0.763161 0.139754
vt 0.479002 0.288038
vt 0.723542 0.193962
vt 0.744788 0.288038
vt 0.500249 0.193962
vt 0.479002 0.288038
vt 0.723542 0.193962
vt 0.744788 0.288038
vt 0.500249 0.193962
vt 0.479002 0.288038
vt 0.723542 0.193962
vt 0.744788 0.288038
vt 0.500249 0.193962
vt 0.479002 0.288038
vt 0.723542 0.193962
vt 0.744788 0.288038
vt 0.500249 0.193962
vt 0.011875 0.498732
vt 0.464999 0.254087
vt 0.464999 0.498732
vt 0.011875 0.254087
vt 0.011875 0.743376
vt 0.464999 0.743376
vt 0.011875 0.988021
vt 0.464999 0.988021
vt 0.464999 0.009442
vt 0.011875 0.009442
vt 0.464999 0.498732
vt 0.011875 0.254087
vt 0.011875 0.498732
vt 0.464999 0.254087
vt 0.464999 0.743376
vt 0.011875 0.743376
vt 0.464999 0.988021
vt 0.011875 0.988021
vt 0.011875 0.009442
vt 0.464999 0.009442
vt 0.595139 0.179023
vt 0.645384 0.128778
vt 0.645384 0.179023
vt 0.595139 0.128778
vt 0.942426 0.980618
vt 0.989318 0.172927
vt 0.989318 0.980618
vt 0.942426 0.172927
vt 0.942426 0.980618
vt 0.989318 0.172927
vt 0.989318 0.980618
vt 0.942426 0.172927
vt 0.942426 0.980618
vt 0.989318 0.172927
vt 0.989318 0.980618
vt 0.942426 0.172927
vt 0.942426 0.980618
vt 0.989318 0.172927
vt 0.989318 0.980618
vt 0.942426 0.172927
vt 0.480256 0.064136
vt 0.993197 0.113988
vt 0.480256 0.113988
vt 0.993197 0.064136
vt 0.480256 0.014284
vt 0.993197 0.064136
vt 0.993197 0.014284
vt 0.480256 0.064136
vt 0.480256 0.064136
vt 0.993197 0.113988
vt 0.993197 0.064136
vt 0.480256 0.113988
vt 0.561912 0.129740
vt 0.513474 0.178177
vt 0.561912 0.178177
vt 0.513475 0.129739
vt 0.993197 0.014284
vt 0.480256 0.064136
vt 0.480256 0.014284
vt 0.993197 0.064136
vt 0.561912 0.178177
vt 0.513475 0.129739
vt 0.561912 0.129740
vt 0.513474 0.178177
vt 0.745949 0.469233
vt 0.834976 0.875055
vt 0.834976 0.469233
vt 0.745949 0.875055
vt 0.573062 0.469233
vt 0.484035 0.875055
vt 0.484034 0.469233
vt 0.573062 0.875055
vt 0.726041 0.470253
vt 0.589150 0.876299
vt 0.589150 0.470253
vt 0.726041 0.876299
vt 0.657596 0.396675
vt 0.657596 0.949878
vt 0.726041 0.876299
vt 0.589150 0.470253
vt 0.589150 0.876299
vt 0.726041 0.470253
vt 0.657596 0.949878
vt 0.657596 0.396675
vt 0.745949 0.361965
vt 0.834976 0.469233
vt 0.834976 0.361965
vt 0.745949 0.469233
vt 0.834976 0.982323
vt 0.745949 0.875055
vt 0.745949 0.982323
vt 0.834976 0.875055
vt 0.573062 0.361965
vt 0.484034 0.469233
vt 0.484034 0.361965
vt 0.573062 0.469233
vt 0.484035 0.982323
vt 0.573062 0.875055
vt 0.573062 0.982323
vt 0.484035 0.875055
vt 0.847100 0.656311
vt 0.933204 0.521546
vt 0.847100 0.521546
vt 0.933204 0.656311
vt 0.847100 0.656311
vt 0.933204 0.521546
vt 0.847100 0.521546
vt 0.933204 0.656311
vt 0.847100 0.656311
vt 0.933204 0.521546
vt 0.847100 0.521546
vt 0.933204 0.656311
vt 0.847100 0.656311
vt 0.933204 0.521546
vt 0.847100 0.521546
vt 0.933204 0.656311
vt 0.847100 0.656311
vt 0.933204 0.521546
vt 0.933204 0.656311
vt 0.847100 0.521546
vt 0.847100 0.656311
vt 0.933204 0.521546
vt 0.933204 0.656311
vt 0.847100 0.521546
vt 0.847100 0.656311
vt 0.933204 0.521546
vt 0.933204 0.656311
vt 0.847100 0.521546
vt 0.847100 0.656311
vt 0.933204 0.521546
vt 0.933204 0.656311
vt 0.847100 0.521546
vn 0.000000 -1.000000 0.000000
vn 0.000000 -1.000000 0.000000
vn 0.000000 -1.000000 0.000000
vn 0.000000 -1.000000 0.000000
vn 0.000000 1.000000 -0.000000
vn 0.000000 1.000000 -0.000000
vn 0.000000 1.000000 -0.000000
vn 0.000000 1.000000 -0.000000
vn 0.000000 0.201764 0.979434
vn 0.000000 0.201764 0.979434
vn 0.000000 0.201764 0.979434
vn 0.000000 0.201764 0.979434
vn 0.979434 0.201764 -0.000000
vn 0.979434 0.201764 -0.000000
vn 0.979434 0.201764 -0.000000
vn 0.979434 0.201764 -0.000000
vn 0.000000 0.201764 -0.979434
vn 0.000000 0.201764 -0.979434
vn 0.000000 0.201764 -0.979434
vn 0.000000 0.201764 -0.979434
vn -0.979434 0.201764 -0.000000
vn -0.979434 0.201764 -0.000000
vn -0.979434 0.201764 -0.000000
vn -0.979434 0.201764 -0.000000
vn 0.000000 -0.035121 0.999383
vn 0.000000 0.030285 0.999541
vn 0.000000 -0.035121 0.999383
vn 0.000000 0.030285 0.999541
vn 0.000000 -0.113199 0.993572
vn 0.000000 -0.113199 0.993572
vn 0.000000 -0.147582 0.989050
vn 0.000000 -0.147582 0.989050
vn 0.000000 0.052050 0.998644
vn 0.000000 0.052050 0.998644
vn 0.000000 0.035121 -0.999383
vn 0.000000 -0.030285 -0.999541
vn 0.000000 0.035121 -0.999383
vn 0.000000 -0.030285 -0.999541
vn 0.000000 0.113199 -0.993572
vn 0.000000 0.113199 -0.993572
vn 0.000000 0.147582 -0.989050
vn 0.000000 0.147582 -0.989050
vn 0.000000 -0.052050 -0.998644
vn 0.000000 -0.052050 -0.998644
vn 0.000000 1.000000 -0.000000
vn 0.000000 1.000000 -0.000000
vn 0.000000 1.000000 -0.000000
vn 0.000000 1.000000 -0.000000
vn 0.000000 0.000000 1.000000
vn 0.000000 0.000000 1.000000
vn 0.000000 0.000000 1.000000
vn 0.000000 0.000000 1.000000
vn 1.000000 0.000000 0.000000
vn 1.000000 0.000000 0.000000
vn 1.000000 0.000000 0.000000
vn 1.000000 0.000000 0.000000
vn 0.000000 -0.000000 -1.000000
vn 0.000000 -0.000000 -1.000000
vn 0.000000 -0.000000 -1.000000
vn 0.000000 -0.000000 -1.000000
vn -1.000000 0.000000 0.000000
vn -1.000000 0.000000 0.000000
vn -1.000000 0.000000 0.000000
vn -1.000000 0.000000 0.000000
vn 0.000000 -0.707106 -0.707107
vn 0.000000 -0.707106 -0.707107
vn 0.000000 -0.707106 -0.707107
vn 0.000000 -0.707106 -0.707107
vn 0.000000 0.707107 0.707106
vn 0.000000 0.707107 0.707106
vn 0.000000 0.707107 0.707106
vn 0.000000 0.707107 0.707106
vn 0.000000 -0.707106 0.707107
vn 0.000000 -0.707106 0.707107
vn 0.000000 -0.707106 0.707107
vn 0.000000 -0.707107 0.707107
vn 1.000000 0.000000 0.000000
vn 1.000000 0.000000 0.000000
vn 1.000000 0.000000 0.000000
vn 1.000000 0.000000 0.000000
vn 0.000000 0.707107 -0.707106
vn 0.000000 0.707107 -0.707106
vn 0.000000 0.707107 -0.707106
vn 0.000000 0.707107 -0.707106
vn -1.000000 0.000000 0.000000
vn -1.000000 0.000000 0.000000
vn -1.000000 0.000000 0.000000
vn -1.000000 0.000000 0.000000
vn 0.000000 -1.000000 0.000000
vn 0.000000 -1.000000 0.000000
vn 0.000000 -1.000000 0.000000
vn 0.000000 -1.000000 0.000000
vn 0.000000 1.000000 -0.000000
vn 0.000000 1.000000 -0.000000
vn 0.000000 1.000000 -0.000000
vn 0.000000 1.000000 -0.000000
vn 0.000000 0.000000 1.000000
vn 0.000000 0.000000 1.000000
vn 0.000000 0.000000 1.000000
vn 0.000000 0.000000 1.000000
vn 0.000000 0.000000 1.000000
vn 0.000000 0.000000 1.000000
vn 0.000000 -0.000000 -1.000000
vn 0.000000 -0.000000 -1.000000
vn 0.000000 -0.000000 -1.000000
vn 0.000000 -0.000000 -1.000000
vn 0.000000 -0.000000 -1.000000
vn 0.000000 -0.000000 -1.000000
vn 0.722240 -0.691642 0.000000
vn 0.722240 -0.691642 0.000000
vn 0.722240 -0.691642 0.000000
vn 0.722240 -0.691642 0.000000
vn -0.722240 -0.691642 0.000000
vn -0.722240 -0.691642 0.000000
vn -0.722240 -0.691642 0.000000
vn -0.722240 -0.691642 0.000000
vn 0.722240 0.691642 -0.000000
vn 0.722240 0.691642 -0.000000
vn 0.722240 0.691642 -0.000000
vn 0.722240 0.691642 -0.000000
vn -0.722240 0.691642 -0.000000
vn -0.722240 0.691642 -0.000000
vn -0.722240 0.691642 -0.000000
vn -0.722240 0.691642 -0.000000
vn 0.000000 0.000000 1.000000
vn 0.000000 0.000000 1.000000
vn 0.000000 0.000000 1.000000
vn 0.000000 0.000000 1.000000
vn -1.000000 0.000000 0.000000
vn -1.000000 0.000000 0.000000
vn -1.000000 0.000000 0.000000
vn -1.000000 0.000000 0.000000
vn 0.000000 -0.000000 -1.000000
vn 0.000000 -0.000000 -1.000000
vn 0.000000 -0.000000 -1.000000
vn 0.000000 -0.000000 -1.000000
vn 1.000000 0.000000 0.000000
vn 1.000000 0.000000 0.000000
vn 1.000000 0.000000 0.000000
vn 1.000000 0.000000 0.000000
vn 0.000000 0.000000 1.000000
vn 0.000000 0.000000 1.000000
vn 0.000000 0.000000 1.000000
vn 0.000000 0.000000 1.000000
vn 1.000000 0.000000 0.000000
vn 1.000000 0.000000 0.000000
vn 1.000000 0.000000 0.000000
vn 1.000000 0.000000 0.000000
vn 0.000000 -0.000000 -1.000000
vn 0.000000 -0.000000 -1.000000
vn 0.000000 -0.000000 -1.000000
vn 0.000000 -0.000000 -1.000000
vn -1.000000 0.000000 0.000000
vn -1.000000 0.000000 0.000000
vn -1.000000 0.000000 0.000000
vn -1.000000 0.000000 0.000000
usemtl D44_FLAG_01M
f 1/1/1 3/3/3 2/2/2
f 2/2/2 4/4/4 1/1/1
f 5/5/5 7/7/7 6/6/6
f 6/6/6 8/8/8 5/5/5
f 9/9/9 11/11/11 10/10/10
f 10/10/10 12/12/12 9/9/9
f 13/13/13 15/15/15 14/14/14
f 14/14/14 16/16/16 13/13/13
f 17/17/17 19/19/19 18/18/18
f 18/18/18 20/20/20 17/17/17
f 21/21/21 23/23/23 22/22/22
f 22/22/22 24/24/24 21/21/21
f 25/25/25 27/27/27 26/26/26
f 26/26/26 28/28/28 25/25/25
f 27/27/27 25/25/25 29/29/29
f 29/29/29 30/30/30 27/27/27
f 30/30/30 29/29/29 31/31/31
f 31/31/31 32/32/32 30/30/30
f 28/28/28 26/26/26 33/33/33
f 33/33/33 34/34/34 28/28/28
f 35/35/35 37/37/37 36/36/36
f 36/36/36 38/38/38 35/35/35
f 37/37/37 35/35/35 39/39/39
f 39/39/39 40/40/40 37/37/37
f 40/40/40 39/39/39 41/41/41
f 41/41/41 42/42/42 40/40/40
f 38/38/38 36/36/36 43/43/43
f 43/43/43 44/44/44 38/38/38
f 45/45/45 47/47/47 46/46/46
f 46/46/46 48/48/48 45/45/45
f 49/49/49 51/51/51 50/50/50
f 50/50/50 52/52/52 49/49/49
f 53/53/53 55/55/55 54/54/54
f 54/54/54 56/56/56 53/53/53
f 57/57/57 59/59/59 58/58/58
f 58/58/58 60/60/60 57/57/57
f 61/61/61 63/63/63 62/62/62
f 62/62/62 64/64/64 61/61/61
f 65/65/65 67/67/67 66/66/66
f 66/66/66 68/68/68 65/65/65
f 69/69/69 71/71/71 70/70/70
f 70/70/70 72/72/72 69/69/69
f 73/73/73 75/75/75 74/74/74
f 74/74/74 76/76/76 73/73/73
f 77/77/77 79/79/79 78/78/78
f 78/78/78 80/80/80 77/77/77
f 81/81/81 83/83/83 82/82/82
f 82/82/82 84/84/84 81/81/81
f 85/85/85 87/87/87 86/86/86
f 86/86/86 88/88/88 85/85/85
f 89/89/89 91/91/91 90/90/90
f 90/90/90 92/92/92 89/89/89
f 93/93/93 95/95/95 94/94/94
f 94/94/94 96/96/96 93/93/93
f 97/97/97 99/99/99 98/98/98
f 98/98/98 100/100/100 97/97/97
f 97/97/97 101/101/101 99/99/99
f 98/98/98 102/102/102 100/100/100
f 103/103/103 105/105/105 104/104/104
f 104/104/104 106/106/106 103/103/103
f 103/103/103 107/107/107 105/105/105
f 104/104/104 108/108/108 106/106/106
f 109/109/109 111/111/111 110/110/110
f 110/110/110 112/112/112 109/109/109
f 113/113/113 115/115/115 114/114/114
f 114/114/114 116/116/116 113/113/113
f 117/117/117 119/119/119 118/118/118
f 118/118/118 120/120/120 117/117/117
f 121/121/121 123/123/123 122/122/122
f 122/122/122 124/124/124 121/121/121
f 125/125/125 127/127/127 126/126/126
f 126/126/126 128/128/128 125/125/125
f 129/129/129 131/131/131 130/130/130
f 130/130/130 132/132/132 129/129/129
f 133/133/133 135/135/135 134/134/134
f 134/134/134 136/136/136 133/133/133
f 137/137/137 139/139/139 138/138/138
f 138/138/138 140/140/140 137/137/137
f 141/141/141 143/143/143 142/142/142
f 142/142/142 144/144/144 141/141/141
f 145/145/145 147/147/147 146/146/146
f 146/146/146 148/148/148 145/145/145
f 149/149/149 151/151/151 150/150/150
f 150/150/150 152/152/152 149/149/149
f 153/153/153 155/155/155 154/154/154
f 154/154/154 156/156/156 153/153/153
