# 
# Wavefront OBJ file
# Created with Kaydara FBX
# 
mtllib d45_rail_01t.mtl

g D45_RAIL_01T
v -0.500000 -0.500000 0.500000
v 0.500000 -0.500000 -0.500000
v -0.500000 -0.500000 -0.500000
v 0.500000 -0.500000 0.500000
v -0.500000 0.250000 0.500000
v 0.500000 0.250000 -0.500000
v 0.500000 0.250000 0.500000
v -0.500000 0.250000 -0.500000
v -0.500000 -0.500000 0.500000
v 0.500000 0.250000 0.500000
v 0.500000 -0.500000 0.500000
v -0.500000 0.250000 0.500000
v 0.500000 -0.500000 0.500000
v 0.500000 0.250000 -0.500000
v 0.500000 -0.500000 -0.500000
v 0.500000 0.250000 0.500000
v 0.500000 -0.500000 -0.500000
v -0.500000 0.250000 -0.500000
v -0.500000 -0.500000 -0.500000
v 0.500000 0.250000 -0.500000
v -0.500000 -0.500000 -0.500000
v -0.500000 0.250000 0.500000
v -0.500000 -0.500000 0.500000
v -0.500000 0.250000 -0.500000
v 0.103200 0.247880 0.207206
v -0.103200 0.335132 0.154604
v 0.103200 0.335132 0.154604
v -0.103200 0.247880 0.207206
v -0.111746 0.343538 0.080149
v 0.103200 0.335132 0.154604
v -0.103200 0.335132 0.154604
v 0.111746 0.343538 0.080149
v -0.103200 0.335132 0.154604
v -0.111746 0.247880 0.080149
v -0.111746 0.343538 0.080149
v -0.111746 0.247880 0.080149
v -0.103200 0.335132 0.154604
v -0.103200 0.247880 0.207206
v 0.111746 0.343538 0.080149
v 0.103200 0.247880 0.207206
v 0.103200 0.335132 0.154604
v 0.103200 0.247880 0.207206
v 0.111746 0.343538 0.080149
v 0.111746 0.247880 0.080149
v 0.500000 0.500000 -0.138460
v -0.500000 0.500000 0.138463
v -0.500000 0.500000 -0.138460
v 0.500000 0.500000 0.138463
v -0.500000 0.500000 -0.138460
v 0.500000 0.432867 -0.138460
v 0.500000 0.500000 -0.138460
v -0.500000 0.432867 -0.138460
v 0.500000 0.250000 -0.138460
v -0.500000 0.317133 -0.138460
v -0.500000 0.250000 -0.138460
v 0.500000 0.317133 -0.138460
v 0.500000 0.500000 0.138463
v -0.500000 0.432867 0.138463
v -0.500000 0.500000 0.138463
v 0.500000 0.432867 0.138463
v -0.500000 0.250000 0.138463
v 0.500000 0.317133 0.138463
v 0.500000 0.250000 0.138463
v -0.500000 0.317133 0.138463
v 0.500000 0.422535 -0.086440
v -0.500000 0.432867 -0.138460
v -0.500000 0.422535 -0.086440
v 0.500000 0.432867 -0.138460
v 0.500000 0.327465 0.086442
v -0.500000 0.317133 0.138463
v -0.500000 0.327465 0.086442
v 0.500000 0.317133 0.138463
v 0.500000 0.432867 0.138463
v -0.500000 0.422535 0.086442
v -0.500000 0.432867 0.138463
v 0.500000 0.422535 0.086442
v 0.500000 0.327465 0.086442
v -0.500000 0.422535 0.086442
v 0.500000 0.422535 0.086442
v -0.500000 0.327465 0.086442
v 0.500000 0.317133 -0.138460
v -0.500000 0.327465 -0.086440
v -0.500000 0.317133 -0.138460
v 0.500000 0.327465 -0.086440
v 0.500000 0.422535 -0.086440
v -0.500000 0.327465 -0.086440
v 0.500000 0.327465 -0.086440
v -0.500000 0.422535 -0.086440
v -0.500000 0.250000 0.138463
v -0.500000 0.327465 0.086442
v -0.500000 0.317133 0.138463
v -0.500000 0.422535 -0.086440
v -0.500000 0.422535 0.086442
v -0.500000 0.500000 0.138463
v -0.500000 0.432867 0.138463
v -0.500000 0.432867 -0.138460
v -0.500000 0.500000 -0.138460
v -0.500000 0.327465 -0.086440
v -0.500000 0.317133 -0.138460
v -0.500000 0.250000 -0.138460
v 0.500000 0.250000 -0.138460
v 0.500000 0.327465 -0.086440
v 0.500000 0.317133 -0.138460
v 0.500000 0.422535 0.086442
v 0.500000 0.422535 -0.086440
v 0.500000 0.500000 -0.138460
v 0.500000 0.432867 -0.138460
v 0.500000 0.432867 0.138463
v 0.500000 0.500000 0.138463
v 0.500000 0.327465 0.086442
v 0.500000 0.317133 0.138463
v 0.500000 0.250000 0.138463
v 0.103200 0.247880 -0.207206
v -0.103200 0.335132 -0.154604
v -0.103200 0.247880 -0.207206
v 0.103200 0.335132 -0.154604
v -0.111746 0.343538 -0.080149
v 0.103200 0.335132 -0.154604
v 0.111746 0.343538 -0.080149
v -0.103200 0.335132 -0.154604
v -0.103200 0.335132 -0.154604
v -0.111746 0.247880 -0.080149
v -0.103200 0.247880 -0.207206
v -0.111746 0.247880 -0.080149
v -0.103200 0.335132 -0.154604
v -0.111746 0.343538 -0.080149
v 0.111746 0.343538 -0.080149
v 0.103200 0.247880 -0.207206
v 0.111746 0.247880 -0.080149
v 0.103200 0.247880 -0.207206
v 0.111746 0.343538 -0.080149
v 0.103200 0.335132 -0.154604
vt 0.512764 0.993119
vt 0.024415 0.506795
vt 0.512764 0.506795
vt 0.024415 0.993119
vt 0.024387 0.495080
vt 0.512742 0.006830
vt 0.512742 0.495080
vt 0.024387 0.006830
vt 0.909187 0.993147
vt 0.540099 0.504922
vt 0.909187 0.504922
vt 0.540099 0.993147
vt 0.909187 0.993147
vt 0.540099 0.504922
vt 0.909187 0.504922
vt 0.540099 0.993147
vt 0.909187 0.993147
vt 0.540099 0.504922
vt 0.909187 0.504922
vt 0.540099 0.993147
vt 0.909187 0.993147
vt 0.540099 0.504922
vt 0.909187 0.504922
vt 0.540099 0.993147
vt 0.960082 0.204015
vt 0.906400 0.321246
vt 0.906400 0.204015
vt 0.960082 0.321246
vt 0.862429 0.321246
vt 0.906400 0.204015
vt 0.906400 0.321246
vt 0.862429 0.204015
vt 0.919350 0.348329
vt 0.876286 0.401119
vt 0.876286 0.348329
vt 0.876286 0.401119
vt 0.919350 0.348329
vt 0.947956 0.401119
vt 0.876286 0.348329
vt 0.947956 0.401119
vt 0.919350 0.348329
vt 0.947956 0.401119
vt 0.876286 0.348329
vt 0.876286 0.401119
vt 0.534231 0.047813
vt 0.657263 0.461868
vt 0.534231 0.461868
vt 0.657263 0.047813
vt 0.678748 0.461917
vt 0.705167 0.047795
vt 0.678748 0.047795
vt 0.705167 0.461917
vt 0.827156 0.047795
vt 0.798872 0.461917
vt 0.827156 0.461917
vt 0.798872 0.047795
vt 0.678748 0.047795
vt 0.705167 0.461917
vt 0.678748 0.461917
vt 0.705167 0.047795
vt 0.827156 0.461917
vt 0.798872 0.047795
vt 0.827156 0.047795
vt 0.798872 0.461917
vt 0.728533 0.047795
vt 0.705167 0.461917
vt 0.728533 0.461917
vt 0.705167 0.047795
vt 0.775490 0.047795
vt 0.798872 0.461917
vt 0.775490 0.461917
vt 0.798872 0.047795
vt 0.705167 0.047795
vt 0.728533 0.461917
vt 0.705167 0.461917
vt 0.728533 0.047795
vt 0.775490 0.047795
vt 0.728533 0.461917
vt 0.728533 0.047795
vt 0.775490 0.461917
vt 0.798872 0.047795
vt 0.775490 0.461917
vt 0.798872 0.461917
vt 0.775490 0.047795
vt 0.728533 0.047795
vt 0.775490 0.461917
vt 0.775490 0.047795
vt 0.728533 0.461917
vt 0.844816 0.174793
vt 0.870197 0.137440
vt 0.844816 0.141783
vt 0.959949 0.090959
vt 0.870197 0.090959
vt 0.844816 0.053689
vt 0.844816 0.084803
vt 0.985429 0.084803
vt 0.985429 0.053689
vt 0.959949 0.137440
vt 0.985429 0.141783
vt 0.985429 0.174793
vt 0.985429 0.174793
vt 0.959949 0.137440
vt 0.985429 0.141783
vt 0.870197 0.090959
vt 0.959949 0.090959
vt 0.985429 0.053689
vt 0.985429 0.084803
vt 0.844816 0.084803
vt 0.844816 0.053689
vt 0.870197 0.137440
vt 0.844816 0.141783
vt 0.844816 0.174793
vt 0.960082 0.204015
vt 0.906400 0.321246
vt 0.960082 0.321246
vt 0.906400 0.204015
vt 0.862429 0.321246
vt 0.906400 0.204015
vt 0.862429 0.204015
vt 0.906400 0.321246
vt 0.919350 0.348329
vt 0.876286 0.401119
vt 0.947956 0.401119
vt 0.876286 0.401119
vt 0.919350 0.348329
vt 0.876286 0.348329
vt 0.876286 0.348329
vt 0.947956 0.401119
vt 0.876286 0.401119
vt 0.947956 0.401119
vt 0.876286 0.348329
vt 0.919350 0.348329
vn 0.000000 -1.000000 -0.000000
vn 0.000000 -1.000000 -0.000000
vn 0.000000 -1.000000 -0.000000
vn 0.000000 -1.000000 -0.000000
vn 0.000000 1.000000 0.000000
vn 0.000000 1.000000 0.000000
vn 0.000000 1.000000 0.000000
vn 0.000000 1.000000 0.000000
vn 0.000000 -0.000000 1.000000
vn 0.000000 -0.000000 1.000000
vn 0.000000 -0.000000 1.000000
vn 0.000000 -0.000000 1.000000
vn 1.000000 0.000000 0.000000
vn 1.000000 0.000000 0.000000
vn 1.000000 0.000000 0.000000
vn 1.000000 0.000000 0.000000
vn 0.000000 0.000000 -1.000000
vn 0.000000 0.000000 -1.000000
vn 0.000000 0.000000 -1.000000
vn 0.000000 0.000000 -1.000000
vn -1.000000 0.000000 0.000000
vn -1.000000 0.000000 0.000000
vn -1.000000 0.000000 0.000000
vn -1.000000 0.000000 0.000000
vn 0.000000 0.516305 0.856405
vn 0.000000 0.516305 0.856405
vn 0.000000 0.516305 0.856405
vn 0.000000 0.516305 0.856405
vn 0.000000 0.993688 0.112176
vn 0.000000 0.993688 0.112176
vn 0.000000 0.993688 0.112176
vn 0.000000 0.993688 0.112176
vn -0.993477 -0.000000 0.114036
vn -0.993477 -0.000000 0.114036
vn -0.993477 -0.000000 0.114036
vn -0.996930 0.040427 0.067057
vn -0.996930 0.040427 0.067057
vn -0.996930 0.040427 0.067057
vn 0.989816 0.073498 0.121913
vn 0.989816 0.073498 0.121913
vn 0.989816 0.073498 0.121913
vn 0.997745 -0.000000 0.067112
vn 0.997745 -0.000000 0.067112
vn 0.997745 -0.000000 0.067112
vn 0.000000 1.000000 0.000000
vn 0.000000 1.000000 0.000000
vn 0.000000 1.000000 0.000000
vn 0.000000 1.000000 0.000000
vn 0.000000 -0.000000 -1.000000
vn 0.000000 -0.000000 -1.000000
vn 0.000000 -0.000000 -1.000000
vn 0.000000 0.000000 -1.000000
vn 0.000000 0.000000 -1.000000
vn 0.000000 0.000000 -1.000000
vn 0.000000 0.000000 -1.000000
vn 0.000000 -0.000000 -1.000000
vn 0.000000 -0.000000 1.000000
vn 0.000000 -0.000000 1.000000
vn 0.000000 -0.000000 1.000000
vn 0.000000 0.000000 1.000000
vn 0.000000 0.000000 1.000000
vn 0.000000 0.000000 1.000000
vn 0.000000 0.000000 1.000000
vn 0.000000 -0.000000 1.000000
vn 0.000000 -0.980841 -0.194810
vn 0.000000 -0.980841 -0.194810
vn 0.000000 -0.980841 -0.194810
vn 0.000000 -0.980841 -0.194810
vn 0.000000 0.980842 0.194807
vn 0.000000 0.980842 0.194807
vn 0.000000 0.980842 0.194807
vn 0.000000 0.980842 0.194807
vn 0.000000 -0.980842 0.194807
vn 0.000000 -0.980842 0.194807
vn 0.000000 -0.980842 0.194807
vn 0.000000 -0.980842 0.194807
vn 0.000000 0.000000 1.000000
vn 0.000000 0.000000 1.000000
vn 0.000000 0.000000 1.000000
vn 0.000000 -0.000000 1.000000
vn 0.000000 0.980841 -0.194810
vn 0.000000 0.980841 -0.194810
vn 0.000000 0.980841 -0.194810
vn 0.000000 0.980841 -0.194810
vn 0.000000 -0.000000 -1.000000
vn 0.000000 -0.000000 -1.000000
vn 0.000000 -0.000000 -1.000000
vn 0.000000 0.000001 -1.000000
vn -1.000000 0.000000 0.000000
vn -1.000000 0.000000 0.000000
vn -1.000000 0.000000 0.000000
vn -1.000000 0.000000 0.000000
vn -1.000000 0.000000 0.000000
vn -1.000000 0.000000 0.000000
vn -1.000000 0.000000 0.000000
vn -1.000000 0.000000 0.000000
vn -1.000000 0.000000 0.000000
vn -1.000000 0.000000 0.000000
vn -1.000000 0.000000 0.000000
vn -1.000000 0.000000 0.000000
vn 1.000000 0.000000 0.000000
vn 1.000000 0.000000 0.000000
vn 1.000000 0.000000 0.000000
vn 1.000000 0.000000 0.000000
vn 1.000000 0.000000 0.000000
vn 1.000000 0.000000 0.000000
vn 1.000000 0.000000 0.000000
vn 1.000000 0.000000 0.000000
vn 1.000000 0.000000 0.000000
vn 1.000000 0.000000 0.000000
vn 1.000000 0.000000 0.000000
vn 1.000000 0.000000 0.000000
vn 0.000000 0.516305 -0.856405
vn 0.000000 0.516305 -0.856405
vn 0.000000 0.516305 -0.856405
vn 0.000000 0.516305 -0.856405
vn 0.000000 0.993688 -0.112176
vn 0.000000 0.993688 -0.112176
vn 0.000000 0.993688 -0.112176
vn 0.000000 0.993688 -0.112176
vn -0.996930 0.040427 -0.067057
vn -0.996930 0.040427 -0.067057
vn -0.996930 0.040427 -0.067057
vn -0.993477 0.000000 -0.114036
vn -0.993477 0.000000 -0.114036
vn -0.993477 0.000000 -0.114036
vn 0.997745 0.000000 -0.067112
vn 0.997745 0.000000 -0.067112
vn 0.997745 0.000000 -0.067112
vn 0.989816 0.073498 -0.121913
vn 0.989816 0.073498 -0.121913
vn 0.989816 0.073498 -0.121913
usemtl D45_RAIL_01T
f 1/1/1 3/3/3 2/2/2
f 2/2/2 4/4/4 1/1/1
f 5/5/5 7/7/7 6/6/6
f 6/6/6 8/8/8 5/5/5
f 9/9/9 11/11/11 10/10/10
f 10/10/10 12/12/12 9/9/9
f 13/13/13 15/15/15 14/14/14
f 14/14/14 16/16/16 13/13/13
f 17/17/17 19/19/19 18/18/18
f 18/18/18 20/20/20 17/17/17
f 21/21/21 23/23/23 22/22/22
f 22/22/22 24/24/24 21/21/21
f 25/25/25 27/27/27 26/26/26
f 26/26/26 28/28/28 25/25/25
f 29/29/29 31/31/31 30/30/30
f 30/30/30 32/32/32 29/29/29
f 33/33/33 35/35/35 34/34/34
f 36/36/36 38/38/38 37/37/37
f 39/39/39 41/41/41 40/40/40
f 42/42/42 44/44/44 43/43/43
f 45/45/45 47/47/47 46/46/46
f 46/46/46 48/48/48 45/45/45
f 49/49/49 51/51/51 50/50/50
f 50/50/50 52/52/52 49/49/49
f 53/53/53 55/55/55 54/54/54
f 54/54/54 56/56/56 53/53/53
f 57/57/57 59/59/59 58/58/58
f 58/58/58 60/60/60 57/57/57
f 61/61/61 63/63/63 62/62/62
f 62/62/62 64/64/64 61/61/61
f 65/65/65 67/67/67 66/66/66
f 66/66/66 68/68/68 65/65/65
f 69/69/69 71/71/71 70/70/70
f 70/70/70 72/72/72 69/69/69
f 73/73/73 75/75/75 74/74/74
f 74/74/74 76/76/76 73/73/73
f 77/77/77 79/79/79 78/78/78
f 78/78/78 80/80/80 77/77/77
f 81/81/81 83/83/83 82/82/82
f 82/82/82 84/84/84 81/81/81
f 85/85/85 87/87/87 86/86/86
f 86/86/86 88/88/88 85/85/85
f 89/89/89 91/91/91 90/90/90
f 89/89/89 90/90/90 92/92/92
f 90/90/90 93/93/93 92/92/92
f 93/93/93 94/94/94 92/92/92
f 93/93/93 95/95/95 94/94/94
f 94/94/94 96/96/96 92/92/92
f 94/94/94 97/97/97 96/96/96
f 89/89/89 92/92/92 98/98/98
f 89/89/89 98/98/98 99/99/99
f 89/89/89 99/99/99 100/100/100
f 101/101/101 103/103/103 102/102/102
f 101/101/101 102/102/102 104/104/104
f 102/102/102 105/105/105 104/104/104
f 105/105/105 106/106/106 104/104/104
f 105/105/105 107/107/107 106/106/106
f 106/106/106 108/108/108 104/104/104
f 106/106/106 109/109/109 108/108/108
f 101/101/101 104/104/104 110/110/110
f 101/101/101 110/110/110 111/111/111
f 101/101/101 111/111/111 112/112/112
f 113/113/113 115/115/115 114/114/114
f 114/114/114 116/116/116 113/113/113
f 117/117/117 119/119/119 118/118/118
f 118/118/118 120/120/120 117/117/117
f 121/121/121 123/123/123 122/122/122
f 124/124/124 126/126/126 125/125/125
f 127/127/127 129/129/129 128/128/128
f 130/130/130 132/132/132 131/131/131
