# 
# Wavefront OBJ file
# Created with Kaydara FBX
# 
mtllib d45_rail_02t.mtl

g D45_RAIL_02T
v -0.500000 -0.500000 0.499999
v 0.500000 -0.500000 -0.500001
v -0.500000 -0.500000 -0.500001
v 0.500000 -0.500000 0.499999
v -0.500000 0.250000 0.499999
v 0.500000 0.250000 -0.500001
v 0.500000 0.250000 0.499999
v -0.500000 0.250000 -0.500001
v -0.500000 -0.500000 0.499999
v 0.500000 0.250000 0.499999
v 0.500000 -0.500000 0.499999
v -0.500000 0.250000 0.499999
v 0.500000 -0.500000 0.499999
v 0.500000 0.250000 -0.500001
v 0.500000 -0.500000 -0.500001
v 0.500000 0.250000 0.499999
v 0.500000 -0.500000 -0.500001
v -0.500000 0.250000 -0.500001
v -0.500000 -0.500000 -0.500001
v 0.500000 0.250000 -0.500001
v -0.500000 -0.500000 -0.500001
v -0.500000 0.250000 0.499999
v -0.500000 -0.500000 0.499999
v -0.500000 0.250000 -0.500001
v -0.220740 0.247880 0.372993
v -0.329492 0.335132 0.189851
v -0.183545 0.335132 0.335798
v -0.366687 0.247880 0.227046
v -0.282887 0.343538 0.131160
v -0.183545 0.335132 0.335798
v -0.329492 0.335132 0.189851
v -0.124854 0.343538 0.289193
v -0.329492 0.335132 0.189851
v -0.282887 0.247880 0.131160
v -0.282887 0.343538 0.131160
v -0.282887 0.247880 0.131160
v -0.329492 0.335132 0.189851
v -0.366687 0.247880 0.227046
v -0.124854 0.343538 0.289193
v -0.220740 0.247880 0.372993
v -0.183545 0.335132 0.335798
v -0.220740 0.247880 0.372993
v -0.124854 0.343538 0.289193
v -0.124854 0.247880 0.289193
v -0.500000 0.500000 -0.138461
v -0.239926 0.432867 -0.138461
v -0.239926 0.500000 -0.138461
v -0.500000 0.432867 -0.138461
v -0.500000 0.250000 0.138462
v -0.336875 0.317133 0.138462
v -0.336875 0.250000 0.138462
v -0.500000 0.317133 0.138462
v -0.500000 0.250000 0.138462
v -0.500000 0.327465 0.086441
v -0.500000 0.317133 0.138462
v -0.500000 0.422535 -0.086441
v -0.500000 0.422535 0.086441
v -0.500000 0.500000 0.138462
v -0.500000 0.432867 0.138462
v -0.500000 0.432867 -0.138461
v -0.500000 0.500000 -0.138461
v -0.500000 0.327465 -0.086441
v -0.500000 0.317133 -0.138461
v -0.500000 0.250000 -0.138461
v 0.082135 0.247880 0.077432
v -0.101008 0.335132 -0.031319
v -0.063812 0.247880 -0.068515
v 0.044939 0.335132 0.114627
v -0.159699 0.343538 0.015285
v 0.044939 0.335132 0.114627
v -0.001665 0.343538 0.173318
v -0.101008 0.335132 -0.031319
v -0.101008 0.335132 -0.031319
v -0.159699 0.247880 0.015285
v -0.063812 0.247880 -0.068515
v -0.159699 0.247880 0.015285
v -0.101008 0.335132 -0.031319
v -0.159699 0.343538 0.015285
v -0.001665 0.343538 0.173318
v 0.082135 0.247880 0.077432
v -0.001665 0.247880 0.173318
v 0.082135 0.247880 0.077432
v -0.001665 0.343538 0.173318
v 0.044939 0.335132 0.114627
v -0.500000 0.500000 -0.138461
v -0.336875 0.500000 0.138462
v -0.500000 0.500000 0.138462
v -0.239926 0.500000 -0.138461
v 0.138460 0.500000 0.239927
v -0.138461 0.500000 0.336876
v 0.138461 0.500000 0.500000
v -0.138461 0.500000 0.500000
v -0.500000 0.250000 -0.138461
v -0.239926 0.317133 -0.138461
v -0.500000 0.317133 -0.138461
v -0.239926 0.250000 -0.138461
v -0.500000 0.500000 0.138462
v -0.336875 0.432867 0.138462
v -0.500000 0.432867 0.138462
v -0.336875 0.500000 0.138462
v -0.500000 0.422535 -0.086441
v -0.239926 0.432867 -0.138461
v -0.500000 0.432867 -0.138461
v -0.250536 0.422535 -0.086441
v -0.500000 0.327465 0.086441
v -0.336875 0.317133 0.138462
v -0.500000 0.317133 0.138462
v -0.336875 0.327465 0.086441
v -0.500000 0.432867 0.138462
v -0.336875 0.422535 0.086441
v -0.500000 0.422535 0.086441
v -0.336875 0.432867 0.138462
v -0.500000 0.422535 0.086441
v -0.336875 0.327465 0.086441
v -0.500000 0.327465 0.086441
v -0.336875 0.422535 0.086441
v -0.500000 0.317133 -0.138461
v -0.250536 0.327465 -0.086441
v -0.500000 0.327465 -0.086441
v -0.239926 0.317133 -0.138461
v -0.500000 0.327465 -0.086441
v -0.250536 0.422535 -0.086441
v -0.500000 0.422535 -0.086441
v -0.250536 0.327465 -0.086441
v 0.138461 0.317133 0.500000
v 0.138460 0.250000 0.239927
v 0.138461 0.250000 0.500001
v 0.138460 0.317133 0.239927
v -0.138461 0.500000 0.500000
v -0.138461 0.432867 0.336876
v -0.138461 0.500000 0.336876
v -0.138461 0.432867 0.500000
v 0.086441 0.422535 0.500001
v 0.138460 0.432867 0.239927
v 0.086440 0.422535 0.250537
v 0.138461 0.432867 0.500000
v -0.086441 0.327465 0.336875
v -0.138461 0.317133 0.500000
v -0.138461 0.317133 0.336876
v -0.086441 0.327465 0.500000
v -0.138461 0.432867 0.500000
v -0.086441 0.422535 0.336876
v -0.138461 0.432867 0.336876
v -0.086441 0.422535 0.500000
v -0.086441 0.422535 0.500000
v -0.086441 0.327465 0.336875
v -0.086441 0.422535 0.336876
v -0.086441 0.327465 0.500000
v 0.086441 0.327465 0.500000
v 0.138460 0.317133 0.239927
v 0.138461 0.317133 0.500000
v 0.086440 0.327465 0.250537
v 0.086441 0.422535 0.500001
v 0.086440 0.327465 0.250537
v 0.086441 0.327465 0.500000
v 0.086440 0.422535 0.250537
v 0.138461 0.250000 0.500001
v 0.086441 0.327465 0.500000
v 0.138461 0.317133 0.500000
v -0.086441 0.422535 0.500000
v 0.086441 0.422535 0.500001
v 0.138461 0.500000 0.500000
v 0.138461 0.432867 0.500000
v -0.138461 0.432867 0.500000
v -0.138461 0.500000 0.500000
v -0.086441 0.327465 0.500000
v -0.138461 0.317133 0.500000
v -0.138461 0.250000 0.500000
v 0.138461 0.500000 0.500000
v 0.138460 0.432867 0.239927
v 0.138461 0.432867 0.500000
v 0.138460 0.500000 0.239927
v -0.138461 0.250000 0.500000
v -0.138461 0.317133 0.336876
v -0.138461 0.317133 0.500000
v -0.138461 0.250000 0.336875
v -0.138461 0.500000 0.336876
v -0.336875 0.432867 0.138462
v -0.336875 0.500000 0.138462
v -0.138461 0.432867 0.336876
v -0.138461 0.432867 0.336876
v -0.336875 0.422535 0.086441
v -0.336875 0.432867 0.138462
v -0.086441 0.422535 0.336876
v -0.086441 0.422535 0.336876
v -0.336875 0.327465 0.086441
v -0.336875 0.422535 0.086441
v -0.086441 0.327465 0.336875
v -0.086441 0.327465 0.336875
v -0.336875 0.317133 0.138462
v -0.336875 0.327465 0.086441
v -0.138461 0.317133 0.336876
v -0.138461 0.317133 0.336876
v -0.336875 0.250000 0.138462
v -0.336875 0.317133 0.138462
v -0.138461 0.250000 0.336875
v 0.138460 0.500000 0.239927
v -0.239926 0.432867 -0.138461
v 0.138460 0.432867 0.239927
v -0.239926 0.500000 -0.138461
v 0.138460 0.432867 0.239927
v -0.250536 0.422535 -0.086441
v 0.086440 0.422535 0.250537
v -0.239926 0.432867 -0.138461
v 0.086440 0.422535 0.250537
v -0.250536 0.327465 -0.086441
v 0.086440 0.327465 0.250537
v -0.250536 0.422535 -0.086441
v 0.086440 0.327465 0.250537
v -0.239926 0.317133 -0.138461
v 0.138460 0.317133 0.239927
v -0.250536 0.327465 -0.086441
v 0.138460 0.317133 0.239927
v -0.239926 0.250000 -0.138461
v 0.138460 0.250000 0.239927
v -0.239926 0.317133 -0.138461
vt 0.512764 0.993119
vt 0.024415 0.506795
vt 0.512764 0.506795
vt 0.024415 0.993119
vt 0.024387 0.495080
vt 0.512742 0.008759
vt 0.512742 0.495080
vt 0.024387 0.008759
vt 0.909187 0.993147
vt 0.540099 0.506604
vt 0.909187 0.506604
vt 0.540099 0.993147
vt 0.909187 0.993147
vt 0.540099 0.506604
vt 0.909187 0.506604
vt 0.540099 0.993147
vt 0.909187 0.993147
vt 0.540099 0.506604
vt 0.909187 0.506604
vt 0.540099 0.993147
vt 0.909187 0.993147
vt 0.540099 0.506604
vt 0.909187 0.506604
vt 0.540099 0.993147
vt 0.983445 0.207942
vt 0.927803 0.325174
vt 0.927803 0.207942
vt 0.983445 0.325174
vt 0.885792 0.325174
vt 0.927803 0.207942
vt 0.927803 0.325174
vt 0.885792 0.207942
vt 0.948384 0.366048
vt 0.905320 0.418839
vt 0.905320 0.366048
vt 0.905320 0.418839
vt 0.948384 0.366048
vt 0.976990 0.418839
vt 0.905320 0.366048
vt 0.976990 0.418839
vt 0.948384 0.366048
vt 0.976990 0.418839
vt 0.905320 0.366048
vt 0.905320 0.418839
vt 0.710089 0.018506
vt 0.669954 0.131698
vt 0.710089 0.131698
vt 0.669954 0.018506
vt 0.522500 0.018506
vt 0.562528 0.131698
vt 0.522500 0.131698
vt 0.562528 0.018506
vt 0.729560 0.473629
vt 0.754665 0.436277
vt 0.729560 0.440619
vt 0.844417 0.389795
vt 0.754665 0.389795
vt 0.729560 0.352525
vt 0.729560 0.383639
vt 0.870116 0.383639
vt 0.870116 0.352525
vt 0.844417 0.436277
vt 0.870116 0.440619
vt 0.870116 0.473629
vt 0.983445 0.207942
vt 0.927803 0.325174
vt 0.983445 0.325174
vt 0.927803 0.207942
vt 0.885792 0.325174
vt 0.927803 0.207942
vt 0.885792 0.207942
vt 0.927803 0.325174
vt 0.948384 0.366048
vt 0.905320 0.418839
vt 0.976990 0.418839
vt 0.905320 0.418839
vt 0.948384 0.366048
vt 0.905320 0.366048
vt 0.905320 0.366048
vt 0.976990 0.418839
vt 0.905320 0.418839
vt 0.976990 0.418839
vt 0.905320 0.366048
vt 0.948384 0.366048
vt 0.995127 0.012583
vt 0.926774 0.129759
vt 0.995127 0.129759
vt 0.885791 0.012583
vt 0.719800 0.172798
vt 0.842898 0.213954
vt 0.719799 0.282048
vt 0.842898 0.282048
vt 0.522500 0.018506
vt 0.562528 0.131698
vt 0.562528 0.018506
vt 0.522500 0.131698
vt 0.710089 0.018506
vt 0.669954 0.131698
vt 0.669954 0.018506
vt 0.710089 0.131698
vt 0.646485 0.018506
vt 0.669954 0.131698
vt 0.669954 0.018506
vt 0.646485 0.131698
vt 0.585938 0.018506
vt 0.562528 0.131698
vt 0.562528 0.018506
vt 0.585938 0.131698
vt 0.669954 0.018506
vt 0.646485 0.131698
vt 0.646485 0.018506
vt 0.669954 0.131698
vt 0.646485 0.018506
vt 0.585938 0.131698
vt 0.585938 0.018506
vt 0.646485 0.131698
vt 0.562528 0.018506
vt 0.585938 0.131698
vt 0.585938 0.018506
vt 0.562528 0.131698
vt 0.585938 0.018506
vt 0.646485 0.131698
vt 0.646485 0.018506
vt 0.585938 0.131698
vt 0.562528 0.487157
vt 0.522500 0.374040
vt 0.522500 0.487157
vt 0.562528 0.374040
vt 0.710089 0.487157
vt 0.669954 0.374040
vt 0.710089 0.374040
vt 0.669954 0.487157
vt 0.646485 0.487157
vt 0.669954 0.374040
vt 0.646485 0.374040
vt 0.669954 0.487157
vt 0.585938 0.374040
vt 0.562528 0.487157
vt 0.562528 0.374040
vt 0.585938 0.487157
vt 0.669954 0.487157
vt 0.646485 0.374040
vt 0.669954 0.374040
vt 0.646485 0.487157
vt 0.646485 0.487157
vt 0.585938 0.374040
vt 0.646485 0.374040
vt 0.585938 0.487157
vt 0.585938 0.487157
vt 0.562528 0.374040
vt 0.562528 0.487157
vt 0.585938 0.374040
vt 0.646485 0.487157
vt 0.585938 0.374040
vt 0.585938 0.487157
vt 0.646485 0.374040
vt 0.870115 0.473629
vt 0.844417 0.436277
vt 0.870115 0.440619
vt 0.754665 0.389795
vt 0.844417 0.389795
vt 0.870116 0.352525
vt 0.870116 0.383639
vt 0.729560 0.383639
vt 0.729560 0.352525
vt 0.754665 0.436277
vt 0.729560 0.440619
vt 0.729560 0.473629
vt 0.710089 0.487157
vt 0.669954 0.374040
vt 0.669954 0.487157
vt 0.710089 0.374040
vt 0.522500 0.487157
vt 0.562528 0.374040
vt 0.562528 0.487157
vt 0.522500 0.374040
vt 0.710089 0.374040
vt 0.669954 0.131698
vt 0.710089 0.131698
vt 0.669954 0.374040
vt 0.669954 0.374040
vt 0.646485 0.131698
vt 0.669954 0.131698
vt 0.646485 0.374040
vt 0.646485 0.374040
vt 0.585938 0.131698
vt 0.646485 0.131698
vt 0.585938 0.374040
vt 0.585938 0.374040
vt 0.562528 0.131698
vt 0.585938 0.131698
vt 0.562528 0.374040
vt 0.562528 0.374040
vt 0.522500 0.131698
vt 0.562528 0.131698
vt 0.522500 0.374040
vt 0.710089 0.374040
vt 0.669954 0.131698
vt 0.669954 0.374040
vt 0.710089 0.131698
vt 0.669954 0.374040
vt 0.646485 0.131698
vt 0.646485 0.374040
vt 0.669954 0.131698
vt 0.646485 0.374040
vt 0.585938 0.131698
vt 0.585938 0.374040
vt 0.646485 0.131698
vt 0.585938 0.374040
vt 0.562528 0.131698
vt 0.562528 0.374040
vt 0.585938 0.131698
vt 0.562528 0.374040
vt 0.522500 0.131698
vt 0.522500 0.374040
vt 0.562528 0.131698
vn 0.000000 -1.000000 -0.000000
vn 0.000000 -1.000000 -0.000000
vn 0.000000 -1.000000 -0.000000
vn 0.000000 -1.000000 -0.000000
vn 0.000000 1.000000 0.000000
vn 0.000000 1.000000 0.000000
vn 0.000000 1.000000 0.000000
vn 0.000000 1.000000 0.000000
vn 0.000000 -0.000000 1.000000
vn 0.000000 -0.000000 1.000000
vn 0.000000 -0.000000 1.000000
vn 0.000000 -0.000000 1.000000
vn 1.000000 0.000000 0.000000
vn 1.000000 0.000000 0.000000
vn 1.000000 0.000000 0.000000
vn 1.000000 0.000000 0.000000
vn 0.000000 0.000000 -1.000000
vn 0.000000 0.000000 -1.000000
vn 0.000000 0.000000 -1.000000
vn 0.000000 0.000000 -1.000000
vn -1.000000 0.000000 0.000000
vn -1.000000 0.000000 0.000000
vn -1.000000 0.000000 0.000000
vn -1.000000 0.000000 0.000000
vn -0.605570 0.516305 0.605570
vn -0.605570 0.516305 0.605570
vn -0.605570 0.516305 0.605570
vn -0.605570 0.516305 0.605570
vn -0.079321 0.993688 0.079321
vn -0.079321 0.993688 0.079321
vn -0.079321 0.993688 0.079321
vn -0.079321 0.993688 0.079321
vn -0.783130 0.000000 -0.621858
vn -0.783130 0.000000 -0.621858
vn -0.783130 0.000000 -0.621858
vn -0.752352 0.040427 -0.657519
vn -0.752352 0.040427 -0.657519
vn -0.752352 0.040427 -0.657519
vn 0.613700 0.073498 0.786111
vn 0.613700 0.073498 0.786111
vn 0.613700 0.073498 0.786111
vn 0.658057 -0.000000 0.752968
vn 0.658057 -0.000000 0.752968
vn 0.658057 -0.000000 0.752968
vn -0.000000 0.000000 -1.000000
vn -0.000000 0.000000 -1.000000
vn -0.000000 0.000000 -1.000000
vn 0.000000 0.000000 -1.000000
vn 0.000000 -0.000000 1.000000
vn 0.000000 -0.000000 1.000000
vn 0.000000 -0.000000 1.000000
vn 0.000000 -0.000000 1.000000
vn -1.000000 0.000000 0.000000
vn -1.000000 0.000000 0.000000
vn -1.000000 0.000000 0.000000
vn -1.000000 0.000000 0.000000
vn -1.000000 0.000000 0.000000
vn -1.000000 0.000000 0.000000
vn -1.000000 0.000000 0.000000
vn -1.000000 0.000000 0.000000
vn -1.000000 0.000000 0.000000
vn -1.000000 0.000000 0.000000
vn -1.000000 0.000000 0.000000
vn -1.000000 0.000000 0.000000
vn 0.605570 0.516305 -0.605570
vn 0.605570 0.516305 -0.605570
vn 0.605570 0.516305 -0.605570
vn 0.605570 0.516305 -0.605570
vn 0.079321 0.993688 -0.079321
vn 0.079321 0.993688 -0.079321
vn 0.079321 0.993688 -0.079321
vn 0.079320 0.993688 -0.079320
vn -0.657519 0.040427 -0.752352
vn -0.657519 0.040427 -0.752352
vn -0.657519 0.040427 -0.752352
vn -0.621858 0.000000 -0.783130
vn -0.621858 0.000000 -0.783130
vn -0.621858 0.000000 -0.783130
vn 0.752968 -0.000000 0.658058
vn 0.752968 -0.000000 0.658058
vn 0.752968 -0.000000 0.658058
vn 0.786111 0.073498 0.613701
vn 0.786111 0.073498 0.613700
vn 0.786110 0.073498 0.613701
vn 0.000000 1.000000 0.000000
vn 0.000000 1.000000 0.000000
vn 0.000000 1.000000 0.000000
vn 0.000000 1.000000 0.000000
vn 0.000000 1.000000 0.000000
vn 0.000000 1.000000 0.000000
vn 0.000000 1.000000 0.000000
vn 0.000000 1.000000 0.000000
vn 0.000000 0.000000 -1.000000
vn 0.000000 0.000000 -1.000000
vn 0.000000 0.000000 -1.000000
vn 0.000000 -0.000001 -1.000000
vn 0.000000 -0.000000 1.000000
vn 0.000000 -0.000000 1.000000
vn 0.000000 -0.000000 1.000000
vn 0.000000 -0.000000 1.000000
vn 0.000000 -0.980841 -0.194810
vn 0.000000 -0.980841 -0.194810
vn 0.000000 -0.980841 -0.194810
vn 0.000000 -0.980841 -0.194810
vn 0.000000 0.980842 0.194807
vn 0.000000 0.980842 0.194807
vn 0.000000 0.980842 0.194807
vn 0.000000 0.980842 0.194807
vn 0.000000 -0.980842 0.194807
vn 0.000000 -0.980842 0.194807
vn 0.000000 -0.980842 0.194807
vn 0.000000 -0.980842 0.194807
vn 0.000000 -0.000000 1.000000
vn 0.000000 -0.000000 1.000000
vn 0.000000 -0.000000 1.000000
vn 0.000000 -0.000000 1.000000
vn 0.000000 0.980841 -0.194810
vn 0.000000 0.980841 -0.194810
vn 0.000000 0.980841 -0.194810
vn 0.000000 0.980841 -0.194810
vn 0.000000 0.000001 -1.000000
vn 0.000000 0.000001 -1.000000
vn 0.000000 0.000001 -1.000000
vn 0.000000 0.000001 -1.000000
vn 1.000000 0.000000 -0.000004
vn 1.000000 0.000000 -0.000004
vn 1.000000 0.000000 -0.000004
vn 1.000000 0.000000 -0.000004
vn -1.000000 0.000000 0.000000
vn -1.000000 0.000000 0.000000
vn -1.000000 0.000000 0.000000
vn -1.000000 0.000000 0.000000
vn 0.194810 -0.980841 -0.000001
vn 0.194810 -0.980841 -0.000001
vn 0.194810 -0.980841 -0.000001
vn 0.194810 -0.980841 -0.000001
vn -0.194807 0.980842 0.000000
vn -0.194807 0.980842 0.000000
vn -0.194807 0.980842 0.000000
vn -0.194807 0.980842 0.000000
vn -0.194807 -0.980842 -0.000000
vn -0.194807 -0.980842 -0.000000
vn -0.194807 -0.980842 -0.000000
vn -0.194807 -0.980842 -0.000000
vn -1.000000 0.000000 0.000000
vn -1.000000 0.000000 0.000000
vn -1.000000 0.000000 0.000000
vn -1.000000 0.000000 0.000000
vn 0.194810 0.980841 -0.000001
vn 0.194810 0.980841 -0.000001
vn 0.194810 0.980841 -0.000001
vn 0.194810 0.980841 -0.000001
vn 1.000000 -0.000000 -0.000005
vn 1.000000 -0.000000 -0.000005
vn 1.000000 -0.000000 -0.000005
vn 1.000000 -0.000000 -0.000005
vn 0.000000 0.000001 1.000000
vn 0.000000 0.000001 1.000000
vn 0.000000 0.000001 1.000000
vn 0.000000 -0.000000 1.000000
vn 0.000002 -0.000001 1.000000
vn 0.000002 -0.000001 1.000000
vn 0.000002 -0.000001 1.000000
vn 0.000000 -0.000000 1.000000
vn 0.000000 -0.000000 1.000000
vn -0.000000 -0.000000 1.000000
vn 0.000000 0.000002 1.000000
vn -0.000000 -0.000000 1.000000
vn 1.000000 -0.000001 -0.000004
vn 1.000000 -0.000001 -0.000004
vn 1.000000 -0.000001 -0.000004
vn 1.000000 -0.000000 -0.000005
vn -1.000000 0.000000 0.000000
vn -1.000000 0.000000 0.000000
vn -1.000000 0.000000 0.000000
vn -1.000000 0.000000 0.000000
vn -0.707107 -0.000000 0.707107
vn -0.707107 -0.000000 0.707107
vn -0.707107 -0.000000 0.707107
vn -0.707107 0.000000 0.707107
vn -0.191212 -0.962744 0.191212
vn -0.191212 -0.962744 0.191212
vn -0.191212 -0.962744 0.191212
vn -0.191212 -0.962744 0.191212
vn -0.707107 -0.000000 0.707107
vn -0.707107 -0.000000 0.707107
vn -0.707107 -0.000000 0.707107
vn -0.707107 -0.000000 0.707107
vn -0.191212 0.962744 0.191212
vn -0.191212 0.962744 0.191212
vn -0.191212 0.962744 0.191212
vn -0.191212 0.962744 0.191212
vn -0.707107 -0.000000 0.707107
vn -0.707107 -0.000000 0.707107
vn -0.707107 -0.000000 0.707107
vn -0.707107 -0.000000 0.707107
vn 0.707108 0.000000 -0.707106
vn 0.707108 0.000000 -0.707106
vn 0.707108 0.000000 -0.707106
vn 0.707108 0.000000 -0.707106
vn 0.160654 -0.973848 -0.160654
vn 0.160654 -0.973848 -0.160654
vn 0.160654 -0.973848 -0.160654
vn 0.160655 -0.973848 -0.160654
vn 0.707108 0.000000 -0.707106
vn 0.707108 0.000000 -0.707106
vn 0.707108 0.000000 -0.707106
vn 0.707108 0.000000 -0.707106
vn 0.160654 0.973848 -0.160654
vn 0.160654 0.973848 -0.160654
vn 0.160654 0.973848 -0.160654
vn 0.160655 0.973848 -0.160654
vn 0.707108 -0.000000 -0.707106
vn 0.707108 -0.000000 -0.707106
vn 0.707108 -0.000000 -0.707106
vn 0.707108 0.000000 -0.707106
usemtl D45_RAIL_02T
f 1/1/1 3/3/3 2/2/2
f 2/2/2 4/4/4 1/1/1
f 5/5/5 7/7/7 6/6/6
f 6/6/6 8/8/8 5/5/5
f 9/9/9 11/11/11 10/10/10
f 10/10/10 12/12/12 9/9/9
f 13/13/13 15/15/15 14/14/14
f 14/14/14 16/16/16 13/13/13
f 17/17/17 19/19/19 18/18/18
f 18/18/18 20/20/20 17/17/17
f 21/21/21 23/23/23 22/22/22
f 22/22/22 24/24/24 21/21/21
f 25/25/25 27/27/27 26/26/26
f 26/26/26 28/28/28 25/25/25
f 29/29/29 31/31/31 30/30/30
f 30/30/30 32/32/32 29/29/29
f 33/33/33 35/35/35 34/34/34
f 36/36/36 38/38/38 37/37/37
f 39/39/39 41/41/41 40/40/40
f 42/42/42 44/44/44 43/43/43
f 45/45/45 47/47/47 46/46/46
f 46/46/46 48/48/48 45/45/45
f 49/49/49 51/51/51 50/50/50
f 50/50/50 52/52/52 49/49/49
f 53/53/53 55/55/55 54/54/54
f 53/53/53 54/54/54 56/56/56
f 54/54/54 57/57/57 56/56/56
f 57/57/57 58/58/58 56/56/56
f 57/57/57 59/59/59 58/58/58
f 58/58/58 60/60/60 56/56/56
f 58/58/58 61/61/61 60/60/60
f 53/53/53 56/56/56 62/62/62
f 53/53/53 62/62/62 63/63/63
f 53/53/53 63/63/63 64/64/64
f 65/65/65 67/67/67 66/66/66
f 66/66/66 68/68/68 65/65/65
f 69/69/69 71/71/71 70/70/70
f 70/70/70 72/72/72 69/69/69
f 73/73/73 75/75/75 74/74/74
f 76/76/76 78/78/78 77/77/77
f 79/79/79 81/81/81 80/80/80
f 82/82/82 84/84/84 83/83/83
f 85/85/85 87/87/87 86/86/86
f 86/86/86 88/88/88 85/85/85
f 89/89/89 88/88/88 86/86/86
f 86/86/86 90/90/90 89/89/89
f 91/91/91 89/89/89 90/90/90
f 90/90/90 92/92/92 91/91/91
f 93/93/93 95/95/95 94/94/94
f 94/94/94 96/96/96 93/93/93
f 97/97/97 99/99/99 98/98/98
f 98/98/98 100/100/100 97/97/97
f 101/101/101 103/103/103 102/102/102
f 102/102/102 104/104/104 101/101/101
f 105/105/105 107/107/107 106/106/106
f 106/106/106 108/108/108 105/105/105
f 109/109/109 111/111/111 110/110/110
f 110/110/110 112/112/112 109/109/109
f 113/113/113 115/115/115 114/114/114
f 114/114/114 116/116/116 113/113/113
f 117/117/117 119/119/119 118/118/118
f 118/118/118 120/120/120 117/117/117
f 121/121/121 123/123/123 122/122/122
f 122/122/122 124/124/124 121/121/121
f 125/125/125 127/127/127 126/126/126
f 126/126/126 128/128/128 125/125/125
f 129/129/129 131/131/131 130/130/130
f 130/130/130 132/132/132 129/129/129
f 133/133/133 135/135/135 134/134/134
f 134/134/134 136/136/136 133/133/133
f 137/137/137 139/139/139 138/138/138
f 138/138/138 140/140/140 137/137/137
f 141/141/141 143/143/143 142/142/142
f 142/142/142 144/144/144 141/141/141
f 145/145/145 147/147/147 146/146/146
f 146/146/146 148/148/148 145/145/145
f 149/149/149 151/151/151 150/150/150
f 150/150/150 152/152/152 149/149/149
f 153/153/153 155/155/155 154/154/154
f 154/154/154 156/156/156 153/153/153
f 157/157/157 159/159/159 158/158/158
f 157/157/157 158/158/158 160/160/160
f 158/158/158 161/161/161 160/160/160
f 161/161/161 162/162/162 160/160/160
f 161/161/161 163/163/163 162/162/162
f 162/162/162 164/164/164 160/160/160
f 162/162/162 165/165/165 164/164/164
f 157/157/157 160/160/160 166/166/166
f 157/157/157 166/166/166 167/167/167
f 157/157/157 167/167/167 168/168/168
f 169/169/169 171/171/171 170/170/170
f 170/170/170 172/172/172 169/169/169
f 173/173/173 175/175/175 174/174/174
f 174/174/174 176/176/176 173/173/173
f 177/177/177 179/179/179 178/178/178
f 178/178/178 180/180/180 177/177/177
f 181/181/181 183/183/183 182/182/182
f 182/182/182 184/184/184 181/181/181
f 185/185/185 187/187/187 186/186/186
f 186/186/186 188/188/188 185/185/185
f 189/189/189 191/191/191 190/190/190
f 190/190/190 192/192/192 189/189/189
f 193/193/193 195/195/195 194/194/194
f 194/194/194 196/196/196 193/193/193
f 197/197/197 199/199/199 198/198/198
f 198/198/198 200/200/200 197/197/197
f 201/201/201 203/203/203 202/202/202
f 202/202/202 204/204/204 201/201/201
f 205/205/205 207/207/207 206/206/206
f 206/206/206 208/208/208 205/205/205
f 209/209/209 211/211/211 210/210/210
f 210/210/210 212/212/212 209/209/209
f 213/213/213 215/215/215 214/214/214
f 214/214/214 216/216/216 213/213/213
