# 
# Wavefront OBJ file
# Created with Kaydara FBX
# 
mtllib f20_tntbarrel_t.mtl

g F20_TNTBARREL_T
v -0.000000 -0.498673 0.307579
v 0.270627 -0.254256 0.270628
v 0.217492 -0.498673 0.217492
v -0.000000 -0.254256 0.382725
v 0.382725 -0.254256 0.000000
v 0.307580 -0.498673 0.000000
v -0.217492 -0.498673 0.217492
v -0.270628 -0.254256 0.270627
v -0.307580 -0.498673 -0.000000
v -0.382725 -0.254256 -0.000000
v 0.270627 0.179175 0.270628
v -0.000000 0.179175 0.382725
v 0.382725 0.179174 0.000000
v -0.270628 0.179175 0.270627
v -0.382725 0.179174 -0.000000
v 0.217491 0.430261 0.217492
v -0.000000 0.430261 0.307580
v 0.307580 0.430261 0.000000
v -0.217492 0.430261 0.217492
v -0.307580 0.430261 -0.000000
v 0.307580 -0.498673 0.000000
v 0.270628 -0.254256 -0.270627
v 0.217492 -0.498673 -0.217492
v 0.382725 -0.254256 0.000000
v -0.000000 -0.254256 -0.382725
v 0.000000 -0.498673 -0.307580
v -0.270628 -0.254256 -0.270627
v -0.217492 -0.498673 -0.217492
v -0.382725 -0.254256 -0.000000
v -0.307580 -0.498673 -0.000000
v 0.270628 0.179175 -0.270627
v 0.382725 0.179174 0.000000
v 0.000000 0.179175 -0.382725
v -0.270627 0.179175 -0.270627
v -0.382725 0.179174 -0.000000
v 0.217492 0.430261 -0.217491
v 0.307580 0.430261 0.000000
v 0.000000 0.430261 -0.307580
v -0.217492 0.430261 -0.217491
v -0.307580 0.430261 -0.000000
v 0.217492 -0.498673 0.217492
v 0.307580 -0.498673 0.000000
v 0.217492 -0.498673 -0.217492
v 0.000000 -0.498673 -0.307580
v -0.000000 -0.498673 0.307579
v -0.217492 -0.498673 -0.217492
v -0.217492 -0.498673 0.217492
v -0.307580 -0.498673 -0.000000
v -0.000000 0.430261 0.307580
v 0.188326 0.430261 0.188326
v 0.217491 0.430261 0.217492
v -0.000000 0.430261 0.266333
v 0.266333 0.430261 0.000000
v 0.307580 0.430261 0.000000
v 0.188326 0.430261 -0.188326
v 0.217492 0.430261 -0.217491
v 0.000000 0.430261 -0.266333
v 0.000000 0.430261 -0.307580
v -0.188326 0.430261 -0.188326
v -0.217492 0.430261 -0.217491
v -0.266333 0.430261 -0.000000
v -0.307580 0.430261 -0.000000
v -0.188326 0.430261 0.188326
v -0.217492 0.430261 0.217492
v -0.000000 0.430261 0.266333
v 0.186025 0.396608 0.186025
v 0.188326 0.430261 0.188326
v -0.000000 0.396607 0.263079
v 0.188326 0.430261 0.188326
v 0.263079 0.396607 0.000000
v 0.266333 0.430261 0.000000
v 0.186025 0.396608 0.186025
v 0.266333 0.430261 0.000000
v 0.186025 0.396608 -0.186025
v 0.188326 0.430261 -0.188326
v 0.263079 0.396607 0.000000
v 0.188326 0.430261 -0.188326
v 0.000000 0.396607 -0.263079
v 0.000000 0.430261 -0.266333
v 0.186025 0.396608 -0.186025
v 0.000000 0.430261 -0.266333
v -0.186025 0.396608 -0.186025
v -0.188326 0.430261 -0.188326
v 0.000000 0.396607 -0.263079
v -0.188326 0.430261 -0.188326
v -0.263079 0.396607 -0.000000
v -0.266333 0.430261 -0.000000
v -0.186025 0.396608 -0.186025
v -0.266333 0.430261 -0.000000
v -0.186025 0.396608 0.186025
v -0.188326 0.430261 0.188326
v -0.263079 0.396607 -0.000000
v -0.188326 0.430261 0.188326
v -0.000000 0.396607 0.263079
v -0.000000 0.430261 0.266333
v -0.186025 0.396608 0.186025
v 0.186025 0.396608 -0.186025
v 0.263079 0.396607 0.000000
v 0.186025 0.396608 0.186025
v 0.000000 0.396607 -0.263079
v -0.000000 0.396607 0.263079
v -0.186025 0.396608 -0.186025
v -0.186025 0.396608 0.186025
v -0.263079 0.396607 -0.000000
v 0.239230 0.382668 0.000000
v 0.226218 0.438863 -0.041147
v 0.220846 0.382668 -0.031843
v 0.249974 0.438863 0.000000
v 0.220846 0.382668 -0.031843
v 0.178705 0.438863 -0.041147
v 0.184077 0.382668 -0.031843
v 0.226218 0.438863 -0.041147
v 0.184077 0.382668 -0.031843
v 0.154948 0.438863 0.000000
v 0.165692 0.382668 0.000000
v 0.178705 0.438863 -0.041147
v 0.165692 0.382668 0.000000
v 0.178705 0.438863 0.041148
v 0.184077 0.382667 0.031843
v 0.154948 0.438863 0.000000
v 0.184077 0.382667 0.031843
v 0.226218 0.438863 0.041148
v 0.220846 0.382668 0.031843
v 0.178705 0.438863 0.041148
v 0.220846 0.382668 0.031843
v 0.249974 0.438863 0.000000
v 0.239230 0.382668 0.000000
v 0.226218 0.438863 0.041148
v 0.226218 0.438863 -0.041147
v 0.249974 0.438863 0.000000
v 0.226218 0.438863 0.041148
v 0.178705 0.438863 -0.041147
v 0.178705 0.438863 0.041148
v 0.154948 0.438863 0.000000
v 0.213346 0.424709 0.009000
v 0.191224 0.462713 0.000000
v 0.207952 0.475879 0.009000
v 0.195462 0.422517 0.000000
v 0.155024 0.480287 0.000000
v 0.157070 0.500579 0.009000
v 0.109210 0.469943 0.000000
v 0.105521 0.488941 0.009000
v 0.195462 0.422517 0.000000
v 0.207952 0.475879 -0.009000
v 0.191224 0.462713 0.000000
v 0.213346 0.424709 -0.009000
v 0.157070 0.500579 -0.009000
v 0.155024 0.480287 0.000000
v 0.105521 0.488941 -0.009000
v 0.109210 0.469943 0.000000
v 0.213346 0.424709 -0.009000
v 0.207952 0.475879 0.009000
v 0.207952 0.475879 -0.009000
v 0.213346 0.424709 0.009000
v 0.157070 0.500579 0.009000
v 0.157070 0.500579 -0.009000
v 0.105521 0.488941 0.009000
v 0.105521 0.488941 -0.009000
v 0.109210 0.469943 0.000000
vt 0.435091 0.984676
vt 0.642187 0.822026
vt 0.626325 0.984676
vt 0.435091 0.822026
vt 0.854858 0.822026
vt 0.804640 0.984676
vt 0.243856 0.984676
vt 0.227994 0.822026
vt 0.065542 0.984676
vt 0.015324 0.822026
vt 0.642187 0.553638
vt 0.435091 0.553638
vt 0.854858 0.553638
vt 0.227994 0.553638
vt 0.015324 0.553638
vt 0.626325 0.391226
vt 0.435091 0.391226
vt 0.804640 0.391226
vt 0.243856 0.391226
vt 0.065542 0.391226
vt 0.065542 0.984676
vt 0.227994 0.822026
vt 0.243857 0.984676
vt 0.015324 0.822026
vt 0.435091 0.822026
vt 0.435091 0.984676
vt 0.642188 0.822026
vt 0.626325 0.984676
vt 0.854858 0.822026
vt 0.804640 0.984676
vt 0.227994 0.553638
vt 0.015324 0.553638
vt 0.435091 0.553638
vt 0.642188 0.553638
vt 0.854858 0.553638
vt 0.243857 0.391226
vt 0.065542 0.391226
vt 0.435091 0.391226
vt 0.626325 0.391226
vt 0.804640 0.391226
vt 0.495595 0.074308
vt 0.416893 0.152841
vt 0.416893 0.264023
vt 0.495426 0.342724
vt 0.606776 0.074308
vt 0.606607 0.342724
vt 0.685309 0.153010
vt 0.685309 0.264192
vt 0.383546 0.118826
vt 0.268018 0.043620
vt 0.278022 0.016605
vt 0.359264 0.128938
vt 0.138128 0.043620
vt 0.128016 0.016605
vt 0.046634 0.132059
vt 0.022352 0.122055
vt 0.046634 0.259533
vt 0.022352 0.269646
vt 0.138833 0.351504
vt 0.128829 0.375786
vt 0.268723 0.351504
vt 0.278836 0.375786
vt 0.359264 0.258829
vt 0.383546 0.268832
vt 0.359264 0.128938
vt 0.260858 0.057252
vt 0.268018 0.043620
vt 0.343946 0.135465
vt 0.268018 0.043620
vt 0.143658 0.057252
vt 0.138128 0.043620
vt 0.260858 0.057252
vt 0.138128 0.043620
vt 0.061953 0.139190
vt 0.046634 0.132059
vt 0.143658 0.057252
vt 0.046634 0.132059
vt 0.061953 0.253007
vt 0.046634 0.259533
vt 0.061953 0.139190
vt 0.046634 0.259533
vt 0.145993 0.337872
vt 0.138833 0.351504
vt 0.061953 0.253007
vt 0.138833 0.351504
vt 0.263193 0.337872
vt 0.268723 0.351504
vt 0.145993 0.337872
vt 0.268723 0.351504
vt 0.343946 0.254062
vt 0.359264 0.258829
vt 0.263193 0.337872
vt 0.359264 0.258829
vt 0.343946 0.135465
vt 0.359264 0.128938
vt 0.343946 0.254062
vt 0.260858 0.057252
vt 0.343946 0.135465
vt 0.343946 0.254062
vt 0.143658 0.057252
vt 0.263193 0.337872
vt 0.061953 0.139190
vt 0.145993 0.337872
vt 0.061953 0.253007
vt 0.948164 0.187654
vt 0.885364 0.023432
vt 0.874268 0.187654
vt 0.980853 0.023432
vt 0.874268 0.187654
vt 0.787231 0.023432
vt 0.798326 0.187654
vt 0.885364 0.023432
vt 0.798326 0.187654
vt 0.691742 0.023432
vt 0.724431 0.187654
vt 0.787231 0.023432
vt 0.724431 0.187654
vt 0.787231 0.023432
vt 0.798326 0.187654
vt 0.691742 0.023432
vt 0.798326 0.187654
vt 0.885364 0.023432
vt 0.874268 0.187654
vt 0.787231 0.023432
vt 0.874268 0.187654
vt 0.980853 0.023432
vt 0.948164 0.187654
vt 0.885364 0.023432
vt 0.818720 0.249125
vt 0.879810 0.213110
vt 0.940901 0.249125
vt 0.818720 0.321154
vt 0.940901 0.321154
vt 0.879810 0.357169
vt 0.909482 0.588553
vt 0.890202 0.534587
vt 0.914173 0.534816
vt 0.882694 0.584526
vt 0.886186 0.478770
vt 0.912019 0.476501
vt 0.877982 0.406889
vt 0.908243 0.402609
vt 0.961475 0.585459
vt 0.931559 0.534973
vt 0.955716 0.533323
vt 0.934662 0.590704
vt 0.932853 0.476560
vt 0.959075 0.477164
vt 0.936084 0.404304
vt 0.966109 0.407328
vt 0.934662 0.590704
vt 0.914173 0.534816
vt 0.931559 0.534973
vt 0.909482 0.588553
vt 0.912019 0.476501
vt 0.932853 0.476560
vt 0.908243 0.402609
vt 0.936084 0.404304
vt 0.923858 0.375616
vn -0.000000 -0.293872 0.955845
vn 0.699786 -0.143527 0.699786
vn 0.675884 -0.293872 0.675884
vn -0.000000 -0.143527 0.989646
vn 0.989646 -0.143527 0.000000
vn 0.955845 -0.293872 0.000000
vn -0.675884 -0.293872 0.675884
vn -0.699786 -0.143527 0.699786
vn -0.955845 -0.293872 -0.000000
vn -0.989646 -0.143527 -0.000000
vn 0.700136 0.140069 0.700136
vn -0.000000 0.140069 0.990142
vn 0.990142 0.140069 0.000000
vn -0.700136 0.140069 0.700136
vn -0.990142 0.140069 -0.000000
vn 0.677419 0.286716 0.677420
vn -0.000000 0.286716 0.958016
vn 0.958016 0.286716 0.000000
vn -0.677419 0.286716 0.677419
vn -0.958016 0.286716 -0.000000
vn 0.955845 -0.293872 0.000000
vn 0.699786 -0.143527 -0.699786
vn 0.675885 -0.293872 -0.675884
vn 0.989646 -0.143527 0.000000
vn 0.000000 -0.143527 -0.989646
vn 0.000000 -0.293872 -0.955845
vn -0.699786 -0.143527 -0.699786
vn -0.675884 -0.293872 -0.675884
vn -0.989646 -0.143527 -0.000000
vn -0.955845 -0.293872 -0.000000
vn 0.700136 0.140069 -0.700136
vn 0.990142 0.140069 0.000000
vn 0.000000 0.140069 -0.990142
vn -0.700136 0.140069 -0.700136
vn -0.990142 0.140069 -0.000000
vn 0.677419 0.286716 -0.677419
vn 0.958016 0.286716 0.000000
vn 0.000000 0.286716 -0.958016
vn -0.677419 0.286716 -0.677419
vn -0.958016 0.286716 -0.000000
vn 0.000000 -1.000000 -0.000000
vn 0.000000 -1.000000 -0.000000
vn 0.000000 -1.000000 -0.000000
vn 0.000000 -1.000000 -0.000000
vn 0.000000 -1.000000 -0.000000
vn 0.000000 -1.000000 -0.000000
vn 0.000000 -1.000000 -0.000000
vn 0.000000 -1.000000 -0.000000
vn 0.000000 1.000000 0.000001
vn 0.000000 1.000000 0.000001
vn 0.000000 1.000000 0.000001
vn 0.000000 1.000000 0.000001
vn 0.000001 1.000000 0.000000
vn 0.000001 1.000000 0.000000
vn 0.000001 1.000000 -0.000000
vn 0.000001 1.000000 -0.000000
vn -0.000001 1.000000 0.000001
vn -0.000001 1.000000 0.000001
vn 0.000001 1.000000 0.000002
vn 0.000001 1.000000 0.000002
vn 0.000000 1.000000 0.000000
vn 0.000000 1.000000 0.000000
vn -0.000001 1.000000 0.000000
vn -0.000001 1.000000 0.000000
vn -0.381166 0.088960 -0.920217
vn -0.381166 0.088960 -0.920217
vn -0.381166 0.088960 -0.920217
vn -0.381166 0.088960 -0.920217
vn -0.920216 0.088960 -0.381166
vn -0.920216 0.088960 -0.381166
vn -0.920216 0.088960 -0.381166
vn -0.920216 0.088960 -0.381166
vn -0.920217 0.088961 0.381166
vn -0.920217 0.088961 0.381166
vn -0.920217 0.088961 0.381166
vn -0.920217 0.088961 0.381166
vn -0.381166 0.088961 0.920216
vn -0.381166 0.088961 0.920216
vn -0.381166 0.088961 0.920216
vn -0.381166 0.088961 0.920216
vn 0.381166 0.088961 0.920216
vn 0.381166 0.088961 0.920216
vn 0.381166 0.088961 0.920216
vn 0.381166 0.088961 0.920216
vn 0.920216 0.088961 0.381166
vn 0.920216 0.088961 0.381166
vn 0.920216 0.088961 0.381166
vn 0.920216 0.088961 0.381166
vn 0.920217 0.088961 -0.381166
vn 0.920217 0.088961 -0.381166
vn 0.920217 0.088961 -0.381166
vn 0.920217 0.088961 -0.381166
vn 0.381166 0.088960 -0.920216
vn 0.381166 0.088960 -0.920216
vn 0.381166 0.088960 -0.920216
vn 0.381166 0.088960 -0.920216
vn 0.000000 1.000000 0.000000
vn 0.000000 1.000000 0.000000
vn 0.000000 1.000000 0.000000
vn 0.000000 1.000000 0.000000
vn 0.000000 1.000000 0.000000
vn 0.000000 1.000000 0.000000
vn 0.000000 1.000000 0.000000
vn 0.000000 1.000000 0.000000
vn 0.854393 -0.163354 -0.493284
vn 0.854393 -0.163354 -0.493284
vn 0.854393 -0.163354 -0.493284
vn 0.854393 -0.163354 -0.493284
vn 0.000001 -0.163354 -0.986567
vn 0.000001 -0.163354 -0.986567
vn 0.000001 -0.163354 -0.986567
vn 0.000001 -0.163354 -0.986567
vn -0.854393 -0.163355 -0.493283
vn -0.854393 -0.163355 -0.493283
vn -0.854393 -0.163355 -0.493283
vn -0.854393 -0.163355 -0.493283
vn -0.854393 -0.163354 0.493283
vn -0.854393 -0.163354 0.493283
vn -0.854393 -0.163354 0.493283
vn -0.854393 -0.163354 0.493283
vn 0.000000 -0.163354 0.986568
vn 0.000000 -0.163354 0.986568
vn 0.000000 -0.163354 0.986568
vn 0.000000 -0.163354 0.986568
vn 0.854393 -0.163354 0.493284
vn 0.854393 -0.163354 0.493283
vn 0.854393 -0.163354 0.493284
vn 0.854393 -0.163354 0.493283
vn 0.000000 1.000000 0.000000
vn 0.000000 1.000000 0.000000
vn 0.000000 1.000000 0.000000
vn 0.000000 1.000000 0.000000
vn 0.000000 1.000000 0.000000
vn 0.000000 1.000000 0.000000
vn 0.516403 0.054436 0.854614
vn -0.833832 -0.552018 0.000000
vn 0.567168 0.393913 0.723293
vn -0.994490 -0.104836 -0.000003
vn -0.118562 -0.992947 0.000001
vn 0.075205 0.645017 0.760459
vn -0.367735 -0.929931 0.000000
vn -0.636127 0.319075 0.702520
vn -0.994490 -0.104836 -0.000003
vn 0.567168 0.393912 -0.723294
vn -0.833832 -0.552018 0.000000
vn 0.516401 0.054437 -0.854615
vn 0.075204 0.645017 -0.760459
vn -0.118562 -0.992947 0.000001
vn -0.636128 0.319074 -0.702519
vn -0.367735 -0.929931 0.000000
vn 0.516401 0.054437 -0.854615
vn 0.567168 0.393913 0.723293
vn 0.567168 0.393912 -0.723294
vn 0.516403 0.054436 0.854614
vn 0.075205 0.645017 0.760459
vn 0.075204 0.645017 -0.760459
vn -0.636127 0.319075 0.702520
vn -0.636128 0.319074 -0.702519
vn -0.367735 -0.929931 0.000000
usemtl F20_TNTBARREL_T
f 1/1/1 3/3/3 2/2/2
f 1/1/1 2/2/2 4/4/4
f 3/3/3 5/5/5 2/2/2
f 3/3/3 6/6/6 5/5/5
f 7/7/7 1/1/1 4/4/4
f 7/7/7 4/4/4 8/8/8
f 9/9/9 7/7/7 8/8/8
f 9/9/9 8/8/8 10/10/10
f 4/4/4 2/2/2 11/11/11
f 4/4/4 11/11/11 12/12/12
f 8/8/8 4/4/4 12/12/12
f 2/2/2 5/5/5 13/13/13
f 2/2/2 13/13/13 11/11/11
f 10/10/10 8/8/8 14/14/14
f 8/8/8 12/12/12 14/14/14
f 10/10/10 14/14/14 15/15/15
f 12/12/12 11/11/11 16/16/16
f 12/12/12 16/16/16 17/17/17
f 14/14/14 12/12/12 17/17/17
f 11/11/11 13/13/13 18/18/18
f 11/11/11 18/18/18 16/16/16
f 15/15/15 14/14/14 19/19/19
f 14/14/14 17/17/17 19/19/19
f 15/15/15 19/19/19 20/20/20
f 21/21/21 23/23/23 22/22/22
f 21/21/21 22/22/22 24/24/24
f 23/23/23 25/25/25 22/22/22
f 23/23/23 26/26/26 25/25/25
f 26/26/26 27/27/27 25/25/25
f 26/26/26 28/28/28 27/27/27
f 28/28/28 29/29/29 27/27/27
f 28/28/28 30/30/30 29/29/29
f 24/24/24 22/22/22 31/31/31
f 24/24/24 31/31/31 32/32/32
f 22/22/22 25/25/25 33/33/33
f 22/22/22 33/33/33 31/31/31
f 25/25/25 27/27/27 34/34/34
f 25/25/25 34/34/34 33/33/33
f 27/27/27 29/29/29 35/35/35
f 27/27/27 35/35/35 34/34/34
f 32/32/32 31/31/31 36/36/36
f 32/32/32 36/36/36 37/37/37
f 31/31/31 33/33/33 38/38/38
f 31/31/31 38/38/38 36/36/36
f 33/33/33 34/34/34 39/39/39
f 33/33/33 39/39/39 38/38/38
f 34/34/34 35/35/35 40/40/40
f 34/34/34 40/40/40 39/39/39
f 41/41/41 43/43/43 42/42/42
f 43/43/43 41/41/41 44/44/44
f 44/44/44 41/41/41 45/45/45
f 44/44/44 45/45/45 46/46/46
f 46/46/46 45/45/45 47/47/47
f 46/46/46 47/47/47 48/48/48
f 49/49/49 51/51/51 50/50/50
f 49/49/49 50/50/50 52/52/52
f 51/51/51 53/53/53 50/50/50
f 51/51/51 54/54/54 53/53/53
f 54/54/54 55/55/55 53/53/53
f 54/54/54 56/56/56 55/55/55
f 56/56/56 57/57/57 55/55/55
f 56/56/56 58/58/58 57/57/57
f 58/58/58 59/59/59 57/57/57
f 58/58/58 60/60/60 59/59/59
f 60/60/60 61/61/61 59/59/59
f 60/60/60 62/62/62 61/61/61
f 62/62/62 63/63/63 61/61/61
f 62/62/62 64/64/64 63/63/63
f 64/64/64 49/49/49 52/52/52
f 64/64/64 52/52/52 63/63/63
f 65/65/65 67/67/67 66/66/66
f 65/65/65 66/66/66 68/68/68
f 69/69/69 71/71/71 70/70/70
f 69/69/69 70/70/70 72/72/72
f 73/73/73 75/75/75 74/74/74
f 73/73/73 74/74/74 76/76/76
f 77/77/77 79/79/79 78/78/78
f 77/77/77 78/78/78 80/80/80
f 81/81/81 83/83/83 82/82/82
f 81/81/81 82/82/82 84/84/84
f 85/85/85 87/87/87 86/86/86
f 85/85/85 86/86/86 88/88/88
f 89/89/89 91/91/91 90/90/90
f 89/89/89 90/90/90 92/92/92
f 93/93/93 95/95/95 94/94/94
f 93/93/93 94/94/94 96/96/96
f 97/97/97 99/99/99 98/98/98
f 99/99/99 97/97/97 100/100/100
f 99/99/99 100/100/100 101/101/101
f 101/101/101 100/100/100 102/102/102
f 101/101/101 102/102/102 103/103/103
f 103/103/103 102/102/102 104/104/104
f 105/105/105 107/107/107 106/106/106
f 105/105/105 106/106/106 108/108/108
f 109/109/109 111/111/111 110/110/110
f 109/109/109 110/110/110 112/112/112
f 113/113/113 115/115/115 114/114/114
f 113/113/113 114/114/114 116/116/116
f 117/117/117 119/119/119 118/118/118
f 117/117/117 118/118/118 120/120/120
f 121/121/121 123/123/123 122/122/122
f 121/121/121 122/122/122 124/124/124
f 125/125/125 127/127/127 126/126/126
f 125/125/125 126/126/126 128/128/128
f 129/129/129 131/131/131 130/130/130
f 131/131/131 129/129/129 132/132/132
f 131/131/131 132/132/132 133/133/133
f 133/133/133 132/132/132 134/134/134
f 135/135/135 137/137/137 136/136/136
f 135/135/135 136/136/136 138/138/138
f 137/137/137 139/139/139 136/136/136
f 137/137/137 140/140/140 139/139/139
f 140/140/140 141/141/141 139/139/139
f 140/140/140 142/142/142 141/141/141
f 143/143/143 145/145/145 144/144/144
f 143/143/143 144/144/144 146/146/146
f 145/145/145 147/147/147 144/144/144
f 145/145/145 148/148/148 147/147/147
f 148/148/148 149/149/149 147/147/147
f 148/148/148 150/150/150 149/149/149
f 151/151/151 153/153/153 152/152/152
f 151/151/151 152/152/152 154/154/154
f 153/153/153 155/155/155 152/152/152
f 153/153/153 156/156/156 155/155/155
f 156/156/156 157/157/157 155/155/155
f 156/156/156 158/158/158 157/157/157
f 158/158/158 159/159/159 157/157/157
