# 
# Wavefront OBJ file
# Created with Kaydara FBX
# 
mtllib grass_02.mtl

g grass_02
v 0.400000 -0.269691 -0.400000
v -0.400000 -0.269691 0.400000
v -0.400000 -0.269691 -0.400000
v 0.400000 -0.269691 0.400000
v -0.400000 -0.269691 0.400000
v -0.378054 -0.500004 -0.378054
v -0.400000 -0.269691 -0.400000
v -0.378054 -0.500004 0.378054
v -0.400000 -0.269691 -0.400000
v 0.378054 -0.500004 -0.378054
v 0.400000 -0.269691 -0.400000
v -0.378054 -0.500004 -0.378054
v 0.400000 -0.269691 -0.400000
v 0.378054 -0.500004 0.378054
v 0.400000 -0.269691 0.400000
v 0.378054 -0.500004 -0.378054
v 0.400000 -0.269691 0.400000
v -0.378054 -0.500004 0.378054
v -0.400000 -0.269691 0.400000
v 0.378054 -0.500004 0.378054
v 0.378054 -0.500004 -0.378054
v -0.378054 -0.500004 0.378054
v 0.378054 -0.500004 0.378054
v -0.378054 -0.500004 -0.378054
vt 0.987784 0.023562
vt 0.556103 0.455243
vt 0.556103 0.023562
vt 0.987784 0.455243
vt 0.556103 0.468831
vt 0.975942 0.577093
vt 0.987784 0.468831
vt 0.567945 0.577093
vt 0.556103 0.468831
vt 0.975942 0.577093
vt 0.987784 0.468831
vt 0.567945 0.577093
vt 0.556103 0.468831
vt 0.975942 0.577093
vt 0.987784 0.468831
vt 0.567945 0.577093
vt 0.556103 0.468831
vt 0.975942 0.577093
vt 0.987784 0.468831
vt 0.567945 0.577093
vt 0.134407 0.771681
vt 0.012962 0.893125
vt 0.134407 0.893125
vt 0.012962 0.771681
vn 0.000000 1.000000 0.000000
vn 0.000000 1.000000 0.000000
vn 0.000000 1.000000 0.000000
vn 0.000000 1.000000 0.000000
vn -0.700772 -0.133551 0.700772
vn -0.700772 -0.133551 -0.700773
vn -0.700773 -0.133551 -0.700772
vn -0.700772 -0.133551 0.700772
vn -0.700773 -0.133551 -0.700772
vn 0.700773 -0.133551 -0.700772
vn 0.700772 -0.133551 -0.700773
vn -0.700772 -0.133551 -0.700773
vn 0.700772 -0.133551 -0.700773
vn 0.700772 -0.133551 0.700773
vn 0.700773 -0.133551 0.700772
vn 0.700773 -0.133551 -0.700772
vn 0.700773 -0.133551 0.700772
vn -0.700772 -0.133551 0.700772
vn -0.700772 -0.133551 0.700772
vn 0.700772 -0.133551 0.700773
vn 0.000000 -1.000000 -0.000000
vn 0.000000 -1.000000 -0.000000
vn 0.000000 -1.000000 -0.000000
vn 0.000000 -1.000000 -0.000000
usemtl grass_02
f 1/1/1 3/3/3 2/2/2
f 2/2/2 4/4/4 1/1/1
f 5/5/5 7/7/7 6/6/6
f 6/6/6 8/8/8 5/5/5
f 9/9/9 11/11/11 10/10/10
f 10/10/10 12/12/12 9/9/9
f 13/13/13 15/15/15 14/14/14
f 14/14/14 16/16/16 13/13/13
f 17/17/17 19/19/19 18/18/18
f 18/18/18 20/20/20 17/17/17
f 21/21/21 23/23/23 22/22/22
f 22/22/22 24/24/24 21/21/21
