# 
# Wavefront OBJ file
# Created with Kaydara FBX
# 
mtllib ladder.mtl

g ladder
v -0.281250 -0.500000 -0.500000
v -0.343750 -0.500000 -0.437034
v -0.281250 -0.500000 -0.437034
v -0.343750 -0.500000 -0.500000
v -0.281250 0.500000 -0.500000
v -0.343750 0.500000 -0.437034
v -0.343750 0.500000 -0.500000
v -0.281250 0.500000 -0.437034
v -0.281250 0.500000 -0.437034
v -0.343750 -0.500000 -0.437034
v -0.343750 0.500000 -0.437034
v -0.281250 -0.500000 -0.437034
v -0.343750 0.500000 -0.500000
v -0.281250 -0.500000 -0.500000
v -0.281250 0.500000 -0.500000
v -0.343750 -0.500000 -0.500000
v -0.343750 0.500000 -0.437034
v -0.343750 -0.500000 -0.500000
v -0.343750 0.500000 -0.500000
v -0.343750 -0.500000 -0.437034
v -0.281250 0.500000 -0.437034
v -0.281250 -0.500000 -0.500000
v -0.281250 -0.500000 -0.437034
v -0.281250 0.500000 -0.500000
v 0.343750 0.500000 -0.500000
v 0.281250 0.500000 -0.437034
v 0.281250 0.500000 -0.500000
v 0.343750 0.500000 -0.437034
v 0.343750 -0.500000 -0.500000
v 0.281250 -0.500000 -0.437034
v 0.343750 -0.500000 -0.437034
v 0.281250 -0.500000 -0.500000
v 0.343750 -0.500000 -0.437034
v 0.281250 0.500000 -0.437034
v 0.343750 0.500000 -0.437034
v 0.281250 -0.500000 -0.437034
v 0.343750 -0.500000 -0.500000
v 0.343750 0.500000 -0.437034
v 0.343750 0.500000 -0.500000
v 0.343750 -0.500000 -0.437034
v 0.281250 -0.500000 -0.500000
v 0.343750 0.500000 -0.500000
v 0.281250 0.500000 -0.500000
v 0.343750 -0.500000 -0.500000
v 0.281250 -0.500000 -0.500000
v 0.281250 0.500000 -0.437034
v 0.281250 -0.500000 -0.437034
v 0.281250 0.500000 -0.500000
v -0.289247 0.283730 -0.461936
v 0.289207 0.364443 -0.476168
v -0.289247 0.349565 -0.473545
v 0.289207 0.270206 -0.461648
v -0.289247 0.283730 -0.460821
v 0.289207 0.364443 -0.475053
v 0.289207 0.270206 -0.460532
v -0.289247 0.349565 -0.472429
v 0.289247 -0.054914 -0.471868
v -0.289207 0.032147 -0.456580
v -0.289207 -0.060173 -0.471868
v 0.289247 0.016285 -0.456580
v 0.289247 -0.054914 -0.470752
v -0.289207 0.032147 -0.455464
v 0.289247 0.016285 -0.455464
v -0.289207 -0.060173 -0.470752
v -0.289247 -0.262242 -0.473880
v 0.289207 -0.395538 -0.462218
v 0.289207 -0.287079 -0.471707
v -0.289247 -0.335157 -0.467500
v -0.289247 -0.262242 -0.472764
v 0.289207 -0.395538 -0.461102
v -0.289247 -0.335157 -0.466385
v 0.289207 -0.287079 -0.470591
vt 0.644531 0.290282
vt 0.332031 0.399657
vt 0.644531 0.399657
vt 0.332031 0.290282
vt 0.643878 0.488485
vt 0.332814 0.600006
vt 0.332814 0.488485
vt 0.643878 0.600006
vt 0.285156 0.006555
vt 0.003421 0.994122
vt 0.003421 0.006555
vt 0.285156 0.994122
vt 0.285156 0.006555
vt 0.003421 0.994122
vt 0.003421 0.006555
vt 0.285156 0.994122
vt 0.285156 0.006555
vt 0.003421 0.994122
vt 0.003421 0.006555
vt 0.285156 0.994122
vt 0.285156 0.006555
vt 0.003421 0.994122
vt 0.285156 0.994122
vt 0.003421 0.006555
vt 0.643878 0.488485
vt 0.332814 0.600006
vt 0.332814 0.488485
vt 0.643878 0.600006
vt 0.644531 0.290282
vt 0.332031 0.399657
vt 0.644531 0.399657
vt 0.332031 0.290282
vt 0.285156 0.006555
vt 0.003421 0.994122
vt 0.285156 0.994122
vt 0.003421 0.006555
vt 0.285156 0.006555
vt 0.003421 0.994122
vt 0.285156 0.994122
vt 0.003421 0.006555
vt 0.285156 0.006555
vt 0.003421 0.994122
vt 0.285156 0.994122
vt 0.003421 0.006555
vt 0.285156 0.006555
vt 0.003421 0.994122
vt 0.003421 0.006555
vt 0.285156 0.994122
vt 0.998162 1.006566
vt 0.716115 -0.005811
vt 0.716115 1.006566
vt 0.998162 -0.005811
vt 0.998162 1.006566
vt 0.716115 -0.005811
vt 0.998162 -0.005811
vt 0.716115 1.006566
vt 0.998162 1.006566
vt 0.716115 -0.005811
vt 0.998162 -0.005811
vt 0.716115 1.006566
vt 0.998162 1.006566
vt 0.716115 -0.005811
vt 0.716115 1.006566
vt 0.998162 -0.005811
vt 0.998162 1.006566
vt 0.716115 -0.005811
vt 0.998162 -0.005811
vt 0.716115 1.006566
vt 0.998162 1.006566
vt 0.716115 -0.005811
vt 0.716115 1.006566
vt 0.998162 -0.005811
vn 0.000000 -1.000000 -0.000000
vn 0.000000 -1.000000 -0.000000
vn 0.000000 -1.000000 -0.000000
vn 0.000000 -1.000000 -0.000000
vn 0.000000 1.000000 0.000000
vn 0.000000 1.000000 0.000000
vn 0.000000 1.000000 0.000000
vn 0.000000 1.000000 0.000000
vn 0.000000 -0.000000 1.000000
vn 0.000000 -0.000000 1.000000
vn 0.000000 -0.000000 1.000000
vn 0.000000 -0.000000 1.000000
vn 0.000000 0.000000 -1.000000
vn 0.000000 0.000000 -1.000000
vn 0.000000 0.000000 -1.000000
vn 0.000000 0.000000 -1.000000
vn -1.000000 0.000000 0.000000
vn -1.000000 0.000000 0.000000
vn -1.000000 0.000000 0.000000
vn -1.000000 0.000000 0.000000
vn 1.000000 0.000000 0.000000
vn 1.000000 0.000000 0.000000
vn 1.000000 0.000000 0.000000
vn 1.000000 0.000000 0.000000
vn 0.000000 1.000000 0.000000
vn 0.000000 1.000000 0.000000
vn 0.000000 1.000000 0.000000
vn 0.000000 1.000000 0.000000
vn 0.000000 -1.000000 -0.000000
vn 0.000000 -1.000000 -0.000000
vn 0.000000 -1.000000 -0.000000
vn 0.000000 -1.000000 -0.000000
vn 0.000000 -0.000000 1.000000
vn 0.000000 -0.000000 1.000000
vn 0.000000 -0.000000 1.000000
vn 0.000000 -0.000000 1.000000
vn 1.000000 0.000000 0.000000
vn 1.000000 0.000000 0.000000
vn 1.000000 0.000000 0.000000
vn 1.000000 0.000000 0.000000
vn 0.000000 0.000000 -1.000000
vn 0.000000 0.000000 -1.000000
vn 0.000000 0.000000 -1.000000
vn 0.000000 0.000000 -1.000000
vn -1.000000 -0.000000 0.000000
vn -1.000000 -0.000000 0.000000
vn -1.000000 -0.000000 0.000000
vn -1.000000 -0.000000 0.000000
vn 0.000000 -0.173648 -0.984808
vn 0.000000 -0.173648 -0.984808
vn 0.000000 -0.173648 -0.984808
vn -0.003067 -0.152288 -0.988331
vn 0.003067 0.152288 0.988331
vn 0.003067 0.152288 0.988331
vn 0.003067 0.152288 0.988331
vn 0.000000 0.173648 0.984808
vn -0.001485 0.163373 -0.986563
vn -0.001485 0.163373 -0.986563
vn -0.001485 0.163373 -0.986563
vn 0.005756 0.209932 -0.977699
vn -0.005756 -0.209932 0.977699
vn -0.005756 -0.209932 0.977699
vn -0.005756 -0.209932 0.977699
vn 0.001485 -0.163373 0.986563
vn 0.000000 -0.087155 -0.996195
vn 0.000000 -0.087155 -0.996195
vn 0.000000 -0.087155 -0.996195
vn -0.000000 -0.087157 -0.996195
vn 0.000000 0.087156 0.996195
vn 0.000000 0.087156 0.996195
vn 0.000000 0.087156 0.996195
vn 0.000000 0.087155 0.996195
usemtl ladder01
f 1/1/1 3/3/3 2/2/2
f 2/2/2 4/4/4 1/1/1
f 5/5/5 7/7/7 6/6/6
f 6/6/6 8/8/8 5/5/5
f 9/9/9 11/11/11 10/10/10
f 10/10/10 12/12/12 9/9/9
f 13/13/13 15/15/15 14/14/14
f 14/14/14 16/16/16 13/13/13
f 17/17/17 19/19/19 18/18/18
f 18/18/18 20/20/20 17/17/17
f 21/21/21 23/23/23 22/22/22
f 22/22/22 24/24/24 21/21/21
f 25/25/25 27/27/27 26/26/26
f 26/26/26 28/28/28 25/25/25
f 29/29/29 31/31/31 30/30/30
f 30/30/30 32/32/32 29/29/29
f 33/33/33 35/35/35 34/34/34
f 34/34/34 36/36/36 33/33/33
f 37/37/37 39/39/39 38/38/38
f 38/38/38 40/40/40 37/37/37
f 41/41/41 43/43/43 42/42/42
f 42/42/42 44/44/44 41/41/41
f 45/45/45 47/47/47 46/46/46
f 46/46/46 48/48/48 45/45/45
f 49/49/49 51/51/51 50/50/50
f 50/50/50 52/52/52 49/49/49
f 53/53/53 55/55/55 54/54/54
f 54/54/54 56/56/56 53/53/53
f 57/57/57 59/59/59 58/58/58
f 58/58/58 60/60/60 57/57/57
f 61/61/61 63/63/63 62/62/62
f 62/62/62 64/64/64 61/61/61
f 65/65/65 67/67/67 66/66/66
f 66/66/66 68/68/68 65/65/65
f 69/69/69 71/71/71 70/70/70
f 70/70/70 72/72/72 69/69/69
