# 
# Wavefront OBJ file
# Created with Kaydara FBX
# 
mtllib lamp.mtl

g lamp
v -0.487057 0.499997 0.085941
v 0.487057 0.499997 -0.085941
v 0.487057 0.499997 0.085941
v -0.487057 0.499997 -0.085941
v -0.500000 0.444728 0.098298
v 0.487057 0.499997 0.085941
v 0.500000 0.444728 0.098298
v -0.487057 0.499997 0.085941
v 0.500000 0.444728 0.098298
v 0.487057 0.499997 -0.085941
v 0.500000 0.444728 -0.098298
v 0.487057 0.499997 0.085941
v 0.500000 0.444728 -0.098298
v -0.487057 0.499997 -0.085941
v -0.500000 0.444728 -0.098298
v 0.487057 0.499997 -0.085941
v -0.500000 0.444728 -0.098298
v -0.487057 0.499997 0.085941
v -0.500000 0.444728 0.098298
v -0.487057 0.499997 -0.085941
v 0.475749 0.489451 -0.076805
v -0.475749 0.489451 0.076805
v 0.475749 0.489451 0.076805
v -0.475749 0.489451 -0.076805
v -0.500000 0.444728 0.098298
v -0.489364 0.444728 -0.088963
v -0.500000 0.444728 -0.098298
v -0.489364 0.444728 0.088963
v -0.500000 0.444728 -0.098298
v 0.489364 0.444728 -0.088963
v 0.500000 0.444728 -0.098298
v -0.489364 0.444728 -0.088963
v 0.500000 0.444728 -0.098298
v 0.489364 0.444728 0.088963
v 0.500000 0.444728 0.098298
v 0.489364 0.444728 -0.088963
v 0.500000 0.444728 0.098298
v -0.489364 0.444728 0.088963
v -0.500000 0.444728 0.098298
v 0.489364 0.444728 0.088963
v -0.489364 0.444728 0.088963
v -0.475749 0.489451 -0.076805
v -0.489364 0.444728 -0.088963
v -0.475749 0.489451 0.076805
v -0.489364 0.444728 -0.088963
v 0.475749 0.489451 -0.076805
v 0.489364 0.444728 -0.088963
v -0.475749 0.489451 -0.076805
v 0.489364 0.444728 -0.088963
v 0.475749 0.489451 0.076805
v 0.489364 0.444728 0.088963
v 0.475749 0.489451 -0.076805
v 0.489364 0.444728 0.088963
v -0.475749 0.489451 0.076805
v -0.489364 0.444728 0.088963
v 0.475749 0.489451 0.076805
v 0.476269 0.482168 -0.028254
v 0.436276 0.460683 -0.012645
v 0.436276 0.482168 -0.028254
v 0.476269 0.460683 -0.012645
v 0.436276 0.439198 -0.028254
v 0.476269 0.439198 -0.028254
v 0.436276 0.447404 -0.053512
v 0.476269 0.447404 -0.053512
v 0.436276 0.473961 -0.053512
v 0.476269 0.473961 -0.053512
v 0.436276 0.482168 -0.028254
v 0.476269 0.482168 -0.028254
v 0.476269 0.473961 -0.053512
v 0.476269 0.460683 -0.012645
v 0.476269 0.482168 -0.028254
v 0.476269 0.447404 -0.053512
v 0.476269 0.439198 -0.028254
v -0.436318 0.482168 -0.028254
v 0.436276 0.460683 -0.012645
v -0.436318 0.460683 -0.012645
v 0.436276 0.482168 -0.028254
v -0.436318 0.473961 -0.053512
v 0.436276 0.473961 -0.053512
v -0.436318 0.447404 -0.053512
v 0.436276 0.447404 -0.053512
v -0.436318 0.439198 -0.028254
v 0.436276 0.439198 -0.028254
v -0.436318 0.460683 -0.012645
v 0.436276 0.460683 -0.012645
v -0.476310 0.482168 -0.028254
v -0.436318 0.460683 -0.012645
v -0.476310 0.460683 -0.012645
v -0.436318 0.482168 -0.028254
v -0.436318 0.439198 -0.028254
v -0.476310 0.439198 -0.028254
v -0.436318 0.447404 -0.053512
v -0.476310 0.447404 -0.053512
v -0.436318 0.473961 -0.053512
v -0.476310 0.473961 -0.053512
v -0.436318 0.482168 -0.028254
v -0.476310 0.482168 -0.028254
v -0.476310 0.460683 -0.012645
v -0.476310 0.473961 -0.053512
v -0.476310 0.482168 -0.028254
v -0.476310 0.447404 -0.053512
v -0.476310 0.439198 -0.028254
v 0.476269 0.482168 0.038171
v 0.436276 0.460683 0.053781
v 0.436276 0.482168 0.038171
v 0.476269 0.460683 0.053781
v 0.436276 0.439198 0.038171
v 0.476269 0.439198 0.038171
v 0.436276 0.447404 0.012914
v 0.476269 0.447404 0.012914
v 0.436276 0.473961 0.012914
v 0.476269 0.473961 0.012914
v 0.436276 0.482168 0.038171
v 0.476269 0.482168 0.038171
v 0.476269 0.473961 0.012914
v 0.476269 0.460683 0.053781
v 0.476269 0.482168 0.038171
v 0.476269 0.447404 0.012914
v 0.476269 0.439198 0.038171
v -0.436318 0.482168 0.038171
v 0.436276 0.460683 0.053781
v -0.436318 0.460683 0.053781
v 0.436276 0.482168 0.038171
v -0.436318 0.473961 0.012914
v 0.436276 0.473961 0.012914
v -0.436318 0.447404 0.012914
v 0.436276 0.447404 0.012914
v -0.436318 0.439198 0.038171
v 0.436276 0.439198 0.038171
v -0.436318 0.460683 0.053781
v 0.436276 0.460683 0.053781
v -0.476310 0.482168 0.038171
v -0.436318 0.460683 0.053781
v -0.476310 0.460683 0.053781
v -0.436318 0.482168 0.038171
v -0.436318 0.439198 0.038171
v -0.476310 0.439198 0.038171
v -0.436318 0.447404 0.012914
v -0.476310 0.447404 0.012914
v -0.436318 0.473961 0.012914
v -0.476310 0.473961 0.012914
v -0.436318 0.482168 0.038171
v -0.476310 0.482168 0.038171
v -0.476310 0.460683 0.053781
v -0.476310 0.473961 0.012914
v -0.476310 0.482168 0.038171
v -0.476310 0.447404 0.012914
v -0.476310 0.439198 0.038171
vt 0.004214 0.286466
vt 0.996414 0.097684
vt 0.996414 0.286466
vt 0.004214 0.097684
vt 0.006635 0.072499
vt 0.997573 0.008370
vt 0.996832 0.072499
vt 0.005894 0.008370
vt 0.246412 0.392830
vt 0.011084 0.325652
vt 0.007801 0.392830
vt 0.243130 0.325652
vt 0.996832 0.072499
vt 0.005894 0.008370
vt 0.006635 0.072499
vt 0.997573 0.008370
vt 0.007802 0.392829
vt 0.243131 0.325652
vt 0.246413 0.392829
vt 0.011084 0.325652
vt 0.996669 0.637386
vt 0.004295 0.826290
vt 0.996669 0.826290
vt 0.004295 0.637386
vt 0.489552 0.883413
vt 0.279676 0.866326
vt 0.259698 0.883414
vt 0.469574 0.866326
vt 0.005938 0.856824
vt 0.982582 0.836846
vt 0.999560 0.856824
vt 0.022917 0.836846
vt 0.259698 0.883264
vt 0.469573 0.866176
vt 0.489551 0.883264
vt 0.279676 0.866176
vt 0.999560 0.856680
vt 0.022917 0.836702
vt 0.005938 0.856680
vt 0.982582 0.836702
vt 0.225674 0.932129
vt 0.042744 0.877770
vt 0.028541 0.932129
vt 0.211471 0.877770
vt 0.006558 0.611800
vt 0.984580 0.548040
vt 0.996575 0.611800
vt 0.018553 0.548040
vt 0.028540 0.932130
vt 0.211470 0.877770
vt 0.225673 0.932130
vt 0.042743 0.877770
vt 0.996575 0.611800
vt 0.018553 0.548040
vt 0.006558 0.611800
vt 0.984580 0.548040
vt 0.870287 0.331932
vt 0.799193 0.436741
vt 0.870287 0.436742
vt 0.799193 0.331932
vt 0.728100 0.436742
vt 0.728100 0.331932
vt 0.661781 0.436741
vt 0.661781 0.331932
vt 0.602996 0.436741
vt 0.602996 0.331932
vt 0.536678 0.436742
vt 0.536678 0.331932
vt 0.898420 0.435229
vt 0.932698 0.329730
vt 0.877234 0.370027
vt 0.966977 0.435229
vt 0.988163 0.370027
vt 0.013235 0.473613
vt 0.510519 0.494038
vt 0.013235 0.494038
vt 0.510519 0.473613
vt 0.013235 0.454560
vt 0.510519 0.454560
vt 0.013235 0.437671
vt 0.510519 0.437671
vt 0.013235 0.418618
vt 0.510519 0.418618
vt 0.013235 0.398193
vt 0.510519 0.398193
vt 0.870287 0.331932
vt 0.799193 0.436741
vt 0.799193 0.331932
vt 0.870287 0.436742
vt 0.728100 0.436742
vt 0.728100 0.331932
vt 0.661781 0.436741
vt 0.661781 0.331932
vt 0.602996 0.436741
vt 0.602996 0.331932
vt 0.536678 0.436742
vt 0.536678 0.331932
vt 0.932698 0.329730
vt 0.898420 0.435229
vt 0.877234 0.370027
vt 0.966977 0.435229
vt 0.988163 0.370027
vt 0.870287 0.331932
vt 0.799193 0.436741
vt 0.870287 0.436742
vt 0.799193 0.331932
vt 0.728100 0.436742
vt 0.728100 0.331932
vt 0.661781 0.436741
vt 0.661781 0.331932
vt 0.602996 0.436741
vt 0.602996 0.331932
vt 0.536678 0.436742
vt 0.536678 0.331932
vt 0.898420 0.435229
vt 0.932698 0.329730
vt 0.877234 0.370027
vt 0.966977 0.435229
vt 0.988163 0.370027
vt 0.013235 0.473613
vt 0.510519 0.494038
vt 0.013235 0.494038
vt 0.510519 0.473613
vt 0.013235 0.454560
vt 0.510519 0.454560
vt 0.013235 0.437671
vt 0.510519 0.437671
vt 0.013235 0.418618
vt 0.510519 0.418618
vt 0.013235 0.398193
vt 0.510519 0.398193
vt 0.870287 0.331932
vt 0.799193 0.436741
vt 0.799193 0.331932
vt 0.870287 0.436742
vt 0.728100 0.436742
vt 0.728100 0.331932
vt 0.661781 0.436741
vt 0.661781 0.331932
vt 0.602996 0.436741
vt 0.602996 0.331932
vt 0.536678 0.436742
vt 0.536678 0.331932
vt 0.932698 0.329730
vt 0.898420 0.435229
vt 0.877234 0.370027
vt 0.966977 0.435229
vt 0.988163 0.370027
vn 0.000000 1.000000 0.000000
vn 0.000000 1.000000 0.000000
vn 0.000000 1.000000 0.000000
vn 0.000000 1.000000 0.000000
vn 0.000000 0.218199 0.975904
vn 0.000000 0.218199 0.975904
vn 0.000000 0.218199 0.975904
vn 0.000000 0.218199 0.975904
vn 0.973658 0.228013 0.000000
vn 0.973658 0.228013 0.000000
vn 0.973658 0.228013 0.000000
vn 0.973658 0.228013 0.000000
vn 0.000000 0.218199 -0.975904
vn 0.000000 0.218199 -0.975904
vn 0.000000 0.218199 -0.975904
vn 0.000000 0.218199 -0.975904
vn -0.973658 0.228013 0.000000
vn -0.973658 0.228013 0.000000
vn -0.973658 0.228013 0.000000
vn -0.973658 0.228013 0.000000
vn 0.000000 -1.000000 -0.000000
vn 0.000000 -1.000000 -0.000000
vn 0.000000 -1.000000 -0.000000
vn 0.000000 -1.000000 -0.000000
vn 0.000000 -1.000000 -0.000000
vn 0.000000 -1.000000 -0.000000
vn 0.000000 -1.000000 -0.000000
vn 0.000000 -1.000000 -0.000000
vn 0.000000 -1.000000 -0.000000
vn 0.000000 -1.000000 -0.000000
vn 0.000000 -1.000000 -0.000000
vn 0.000000 -1.000000 -0.000000
vn 0.000000 -1.000000 -0.000000
vn 0.000000 -1.000000 -0.000000
vn 0.000000 -1.000000 -0.000000
vn 0.000000 -1.000000 -0.000000
vn 0.000000 -1.000000 -0.000000
vn 0.000000 -1.000000 -0.000000
vn 0.000000 -1.000000 -0.000000
vn 0.000000 -1.000000 -0.000000
vn 0.956647 -0.291249 -0.000000
vn 0.956647 -0.291249 -0.000000
vn 0.956647 -0.291249 -0.000000
vn 0.956647 -0.291249 -0.000000
vn 0.000000 -0.262340 0.964976
vn 0.000000 -0.262340 0.964976
vn 0.000000 -0.262340 0.964976
vn 0.000000 -0.262340 0.964975
vn -0.956647 -0.291249 -0.000000
vn -0.956647 -0.291249 -0.000000
vn -0.956647 -0.291249 -0.000000
vn -0.956647 -0.291249 -0.000000
vn 0.000000 -0.262340 -0.964976
vn 0.000000 -0.262340 -0.964976
vn 0.000000 -0.262340 -0.964976
vn 0.000000 -0.262340 -0.964975
vn 0.000000 0.951057 0.309017
vn 0.000000 0.000000 1.000000
vn 0.000000 0.951057 0.309017
vn -0.000000 -0.000000 1.000000
vn 0.000000 -0.951057 0.309017
vn 0.000000 -0.951057 0.309017
vn 0.000000 -0.587785 -0.809017
vn 0.000000 -0.587785 -0.809017
vn 0.000000 0.587785 -0.809017
vn 0.000000 0.587785 -0.809017
vn 0.000000 0.951057 0.309017
vn 0.000000 0.951057 0.309017
vn 1.000000 0.000000 0.000000
vn 1.000000 0.000000 0.000000
vn 1.000000 0.000000 0.000000
vn 1.000000 0.000000 0.000000
vn 1.000000 0.000000 0.000000
vn 0.000000 0.951057 0.309017
vn 0.000000 0.000000 1.000000
vn 0.000000 -0.000000 1.000000
vn 0.000000 0.951057 0.309017
vn 0.000000 0.587785 -0.809017
vn 0.000000 0.587785 -0.809017
vn 0.000000 -0.587785 -0.809017
vn 0.000000 -0.587785 -0.809017
vn 0.000000 -0.951057 0.309017
vn 0.000000 -0.951057 0.309017
vn 0.000000 -0.000000 1.000000
vn 0.000000 0.000000 1.000000
vn 0.000000 0.951057 0.309017
vn 0.000000 -0.000000 1.000000
vn 0.000000 -0.000000 1.000000
vn 0.000000 0.951057 0.309017
vn 0.000000 -0.951057 0.309017
vn 0.000000 -0.951056 0.309017
vn 0.000000 -0.587785 -0.809017
vn 0.000000 -0.587785 -0.809017
vn 0.000000 0.587785 -0.809017
vn 0.000000 0.587785 -0.809017
vn 0.000000 0.951057 0.309017
vn 0.000000 0.951057 0.309017
vn -1.000000 0.000000 0.000000
vn -1.000000 0.000000 0.000000
vn -1.000000 0.000000 0.000000
vn -1.000000 0.000000 0.000000
vn -1.000000 0.000000 0.000000
vn 0.000000 0.951057 0.309017
vn 0.000000 -0.000000 1.000000
vn 0.000000 0.951057 0.309017
vn 0.000000 -0.000000 1.000000
vn 0.000000 -0.951057 0.309017
vn 0.000000 -0.951056 0.309017
vn 0.000000 -0.587785 -0.809017
vn 0.000000 -0.587785 -0.809017
vn 0.000000 0.587785 -0.809017
vn 0.000000 0.587785 -0.809017
vn 0.000000 0.951057 0.309017
vn 0.000000 0.951057 0.309017
vn 1.000000 0.000000 0.000000
vn 1.000000 0.000000 0.000000
vn 1.000000 0.000000 0.000000
vn 1.000000 0.000000 0.000000
vn 1.000000 0.000000 0.000000
vn 0.000000 0.951057 0.309017
vn 0.000000 -0.000000 1.000000
vn 0.000000 -0.000000 1.000000
vn 0.000000 0.951057 0.309017
vn 0.000000 0.587785 -0.809017
vn 0.000000 0.587785 -0.809017
vn 0.000000 -0.587785 -0.809017
vn 0.000000 -0.587785 -0.809017
vn 0.000000 -0.951057 0.309017
vn 0.000000 -0.951057 0.309017
vn 0.000000 -0.000000 1.000000
vn 0.000000 -0.000000 1.000000
vn 0.000000 0.951057 0.309017
vn 0.000000 -0.000000 1.000000
vn 0.000000 -0.000000 1.000000
vn 0.000000 0.951057 0.309017
vn 0.000000 -0.951057 0.309017
vn 0.000000 -0.951057 0.309017
vn 0.000000 -0.587785 -0.809017
vn 0.000000 -0.587785 -0.809017
vn 0.000000 0.587785 -0.809017
vn 0.000000 0.587785 -0.809017
vn 0.000000 0.951057 0.309017
vn 0.000000 0.951057 0.309017
vn -1.000000 0.000000 0.000000
vn -1.000000 0.000000 0.000000
vn -1.000000 0.000000 0.000000
vn -1.000000 0.000000 0.000000
vn -1.000000 0.000000 0.000000
usemtl lamp_3
f 1/1/1 3/3/3 2/2/2
f 2/2/2 4/4/4 1/1/1
f 5/5/5 7/7/7 6/6/6
f 6/6/6 8/8/8 5/5/5
f 9/9/9 11/11/11 10/10/10
f 10/10/10 12/12/12 9/9/9
f 13/13/13 15/15/15 14/14/14
f 14/14/14 16/16/16 13/13/13
f 17/17/17 19/19/19 18/18/18
f 18/18/18 20/20/20 17/17/17
f 21/21/21 23/23/23 22/22/22
f 22/22/22 24/24/24 21/21/21
f 25/25/25 27/27/27 26/26/26
f 26/26/26 28/28/28 25/25/25
f 29/29/29 31/31/31 30/30/30
f 30/30/30 32/32/32 29/29/29
f 33/33/33 35/35/35 34/34/34
f 34/34/34 36/36/36 33/33/33
f 37/37/37 39/39/39 38/38/38
f 38/38/38 40/40/40 37/37/37
f 41/41/41 43/43/43 42/42/42
f 42/42/42 44/44/44 41/41/41
f 45/45/45 47/47/47 46/46/46
f 46/46/46 48/48/48 45/45/45
f 49/49/49 51/51/51 50/50/50
f 50/50/50 52/52/52 49/49/49
f 53/53/53 55/55/55 54/54/54
f 54/54/54 56/56/56 53/53/53
f 57/57/57 59/59/59 58/58/58
f 58/58/58 60/60/60 57/57/57
f 60/60/60 58/58/58 61/61/61
f 61/61/61 62/62/62 60/60/60
f 62/62/62 61/61/61 63/63/63
f 63/63/63 64/64/64 62/62/62
f 64/64/64 63/63/63 65/65/65
f 65/65/65 66/66/66 64/64/64
f 66/66/66 65/65/65 67/67/67
f 67/67/67 68/68/68 66/66/66
f 69/69/69 71/71/71 70/70/70
f 72/72/72 69/69/69 70/70/70
f 73/73/73 72/72/72 70/70/70
f 74/74/74 76/76/76 75/75/75
f 75/75/75 77/77/77 74/74/74
f 78/78/78 74/74/74 77/77/77
f 77/77/77 79/79/79 78/78/78
f 80/80/80 78/78/78 79/79/79
f 79/79/79 81/81/81 80/80/80
f 82/82/82 80/80/80 81/81/81
f 81/81/81 83/83/83 82/82/82
f 84/84/84 82/82/82 83/83/83
f 83/83/83 85/85/85 84/84/84
f 86/86/86 88/88/88 87/87/87
f 87/87/87 89/89/89 86/86/86
f 90/90/90 87/87/87 88/88/88
f 88/88/88 91/91/91 90/90/90
f 92/92/92 90/90/90 91/91/91
f 91/91/91 93/93/93 92/92/92
f 94/94/94 92/92/92 93/93/93
f 93/93/93 95/95/95 94/94/94
f 96/96/96 94/94/94 95/95/95
f 95/95/95 97/97/97 96/96/96
f 98/98/98 100/100/100 99/99/99
f 98/98/98 99/99/99 101/101/101
f 102/102/102 98/98/98 101/101/101
f 103/103/103 105/105/105 104/104/104
f 104/104/104 106/106/106 103/103/103
f 106/106/106 104/104/104 107/107/107
f 107/107/107 108/108/108 106/106/106
f 108/108/108 107/107/107 109/109/109
f 109/109/109 110/110/110 108/108/108
f 110/110/110 109/109/109 111/111/111
f 111/111/111 112/112/112 110/110/110
f 112/112/112 111/111/111 113/113/113
f 113/113/113 114/114/114 112/112/112
f 115/115/115 117/117/117 116/116/116
f 118/118/118 115/115/115 116/116/116
f 119/119/119 118/118/118 116/116/116
f 120/120/120 122/122/122 121/121/121
f 121/121/121 123/123/123 120/120/120
f 124/124/124 120/120/120 123/123/123
f 123/123/123 125/125/125 124/124/124
f 126/126/126 124/124/124 125/125/125
f 125/125/125 127/127/127 126/126/126
f 128/128/128 126/126/126 127/127/127
f 127/127/127 129/129/129 128/128/128
f 130/130/130 128/128/128 129/129/129
f 129/129/129 131/131/131 130/130/130
f 132/132/132 134/134/134 133/133/133
f 133/133/133 135/135/135 132/132/132
f 136/136/136 133/133/133 134/134/134
f 134/134/134 137/137/137 136/136/136
f 138/138/138 136/136/136 137/137/137
f 137/137/137 139/139/139 138/138/138
f 140/140/140 138/138/138 139/139/139
f 139/139/139 141/141/141 140/140/140
f 142/142/142 140/140/140 141/141/141
f 141/141/141 143/143/143 142/142/142
f 144/144/144 146/146/146 145/145/145
f 144/144/144 145/145/145 147/147/147
f 148/148/148 144/144/144 147/147/147
