# 
# Wavefront OBJ file
# Created with Kaydara FBX
# 
mtllib lamp_2.mtl

g light
v 1.146696 -0.500000 -0.000000
v 0.189606 0.154398 -0.189606
v 0.810836 -0.500000 -0.810836
v 0.268143 0.154398 0.000000
v -0.000000 0.154398 -0.268143
v -0.000000 -0.500000 -1.146696
v 0.810836 -0.500000 0.810836
v 0.189606 0.154398 0.189606
v 0.000000 -0.500000 1.146696
v 0.000000 0.154398 0.268143
v -0.000000 -0.500000 -1.146696
v -0.189606 0.154398 -0.189606
v -0.810836 -0.500000 -0.810836
v -0.000000 0.154398 -0.268143
v -0.268143 0.154398 0.000000
v -1.146696 -0.500000 0.000000
v -0.189606 0.154398 0.189606
v -0.810836 -0.500000 0.810836
v 0.000000 0.154398 0.268143
v 0.000000 -0.500000 1.146696
vt 0.993192 0.666858
vt 0.009298 0.762227
vt 0.993192 0.816457
vt 0.009298 0.666858
vt 0.009298 0.870516
vt 0.993192 0.986320
vt 0.993192 0.517260
vt 0.009298 0.571489
vt 0.993192 0.347396
vt 0.009298 0.463201
vt 0.993192 0.986320
vt 0.009298 0.762227
vt 0.993192 0.816457
vt 0.009298 0.870516
vt 0.009298 0.666858
vt 0.993192 0.666858
vt 0.009298 0.571489
vt 0.993192 0.517260
vt 0.009298 0.463201
vt 0.993192 0.347396
vn 0.597358 0.801975 0.000000
vn 0.422396 0.801975 -0.422396
vn 0.422396 0.801975 -0.422396
vn 0.597358 0.801975 0.000000
vn 0.000000 0.801974 -0.597358
vn 0.000000 0.801974 -0.597358
vn 0.422396 0.801974 0.422396
vn 0.422396 0.801974 0.422396
vn 0.000000 0.801974 0.597358
vn 0.000000 0.801974 0.597358
vn 0.000000 0.801974 -0.597358
vn -0.422396 0.801975 -0.422396
vn -0.422396 0.801974 -0.422396
vn 0.000000 0.801974 -0.597358
vn -0.597358 0.801974 0.000000
vn -0.597358 0.801974 0.000000
vn -0.422396 0.801974 0.422396
vn -0.422396 0.801974 0.422396
vn 0.000000 0.801974 0.597358
vn 0.000000 0.801974 0.597358
usemtl lamp_2_light
f 1/1/1 3/3/3 2/2/2
f 1/1/1 2/2/2 4/4/4
f 3/3/3 5/5/5 2/2/2
f 3/3/3 6/6/6 5/5/5
f 7/7/7 1/1/1 4/4/4
f 7/7/7 4/4/4 8/8/8
f 9/9/9 7/7/7 8/8/8
f 9/9/9 8/8/8 10/10/10
f 11/11/11 13/13/13 12/12/12
f 11/11/11 12/12/12 14/14/14
f 13/13/13 15/15/15 12/12/12
f 13/13/13 16/16/16 15/15/15
f 16/16/16 17/17/17 15/15/15
f 16/16/16 18/18/18 17/17/17
f 18/18/18 19/19/19 17/17/17
f 18/18/18 20/20/20 19/19/19
g lamp_2_ncl1_1
v 0.074671 0.500000 0.000000
v 0.052801 0.470131 0.052801
v 0.052801 0.500000 0.052801
v 0.074671 0.470131 -0.000000
v -0.000000 0.470131 0.074671
v -0.000000 0.500000 0.074671
v -0.052801 0.470131 0.052801
v -0.052801 0.500000 0.052801
v -0.074671 0.470131 -0.000000
v -0.074671 0.500000 -0.000000
v -0.074671 0.500000 -0.000000
v -0.052801 0.470131 -0.052801
v -0.052801 0.500000 -0.052801
v -0.074671 0.470131 -0.000000
v 0.000000 0.470131 -0.074671
v 0.000000 0.500000 -0.074671
v 0.052801 0.470131 -0.052801
v 0.052801 0.500000 -0.052801
v 0.074671 0.470131 -0.000000
v 0.074671 0.500000 0.000000
v 0.052801 0.500000 -0.052801
v 0.074671 0.500000 0.000000
v 0.052801 0.500000 0.052801
v -0.000000 0.500000 0.074671
v 0.000000 0.500000 -0.074671
v -0.052801 0.500000 -0.052801
v -0.052801 0.500000 0.052801
v -0.074671 0.500000 -0.000000
v 0.273131 0.154338 -0.000000
v 0.193133 0.154338 -0.193133
v -0.000000 0.307805 -0.000000
v 0.193133 0.154338 0.193133
v -0.000000 0.154338 0.273131
v -0.193133 0.154338 0.193133
v -0.273131 0.154338 -0.000000
v -0.193133 0.154338 -0.193133
v -0.000000 0.154338 -0.273131
v 0.074671 0.470131 -0.000000
v 0.012566 0.470131 0.012566
v 0.052801 0.470131 0.052801
v 0.017771 0.470131 -0.000000
v -0.000000 0.470131 0.017771
v -0.000000 0.470131 0.074671
v -0.012566 0.470131 0.012566
v -0.052801 0.470131 0.052801
v -0.017771 0.470131 -0.000000
v -0.074671 0.470131 -0.000000
v -0.012566 0.470131 -0.012566
v -0.052801 0.470131 -0.052801
v -0.000000 0.470131 -0.017771
v 0.000000 0.470131 -0.074671
v 0.012566 0.470131 -0.012566
v 0.052801 0.470131 -0.052801
v 0.017771 0.470131 -0.000000
v 0.012566 0.346403 0.012566
v 0.012566 0.470131 0.012566
v 0.017771 0.346403 -0.000000
v -0.000000 0.346403 0.017771
v -0.000000 0.470131 0.017771
v -0.012566 0.346403 0.012566
v -0.012566 0.470131 0.012566
v -0.017771 0.346403 -0.000000
v -0.017771 0.470131 -0.000000
v -0.017771 0.470131 -0.000000
v -0.012566 0.346403 -0.012566
v -0.012566 0.470131 -0.012566
v -0.017771 0.346403 -0.000000
v -0.000000 0.346403 -0.017771
v -0.000000 0.470131 -0.017771
v 0.012566 0.346403 -0.012566
v 0.012566 0.470131 -0.012566
v 0.017771 0.346403 -0.000000
v 0.017771 0.470131 -0.000000
v 0.017771 0.346403 -0.000000
v 0.193133 0.154338 0.193133
v 0.012566 0.346403 0.012566
v 0.273131 0.154338 -0.000000
v -0.000000 0.154338 0.273131
v -0.000000 0.346403 0.017771
v -0.193133 0.154338 0.193133
v -0.012566 0.346403 0.012566
v -0.273131 0.154338 -0.000000
v -0.017771 0.346403 -0.000000
v -0.193133 0.154338 -0.193133
v -0.012566 0.346403 -0.012566
v -0.000000 0.154338 -0.273131
v -0.000000 0.346403 -0.017771
v 0.193133 0.154338 -0.193133
v 0.012566 0.346403 -0.012566
v -0.000236 0.297428 0.000000
v -0.025596 0.282573 -0.025359
v -0.000236 0.282573 -0.035864
v -0.036100 0.246709 -0.035864
v -0.000236 0.246709 -0.050719
v -0.050955 0.246709 0.000000
v -0.036100 0.282573 0.000000
v -0.000236 0.297428 0.000000
v 0.025123 0.282573 -0.025359
v -0.000236 0.297428 0.000000
v 0.035627 0.246709 -0.035864
v 0.035627 0.282573 0.000000
v -0.000236 0.297428 0.000000
v 0.050482 0.246709 0.000000
v -0.025596 0.210846 -0.025359
v -0.000236 0.210846 -0.035864
v -0.036100 0.210846 0.000000
v 0.025123 0.210846 -0.025359
v 0.035627 0.210846 0.000000
v -0.000236 0.195991 0.000000
v -0.000236 0.195991 0.000000
v -0.000236 0.195991 0.000000
v -0.000236 0.195991 0.000000
v -0.000236 0.297428 0.000000
v -0.025596 0.282573 0.025359
v -0.036100 0.282573 0.000000
v -0.036100 0.246709 0.035864
v -0.050955 0.246709 0.000000
v -0.000236 0.246709 0.050719
v -0.000236 0.282573 0.035864
v -0.000236 0.297428 0.000000
v 0.035627 0.246709 0.035864
v 0.025123 0.282573 0.025359
v -0.000236 0.297428 0.000000
v 0.050482 0.246709 0.000000
v 0.035627 0.282573 0.000000
v -0.000236 0.297428 0.000000
v -0.025596 0.210846 0.025359
v -0.036100 0.210846 0.000000
v -0.000236 0.210846 0.035864
v 0.025123 0.210846 0.025359
v 0.035627 0.210846 0.000000
v -0.000236 0.195991 0.000000
v -0.000236 0.195991 0.000000
v -0.000236 0.195991 0.000000
v -0.000236 0.195991 0.000000
vt 0.277424 0.009755
vt 0.237523 0.064247
vt 0.237523 0.009755
vt 0.277424 0.064247
vt 0.141193 0.064247
vt 0.141193 0.009755
vt 0.044864 0.064247
vt 0.044864 0.009755
vt 0.004963 0.064247
vt 0.004963 0.009755
vt 0.004963 0.009755
vt 0.044864 0.064247
vt 0.044864 0.009755
vt 0.004963 0.064247
vt 0.141193 0.064247
vt 0.141193 0.009755
vt 0.237523 0.064247
vt 0.237523 0.009755
vt 0.277424 0.064247
vt 0.277424 0.009755
vt 0.086975 0.151899
vt 0.099926 0.120632
vt 0.086975 0.089364
vt 0.055708 0.076413
vt 0.055708 0.164850
vt 0.024440 0.151899
vt 0.024440 0.089364
vt 0.011489 0.120632
vt 0.978290 0.244885
vt 0.948155 0.317637
vt 0.875402 0.244885
vt 0.948155 0.172133
vt 0.875402 0.141998
vt 0.802650 0.172133
vt 0.772515 0.244885
vt 0.802650 0.317637
vt 0.875402 0.347772
vt 0.099926 0.120632
vt 0.063149 0.113190
vt 0.086975 0.089364
vt 0.066231 0.120632
vt 0.055708 0.110108
vt 0.055708 0.076413
vt 0.048266 0.113190
vt 0.024440 0.089364
vt 0.045184 0.120632
vt 0.011489 0.120632
vt 0.048266 0.128073
vt 0.024440 0.151899
vt 0.055708 0.131155
vt 0.055708 0.164850
vt 0.063149 0.128073
vt 0.086975 0.151899
vt 0.173616 0.064247
vt 0.164119 0.387012
vt 0.164119 0.064247
vt 0.173616 0.387012
vt 0.141193 0.387012
vt 0.141193 0.064247
vt 0.118267 0.387012
vt 0.118267 0.064247
vt 0.108771 0.387012
vt 0.108771 0.064247
vt 0.108771 0.064247
vt 0.118267 0.387012
vt 0.118267 0.064247
vt 0.108771 0.387012
vt 0.141193 0.387012
vt 0.141193 0.064247
vt 0.164119 0.387012
vt 0.164119 0.064247
vt 0.173616 0.387012
vt 0.173616 0.064247
vt 0.460346 0.198908
vt 0.580201 0.066906
vt 0.456788 0.190319
vt 0.634878 0.198908
vt 0.448199 0.012230
vt 0.448199 0.186762
vt 0.316198 0.066906
vt 0.439611 0.190319
vt 0.261521 0.198908
vt 0.436053 0.198908
vt 0.316198 0.330910
vt 0.439611 0.207497
vt 0.448199 0.385587
vt 0.448199 0.211054
vt 0.580201 0.330910
vt 0.456788 0.207497
vt 0.699234 0.014755
vt 0.672976 0.037366
vt 0.699234 0.037366
vt 0.662099 0.091954
vt 0.699234 0.091954
vt 0.622035 0.091954
vt 0.644646 0.037366
vt 0.699234 0.014755
vt 0.725492 0.037366
vt 0.699234 0.014755
vt 0.736368 0.091954
vt 0.753821 0.037366
vt 0.699234 0.014755
vt 0.776432 0.091954
vt 0.672976 0.146542
vt 0.699234 0.146542
vt 0.644646 0.146542
vt 0.725492 0.146542
vt 0.753821 0.146542
vt 0.699234 0.169153
vt 0.699234 0.169153
vt 0.699234 0.169153
vt 0.699234 0.169153
vt 0.699234 0.014755
vt 0.672976 0.037366
vt 0.644646 0.037366
vt 0.662099 0.091954
vt 0.622035 0.091954
vt 0.699234 0.091954
vt 0.699234 0.037366
vt 0.699234 0.014755
vt 0.736368 0.091954
vt 0.725492 0.037366
vt 0.699234 0.014755
vt 0.776432 0.091954
vt 0.753821 0.037366
vt 0.699234 0.014755
vt 0.672976 0.146542
vt 0.644646 0.146542
vt 0.699234 0.146542
vt 0.725492 0.146542
vt 0.753821 0.146542
vt 0.699234 0.169153
vt 0.699234 0.169153
vt 0.699234 0.169153
vt 0.699234 0.169153
vn 1.000000 0.000000 0.000000
vn 0.707107 -0.000000 0.707107
vn 0.707107 -0.000000 0.707107
vn 1.000000 0.000000 0.000000
vn 0.000000 -0.000000 1.000000
vn 0.000000 -0.000000 1.000000
vn -0.707107 -0.000000 0.707107
vn -0.707107 -0.000000 0.707107
vn -1.000000 0.000000 -0.000000
vn -1.000000 0.000000 0.000000
vn -1.000000 0.000000 0.000000
vn -0.707107 0.000000 -0.707107
vn -0.707107 0.000000 -0.707107
vn -1.000000 0.000000 -0.000000
vn 0.000000 0.000000 -1.000000
vn 0.000000 0.000000 -1.000000
vn 0.707107 0.000000 -0.707107
vn 0.707107 0.000000 -0.707107
vn 1.000000 0.000000 0.000000
vn 1.000000 0.000000 0.000000
vn 0.000000 1.000000 0.000000
vn 0.000000 1.000000 0.000000
vn 0.000000 1.000000 0.000000
vn 0.000000 1.000000 0.000000
vn 0.000000 1.000000 0.000000
vn 0.000000 1.000000 0.000000
vn 0.000000 1.000000 0.000000
vn 0.000000 1.000000 0.000000
vn 0.888750 -0.458393 -0.000000
vn 0.628441 -0.458393 -0.628441
vn 0.000000 -1.000000 0.000000
vn 0.628441 -0.458393 0.628441
vn -0.000000 -0.458393 0.888750
vn -0.628442 -0.458392 0.628441
vn -0.888750 -0.458392 -0.000000
vn -0.628441 -0.458393 -0.628441
vn 0.000000 -0.458392 -0.888750
vn 0.000000 -1.000000 -0.000000
vn 0.000000 -1.000000 -0.000000
vn 0.000000 -1.000000 -0.000000
vn 0.000000 -1.000000 -0.000000
vn 0.000000 -1.000000 -0.000000
vn 0.000000 -1.000000 -0.000000
vn 0.000000 -1.000000 -0.000000
vn 0.000000 -1.000000 -0.000000
vn 0.000000 -1.000000 -0.000000
vn 0.000000 -1.000000 -0.000000
vn 0.000000 -1.000000 -0.000000
vn 0.000000 -1.000000 -0.000000
vn 0.000000 -1.000000 -0.000001
vn 0.000000 -1.000000 -0.000001
vn -0.000000 -1.000000 -0.000000
vn -0.000000 -1.000000 -0.000000
vn 1.000000 0.000000 0.000000
vn 0.707107 -0.000000 0.707107
vn 0.707107 -0.000000 0.707107
vn 1.000000 0.000000 -0.000000
vn 0.000000 -0.000000 1.000000
vn 0.000000 -0.000000 1.000000
vn -0.707107 -0.000000 0.707107
vn -0.707106 -0.000000 0.707107
vn -1.000000 0.000000 -0.000000
vn -1.000000 0.000000 0.000000
vn -1.000000 0.000000 0.000000
vn -0.707106 0.000000 -0.707107
vn -0.707106 0.000000 -0.707107
vn -1.000000 0.000000 -0.000000
vn 0.000000 0.000000 -1.000000
vn 0.000000 0.000000 -1.000000
vn 0.707106 0.000000 -0.707107
vn 0.707107 0.000000 -0.707107
vn 1.000000 0.000000 -0.000000
vn 1.000000 0.000000 0.000000
vn 0.601091 0.799180 -0.000000
vn 0.628441 -0.458393 0.628441
vn 0.425036 0.799180 0.425036
vn 0.888750 -0.458393 -0.000000
vn -0.000000 -0.458393 0.888750
vn 0.000000 0.799180 0.601092
vn -0.628442 -0.458392 0.628441
vn -0.425036 0.799180 0.425036
vn -0.888750 -0.458392 -0.000000
vn -0.601091 0.799180 -0.000000
vn -0.628441 -0.458393 -0.628441
vn -0.425036 0.799180 -0.425036
vn 0.000000 -0.458392 -0.888750
vn 0.000000 0.799180 -0.601092
vn 0.628441 -0.458393 -0.628441
vn 0.425036 0.799180 -0.425036
vn 0.000000 1.000000 0.000000
vn -0.529351 0.663004 -0.529351
vn 0.000000 0.663004 -0.748616
vn -0.707107 0.000000 -0.707107
vn 0.000000 -0.000000 -1.000000
vn -1.000000 0.000000 0.000000
vn -0.748616 0.663004 0.000000
vn 0.000000 1.000000 0.000000
vn 0.529351 0.663004 -0.529351
vn 0.000000 1.000000 0.000000
vn 0.707107 0.000000 -0.707107
vn 0.748616 0.663004 0.000000
vn 0.000000 1.000000 0.000000
vn 1.000000 0.000000 0.000000
vn -0.529351 -0.663004 -0.529351
vn 0.000000 -0.663004 -0.748616
vn -0.748616 -0.663004 0.000000
vn 0.529352 -0.663004 -0.529351
vn 0.748616 -0.663004 0.000001
vn 0.000000 -1.000000 0.000001
vn 0.000000 -1.000000 0.000001
vn 0.000000 -1.000000 0.000001
vn 0.000000 -1.000000 0.000001
vn 0.000000 1.000000 0.000000
vn -0.529351 0.663004 0.529351
vn -0.748616 0.663004 0.000000
vn -0.707107 -0.000000 0.707107
vn -1.000000 0.000000 0.000000
vn 0.000000 -0.000000 1.000000
vn 0.000000 0.663004 0.748616
vn 0.000000 1.000000 0.000000
vn 0.707107 -0.000000 0.707107
vn 0.529351 0.663004 0.529351
vn 0.000000 1.000000 0.000000
vn 1.000000 0.000000 0.000000
vn 0.748616 0.663004 0.000000
vn 0.000000 1.000000 0.000000
vn -0.529351 -0.663004 0.529352
vn -0.748616 -0.663004 0.000000
vn 0.000000 -0.663004 0.748616
vn 0.529351 -0.663004 0.529352
vn 0.748616 -0.663004 0.000001
vn 0.000000 -1.000000 0.000001
vn 0.000000 -1.000000 0.000001
vn 0.000000 -1.000000 0.000001
vn 0.000000 -1.000000 0.000001
usemtl lamp_2_body
f 21/21/21 23/23/23 22/22/22
f 21/21/21 22/22/22 24/24/24
f 23/23/23 25/25/25 22/22/22
f 23/23/23 26/26/26 25/25/25
f 26/26/26 27/27/27 25/25/25
f 26/26/26 28/28/28 27/27/27
f 28/28/28 29/29/29 27/27/27
f 28/28/28 30/30/30 29/29/29
f 31/31/31 33/33/33 32/32/32
f 31/31/31 32/32/32 34/34/34
f 33/33/33 35/35/35 32/32/32
f 33/33/33 36/36/36 35/35/35
f 36/36/36 37/37/37 35/35/35
f 36/36/36 38/38/38 37/37/37
f 38/38/38 39/39/39 37/37/37
f 38/38/38 40/40/40 39/39/39
f 41/41/41 43/43/43 42/42/42
f 43/43/43 41/41/41 44/44/44
f 44/44/44 41/41/41 45/45/45
f 44/44/44 45/45/45 46/46/46
f 44/44/44 46/46/46 47/47/47
f 47/47/47 46/46/46 48/48/48
f 49/49/49 51/51/51 50/50/50
f 51/51/51 49/49/49 52/52/52
f 52/52/52 53/53/53 51/51/51
f 51/51/51 53/53/53 54/54/54
f 54/54/54 55/55/55 51/51/51
f 55/55/55 56/56/56 51/51/51
f 56/56/56 57/57/57 51/51/51
f 51/51/51 57/57/57 50/50/50
f 58/58/58 60/60/60 59/59/59
f 58/58/58 59/59/59 61/61/61
f 60/60/60 62/62/62 59/59/59
f 60/60/60 63/63/63 62/62/62
f 63/63/63 64/64/64 62/62/62
f 63/63/63 65/65/65 64/64/64
f 65/65/65 66/66/66 64/64/64
f 65/65/65 67/67/67 66/66/66
f 67/67/67 68/68/68 66/66/66
f 67/67/67 69/69/69 68/68/68
f 69/69/69 70/70/70 68/68/68
f 69/69/69 71/71/71 70/70/70
f 71/71/71 72/72/72 70/70/70
f 71/71/71 73/73/73 72/72/72
f 73/73/73 58/58/58 61/61/61
f 73/73/73 61/61/61 72/72/72
f 74/74/74 76/76/76 75/75/75
f 74/74/74 75/75/75 77/77/77
f 76/76/76 78/78/78 75/75/75
f 76/76/76 79/79/79 78/78/78
f 79/79/79 80/80/80 78/78/78
f 79/79/79 81/81/81 80/80/80
f 81/81/81 82/82/82 80/80/80
f 81/81/81 83/83/83 82/82/82
f 84/84/84 86/86/86 85/85/85
f 84/84/84 85/85/85 87/87/87
f 86/86/86 88/88/88 85/85/85
f 86/86/86 89/89/89 88/88/88
f 89/89/89 90/90/90 88/88/88
f 89/89/89 91/91/91 90/90/90
f 91/91/91 92/92/92 90/90/90
f 91/91/91 93/93/93 92/92/92
f 94/94/94 96/96/96 95/95/95
f 94/94/94 95/95/95 97/97/97
f 96/96/96 98/98/98 95/95/95
f 96/96/96 99/99/99 98/98/98
f 99/99/99 100/100/100 98/98/98
f 99/99/99 101/101/101 100/100/100
f 101/101/101 102/102/102 100/100/100
f 101/101/101 103/103/103 102/102/102
f 103/103/103 104/104/104 102/102/102
f 103/103/103 105/105/105 104/104/104
f 105/105/105 106/106/106 104/104/104
f 105/105/105 107/107/107 106/106/106
f 107/107/107 108/108/108 106/106/106
f 107/107/107 109/109/109 108/108/108
f 109/109/109 94/94/94 97/97/97
f 109/109/109 97/97/97 108/108/108
f 110/110/110 112/112/112 111/111/111
f 112/112/112 113/113/113 111/111/111
f 112/112/112 114/114/114 113/113/113
f 111/111/111 113/113/113 115/115/115
f 111/111/111 115/115/115 116/116/116
f 117/117/117 111/111/111 116/116/116
f 118/118/118 114/114/114 112/112/112
f 119/119/119 118/118/118 112/112/112
f 118/118/118 120/120/120 114/114/114
f 121/121/121 120/120/120 118/118/118
f 122/122/122 121/121/121 118/118/118
f 121/121/121 123/123/123 120/120/120
f 114/114/114 124/124/124 113/113/113
f 114/114/114 125/125/125 124/124/124
f 120/120/120 125/125/125 114/114/114
f 113/113/113 124/124/124 126/126/126
f 113/113/113 126/126/126 115/115/115
f 123/123/123 127/127/127 120/120/120
f 120/120/120 127/127/127 125/125/125
f 123/123/123 128/128/128 127/127/127
f 129/129/129 124/124/124 125/125/125
f 130/130/130 126/126/126 124/124/124
f 131/131/131 127/127/127 128/128/128
f 132/132/132 125/125/125 127/127/127
f 133/133/133 135/135/135 134/134/134
f 135/135/135 136/136/136 134/134/134
f 135/135/135 137/137/137 136/136/136
f 134/134/134 136/136/136 138/138/138
f 134/134/134 138/138/138 139/139/139
f 140/140/140 134/134/134 139/139/139
f 139/139/139 138/138/138 141/141/141
f 139/139/139 141/141/141 142/142/142
f 143/143/143 139/139/139 142/142/142
f 142/142/142 141/141/141 144/144/144
f 142/142/142 144/144/144 145/145/145
f 146/146/146 142/142/142 145/145/145
f 137/137/137 147/147/147 136/136/136
f 137/137/137 148/148/148 147/147/147
f 136/136/136 147/147/147 149/149/149
f 136/136/136 149/149/149 138/138/138
f 138/138/138 149/149/149 150/150/150
f 138/138/138 150/150/150 141/141/141
f 141/141/141 150/150/150 151/151/151
f 141/141/141 151/151/151 144/144/144
f 152/152/152 147/147/147 148/148/148
f 153/153/153 149/149/149 147/147/147
f 154/154/154 150/150/150 149/149/149
f 155/155/155 151/151/151 150/150/150
