# 
# Wavefront OBJ file
# Created with Kaydara FBX
# 
mtllib light_2.mtl

g light_2
v 0.350000 -0.165000 -0.442808
v 0.340000 0.175000 -0.442808
v 0.350000 0.165000 -0.442808
v -0.350000 0.165000 -0.442808
v -0.340000 0.175000 -0.442808
v -0.340000 -0.175000 -0.442808
v -0.350000 -0.165000 -0.442808
v 0.340000 -0.175000 -0.442808
v 0.340000 -0.175000 -0.500000
v -0.350000 -0.165000 -0.500000
v -0.340000 -0.175000 -0.500000
v -0.340000 0.175000 -0.500000
v -0.350000 0.165000 -0.500000
v 0.350000 0.165000 -0.500000
v 0.340000 0.175000 -0.500000
v 0.350000 -0.165000 -0.500000
v 0.340000 -0.175000 -0.442808
v -0.340000 -0.175000 -0.500000
v -0.340000 -0.175000 -0.442808
v 0.340000 -0.175000 -0.500000
v -0.350000 -0.165000 -0.442808
v -0.350000 0.165000 -0.500000
v -0.350000 0.165000 -0.442808
v -0.350000 -0.165000 -0.500000
v -0.340000 0.175000 -0.442808
v 0.340000 0.175000 -0.500000
v 0.340000 0.175000 -0.442808
v -0.340000 0.175000 -0.500000
v 0.350000 0.165000 -0.442808
v 0.350000 -0.165000 -0.500000
v 0.350000 -0.165000 -0.442808
v 0.350000 0.165000 -0.500000
v -0.340000 -0.175000 -0.442808
v -0.350000 -0.165000 -0.500000
v -0.350000 -0.165000 -0.442808
v -0.340000 -0.175000 -0.500000
v 0.340000 -0.175000 -0.500000
v 0.350000 -0.165000 -0.442808
v 0.350000 -0.165000 -0.500000
v 0.340000 -0.175000 -0.442808
v -0.350000 0.165000 -0.442808
v -0.340000 0.175000 -0.500000
v -0.340000 0.175000 -0.442808
v -0.350000 0.165000 -0.500000
v 0.340000 0.175000 -0.442808
v 0.350000 0.165000 -0.500000
v 0.350000 0.165000 -0.442808
v 0.340000 0.175000 -0.500000
v 0.296573 0.121573 -0.445108
v 0.227943 0.150000 -0.445208
v 0.296573 0.121573 -0.445208
v 0.227943 0.150000 -0.445108
v 0.325000 0.052943 -0.445108
v 0.325000 0.052943 -0.445208
v 0.325000 -0.052943 -0.445108
v 0.325000 -0.052943 -0.445208
v 0.296573 -0.121573 -0.445108
v 0.296573 -0.121573 -0.445208
v 0.227943 -0.150000 -0.445108
v 0.227943 -0.150000 -0.445208
v -0.227943 -0.150000 -0.445108
v -0.227943 -0.150000 -0.445208
v -0.296573 -0.121573 -0.445108
v -0.296573 -0.121573 -0.445208
v -0.325000 -0.052943 -0.445108
v -0.325000 -0.052943 -0.445208
v -0.325000 0.052943 -0.445108
v -0.325000 0.052943 -0.445209
v -0.296573 0.121573 -0.445108
v -0.296573 0.121573 -0.445208
v -0.227943 0.150000 -0.445108
v -0.227943 0.150000 -0.445208
v 0.276471 0.101472 -0.376479
v 0.227943 0.150000 -0.445108
v 0.296573 0.121573 -0.445108
v 0.227943 0.121573 -0.376479
v 0.296573 0.052943 -0.376479
v 0.325000 0.052943 -0.445108
v 0.296573 -0.052943 -0.376479
v 0.325000 -0.052943 -0.445108
v 0.276471 -0.101471 -0.376479
v 0.296573 -0.121573 -0.445108
v 0.227943 -0.121573 -0.376479
v 0.227943 -0.150000 -0.445108
v -0.227943 -0.121573 -0.376479
v -0.227943 -0.150000 -0.445108
v -0.276471 -0.101471 -0.376479
v -0.296573 -0.121573 -0.445108
v -0.296573 -0.052943 -0.376479
v -0.325000 -0.052943 -0.445108
v -0.296573 0.052943 -0.376479
v -0.325000 0.052943 -0.445108
v -0.276471 0.101472 -0.376479
v -0.296573 0.121573 -0.445108
v -0.227943 0.121573 -0.376479
v -0.227943 0.150000 -0.445108
v -0.227943 -0.052943 -0.348052
v 0.227943 -0.052943 -0.348051
v 0.227943 0.052943 -0.348051
v -0.227943 0.052943 -0.348052
vt 0.007726 0.981305
vt 0.021820 0.538322
vt 0.007726 0.551351
vt 0.994339 0.551351
vt 0.980245 0.538322
vt 0.980245 0.994334
vt 0.994339 0.981305
vt 0.021820 0.994334
vt 0.110614 0.271596
vt 0.584865 0.264204
vt 0.577992 0.271596
vt 0.577992 0.012889
vt 0.584865 0.020281
vt 0.103741 0.020281
vt 0.110614 0.012889
vt 0.103741 0.264204
vt 0.014356 0.517152
vt 0.991977 0.432951
vt 0.991977 0.517152
vt 0.014356 0.432951
vt 0.043115 0.421763
vt 0.724472 0.285351
vt 0.724472 0.421763
vt 0.043115 0.285351
vt 0.991977 0.517152
vt 0.014356 0.432951
vt 0.014356 0.517152
vt 0.991977 0.432951
vt 0.043115 0.421763
vt 0.724472 0.285351
vt 0.724472 0.421763
vt 0.043115 0.285351
vt 0.032800 0.421763
vt 0.043115 0.285351
vt 0.043115 0.421763
vt 0.032800 0.285351
vt 0.734781 0.285351
vt 0.724472 0.421763
vt 0.724472 0.285351
vt 0.734781 0.421763
vt 0.724472 0.421763
vt 0.734781 0.285351
vt 0.734781 0.421763
vt 0.724472 0.285351
vt 0.032800 0.421763
vt 0.043115 0.285351
vt 0.043115 0.421763
vt 0.032800 0.285351
vt 0.083029 0.607932
vt 0.179759 0.570895
vt 0.083029 0.607932
vt 0.179759 0.570895
vt 0.042962 0.697349
vt 0.042962 0.697349
vt 0.042962 0.835307
vt 0.042962 0.835307
vt 0.083029 0.924724
vt 0.083029 0.924724
vt 0.179759 0.961762
vt 0.179759 0.961762
vt 0.822306 0.961762
vt 0.822306 0.961762
vt 0.919036 0.924724
vt 0.919036 0.924724
vt 0.959103 0.835307
vt 0.959103 0.835307
vt 0.959103 0.697349
vt 0.959103 0.697349
vt 0.919036 0.607932
vt 0.919036 0.607932
vt 0.822306 0.570895
vt 0.822306 0.570895
vt 0.111361 0.634122
vt 0.179759 0.570895
vt 0.083029 0.607932
vt 0.179759 0.607932
vt 0.083029 0.697349
vt 0.042962 0.697349
vt 0.083029 0.835307
vt 0.042962 0.835307
vt 0.111361 0.898535
vt 0.083029 0.924724
vt 0.179759 0.924724
vt 0.179759 0.961762
vt 0.822306 0.924724
vt 0.822306 0.961762
vt 0.890705 0.898535
vt 0.919036 0.924724
vt 0.919036 0.835307
vt 0.959103 0.835307
vt 0.919036 0.697349
vt 0.959103 0.697349
vt 0.890705 0.634122
vt 0.919036 0.607932
vt 0.822306 0.607932
vt 0.822306 0.570895
vt 0.822306 0.835307
vt 0.179759 0.835307
vt 0.179759 0.697349
vt 0.822306 0.697349
vn -0.000000 0.000000 1.000000
vn -0.000000 -0.000000 1.000000
vn 0.000000 -0.000000 1.000000
vn -0.000000 -0.000001 1.000000
vn -0.000000 -0.000003 1.000000
vn -0.000000 0.000000 1.000000
vn 0.000000 0.000000 1.000000
vn -0.000000 0.000000 1.000000
vn 0.000000 -0.000000 -1.000000
vn 0.000000 0.000000 -1.000000
vn 0.000000 0.000000 -1.000000
vn 0.000000 -0.000000 -1.000000
vn 0.000000 -0.000000 -1.000000
vn 0.000000 0.000000 -1.000000
vn 0.000000 0.000000 -1.000000
vn 0.000000 -0.000000 -1.000000
vn 0.000000 -1.000000 -0.000000
vn 0.000000 -1.000000 -0.000000
vn 0.000000 -1.000000 -0.000000
vn 0.000000 -1.000000 -0.000000
vn -1.000000 -0.000000 -0.000001
vn -1.000000 0.000000 -0.000000
vn -1.000000 0.000000 0.000000
vn -1.000000 -0.000000 -0.000001
vn 0.000000 1.000000 0.000000
vn 0.000000 1.000000 0.000000
vn 0.000000 1.000000 0.000000
vn 0.000000 1.000000 0.000000
vn 1.000000 0.000000 0.000000
vn 1.000000 -0.000000 0.000001
vn 1.000000 -0.000000 0.000001
vn 1.000000 0.000000 0.000000
vn -0.707107 -0.707107 -0.000001
vn -0.707107 -0.707107 -0.000001
vn -0.707107 -0.707107 -0.000001
vn -0.707107 -0.707107 -0.000001
vn 0.707107 -0.707107 0.000001
vn 0.707107 -0.707107 0.000001
vn 0.707107 -0.707107 0.000001
vn 0.707107 -0.707107 0.000001
vn -0.707107 0.707107 0.000000
vn -0.707107 0.707107 0.000000
vn -0.707107 0.707107 0.000000
vn -0.707107 0.707107 0.000000
vn 0.707107 0.707107 0.000000
vn 0.707107 0.707107 0.000000
vn 0.707107 0.707107 0.000000
vn 0.707107 0.707107 0.000000
vn 0.694695 0.694689 0.186565
vn 0.195087 0.980786 0.000000
vn 0.707106 0.707108 0.000000
vn 0.187699 0.964126 0.187699
vn 0.964128 0.187692 0.187692
vn 0.980786 0.195088 0.000000
vn 0.964129 -0.187691 0.187691
vn 0.980785 -0.195090 -0.000000
vn 0.694692 -0.694692 0.186564
vn 0.707104 -0.707110 -0.000000
vn 0.187693 -0.964128 0.187691
vn 0.195104 -0.980783 -0.000000
vn -0.187699 -0.964126 0.187699
vn -0.195093 -0.980785 -0.000000
vn -0.694691 -0.694694 0.186562
vn -0.707102 -0.707112 -0.000000
vn -0.964128 -0.187690 0.187694
vn -0.980786 -0.195088 -0.000000
vn -0.964129 0.187691 0.187691
vn -0.980786 0.195087 0.000000
vn -0.694689 0.694695 0.186565
vn -0.707104 0.707110 0.000000
vn -0.187693 0.964128 0.187691
vn -0.195104 0.980783 0.000000
vn 0.529351 0.529351 0.663004
vn 0.187699 0.964126 0.187699
vn 0.694695 0.694689 0.186565
vn 0.144764 0.719357 0.679389
vn 0.719357 0.144765 0.679389
vn 0.964128 0.187692 0.187692
vn 0.719357 -0.144765 0.679389
vn 0.964129 -0.187691 0.187691
vn 0.529351 -0.529351 0.663004
vn 0.694692 -0.694692 0.186564
vn 0.144765 -0.719357 0.679389
vn 0.187693 -0.964128 0.187691
vn -0.144765 -0.719357 0.679389
vn -0.187699 -0.964126 0.187699
vn -0.529351 -0.529351 0.663004
vn -0.694691 -0.694694 0.186562
vn -0.719357 -0.144765 0.679389
vn -0.964128 -0.187690 0.187694
vn -0.719357 0.144765 0.679389
vn -0.964129 0.187691 0.187691
vn -0.529352 0.529351 0.663004
vn -0.694689 0.694695 0.186565
vn -0.144765 0.719357 0.679389
vn -0.187693 0.964128 0.187691
vn -0.165728 -0.165728 0.972146
vn 0.165727 -0.165728 0.972146
vn 0.165727 0.165728 0.972146
vn -0.165728 0.165728 0.972146
usemtl light_2
f 1/1/1 3/3/3 2/2/2
f 1/1/1 2/2/2 4/4/4
f 2/2/2 5/5/5 4/4/4
f 1/1/1 4/4/4 6/6/6
f 4/4/4 7/7/7 6/6/6
f 8/8/8 1/1/1 6/6/6
f 9/9/9 11/11/11 10/10/10
f 9/9/9 10/10/10 12/12/12
f 10/10/10 13/13/13 12/12/12
f 9/9/9 12/12/12 14/14/14
f 12/12/12 15/15/15 14/14/14
f 16/16/16 9/9/9 14/14/14
f 17/17/17 19/19/19 18/18/18
f 18/18/18 20/20/20 17/17/17
f 21/21/21 23/23/23 22/22/22
f 22/22/22 24/24/24 21/21/21
f 25/25/25 27/27/27 26/26/26
f 26/26/26 28/28/28 25/25/25
f 29/29/29 31/31/31 30/30/30
f 30/30/30 32/32/32 29/29/29
f 33/33/33 35/35/35 34/34/34
f 34/34/34 36/36/36 33/33/33
f 37/37/37 39/39/39 38/38/38
f 38/38/38 40/40/40 37/37/37
f 41/41/41 43/43/43 42/42/42
f 42/42/42 44/44/44 41/41/41
f 45/45/45 47/47/47 46/46/46
f 46/46/46 48/48/48 45/45/45
f 49/49/49 51/51/51 50/50/50
f 50/50/50 52/52/52 49/49/49
f 51/51/51 49/49/49 53/53/53
f 53/53/53 54/54/54 51/51/51
f 54/54/54 53/53/53 55/55/55
f 55/55/55 56/56/56 54/54/54
f 56/56/56 55/55/55 57/57/57
f 57/57/57 58/58/58 56/56/56
f 58/58/58 57/57/57 59/59/59
f 59/59/59 60/60/60 58/58/58
f 60/60/60 59/59/59 61/61/61
f 61/61/61 62/62/62 60/60/60
f 62/62/62 61/61/61 63/63/63
f 63/63/63 64/64/64 62/62/62
f 64/64/64 63/63/63 65/65/65
f 65/65/65 66/66/66 64/64/64
f 66/66/66 65/65/65 67/67/67
f 67/67/67 68/68/68 66/66/66
f 68/68/68 67/67/67 69/69/69
f 69/69/69 70/70/70 68/68/68
f 70/70/70 69/69/69 71/71/71
f 71/71/71 72/72/72 70/70/70
f 72/72/72 71/71/71 52/52/52
f 52/52/52 50/50/50 72/72/72
f 73/73/73 75/75/75 74/74/74
f 74/74/74 76/76/76 73/73/73
f 75/75/75 73/73/73 77/77/77
f 77/77/77 78/78/78 75/75/75
f 78/78/78 77/77/77 79/79/79
f 79/79/79 80/80/80 78/78/78
f 80/80/80 79/79/79 81/81/81
f 81/81/81 82/82/82 80/80/80
f 82/82/82 81/81/81 83/83/83
f 83/83/83 84/84/84 82/82/82
f 84/84/84 83/83/83 85/85/85
f 85/85/85 86/86/86 84/84/84
f 86/86/86 85/85/85 87/87/87
f 87/87/87 88/88/88 86/86/86
f 88/88/88 87/87/87 89/89/89
f 89/89/89 90/90/90 88/88/88
f 90/90/90 89/89/89 91/91/91
f 91/91/91 92/92/92 90/90/90
f 92/92/92 91/91/91 93/93/93
f 93/93/93 94/94/94 92/92/92
f 94/94/94 93/93/93 95/95/95
f 95/95/95 96/96/96 94/94/94
f 96/96/96 95/95/95 76/76/76
f 76/76/76 74/74/74 96/96/96
f 97/97/97 85/85/85 83/83/83
f 85/85/85 97/97/97 87/87/87
f 87/87/87 97/97/97 89/89/89
f 83/83/83 98/98/98 97/97/97
f 81/81/81 98/98/98 83/83/83
f 79/79/79 98/98/98 81/81/81
f 98/98/98 79/79/79 77/77/77
f 77/77/77 99/99/99 98/98/98
f 99/99/99 76/76/76 95/95/95
f 76/76/76 99/99/99 73/73/73
f 73/73/73 99/99/99 77/77/77
f 91/91/91 100/100/100 93/93/93
f 93/93/93 100/100/100 95/95/95
f 95/95/95 100/100/100 99/99/99
f 98/98/98 99/99/99 100/100/100
f 100/100/100 97/97/97 98/98/98
f 89/89/89 97/97/97 100/100/100
f 100/100/100 91/91/91 89/89/89
