# 
# Wavefront OBJ file
# Created with Kaydara FBX
# 
mtllib sandbag.mtl

g sandbag
v -0.350000 0.500000 0.350000
v 0.350000 0.500000 -0.350000
v 0.350000 0.500000 0.350000
v -0.350000 0.500000 -0.350000
v -0.500000 0.250000 0.500000
v 0.500000 0.250000 0.500000
v -0.500000 0.250000 -0.500000
v -0.350000 0.500000 0.350000
v -0.500000 0.250000 0.500000
v -0.350000 0.500000 -0.350000
v 0.500000 0.250000 -0.500000
v -0.350000 0.500000 -0.350000
v -0.500000 0.250000 -0.500000
v 0.350000 0.500000 -0.350000
v 0.500000 0.250000 0.500000
v 0.350000 0.500000 -0.350000
v 0.500000 0.250000 -0.500000
v 0.350000 0.500000 0.350000
v -0.500000 0.250000 0.500000
v 0.350000 -0.000000 0.350000
v -0.350000 -0.000000 0.350000
v 0.500000 0.250000 0.500000
v -0.500000 0.250000 -0.500000
v -0.350000 -0.000000 0.350000
v -0.350000 0.000000 -0.350000
v -0.500000 0.250000 0.500000
v 0.500000 0.250000 -0.500000
v -0.350000 0.000000 -0.350000
v 0.350000 0.000000 -0.350000
v -0.500000 0.250000 -0.500000
v 0.500000 0.250000 0.500000
v 0.350000 0.000000 -0.350000
v 0.350000 -0.000000 0.350000
v 0.500000 0.250000 -0.500000
v -0.500000 -0.250000 0.500000
v 0.350000 -0.000000 0.350000
v 0.500000 -0.250000 0.500000
v -0.350000 -0.000000 0.350000
v -0.500000 -0.250000 -0.500000
v -0.350000 -0.000000 0.350000
v -0.500000 -0.250000 0.500000
v -0.350000 0.000000 -0.350000
v 0.500000 -0.250000 -0.500000
v -0.350000 0.000000 -0.350000
v -0.500000 -0.250000 -0.500000
v 0.350000 0.000000 -0.350000
v 0.500000 -0.250000 0.500000
v 0.350000 0.000000 -0.350000
v 0.500000 -0.250000 -0.500000
v 0.350000 -0.000000 0.350000
v -0.350000 -0.500000 0.350000
v 0.350000 -0.500000 -0.350000
v -0.350000 -0.500000 -0.350000
v 0.350000 -0.500000 0.350000
v -0.500000 -0.250000 0.500000
v 0.500000 -0.250000 0.500000
v -0.500000 -0.250000 -0.500000
v -0.350000 -0.500000 0.350000
v -0.350000 -0.500000 -0.350000
v -0.500000 -0.250000 0.500000
v 0.500000 -0.250000 -0.500000
v -0.350000 -0.500000 -0.350000
v 0.350000 -0.500000 -0.350000
v -0.500000 -0.250000 -0.500000
v 0.500000 -0.250000 0.500000
v 0.350000 -0.500000 -0.350000
v 0.350000 -0.500000 0.350000
v 0.500000 -0.250000 -0.500000
vt 0.152904 0.701465
vt 0.844157 0.010211
vt 0.844157 0.701465
vt 0.152904 0.010211
vt 0.008202 0.983133
vt 0.988859 0.983133
vt 0.008202 0.983133
vt 0.844157 0.701465
vt 0.988859 0.983133
vt 0.152904 0.701465
vt 0.008202 0.983133
vt 0.844157 0.701465
vt 0.988859 0.983133
vt 0.152904 0.701465
vt 0.008202 0.983133
vt 0.844157 0.701465
vt 0.988859 0.983133
vt 0.152904 0.701465
vt 0.008202 0.983133
vt 0.844157 0.701465
vt 0.152904 0.701465
vt 0.988859 0.983133
vt 0.008202 0.983133
vt 0.844157 0.701465
vt 0.152904 0.701465
vt 0.988859 0.983133
vt 0.008202 0.983133
vt 0.844157 0.701465
vt 0.152904 0.701465
vt 0.988859 0.983133
vt 0.008202 0.983133
vt 0.844157 0.701465
vt 0.152904 0.701465
vt 0.988859 0.983133
vt 0.008202 0.983133
vt 0.844157 0.701465
vt 0.988859 0.983133
vt 0.152904 0.701465
vt 0.008202 0.983133
vt 0.844157 0.701465
vt 0.988859 0.983133
vt 0.152904 0.701465
vt 0.008202 0.983133
vt 0.844157 0.701465
vt 0.988859 0.983133
vt 0.152904 0.701465
vt 0.008202 0.983133
vt 0.844157 0.701465
vt 0.988859 0.983133
vt 0.152904 0.701465
vt 0.152904 0.701465
vt 0.844157 0.010211
vt 0.152904 0.010211
vt 0.844157 0.701465
vt 0.008202 0.983133
vt 0.988859 0.983133
vt 0.008202 0.983133
vt 0.844157 0.701465
vt 0.152904 0.701465
vt 0.988859 0.983133
vt 0.008202 0.983133
vt 0.844157 0.701465
vt 0.152904 0.701465
vt 0.988859 0.983133
vt 0.008202 0.983133
vt 0.844157 0.701465
vt 0.152904 0.701465
vt 0.988859 0.983133
vn -0.395580 0.828875 0.395580
vn 0.395580 0.828875 -0.395580
vn 0.395580 0.828875 0.395580
vn -0.395580 0.828875 -0.395580
vn -0.707107 -0.000000 0.707107
vn 0.707107 -0.000000 0.707107
vn -0.707107 0.000000 -0.707107
vn -0.395580 0.828875 0.395580
vn -0.707107 -0.000000 0.707107
vn -0.395580 0.828875 -0.395580
vn 0.707107 0.000000 -0.707107
vn -0.395580 0.828875 -0.395580
vn -0.707107 0.000000 -0.707107
vn 0.395580 0.828875 -0.395580
vn 0.707107 -0.000000 0.707107
vn 0.395580 0.828875 -0.395580
vn 0.707107 0.000000 -0.707107
vn 0.395580 0.828875 0.395580
vn -0.707107 -0.000000 0.707107
vn 0.707107 -0.000000 0.707107
vn -0.707107 -0.000000 0.707107
vn 0.707107 -0.000000 0.707107
vn -0.707107 0.000000 -0.707107
vn -0.707107 -0.000000 0.707107
vn -0.707107 0.000000 -0.707107
vn -0.707107 -0.000000 0.707107
vn 0.707107 0.000000 -0.707107
vn -0.707107 0.000000 -0.707107
vn 0.707107 0.000000 -0.707107
vn -0.707107 0.000000 -0.707107
vn 0.707107 -0.000000 0.707107
vn 0.707107 0.000000 -0.707107
vn 0.707107 -0.000000 0.707107
vn 0.707107 0.000000 -0.707107
vn -0.707107 -0.000000 0.707107
vn 0.707107 -0.000000 0.707107
vn 0.707107 -0.000000 0.707107
vn -0.707107 -0.000000 0.707107
vn -0.707107 0.000000 -0.707107
vn -0.707107 -0.000000 0.707107
vn -0.707107 -0.000000 0.707107
vn -0.707107 0.000000 -0.707107
vn 0.707107 0.000000 -0.707107
vn -0.707107 0.000000 -0.707107
vn -0.707107 0.000000 -0.707107
vn 0.707107 0.000000 -0.707107
vn 0.707107 -0.000000 0.707107
vn 0.707107 0.000000 -0.707107
vn 0.707107 0.000000 -0.707107
vn 0.707107 -0.000000 0.707107
vn -0.395580 -0.828875 0.395580
vn 0.395580 -0.828875 -0.395580
vn -0.395580 -0.828875 -0.395580
vn 0.395580 -0.828875 0.395580
vn -0.707107 -0.000000 0.707107
vn 0.707107 -0.000000 0.707107
vn -0.707107 0.000000 -0.707107
vn -0.395580 -0.828875 0.395580
vn -0.395580 -0.828875 -0.395580
vn -0.707107 -0.000000 0.707107
vn 0.707107 0.000000 -0.707107
vn -0.395580 -0.828875 -0.395580
vn 0.395580 -0.828875 -0.395580
vn -0.707107 0.000000 -0.707107
vn 0.707107 -0.000000 0.707107
vn 0.395580 -0.828875 -0.395580
vn 0.395580 -0.828875 0.395580
vn 0.707107 0.000000 -0.707107
usemtl sandbag_19
f 1/1/1 3/3/3 2/2/2
f 2/2/2 4/4/4 1/1/1
f 3/3/3 1/1/1 5/5/5
f 5/5/5 6/6/6 3/3/3
f 7/7/7 9/9/9 8/8/8
f 8/8/8 10/10/10 7/7/7
f 11/11/11 13/13/13 12/12/12
f 12/12/12 14/14/14 11/11/11
f 15/15/15 17/17/17 16/16/16
f 16/16/16 18/18/18 15/15/15
f 19/19/19 21/21/21 20/20/20
f 20/20/20 22/22/22 19/19/19
f 23/23/23 25/25/25 24/24/24
f 24/24/24 26/26/26 23/23/23
f 27/27/27 29/29/29 28/28/28
f 28/28/28 30/30/30 27/27/27
f 31/31/31 33/33/33 32/32/32
f 32/32/32 34/34/34 31/31/31
f 35/35/35 37/37/37 36/36/36
f 36/36/36 38/38/38 35/35/35
f 39/39/39 41/41/41 40/40/40
f 40/40/40 42/42/42 39/39/39
f 43/43/43 45/45/45 44/44/44
f 44/44/44 46/46/46 43/43/43
f 47/47/47 49/49/49 48/48/48
f 48/48/48 50/50/50 47/47/47
f 51/51/51 53/53/53 52/52/52
f 52/52/52 54/54/54 51/51/51
f 55/55/55 51/51/51 54/54/54
f 54/54/54 56/56/56 55/55/55
f 57/57/57 59/59/59 58/58/58
f 58/58/58 60/60/60 57/57/57
f 61/61/61 63/63/63 62/62/62
f 62/62/62 64/64/64 61/61/61
f 65/65/65 67/67/67 66/66/66
f 66/66/66 68/68/68 65/65/65
