# 
# Wavefront OBJ file
# Created with Kaydara FBX
# 
mtllib slate_h.mtl

g slate_h
v -0.500000 -0.485000 0.500000
v 0.500000 -0.485000 -0.500000
v 0.500000 -0.485000 0.500000
v -0.500000 -0.485000 -0.500000
v 0.500000 -0.490000 -0.500000
v -0.500000 -0.490000 0.500000
v 0.500000 -0.490000 0.500000
v -0.500000 -0.490000 -0.500000
vt 0.000000 1.000000
vt 1.000000 0.000000
vt 1.000000 1.000000
vt 0.000000 0.000000
vt 1.000000 0.000000
vt 0.000000 1.000000
vt 1.000000 1.000000
vt 0.000000 0.000000
vn 0.000000 1.000000 0.000000
vn 0.000000 1.000000 0.000000
vn 0.000000 1.000000 0.000000
vn 0.000000 1.000000 0.000000
vn 0.000000 -1.000000 -0.000000
vn 0.000000 -1.000000 -0.000000
vn 0.000000 -1.000000 -0.000000
vn 0.000000 -1.000000 -0.000000
usemtl slate
f 1/1/1 3/3/3 2/2/2
f 2/2/2 4/4/4 1/1/1
f 5/5/5 7/7/7 6/6/6
f 6/6/6 8/8/8 5/5/5
