# 
# Wavefront OBJ file
# Created with Kaydara FBX
# 
mtllib slope.mtl

g slope
v 0.500000 -0.500000 0.500000
v -0.500000 0.500000 -0.500000
v 0.500000 0.500000 -0.500000
v -0.500000 -0.500000 0.500000
v 0.500000 -0.500000 0.495000
v -0.500000 0.500000 -0.505000
v -0.500000 -0.500000 0.495000
v 0.500000 0.500000 -0.505000
vt 0.864136 0.993876
vt 0.161379 0.008010
vt 0.864136 0.008010
vt 0.161379 0.993876
vt 0.864136 0.993876
vt 0.161379 0.008010
vt 0.161379 0.993876
vt 0.864136 0.008010
vn 0.000000 0.707107 0.707107
vn 0.000000 0.707107 0.707107
vn 0.000000 0.707107 0.707107
vn 0.000000 0.707107 0.707107
vn 0.000000 -0.707107 -0.707107
vn 0.000000 -0.707107 -0.707107
vn 0.000000 -0.707107 -0.707107
vn 0.000000 -0.707107 -0.707107
usemtl slope
f 1/1/1 3/3/3 2/2/2
f 2/2/2 4/4/4 1/1/1
f 5/5/5 7/7/7 6/6/6
f 6/6/6 8/8/8 5/5/5
