# 
# Wavefront OBJ file
# Created with Kaydara FBX
# 
mtllib table01.mtl

g table01
v -0.490000 0.500000 0.490000
v 0.490000 0.500000 -0.490000
v 0.490000 0.500000 0.490000
v -0.490000 0.500000 -0.490000
v 0.490000 0.500000 0.490000
v -0.500000 0.330069 0.500000
v -0.490000 0.500000 0.490000
v 0.500000 0.330069 0.500000
v -0.490000 0.500000 0.490000
v -0.500000 0.330069 -0.500000
v -0.490000 0.500000 -0.490000
v -0.500000 0.330069 0.500000
v -0.490000 0.500000 -0.490000
v 0.500000 0.330069 -0.500000
v 0.490000 0.500000 -0.490000
v -0.500000 0.330069 -0.500000
v 0.490000 0.500000 -0.490000
v 0.500000 0.330069 0.500000
v 0.490000 0.500000 0.490000
v 0.500000 0.330069 -0.500000
v -0.500000 0.330069 0.500000
v 0.500000 0.330069 -0.500000
v -0.500000 0.330069 -0.500000
v 0.500000 0.330069 0.500000
v -0.129025 -0.500000 0.129025
v 0.129025 -0.500000 -0.129025
v -0.129025 -0.500000 -0.129025
v 0.129025 -0.500000 0.129025
v -0.129025 -0.500000 0.129025
v 0.082408 0.350000 0.082408
v 0.129025 -0.500000 0.129025
v -0.082408 0.350000 0.082408
v -0.129025 -0.500000 -0.129025
v -0.082408 0.350000 0.082408
v -0.129025 -0.500000 0.129025
v -0.082408 0.350000 -0.082408
v 0.129025 -0.500000 -0.129025
v -0.082408 0.350000 -0.082408
v -0.129025 -0.500000 -0.129025
v 0.082408 0.350000 -0.082408
v 0.129025 -0.500000 0.129025
v 0.082408 0.350000 -0.082408
v 0.129025 -0.500000 -0.129025
v 0.082408 0.350000 0.082408
vt 0.242807 0.757193
vt 0.993845 0.006155
vt 0.993845 0.757193
vt 0.242807 0.006155
vt 0.993810 0.757193
vt 0.242772 0.884869
vt 0.242772 0.757193
vt 0.993810 0.884869
vt 0.993810 0.757193
vt 0.242772 0.884869
vt 0.242772 0.757193
vt 0.993810 0.884869
vt 0.993810 0.757193
vt 0.242772 0.884869
vt 0.242772 0.757193
vt 0.993810 0.884869
vt 0.993810 0.757193
vt 0.242772 0.884869
vt 0.242772 0.757193
vt 0.993810 0.884869
vt 0.241034 0.993250
vt 0.345132 0.889153
vt 0.241034 0.889153
vt 0.345132 0.993250
vt 0.226108 0.984685
vt 0.015945 0.774523
vt 0.226108 0.774523
vt 0.015945 0.984685
vt 0.012136 0.764778
vt 0.190898 0.013740
vt 0.230312 0.764778
vt 0.051550 0.013740
vt 0.012136 0.764778
vt 0.190898 0.013740
vt 0.230312 0.764778
vt 0.051550 0.013740
vt 0.012136 0.764778
vt 0.190898 0.013740
vt 0.230312 0.764778
vt 0.051550 0.013740
vt 0.012136 0.764778
vt 0.190898 0.013740
vt 0.230312 0.764778
vt 0.051550 0.013740
vn 0.000000 1.000000 0.000000
vn 0.000000 1.000000 0.000000
vn 0.000000 1.000000 0.000000
vn 0.000000 1.000000 0.000000
vn 0.704671 0.082937 0.704671
vn -0.704671 0.082937 0.704671
vn -0.704671 0.082937 0.704671
vn 0.704671 0.082937 0.704671
vn -0.704671 0.082937 0.704671
vn -0.704671 0.082937 -0.704671
vn -0.704671 0.082937 -0.704671
vn -0.704671 0.082937 0.704671
vn -0.704671 0.082937 -0.704671
vn 0.704671 0.082937 -0.704671
vn 0.704671 0.082937 -0.704671
vn -0.704671 0.082937 -0.704671
vn 0.704671 0.082937 -0.704671
vn 0.704671 0.082937 0.704671
vn 0.704671 0.082937 0.704671
vn 0.704671 0.082937 -0.704671
vn 0.000000 -1.000000 -0.000000
vn 0.000000 -1.000000 -0.000000
vn 0.000000 -1.000000 -0.000000
vn 0.000000 -1.000000 -0.000000
vn 0.000000 -1.000000 -0.000000
vn 0.000000 -1.000000 -0.000000
vn 0.000000 -1.000000 -0.000000
vn 0.000000 -1.000000 -0.000000
vn -0.704990 0.077328 0.704990
vn 0.704989 0.077328 0.704990
vn 0.704990 0.077328 0.704990
vn -0.704990 0.077328 0.704989
vn -0.704990 0.077328 -0.704990
vn -0.704990 0.077328 0.704989
vn -0.704990 0.077328 0.704990
vn -0.704989 0.077328 -0.704990
vn 0.704990 0.077328 -0.704990
vn -0.704989 0.077328 -0.704990
vn -0.704990 0.077328 -0.704990
vn 0.704990 0.077328 -0.704989
vn 0.704990 0.077328 0.704990
vn 0.704990 0.077328 -0.704989
vn 0.704990 0.077328 -0.704990
vn 0.704989 0.077328 0.704990
usemtl table01
f 1/1/1 3/3/3 2/2/2
f 2/2/2 4/4/4 1/1/1
f 5/5/5 7/7/7 6/6/6
f 6/6/6 8/8/8 5/5/5
f 9/9/9 11/11/11 10/10/10
f 10/10/10 12/12/12 9/9/9
f 13/13/13 15/15/15 14/14/14
f 14/14/14 16/16/16 13/13/13
f 17/17/17 19/19/19 18/18/18
f 18/18/18 20/20/20 17/17/17
f 21/21/21 23/23/23 22/22/22
f 22/22/22 24/24/24 21/21/21
f 25/25/25 27/27/27 26/26/26
f 26/26/26 28/28/28 25/25/25
f 29/29/29 31/31/31 30/30/30
f 30/30/30 32/32/32 29/29/29
f 33/33/33 35/35/35 34/34/34
f 34/34/34 36/36/36 33/33/33
f 37/37/37 39/39/39 38/38/38
f 38/38/38 40/40/40 37/37/37
f 41/41/41 43/43/43 42/42/42
f 42/42/42 44/44/44 41/41/41
