# 
# Wavefront OBJ file
# Created with Kaydara FBX
# 
mtllib tire_1.mtl

g tire_1
v -0.000000 0.484471 -0.145798
v 0.182765 0.316557 -0.145798
v -0.000000 0.365529 -0.145798
v 0.242235 0.419564 -0.145798
v 0.316557 0.182765 -0.145798
v 0.419564 0.242235 -0.145798
v 0.365529 0.000000 -0.145798
v 0.484471 0.000000 -0.145798
v -0.242236 0.419564 -0.145798
v -0.182765 0.316557 -0.145798
v -0.419564 0.242235 -0.145798
v -0.316558 0.182765 -0.145798
v -0.484471 0.000000 -0.145798
v -0.365529 0.000000 -0.145798
v -0.000000 0.500000 -0.160798
v 0.250000 0.433013 -0.160798
v 0.433013 0.250000 -0.160798
v 0.500000 0.000000 -0.160798
v -0.500000 0.000000 -0.160798
v -0.433013 0.250000 -0.160798
v -0.250000 0.433013 -0.160798
v -0.181731 0.144035 -0.254664
v -0.000000 0.227661 -0.254664
v 0.181731 0.144035 -0.254664
v 0.226278 0.000000 -0.254664
v -0.226278 0.000000 -0.254664
v -0.000000 0.500000 -0.160798
v 0.250000 0.433013 -0.295790
v 0.250000 0.433013 -0.160798
v -0.000000 0.500000 -0.295790
v 0.433013 0.250000 -0.295790
v 0.433013 0.250000 -0.160798
v 0.500000 0.000000 -0.295790
v 0.500000 0.000000 -0.160798
v -0.250000 0.433013 -0.160798
v -0.250000 0.433013 -0.295790
v -0.433013 0.250000 -0.160798
v -0.433013 0.250000 -0.295790
v -0.500000 0.000000 -0.160798
v -0.500000 0.000000 -0.295790
v 0.098486 0.000000 -0.259076
v 0.049562 0.084739 -0.178280
v 0.049562 0.084739 -0.259076
v 0.098486 -0.000000 -0.178280
v -0.048286 0.084739 -0.178280
v -0.048286 0.084739 -0.259076
v 0.049562 -0.084739 -0.259076
v 0.049562 -0.084739 -0.178280
v -0.048286 -0.084739 -0.259076
v -0.048286 -0.084739 -0.178280
v -0.097210 -0.000000 -0.259076
v -0.097210 -0.000000 -0.178280
v -0.048286 0.084739 -0.259076
v -0.048286 0.084739 -0.178280
v 0.049562 0.084739 -0.178280
v -0.097210 -0.000000 -0.178280
v -0.048286 0.084739 -0.178280
v 0.049562 -0.084739 -0.178280
v -0.048286 -0.084739 -0.178280
v 0.098486 -0.000000 -0.178280
v -0.000000 -0.484471 -0.145798
v 0.182765 -0.316557 -0.145798
v 0.242235 -0.419564 -0.145798
v -0.000000 -0.365529 -0.145798
v 0.316557 -0.182765 -0.145798
v 0.419564 -0.242235 -0.145798
v 0.365529 0.000000 -0.145798
v 0.484471 0.000000 -0.145798
v -0.242236 -0.419564 -0.145798
v -0.182765 -0.316557 -0.145798
v -0.419564 -0.242235 -0.145798
v -0.316558 -0.182764 -0.145798
v -0.484471 0.000000 -0.145798
v -0.365529 0.000000 -0.145798
v -0.000000 -0.500000 -0.160798
v 0.250000 -0.433013 -0.160798
v 0.433013 -0.250000 -0.160798
v 0.500000 0.000000 -0.160798
v -0.500000 0.000000 -0.160798
v -0.433013 -0.250000 -0.160798
v -0.250000 -0.433013 -0.160798
v -0.181731 -0.144035 -0.254664
v -0.000000 -0.227661 -0.254664
v 0.181731 -0.144035 -0.254664
v 0.226278 0.000000 -0.254664
v -0.226278 0.000000 -0.254664
v -0.000000 -0.500000 -0.160798
v 0.250000 -0.433013 -0.295790
v -0.000000 -0.500000 -0.295790
v 0.250000 -0.433013 -0.160798
v 0.433013 -0.250000 -0.295790
v 0.433013 -0.250000 -0.160798
v 0.500000 0.000000 -0.295790
v 0.500000 0.000000 -0.160798
v -0.250000 -0.433013 -0.160798
v -0.250000 -0.433013 -0.295790
v -0.433013 -0.250000 -0.160798
v -0.433013 -0.250000 -0.295790
v -0.500000 0.000000 -0.160798
v -0.500000 0.000000 -0.295790
v 0.000000 0.484471 -0.445781
v 0.182765 0.316557 -0.445781
v 0.242235 0.419564 -0.445781
v 0.000000 0.365529 -0.445781
v 0.316557 0.182765 -0.445781
v 0.419564 0.242235 -0.445781
v 0.365529 0.000000 -0.445781
v 0.484471 0.000000 -0.445781
v -0.242236 0.419564 -0.445781
v -0.182765 0.316557 -0.445781
v -0.419564 0.242235 -0.445781
v -0.316557 0.182765 -0.445781
v -0.484471 0.000000 -0.445781
v -0.365529 0.000000 -0.445781
v 0.000000 0.500000 -0.430781
v 0.250000 0.433013 -0.430781
v 0.433013 0.250000 -0.430781
v 0.500000 0.000000 -0.430781
v -0.500000 0.000000 -0.430781
v -0.433013 0.250000 -0.430781
v -0.250000 0.433013 -0.430781
v -0.181731 0.144035 -0.336915
v -0.000000 0.227661 -0.336915
v 0.181731 0.144035 -0.336915
v 0.226278 0.000000 -0.336915
v -0.226278 0.000000 -0.336915
v 0.000000 0.500000 -0.430781
v 0.250000 0.433013 -0.295790
v -0.000000 0.500000 -0.295790
v 0.250000 0.433013 -0.430781
v 0.433013 0.250000 -0.295790
v 0.433013 0.250000 -0.430781
v 0.500000 0.000000 -0.295790
v 0.500000 0.000000 -0.430781
v -0.250000 0.433013 -0.430781
v -0.250000 0.433013 -0.295790
v -0.433013 0.250000 -0.430781
v -0.433013 0.250000 -0.295790
v -0.500000 0.000000 -0.430781
v -0.500000 0.000000 -0.295790
v 0.098486 0.000000 -0.332504
v 0.049562 0.084739 -0.413299
v 0.098486 0.000000 -0.413299
v 0.049562 0.084739 -0.332504
v -0.048286 0.084739 -0.413299
v -0.048286 0.084739 -0.332504
v 0.049562 -0.084739 -0.332504
v 0.049562 -0.084739 -0.413299
v -0.048286 -0.084739 -0.332504
v -0.048286 -0.084739 -0.413299
v -0.097210 -0.000000 -0.332504
v -0.097210 -0.000000 -0.413299
v -0.048286 0.084739 -0.332504
v -0.048286 0.084739 -0.413299
v 0.049562 -0.084739 -0.413299
v -0.097210 -0.000000 -0.413299
v -0.048286 -0.084739 -0.413299
v 0.049562 0.084739 -0.413299
v -0.048286 0.084739 -0.413299
v 0.098486 0.000000 -0.413299
v 0.000000 -0.484471 -0.445781
v 0.182765 -0.316557 -0.445781
v 0.000000 -0.365529 -0.445781
v 0.242235 -0.419564 -0.445781
v 0.316557 -0.182764 -0.445781
v 0.419564 -0.242235 -0.445781
v 0.365529 0.000000 -0.445781
v 0.484471 0.000000 -0.445781
v -0.242236 -0.419564 -0.445781
v -0.182765 -0.316557 -0.445781
v -0.419564 -0.242235 -0.445781
v -0.316557 -0.182764 -0.445781
v -0.484471 0.000000 -0.445781
v -0.365529 0.000000 -0.445781
v 0.000000 -0.500000 -0.430781
v 0.250000 -0.433013 -0.430781
v 0.433013 -0.250000 -0.430781
v 0.500000 0.000000 -0.430781
v -0.500000 0.000000 -0.430781
v -0.433013 -0.250000 -0.430781
v -0.250000 -0.433013 -0.430781
v -0.181731 -0.144035 -0.336915
v -0.000000 -0.227661 -0.336915
v 0.181731 -0.144035 -0.336915
v 0.226278 0.000000 -0.336915
v -0.226278 0.000000 -0.336915
v 0.000000 -0.500000 -0.430781
v 0.250000 -0.433013 -0.295790
v 0.250000 -0.433013 -0.430781
v -0.000000 -0.500000 -0.295790
v 0.433013 -0.250000 -0.295790
v 0.433013 -0.250000 -0.430781
v 0.500000 0.000000 -0.295790
v 0.500000 0.000000 -0.430781
v -0.250000 -0.433013 -0.430781
v -0.250000 -0.433013 -0.295790
v -0.433013 -0.250000 -0.430781
v -0.433013 -0.250000 -0.295790
v -0.500000 0.000000 -0.430781
v -0.500000 0.000000 -0.295790
vt 0.499806 0.025321
vt 0.682765 0.189931
vt 0.499806 0.141923
vt 0.742235 0.088951
vt 0.816558 0.321091
vt 0.919564 0.262790
vt 0.865529 0.499859
vt 0.984471 0.499859
vt 0.257764 0.088951
vt 0.317235 0.189931
vt 0.080436 0.262790
vt 0.183442 0.321091
vt 0.015529 0.499859
vt 0.134471 0.499859
vt 0.499806 0.010098
vt 0.750000 0.075767
vt 0.933013 0.255178
vt 1.000000 0.499859
vt 0.000000 0.499859
vt 0.066987 0.255179
vt 0.250000 0.075767
vt 0.323809 0.365633
vt 0.491504 0.278153
vt 0.677925 0.363212
vt 0.723781 0.499859
vt 0.273590 0.499859
vt 0.496318 0.686553
vt 0.330785 0.520058
vt 0.330785 0.686553
vt 0.496318 0.520058
vt 0.158071 0.520058
vt 0.158071 0.686553
vt 0.002311 0.520058
vt 0.002311 0.686553
vt 0.667404 0.686553
vt 0.667404 0.520058
vt 0.840185 0.686553
vt 0.840185 0.520058
vt 0.996817 0.686553
vt 0.996817 0.520058
vt 0.409415 0.913769
vt 0.504137 0.719442
vt 0.504137 0.913769
vt 0.409415 0.719442
vt 0.598858 0.719442
vt 0.598858 0.913769
vt 0.314694 0.913769
vt 0.314694 0.719442
vt 0.219973 0.913769
vt 0.219973 0.719442
vt 0.125251 0.913769
vt 0.125251 0.719442
vt 0.030530 0.913769
vt 0.030530 0.719442
vt 0.005786 0.051797
vt 0.086795 0.192458
vt 0.005786 0.146062
vt 0.168541 0.051797
vt 0.168541 0.146062
vt 0.086795 0.004665
vt 0.499806 0.025321
vt 0.682765 0.189931
vt 0.742235 0.088951
vt 0.499806 0.141923
vt 0.816558 0.321091
vt 0.919564 0.262790
vt 0.865529 0.499859
vt 0.984471 0.499859
vt 0.257764 0.088951
vt 0.317235 0.189931
vt 0.080436 0.262790
vt 0.183442 0.321091
vt 0.015529 0.499859
vt 0.134471 0.499859
vt 0.499806 0.010098
vt 0.750000 0.075767
vt 0.933013 0.255178
vt 1.000000 0.499859
vt 0.000000 0.499859
vt 0.066987 0.255179
vt 0.250000 0.075767
vt 0.323809 0.365633
vt 0.491504 0.278153
vt 0.677925 0.363212
vt 0.723781 0.499859
vt 0.273590 0.499859
vt 0.496318 0.686553
vt 0.330785 0.520058
vt 0.496318 0.520058
vt 0.330785 0.686553
vt 0.158071 0.520058
vt 0.158071 0.686553
vt 0.002311 0.520058
vt 0.002311 0.686553
vt 0.667404 0.686553
vt 0.667404 0.520058
vt 0.840185 0.686553
vt 0.840185 0.520058
vt 0.996817 0.686553
vt 0.996817 0.520058
vt 0.499806 0.025321
vt 0.682765 0.189931
vt 0.742235 0.088951
vt 0.499806 0.141923
vt 0.816558 0.321091
vt 0.919564 0.262790
vt 0.865529 0.499859
vt 0.984471 0.499859
vt 0.257764 0.088951
vt 0.317235 0.189931
vt 0.080436 0.262790
vt 0.183442 0.321091
vt 0.015529 0.499859
vt 0.134471 0.499859
vt 0.499806 0.010098
vt 0.750000 0.075767
vt 0.933013 0.255178
vt 1.000000 0.499859
vt 0.000000 0.499859
vt 0.066987 0.255179
vt 0.250000 0.075767
vt 0.323809 0.365633
vt 0.491504 0.278153
vt 0.677925 0.363212
vt 0.723781 0.499859
vt 0.273590 0.499859
vt 0.496318 0.686553
vt 0.330785 0.520058
vt 0.496318 0.520058
vt 0.330785 0.686553
vt 0.158071 0.520058
vt 0.158071 0.686553
vt 0.002311 0.520058
vt 0.002311 0.686553
vt 0.667404 0.686553
vt 0.667404 0.520058
vt 0.840185 0.686553
vt 0.840185 0.520058
vt 0.996817 0.686553
vt 0.996817 0.520058
vt 0.409415 0.913769
vt 0.504137 0.719442
vt 0.409415 0.719442
vt 0.504137 0.913769
vt 0.598858 0.719442
vt 0.598858 0.913769
vt 0.314694 0.913769
vt 0.314694 0.719442
vt 0.219973 0.913769
vt 0.219973 0.719442
vt 0.125251 0.913769
vt 0.125251 0.719442
vt 0.030530 0.913769
vt 0.030530 0.719442
vt 0.168541 0.051797
vt 0.086795 0.192458
vt 0.168541 0.146062
vt 0.005786 0.051797
vt 0.005786 0.146062
vt 0.086795 0.004665
vt 0.499806 0.025321
vt 0.682765 0.189931
vt 0.499806 0.141923
vt 0.742235 0.088951
vt 0.816558 0.321091
vt 0.919564 0.262790
vt 0.865529 0.499859
vt 0.984471 0.499859
vt 0.257764 0.088951
vt 0.317235 0.189931
vt 0.080436 0.262790
vt 0.183442 0.321091
vt 0.015529 0.499859
vt 0.134471 0.499859
vt 0.499806 0.010098
vt 0.750000 0.075767
vt 0.933013 0.255178
vt 1.000000 0.499859
vt 0.000000 0.499859
vt 0.066987 0.255179
vt 0.250000 0.075767
vt 0.323809 0.365633
vt 0.491504 0.278153
vt 0.677925 0.363212
vt 0.723781 0.499859
vt 0.273590 0.499859
vt 0.496318 0.686553
vt 0.330785 0.520058
vt 0.330785 0.686553
vt 0.496318 0.520058
vt 0.158071 0.520058
vt 0.158071 0.686553
vt 0.002311 0.520058
vt 0.002311 0.686553
vt 0.667404 0.686553
vt 0.667404 0.520058
vt 0.840185 0.686553
vt 0.840185 0.520058
vt 0.996817 0.686553
vt 0.996817 0.520058
vn 0.000000 0.425730 0.904850
vn -0.114016 -0.227885 0.966989
vn -0.009690 -0.265910 0.963949
vn 0.212865 0.368693 0.904850
vn -0.246835 -0.136344 0.959418
vn 0.368693 0.212865 0.904850
vn -0.275620 -0.000000 0.961267
vn 0.425730 -0.000000 0.904850
vn -0.212865 0.368693 0.904850
vn 0.133118 -0.239635 0.961694
vn -0.368693 0.212865 0.904850
vn 0.245185 -0.132979 0.960313
vn -0.425730 -0.000000 0.904850
vn 0.270893 -0.000000 0.962610
vn -0.000000 0.929331 0.369247
vn 0.464666 0.804825 0.369247
vn 0.804824 0.464666 0.369247
vn 0.929331 -0.000000 0.369247
vn -0.929331 -0.000000 0.369247
vn -0.804825 0.464666 0.369247
vn -0.464666 0.804824 0.369247
vn 0.297474 -0.240913 0.923835
vn -0.024040 -0.388546 0.921115
vn -0.287582 -0.253436 0.923616
vn -0.372590 -0.000000 0.927996
vn 0.378914 -0.000000 0.925432
vn -0.000000 0.929331 0.369247
vn 0.500000 0.866025 0.000000
vn 0.464666 0.804825 0.369247
vn -0.000000 1.000000 0.000000
vn 0.866025 0.500000 0.000000
vn 0.804824 0.464666 0.369247
vn 1.000000 0.000000 0.000000
vn 0.929331 -0.000000 0.369247
vn -0.464666 0.804824 0.369247
vn -0.500000 0.866025 0.000000
vn -0.804825 0.464666 0.369247
vn -0.866025 0.500000 0.000000
vn -0.929331 -0.000000 0.369247
vn -1.000000 0.000000 0.000000
vn 1.000000 0.000000 0.000000
vn 0.500000 0.866025 0.000000
vn 0.500000 0.866025 0.000000
vn 1.000000 0.000000 0.000000
vn -0.500000 0.866025 0.000000
vn -0.500000 0.866025 0.000000
vn 0.500000 -0.866025 -0.000000
vn 0.500000 -0.866025 -0.000000
vn -0.500000 -0.866025 -0.000000
vn -0.500000 -0.866025 -0.000000
vn -1.000000 -0.000000 -0.000000
vn -1.000000 -0.000000 -0.000000
vn -0.500000 0.866025 0.000000
vn -0.500000 0.866025 0.000000
vn 0.000000 -0.000000 1.000000
vn 0.000000 -0.000000 1.000000
vn 0.000000 -0.000000 1.000000
vn 0.000000 -0.000000 1.000000
vn 0.000000 -0.000000 1.000000
vn 0.000000 -0.000000 1.000000
vn 0.000000 -0.425730 0.904850
vn -0.114016 0.227885 0.966989
vn 0.212865 -0.368693 0.904850
vn -0.009690 0.265910 0.963949
vn -0.246834 0.136344 0.959418
vn 0.368693 -0.212865 0.904850
vn -0.275620 -0.000000 0.961267
vn 0.425730 -0.000000 0.904850
vn -0.212865 -0.368693 0.904850
vn 0.133118 0.239635 0.961694
vn -0.368693 -0.212865 0.904850
vn 0.245185 0.132978 0.960313
vn -0.425730 -0.000000 0.904850
vn 0.270893 -0.000000 0.962610
vn -0.000000 -0.929331 0.369247
vn 0.464666 -0.804825 0.369247
vn 0.804825 -0.464666 0.369247
vn 0.929331 -0.000000 0.369247
vn -0.929331 -0.000000 0.369247
vn -0.804825 -0.464666 0.369247
vn -0.464666 -0.804824 0.369247
vn 0.297474 0.240913 0.923835
vn -0.024040 0.388546 0.921116
vn -0.287582 0.253436 0.923616
vn -0.372590 -0.000000 0.927996
vn 0.378914 -0.000000 0.925432
vn -0.000000 -0.929331 0.369247
vn 0.500000 -0.866025 -0.000000
vn -0.000000 -1.000000 -0.000000
vn 0.464666 -0.804825 0.369247
vn 0.866025 -0.500000 -0.000000
vn 0.804825 -0.464666 0.369247
vn 1.000000 0.000000 0.000000
vn 0.929331 -0.000000 0.369247
vn -0.464666 -0.804824 0.369247
vn -0.500000 -0.866025 -0.000000
vn -0.804825 -0.464666 0.369247
vn -0.866025 -0.500000 -0.000000
vn -0.929331 -0.000000 0.369247
vn -1.000000 0.000000 0.000000
vn -0.000000 0.425730 -0.904850
vn -0.114016 -0.227885 -0.966989
vn 0.212865 0.368693 -0.904850
vn -0.009690 -0.265910 -0.963949
vn -0.246835 -0.136344 -0.959418
vn 0.368693 0.212865 -0.904850
vn -0.275620 0.000000 -0.961267
vn 0.425730 0.000000 -0.904850
vn -0.212865 0.368692 -0.904851
vn 0.133118 -0.239635 -0.961694
vn -0.368693 0.212865 -0.904850
vn 0.245185 -0.132979 -0.960313
vn -0.425730 0.000000 -0.904850
vn 0.270893 0.000000 -0.962610
vn -0.000000 0.929331 -0.369247
vn 0.464666 0.804825 -0.369247
vn 0.804825 0.464665 -0.369247
vn 0.929331 0.000000 -0.369247
vn -0.929331 0.000000 -0.369247
vn -0.804825 0.464666 -0.369247
vn -0.464666 0.804824 -0.369247
vn 0.297473 -0.240913 -0.923835
vn -0.024040 -0.388546 -0.921115
vn -0.287582 -0.253436 -0.923616
vn -0.372590 0.000000 -0.927996
vn 0.378914 0.000000 -0.925432
vn -0.000000 0.929331 -0.369247
vn 0.500000 0.866025 0.000000
vn -0.000000 1.000000 0.000000
vn 0.464666 0.804825 -0.369247
vn 0.866025 0.500000 0.000000
vn 0.804825 0.464665 -0.369247
vn 1.000000 0.000000 0.000000
vn 0.929331 0.000000 -0.369247
vn -0.464666 0.804824 -0.369247
vn -0.500000 0.866025 0.000000
vn -0.804825 0.464666 -0.369247
vn -0.866025 0.500000 0.000000
vn -0.929331 0.000000 -0.369247
vn -1.000000 0.000000 0.000000
vn 1.000000 -0.000000 0.000000
vn 0.500000 0.866025 0.000000
vn 1.000000 0.000000 0.000000
vn 0.500000 0.866025 0.000000
vn -0.500000 0.866025 0.000000
vn -0.500000 0.866025 0.000000
vn 0.500000 -0.866025 -0.000000
vn 0.500000 -0.866025 -0.000000
vn -0.500000 -0.866025 -0.000000
vn -0.500000 -0.866025 -0.000000
vn -1.000000 -0.000000 -0.000000
vn -1.000000 0.000000 0.000000
vn -0.500000 0.866025 0.000000
vn -0.500000 0.866025 0.000000
vn 0.000000 0.000000 -1.000000
vn 0.000000 0.000000 -1.000000
vn 0.000000 0.000000 -1.000000
vn 0.000000 0.000000 -1.000000
vn 0.000000 0.000000 -1.000000
vn 0.000000 0.000000 -1.000000
vn -0.000000 -0.425730 -0.904850
vn -0.114016 0.227885 -0.966989
vn -0.009690 0.265910 -0.963949
vn 0.212865 -0.368693 -0.904850
vn -0.246835 0.136344 -0.959418
vn 0.368693 -0.212865 -0.904850
vn -0.275620 0.000000 -0.961267
vn 0.425730 0.000000 -0.904850
vn -0.212865 -0.368692 -0.904851
vn 0.133118 0.239635 -0.961694
vn -0.368693 -0.212865 -0.904850
vn 0.245185 0.132979 -0.960313
vn -0.425730 0.000000 -0.904850
vn 0.270893 0.000000 -0.962610
vn -0.000000 -0.929331 -0.369247
vn 0.464666 -0.804824 -0.369247
vn 0.804824 -0.464666 -0.369247
vn 0.929331 0.000000 -0.369247
vn -0.929331 0.000000 -0.369247
vn -0.804824 -0.464666 -0.369247
vn -0.464666 -0.804824 -0.369247
vn 0.297473 0.240913 -0.923835
vn -0.024040 0.388546 -0.921115
vn -0.287582 0.253436 -0.923616
vn -0.372590 0.000000 -0.927996
vn 0.378914 0.000000 -0.925432
vn -0.000000 -0.929331 -0.369247
vn 0.500000 -0.866025 -0.000000
vn 0.464666 -0.804824 -0.369247
vn -0.000000 -1.000000 -0.000000
vn 0.866025 -0.500000 -0.000000
vn 0.804824 -0.464666 -0.369247
vn 1.000000 0.000000 0.000000
vn 0.929331 0.000000 -0.369247
vn -0.464666 -0.804824 -0.369247
vn -0.500000 -0.866025 -0.000000
vn -0.804824 -0.464666 -0.369247
vn -0.866025 -0.500000 -0.000000
vn -0.929331 0.000000 -0.369247
vn -1.000000 0.000000 0.000000
usemtl tire_1
f 1/1/1 3/3/3 2/2/2
f 2/2/2 4/4/4 1/1/1
f 4/4/4 2/2/2 5/5/5
f 5/5/5 6/6/6 4/4/4
f 6/6/6 5/5/5 7/7/7
f 7/7/7 8/8/8 6/6/6
f 3/3/3 1/1/1 9/9/9
f 9/9/9 10/10/10 3/3/3
f 10/10/10 9/9/9 11/11/11
f 11/11/11 12/12/12 10/10/10
f 12/12/12 11/11/11 13/13/13
f 13/13/13 14/14/14 12/12/12
f 15/15/15 1/1/1 4/4/4
f 4/4/4 16/16/16 15/15/15
f 16/16/16 4/4/4 6/6/6
f 6/6/6 17/17/17 16/16/16
f 17/17/17 6/6/6 8/8/8
f 8/8/8 18/18/18 17/17/17
f 19/19/19 13/13/13 11/11/11
f 11/11/11 20/20/20 19/19/19
f 20/20/20 11/11/11 9/9/9
f 9/9/9 21/21/21 20/20/20
f 21/21/21 9/9/9 1/1/1
f 1/1/1 15/15/15 21/21/21
f 10/10/10 12/12/12 22/22/22
f 22/22/22 12/12/12 14/14/14
f 10/10/10 22/22/22 23/23/23
f 23/23/23 3/3/3 10/10/10
f 3/3/3 23/23/23 24/24/24
f 24/24/24 2/2/2 3/3/3
f 5/5/5 2/2/2 24/24/24
f 5/5/5 24/24/24 25/25/25
f 25/25/25 7/7/7 5/5/5
f 23/23/23 22/22/22 26/26/26
f 24/24/24 23/23/23 26/26/26
f 25/25/25 24/24/24 26/26/26
f 14/14/14 26/26/26 22/22/22
f 27/27/27 29/29/29 28/28/28
f 28/28/28 30/30/30 27/27/27
f 31/31/31 28/28/28 29/29/29
f 29/29/29 32/32/32 31/31/31
f 33/33/33 31/31/31 32/32/32
f 32/32/32 34/34/34 33/33/33
f 35/35/35 27/27/27 30/30/30
f 30/30/30 36/36/36 35/35/35
f 37/37/37 35/35/35 36/36/36
f 36/36/36 38/38/38 37/37/37
f 39/39/39 37/37/37 38/38/38
f 38/38/38 40/40/40 39/39/39
f 41/41/41 43/43/43 42/42/42
f 42/42/42 44/44/44 41/41/41
f 45/45/45 42/42/42 43/43/43
f 43/43/43 46/46/46 45/45/45
f 47/47/47 41/41/41 44/44/44
f 44/44/44 48/48/48 47/47/47
f 49/49/49 47/47/47 48/48/48
f 48/48/48 50/50/50 49/49/49
f 51/51/51 49/49/49 50/50/50
f 50/50/50 52/52/52 51/51/51
f 53/53/53 51/51/51 52/52/52
f 52/52/52 54/54/54 53/53/53
f 55/55/55 57/57/57 56/56/56
f 55/55/55 56/56/56 58/58/58
f 56/56/56 59/59/59 58/58/58
f 60/60/60 55/55/55 58/58/58
f 61/61/61 63/63/63 62/62/62
f 62/62/62 64/64/64 61/61/61
f 65/65/65 62/62/62 63/63/63
f 63/63/63 66/66/66 65/65/65
f 67/67/67 65/65/65 66/66/66
f 66/66/66 68/68/68 67/67/67
f 69/69/69 61/61/61 64/64/64
f 64/64/64 70/70/70 69/69/69
f 71/71/71 69/69/69 70/70/70
f 70/70/70 72/72/72 71/71/71
f 73/73/73 71/71/71 72/72/72
f 72/72/72 74/74/74 73/73/73
f 63/63/63 61/61/61 75/75/75
f 75/75/75 76/76/76 63/63/63
f 66/66/66 63/63/63 76/76/76
f 76/76/76 77/77/77 66/66/66
f 68/68/68 66/66/66 77/77/77
f 77/77/77 78/78/78 68/68/68
f 71/71/71 73/73/73 79/79/79
f 79/79/79 80/80/80 71/71/71
f 69/69/69 71/71/71 80/80/80
f 80/80/80 81/81/81 69/69/69
f 81/81/81 75/75/75 61/61/61
f 61/61/61 69/69/69 81/81/81
f 70/70/70 82/82/82 72/72/72
f 74/74/74 72/72/72 82/82/82
f 83/83/83 82/82/82 70/70/70
f 70/70/70 64/64/64 83/83/83
f 84/84/84 83/83/83 64/64/64
f 64/64/64 62/62/62 84/84/84
f 65/65/65 84/84/84 62/62/62
f 85/85/85 84/84/84 65/65/65
f 65/65/65 67/67/67 85/85/85
f 86/86/86 82/82/82 83/83/83
f 86/86/86 83/83/83 84/84/84
f 85/85/85 86/86/86 84/84/84
f 82/82/82 86/86/86 74/74/74
f 87/87/87 89/89/89 88/88/88
f 88/88/88 90/90/90 87/87/87
f 90/90/90 88/88/88 91/91/91
f 91/91/91 92/92/92 90/90/90
f 92/92/92 91/91/91 93/93/93
f 93/93/93 94/94/94 92/92/92
f 89/89/89 87/87/87 95/95/95
f 95/95/95 96/96/96 89/89/89
f 96/96/96 95/95/95 97/97/97
f 97/97/97 98/98/98 96/96/96
f 98/98/98 97/97/97 99/99/99
f 99/99/99 100/100/100 98/98/98
f 101/101/101 103/103/103 102/102/102
f 102/102/102 104/104/104 101/101/101
f 105/105/105 102/102/102 103/103/103
f 103/103/103 106/106/106 105/105/105
f 107/107/107 105/105/105 106/106/106
f 106/106/106 108/108/108 107/107/107
f 109/109/109 101/101/101 104/104/104
f 104/104/104 110/110/110 109/109/109
f 111/111/111 109/109/109 110/110/110
f 110/110/110 112/112/112 111/111/111
f 113/113/113 111/111/111 112/112/112
f 112/112/112 114/114/114 113/113/113
f 103/103/103 101/101/101 115/115/115
f 115/115/115 116/116/116 103/103/103
f 106/106/106 103/103/103 116/116/116
f 116/116/116 117/117/117 106/106/106
f 108/108/108 106/106/106 117/117/117
f 117/117/117 118/118/118 108/108/108
f 111/111/111 113/113/113 119/119/119
f 119/119/119 120/120/120 111/111/111
f 109/109/109 111/111/111 120/120/120
f 120/120/120 121/121/121 109/109/109
f 121/121/121 115/115/115 101/101/101
f 101/101/101 109/109/109 121/121/121
f 110/110/110 122/122/122 112/112/112
f 114/114/114 112/112/112 122/122/122
f 123/123/123 122/122/122 110/110/110
f 110/110/110 104/104/104 123/123/123
f 124/124/124 123/123/123 104/104/104
f 104/104/104 102/102/102 124/124/124
f 105/105/105 124/124/124 102/102/102
f 125/125/125 124/124/124 105/105/105
f 105/105/105 107/107/107 125/125/125
f 126/126/126 122/122/122 123/123/123
f 126/126/126 123/123/123 124/124/124
f 125/125/125 126/126/126 124/124/124
f 122/122/122 126/126/126 114/114/114
f 127/127/127 129/129/129 128/128/128
f 128/128/128 130/130/130 127/127/127
f 130/130/130 128/128/128 131/131/131
f 131/131/131 132/132/132 130/130/130
f 132/132/132 131/131/131 133/133/133
f 133/133/133 134/134/134 132/132/132
f 129/129/129 127/127/127 135/135/135
f 135/135/135 136/136/136 129/129/129
f 136/136/136 135/135/135 137/137/137
f 137/137/137 138/138/138 136/136/136
f 138/138/138 137/137/137 139/139/139
f 139/139/139 140/140/140 138/138/138
f 141/141/141 143/143/143 142/142/142
f 142/142/142 144/144/144 141/141/141
f 144/144/144 142/142/142 145/145/145
f 145/145/145 146/146/146 144/144/144
f 143/143/143 141/141/141 147/147/147
f 147/147/147 148/148/148 143/143/143
f 148/148/148 147/147/147 149/149/149
f 149/149/149 150/150/150 148/148/148
f 150/150/150 149/149/149 151/151/151
f 151/151/151 152/152/152 150/150/150
f 152/152/152 151/151/151 153/153/153
f 153/153/153 154/154/154 152/152/152
f 155/155/155 157/157/157 156/156/156
f 155/155/155 156/156/156 158/158/158
f 156/156/156 159/159/159 158/158/158
f 160/160/160 155/155/155 158/158/158
f 161/161/161 163/163/163 162/162/162
f 162/162/162 164/164/164 161/161/161
f 164/164/164 162/162/162 165/165/165
f 165/165/165 166/166/166 164/164/164
f 166/166/166 165/165/165 167/167/167
f 167/167/167 168/168/168 166/166/166
f 163/163/163 161/161/161 169/169/169
f 169/169/169 170/170/170 163/163/163
f 170/170/170 169/169/169 171/171/171
f 171/171/171 172/172/172 170/170/170
f 172/172/172 171/171/171 173/173/173
f 173/173/173 174/174/174 172/172/172
f 175/175/175 161/161/161 164/164/164
f 164/164/164 176/176/176 175/175/175
f 176/176/176 164/164/164 166/166/166
f 166/166/166 177/177/177 176/176/176
f 177/177/177 166/166/166 168/168/168
f 168/168/168 178/178/178 177/177/177
f 179/179/179 173/173/173 171/171/171
f 171/171/171 180/180/180 179/179/179
f 180/180/180 171/171/171 169/169/169
f 169/169/169 181/181/181 180/180/180
f 181/181/181 169/169/169 161/161/161
f 161/161/161 175/175/175 181/181/181
f 170/170/170 172/172/172 182/182/182
f 182/182/182 172/172/172 174/174/174
f 170/170/170 182/182/182 183/183/183
f 183/183/183 163/163/163 170/170/170
f 163/163/163 183/183/183 184/184/184
f 184/184/184 162/162/162 163/163/163
f 165/165/165 162/162/162 184/184/184
f 165/165/165 184/184/184 185/185/185
f 185/185/185 167/167/167 165/165/165
f 183/183/183 182/182/182 186/186/186
f 184/184/184 183/183/183 186/186/186
f 185/185/185 184/184/184 186/186/186
f 174/174/174 186/186/186 182/182/182
f 187/187/187 189/189/189 188/188/188
f 188/188/188 190/190/190 187/187/187
f 191/191/191 188/188/188 189/189/189
f 189/189/189 192/192/192 191/191/191
f 193/193/193 191/191/191 192/192/192
f 192/192/192 194/194/194 193/193/193
f 195/195/195 187/187/187 190/190/190
f 190/190/190 196/196/196 195/195/195
f 197/197/197 195/195/195 196/196/196
f 196/196/196 198/198/198 197/197/197
f 199/199/199 197/197/197 198/198/198
f 198/198/198 200/200/200 199/199/199
