# 
# Wavefront OBJ file
# Created with Kaydara FBX
# 
mtllib ventilator.mtl

g ventilator
v -0.348816 0.054926 -0.240330
v -0.002661 0.150619 -0.325823
v -0.130636 -0.071040 -0.240330
v -0.220841 0.276585 -0.325823
v -0.473483 0.473483 -0.251260
v -0.500000 0.473483 -0.272777
v -0.473483 0.500000 -0.272777
v -0.473483 0.000000 -0.251260
v -0.500000 0.000000 -0.272777
v -0.473483 -0.473483 -0.251260
v -0.500000 -0.473483 -0.272777
v -0.473483 -0.500000 -0.272777
v -0.473483 -0.500000 -0.272777
v 0.473483 -0.473483 -0.251260
v 0.473483 -0.500000 -0.272777
v -0.473483 -0.473483 -0.251260
v -0.127470 -0.392311 -0.242203
v 0.127470 -0.392311 -0.242203
v 0.333720 -0.242461 -0.242203
v 0.412500 0.000000 -0.242203
v 0.473483 0.000000 -0.251260
v -0.333719 -0.242462 -0.242203
v -0.473483 0.000000 -0.251260
v -0.412500 0.000000 -0.242203
v -0.473483 0.473483 -0.251260
v -0.333719 0.242461 -0.242203
v -0.127469 0.392311 -0.242203
v 0.473483 0.473483 -0.251260
v 0.473483 0.500000 -0.272777
v -0.473483 0.500000 -0.272777
v 0.127470 0.392311 -0.242203
v 0.333720 0.242461 -0.242203
v 0.116052 0.357172 -0.204846
v -0.116052 0.357172 -0.204846
v 0.473483 -0.473483 -0.251260
v 0.500000 -0.473483 -0.272777
v 0.473483 -0.500000 -0.272777
v 0.473483 0.000000 -0.251260
v 0.500000 0.000000 -0.272777
v 0.473483 0.473483 -0.251260
v 0.500000 0.473483 -0.272777
v 0.473483 0.500000 -0.272777
v -0.473483 0.500000 -0.272777
v -0.500000 0.473483 -0.500000
v -0.473483 0.500000 -0.500000
v -0.500000 0.473483 -0.272777
v -0.500000 0.000000 -0.500000
v -0.500000 0.000000 -0.272777
v -0.500000 -0.473483 -0.500000
v -0.500000 -0.473483 -0.272777
v -0.500000 -0.473483 -0.272777
v -0.473483 -0.500000 -0.500000
v -0.500000 -0.473483 -0.500000
v -0.473483 -0.500000 -0.272777
v 0.473483 -0.500000 -0.500000
v -0.473483 -0.500000 -0.272777
v 0.473483 -0.500000 -0.272777
v -0.473483 -0.500000 -0.500000
v 0.473483 -0.500000 -0.272777
v 0.500000 -0.473483 -0.500000
v 0.473483 -0.500000 -0.500000
v 0.500000 -0.473483 -0.272777
v 0.500000 0.000000 -0.500000
v 0.500000 0.000000 -0.272777
v 0.500000 0.473483 -0.500000
v 0.500000 0.473483 -0.272777
v 0.500000 0.473483 -0.272777
v 0.473483 0.500000 -0.500000
v 0.500000 0.473483 -0.500000
v 0.473483 0.500000 -0.272777
v -0.473483 0.500000 -0.500000
v 0.473483 0.500000 -0.272777
v -0.473483 0.500000 -0.272777
v 0.473483 0.500000 -0.500000
v 0.412500 0.000000 -0.242203
v 0.303829 0.220744 -0.204846
v 0.333720 0.242461 -0.242203
v 0.375553 0.000000 -0.204846
v 0.116052 0.357172 -0.204846
v 0.127470 0.392311 -0.242203
v 0.333720 -0.242461 -0.242203
v 0.303829 -0.220745 -0.204846
v 0.127470 -0.392311 -0.242203
v 0.116052 -0.357172 -0.204846
v 0.281328 0.204396 -0.209927
v 0.347740 0.000000 -0.209927
v 0.107458 0.330721 -0.209927
v 0.300348 0.218215 -0.293584
v 0.114723 0.353080 -0.293584
v 0.281328 0.204396 -0.209927
v 0.281328 -0.204397 -0.209927
v 0.300348 -0.218215 -0.293584
v 0.371250 0.000000 -0.293584
v 0.281328 0.204396 -0.209927
v 0.281328 0.204396 -0.209927
v 0.114723 -0.353080 -0.293584
v 0.107458 -0.330720 -0.209927
v 0.281328 -0.204397 -0.209927
v -0.127469 0.392311 -0.242203
v -0.303829 0.220745 -0.204846
v -0.333719 0.242461 -0.242203
v -0.116052 0.357172 -0.204846
v -0.375553 0.000000 -0.204846
v -0.412500 0.000000 -0.242203
v -0.303829 -0.220745 -0.204846
v -0.333719 -0.242462 -0.242203
v -0.116052 -0.357172 -0.204846
v -0.127470 -0.392311 -0.242203
v -0.281328 0.204397 -0.209927
v -0.107458 0.330720 -0.209927
v -0.347740 0.000000 -0.209927
v -0.281328 0.204397 -0.209927
v -0.114722 0.353080 -0.293584
v 0.114723 0.353080 -0.293584
v 0.107458 0.330721 -0.209927
v -0.300348 0.218215 -0.293584
v -0.371250 0.000000 -0.293584
v -0.281328 -0.204397 -0.209927
v -0.281328 -0.204397 -0.209927
v -0.107458 -0.330721 -0.209927
v -0.300348 -0.218215 -0.293584
v -0.281328 -0.204397 -0.209927
v -0.114723 -0.353080 -0.293584
v 0.116052 0.357172 -0.204846
v 0.107458 0.330721 -0.209927
v -0.116052 0.357172 -0.204846
v -0.281328 -0.204397 -0.209927
v 0.116052 -0.357172 -0.204846
v -0.116052 -0.357172 -0.204846
v 0.107458 -0.330720 -0.209927
v -0.107458 -0.330721 -0.209927
v -0.114723 -0.353080 -0.293584
v 0.114723 -0.353080 -0.293584
v 0.122909 0.000000 -0.202086
v 0.086910 0.086910 -0.473680
v 0.122909 -0.000000 -0.473680
v 0.086910 0.086910 -0.202086
v -0.000000 0.122909 -0.473680
v 0.000000 0.122909 -0.202086
v -0.086910 0.086910 -0.473680
v -0.086910 0.086910 -0.202086
v -0.122909 -0.000000 -0.473680
v -0.122909 0.000000 -0.202086
v -0.122909 0.000000 -0.202086
v -0.086910 -0.086910 -0.473680
v -0.122909 -0.000000 -0.473680
v -0.086910 -0.086910 -0.202086
v -0.000000 -0.122909 -0.473680
v 0.000000 -0.122909 -0.202086
v 0.086910 -0.086910 -0.473680
v 0.086910 -0.086910 -0.202086
v 0.122909 -0.000000 -0.473680
v 0.122909 0.000000 -0.202086
v 0.086910 0.086910 -0.202086
v -0.086910 0.086910 -0.202086
v 0.000000 0.122909 -0.202086
v 0.086910 -0.086910 -0.202086
v -0.086910 -0.086910 -0.202086
v -0.122909 0.000000 -0.202086
v 0.000000 -0.122909 -0.202086
v 0.122909 0.000000 -0.202086
v -0.126841 0.329546 -0.240330
v 0.129109 0.077614 -0.325823
v -0.126841 0.077614 -0.240330
v 0.129109 0.329546 -0.325823
v -0.221975 -0.274621 -0.240330
v -0.131770 0.073005 -0.325823
v -0.003795 -0.148654 -0.240330
v -0.349950 -0.052961 -0.325823
v 0.126841 -0.329546 -0.240330
v -0.129109 -0.077614 -0.325823
v 0.126841 -0.077614 -0.240330
v -0.129109 -0.329546 -0.325823
v 0.348816 -0.054926 -0.240330
v 0.002661 -0.150619 -0.325823
v 0.130636 0.071040 -0.240330
v 0.220841 -0.276585 -0.325824
v 0.221975 0.274620 -0.240330
v 0.131770 -0.073005 -0.325823
v 0.003795 0.148654 -0.240330
v 0.349950 0.052961 -0.325823
v -0.438068 -0.438068 -0.285751
v -0.438068 0.438068 -0.483254
v -0.438068 -0.438067 -0.483254
v -0.438068 0.438068 -0.285751
v -0.438068 -0.438068 -0.285751
v 0.438068 -0.438067 -0.483254
v 0.438068 -0.438068 -0.285751
v -0.438068 -0.438067 -0.483254
v 0.438068 0.438068 -0.285751
v 0.438068 -0.438067 -0.483254
v 0.438068 0.438068 -0.483254
v 0.438068 -0.438068 -0.285751
v 0.438068 0.438068 -0.285751
v -0.438068 0.438068 -0.483254
v -0.438068 0.438068 -0.285751
v 0.438068 0.438068 -0.483254
v 0.438068 -0.438067 -0.483254
v -0.438068 0.438068 -0.483254
v 0.438068 0.438068 -0.483254
v -0.438068 -0.438067 -0.483254
v -0.473483 0.500000 -0.500000
v 0.500000 0.473483 -0.500000
v 0.473483 0.500000 -0.500000
v 0.500000 0.000000 -0.500000
v -0.500000 -0.473483 -0.500000
v 0.473483 -0.500000 -0.500000
v 0.500000 -0.473483 -0.500000
v -0.473483 -0.500000 -0.500000
v -0.500000 0.000000 -0.500000
v -0.500000 0.473483 -0.500000
vt 0.233800 0.983100
vt 0.505000 0.751200
vt 0.505000 0.983100
vt 0.233800 0.751200
vt 0.020800 0.029200
vt 0.007200 0.029200
vt 0.020800 0.015600
vt 0.020800 0.328100
vt 0.007200 0.328100
vt 0.020800 0.627000
vt 0.007200 0.627000
vt 0.020800 0.640600
vt 0.020800 0.640600
vt 0.618600 0.627000
vt 0.618600 0.640600
vt 0.020800 0.627000
vt 0.239200 0.575800
vt 0.400100 0.575800
vt 0.530300 0.481200
vt 0.580100 0.328100
vt 0.618600 0.328100
vt 0.109000 0.481200
vt 0.020800 0.328100
vt 0.059300 0.328100
vt 0.020800 0.029200
vt 0.109000 0.175000
vt 0.239200 0.080400
vt 0.618600 0.029200
vt 0.618600 0.015600
vt 0.020800 0.015600
vt 0.400100 0.080400
vt 0.530300 0.175000
vt 0.389100 0.112900
vt 0.250300 0.112900
vt 0.618600 0.627000
vt 0.632200 0.627000
vt 0.618600 0.640600
vt 0.618600 0.328100
vt 0.632200 0.328100
vt 0.618600 0.029200
vt 0.632200 0.029200
vt 0.618600 0.015600
vt 0.007200 0.649200
vt 0.024600 0.741800
vt 0.007200 0.741800
vt 0.024600 0.649200
vt 0.328400 0.741800
vt 0.328400 0.649200
vt 0.632200 0.741800
vt 0.632200 0.649200
vt 0.007200 0.649200
vt 0.024600 0.741800
vt 0.007200 0.741800
vt 0.024600 0.649200
vt 0.632200 0.741800
vt 0.024600 0.649200
vt 0.632200 0.649200
vt 0.024600 0.741800
vt 0.007200 0.649200
vt 0.024600 0.741800
vt 0.007200 0.741800
vt 0.024600 0.649200
vt 0.328400 0.741800
vt 0.328400 0.649200
vt 0.632200 0.741800
vt 0.632200 0.649200
vt 0.007200 0.649200
vt 0.024600 0.741800
vt 0.007200 0.741800
vt 0.024600 0.649200
vt 0.632200 0.741800
vt 0.024600 0.649200
vt 0.632200 0.649200
vt 0.024600 0.741800
vt 0.580100 0.328100
vt 0.501300 0.195100
vt 0.530300 0.175000
vt 0.544200 0.328100
vt 0.389100 0.112900
vt 0.400100 0.080400
vt 0.530300 0.481200
vt 0.501300 0.461100
vt 0.400100 0.575800
vt 0.389100 0.543300
vt 0.487900 0.204900
vt 0.527600 0.328100
vt 0.383900 0.128800
vt 0.466900 0.220000
vt 0.375900 0.153200
vt 0.487900 0.204900
vt 0.487900 0.451300
vt 0.466900 0.436200
vt 0.501600 0.328100
vt 0.487900 0.204900
vt 0.487900 0.204900
vt 0.375900 0.503000
vt 0.383900 0.527400
vt 0.487900 0.451300
vt 0.239200 0.080400
vt 0.138000 0.195100
vt 0.109000 0.175000
vt 0.250300 0.112900
vt 0.095100 0.328100
vt 0.059300 0.328100
vt 0.138000 0.461100
vt 0.109000 0.481200
vt 0.250300 0.543300
vt 0.239200 0.575800
vt 0.151500 0.204900
vt 0.255400 0.128800
vt 0.111800 0.328100
vt 0.151500 0.204900
vt 0.263400 0.153200
vt 0.375900 0.153200
vt 0.383900 0.128800
vt 0.172500 0.220000
vt 0.137700 0.328100
vt 0.151500 0.451300
vt 0.151500 0.451300
vt 0.255400 0.527400
vt 0.172500 0.436200
vt 0.151500 0.451300
vt 0.263400 0.503000
vt 0.389100 0.112900
vt 0.383900 0.128800
vt 0.250300 0.112900
vt 0.151500 0.451300
vt 0.389100 0.543300
vt 0.250300 0.543300
vt 0.383900 0.527400
vt 0.255400 0.527400
vt 0.263400 0.503000
vt 0.375900 0.503000
vt 0.649600 0.027200
vt 0.729500 0.390700
vt 0.649600 0.390700
vt 0.729500 0.027200
vt 0.809400 0.390700
vt 0.809400 0.027200
vt 0.889300 0.390700
vt 0.889300 0.027200
vt 0.969300 0.390700
vt 0.969300 0.027200
vt 0.969300 0.027200
vt 0.889400 0.390700
vt 0.969300 0.390700
vt 0.889400 0.027200
vt 0.809400 0.390700
vt 0.809400 0.027200
vt 0.729500 0.390700
vt 0.729500 0.027200
vt 0.649600 0.390700
vt 0.649600 0.027200
vt 0.948500 0.455400
vt 0.800800 0.455400
vt 0.874700 0.424800
vt 0.948500 0.603100
vt 0.800800 0.603100
vt 0.770200 0.529300
vt 0.874700 0.633700
vt 0.979100 0.529300
vt 0.233800 0.983100
vt 0.505000 0.751200
vt 0.505000 0.983100
vt 0.233800 0.751200
vt 0.233800 0.983100
vt 0.505000 0.751200
vt 0.505000 0.983100
vt 0.233800 0.751200
vt 0.233800 0.983100
vt 0.505000 0.751200
vt 0.505000 0.983100
vt 0.233800 0.751200
vt 0.233800 0.983100
vt 0.505000 0.751200
vt 0.505000 0.983100
vt 0.233800 0.751200
vt 0.233800 0.983100
vt 0.505000 0.751200
vt 0.505000 0.983100
vt 0.233800 0.751200
vt 0.223388 0.932746
vt 0.005887 0.976277
vt 0.223388 0.976277
vt 0.005887 0.932746
vt 0.005887 0.932746
vt 0.223388 0.976277
vt 0.223388 0.932746
vt 0.005887 0.976277
vt 0.223388 0.932746
vt 0.005887 0.976277
vt 0.223388 0.976277
vt 0.005887 0.932746
vt 0.005887 0.932746
vt 0.223388 0.976277
vt 0.223388 0.932746
vt 0.005887 0.976277
vt 0.223579 0.977799
vt 0.006128 0.760347
vt 0.223579 0.760347
vt 0.006128 0.977799
vt 0.676942 0.668114
vt 0.970950 0.676122
vt 0.962941 0.668114
vt 0.970950 0.819122
vt 0.668934 0.962121
vt 0.962941 0.970129
vt 0.970950 0.962121
vt 0.676942 0.970129
vt 0.668934 0.819122
vt 0.668934 0.676122
vn 0.158364 0.274433 0.948476
vn 0.158364 0.274433 0.948476
vn 0.158364 0.274433 0.948476
vn 0.158364 0.274433 0.948476
vn -0.312067 0.311685 0.897478
vn -0.860533 0.335669 0.383158
vn -0.335669 0.860533 0.383158
vn -0.396368 0.008300 0.918054
vn -0.902808 -0.000000 0.430045
vn -0.312444 -0.312444 0.897083
vn -0.860533 -0.335669 0.383158
vn -0.335669 -0.860533 0.383158
vn 0.000000 -0.902800 0.430060
vn 0.017555 -0.350126 0.936538
vn 0.000000 -0.902801 0.430059
vn -0.017129 -0.348438 0.937175
vn -0.003494 -0.273674 0.961816
vn 0.003494 -0.273674 0.961816
vn 0.033309 -0.019024 0.999264
vn 0.134626 0.022235 0.990647
vn 0.133243 0.015921 0.990956
vn -0.051597 -0.013410 0.998578
vn -0.133243 -0.015921 0.990956
vn -0.134626 -0.022235 0.990647
vn -0.017555 0.350126 0.936538
vn -0.033309 0.019024 0.999264
vn -0.003494 0.273675 0.961816
vn 0.017129 0.348438 0.937175
vn 0.000000 0.630098 0.776516
vn 0.000000 0.630098 0.776516
vn 0.003494 0.273674 0.961816
vn 0.051597 0.013410 0.998578
vn 0.000000 0.728400 0.685152
vn 0.000000 0.728400 0.685152
vn 0.312444 -0.312444 0.897083
vn 0.860533 -0.335669 0.383158
vn 0.335669 -0.860533 0.383158
vn 0.396368 0.008300 0.918054
vn 0.902808 -0.000000 0.430045
vn 0.312067 0.311685 0.897478
vn 0.860533 0.335669 0.383158
vn 0.335669 0.860533 0.383158
vn -0.335669 0.860533 0.383158
vn -0.717247 0.297200 -0.630262
vn -0.297182 0.717204 -0.630319
vn -0.860533 0.335669 0.383158
vn -0.707107 0.000000 -0.707107
vn -0.902808 -0.000000 0.430045
vn -0.717247 -0.297200 -0.630262
vn -0.860533 -0.335669 0.383158
vn -0.860533 -0.335669 0.383158
vn -0.297200 -0.717247 -0.630262
vn -0.717247 -0.297200 -0.630262
vn -0.335669 -0.860533 0.383158
vn 0.000000 -1.000000 -0.000000
vn 0.000000 -0.902800 0.430060
vn 0.000000 -0.902801 0.430059
vn 0.000000 -1.000000 -0.000000
vn 0.335669 -0.860533 0.383158
vn 0.717247 -0.297200 -0.630262
vn 0.297200 -0.717247 -0.630262
vn 0.860533 -0.335669 0.383158
vn 0.707107 0.000000 -0.707107
vn 0.902808 -0.000000 0.430045
vn 0.717247 0.297200 -0.630262
vn 0.860533 0.335669 0.383158
vn 0.860533 0.335669 0.383158
vn 0.297200 0.717247 -0.630262
vn 0.717247 0.297200 -0.630262
vn 0.335669 0.860533 0.383158
vn 0.000000 1.000000 0.000000
vn -0.335669 0.860533 0.383158
vn -0.297182 0.717204 -0.630319
vn 0.000000 0.902882 0.429889
vn 0.392178 0.013801 0.919786
vn 0.307653 0.223540 0.924867
vn 0.285719 0.192450 0.938791
vn 0.380318 -0.000000 0.924856
vn 0.116831 0.361271 0.925113
vn 0.098903 0.353266 0.930280
vn 0.274654 -0.196454 0.941261
vn 0.307653 -0.223540 0.924867
vn 0.098903 -0.353266 0.930280
vn 0.117191 -0.361586 0.924944
vn -0.642984 -0.467122 0.606934
vn -0.794704 -0.000000 0.606997
vn -0.246826 -0.754975 0.607528
vn -0.446128 -0.307273 -0.840567
vn -0.157761 -0.539095 -0.827338
vn -0.642984 -0.467122 0.606934
vn -0.642984 0.467122 0.606934
vn -0.435094 0.312443 -0.844436
vn -0.584469 -0.015101 -0.811275
vn -0.642984 -0.467122 0.606934
vn -0.642984 -0.467122 0.606934
vn -0.157668 0.539103 -0.827350
vn -0.245680 0.755352 0.607524
vn -0.642984 0.467122 0.606934
vn -0.098903 0.353266 0.930280
vn -0.307653 0.223540 0.924867
vn -0.285719 0.192450 0.938791
vn -0.117191 0.361586 0.924944
vn -0.380318 -0.000000 0.924856
vn -0.392178 0.013801 0.919786
vn -0.307653 -0.223540 0.924867
vn -0.274654 -0.196454 0.941261
vn -0.116831 -0.361271 0.925113
vn -0.098903 -0.353266 0.930280
vn 0.642984 -0.467122 0.606934
vn 0.245680 -0.755352 0.607524
vn 0.794704 -0.000000 0.606997
vn 0.642984 -0.467122 0.606934
vn 0.157668 -0.539103 -0.827350
vn 0.000003 -0.966089 -0.258209
vn -0.157761 -0.539095 -0.827338
vn 0.446128 -0.307273 -0.840567
vn 0.584469 -0.015101 -0.811275
vn 0.642984 0.467122 0.606934
vn 0.642984 0.467122 0.606934
vn 0.246826 0.754975 0.607528
vn 0.435094 0.312443 -0.844436
vn 0.642984 0.467122 0.606934
vn 0.157761 0.539095 -0.827338
vn -0.246826 -0.754975 0.607528
vn 0.000001 -0.188643 0.982046
vn 0.116831 0.361271 0.925113
vn 0.642984 0.467122 0.606934
vn 0.000000 -0.396745 0.917929
vn -0.000000 -0.396745 0.917929
vn -0.000001 0.809062 0.587724
vn -0.000004 0.809059 0.587728
vn -0.000003 0.966089 -0.258209
vn 0.000000 0.966087 -0.258218
vn 1.000000 0.000000 0.000000
vn 0.707107 0.707107 0.000000
vn 1.000000 0.000000 0.000000
vn 0.707107 0.707107 0.000000
vn 0.000000 1.000000 0.000000
vn 0.000000 1.000000 0.000000
vn -0.707107 0.707107 0.000000
vn -0.707107 0.707107 0.000000
vn -1.000000 0.000000 0.000000
vn -1.000000 0.000000 0.000000
vn -1.000000 0.000000 0.000000
vn -0.707107 -0.707107 -0.000000
vn -1.000000 0.000000 0.000000
vn -0.707107 -0.707107 -0.000000
vn 0.000000 -1.000000 -0.000000
vn 0.000000 -1.000000 -0.000000
vn 0.707107 -0.707107 -0.000000
vn 0.707107 -0.707107 -0.000000
vn 1.000000 0.000000 0.000000
vn 1.000000 0.000000 0.000000
vn 0.000000 -0.000000 1.000000
vn 0.000000 -0.000000 1.000000
vn 0.000000 -0.000000 1.000000
vn 0.000000 -0.000000 1.000000
vn 0.000000 -0.000000 1.000000
vn 0.000000 -0.000000 1.000000
vn 0.000000 -0.000000 1.000000
vn 0.000000 -0.000000 1.000000
vn 0.316828 -0.000000 0.948483
vn 0.316828 -0.000000 0.948483
vn 0.316828 -0.000000 0.948483
vn 0.316828 -0.000000 0.948483
vn -0.158364 0.274433 0.948476
vn -0.158364 0.274433 0.948476
vn -0.158364 0.274433 0.948476
vn -0.158364 0.274433 0.948476
vn -0.316819 -0.000000 0.948486
vn -0.316857 -0.000000 0.948473
vn -0.316819 -0.000000 0.948486
vn -0.316819 -0.000000 0.948486
vn -0.158364 -0.274433 0.948476
vn -0.158364 -0.274433 0.948476
vn -0.158364 -0.274433 0.948476
vn -0.158364 -0.274433 0.948476
vn 0.158364 -0.274433 0.948476
vn 0.158364 -0.274433 0.948476
vn 0.158364 -0.274433 0.948476
vn 0.158364 -0.274433 0.948476
vn 0.707107 0.707107 0.000000
vn 0.549029 0.227395 -0.804276
vn 0.707107 0.707107 0.000000
vn 0.860533 -0.335669 -0.383158
vn 0.707107 0.707107 0.000000
vn -0.707107 0.707107 0.000000
vn -0.707107 0.707107 0.000000
vn 0.707107 0.707107 0.000000
vn -1.000000 0.000000 0.000000
vn -0.707107 0.707107 0.000000
vn -1.000000 0.000000 0.000000
vn -0.707107 0.707107 0.000000
vn -0.335669 -0.860533 -0.383158
vn 0.000000 -1.000000 -0.000000
vn 0.000000 -1.000000 -0.000000
vn 0.227395 -0.549029 -0.804276
vn 0.000000 -0.000000 1.000000
vn 0.000000 -0.000000 1.000000
vn 0.000000 -0.000000 1.000000
vn 0.000000 -0.000000 1.000000
vn 0.000000 0.000000 -1.000000
vn 0.000000 0.000000 -1.000000
vn 0.000000 0.000000 -1.000000
vn 0.000000 0.000000 -1.000000
vn 0.000000 0.000000 -1.000000
vn 0.000000 0.000000 -1.000000
vn 0.000000 0.000000 -1.000000
vn 0.000000 0.000000 -1.000000
vn 0.000000 0.000000 -1.000000
vn 0.000000 0.000000 -1.000000
usemtl ventilator
f 1/1/1 3/3/3 2/2/2
f 2/2/2 4/4/4 1/1/1
f 5/5/5 7/7/7 6/6/6
f 8/8/8 5/5/5 6/6/6
f 6/6/6 9/9/9 8/8/8
f 10/10/10 8/8/8 9/9/9
f 9/9/9 11/11/11 10/10/10
f 10/10/10 11/11/11 12/12/12
f 13/13/13 15/15/15 14/14/14
f 14/14/14 16/16/16 13/13/13
f 14/14/14 17/17/17 16/16/16
f 14/14/14 18/18/18 17/17/17
f 14/14/14 19/19/19 18/18/18
f 14/14/14 20/20/20 19/19/19
f 14/14/14 21/21/21 20/20/20
f 17/17/17 22/22/22 16/16/16
f 22/22/22 23/23/23 16/16/16
f 22/22/22 24/24/24 23/23/23
f 25/25/25 23/23/23 24/24/24
f 25/25/25 24/24/24 26/26/26
f 25/25/25 26/26/26 27/27/27
f 28/28/28 25/25/25 27/27/27
f 25/25/25 28/28/28 29/29/29
f 29/29/29 30/30/30 25/25/25
f 28/28/28 27/27/27 31/31/31
f 28/28/28 31/31/31 32/32/32
f 32/32/32 20/20/20 21/21/21
f 28/28/28 32/32/32 21/21/21
f 33/33/33 31/31/31 27/27/27
f 27/27/27 34/34/34 33/33/33
f 35/35/35 37/37/37 36/36/36
f 38/38/38 35/35/35 36/36/36
f 36/36/36 39/39/39 38/38/38
f 40/40/40 38/38/38 39/39/39
f 39/39/39 41/41/41 40/40/40
f 40/40/40 41/41/41 42/42/42
f 43/43/43 45/45/45 44/44/44
f 44/44/44 46/46/46 43/43/43
f 46/46/46 44/44/44 47/47/47
f 47/47/47 48/48/48 46/46/46
f 48/48/48 47/47/47 49/49/49
f 49/49/49 50/50/50 48/48/48
f 51/51/51 53/53/53 52/52/52
f 52/52/52 54/54/54 51/51/51
f 55/55/55 57/57/57 56/56/56
f 56/56/56 58/58/58 55/55/55
f 59/59/59 61/61/61 60/60/60
f 60/60/60 62/62/62 59/59/59
f 62/62/62 60/60/60 63/63/63
f 63/63/63 64/64/64 62/62/62
f 64/64/64 63/63/63 65/65/65
f 65/65/65 66/66/66 64/64/64
f 67/67/67 69/69/69 68/68/68
f 68/68/68 70/70/70 67/67/67
f 71/71/71 73/73/73 72/72/72
f 72/72/72 74/74/74 71/71/71
f 75/75/75 77/77/77 76/76/76
f 76/76/76 78/78/78 75/75/75
f 79/79/79 76/76/76 77/77/77
f 77/77/77 80/80/80 79/79/79
f 81/81/81 75/75/75 78/78/78
f 78/78/78 82/82/82 81/81/81
f 83/83/83 81/81/81 82/82/82
f 82/82/82 84/84/84 83/83/83
f 78/78/78 76/76/76 85/85/85
f 85/85/85 86/86/86 78/78/78
f 82/82/82 78/78/78 86/86/86
f 76/76/76 79/79/79 87/87/87
f 88/88/88 85/85/85 87/87/87
f 87/87/87 89/89/89 88/88/88
f 87/87/87 90/90/90 76/76/76
f 86/86/86 91/91/91 82/82/82
f 92/92/92 91/91/91 86/86/86
f 86/86/86 93/93/93 92/92/92
f 93/93/93 86/86/86 94/94/94
f 95/95/95 88/88/88 93/93/93
f 91/91/91 92/92/92 96/96/96
f 96/96/96 97/97/97 91/91/91
f 84/84/84 82/82/82 98/98/98
f 98/98/98 97/97/97 84/84/84
f 99/99/99 101/101/101 100/100/100
f 100/100/100 102/102/102 99/99/99
f 103/103/103 100/100/100 101/101/101
f 101/101/101 104/104/104 103/103/103
f 105/105/105 103/103/103 104/104/104
f 104/104/104 106/106/106 105/105/105
f 107/107/107 105/105/105 106/106/106
f 106/106/106 108/108/108 107/107/107
f 102/102/102 100/100/100 109/109/109
f 109/109/109 110/110/110 102/102/102
f 100/100/100 103/103/103 111/111/111
f 111/111/111 112/112/112 100/100/100
f 113/113/113 110/110/110 112/112/112
f 110/110/110 113/113/113 114/114/114
f 114/114/114 115/115/115 110/110/110
f 112/112/112 116/116/116 113/113/113
f 116/116/116 112/112/112 111/111/111
f 111/111/111 117/117/117 116/116/116
f 117/117/117 111/111/111 118/118/118
f 103/103/103 105/105/105 119/119/119
f 119/119/119 111/111/111 103/103/103
f 105/105/105 107/107/107 120/120/120
f 121/121/121 119/119/119 120/120/120
f 122/122/122 121/121/121 117/117/117
f 120/120/120 123/123/123 121/121/121
f 110/110/110 125/125/125 124/124/124
f 124/124/124 126/126/126 110/110/110
f 120/120/120 127/127/127 105/105/105
f 128/128/128 129/129/129 17/17/17
f 17/17/17 18/18/18 128/128/128
f 129/129/129 128/128/128 130/130/130
f 130/130/130 131/131/131 129/129/129
f 132/132/132 131/131/131 130/130/130
f 130/130/130 133/133/133 132/132/132
f 134/134/134 136/136/136 135/135/135
f 135/135/135 137/137/137 134/134/134
f 137/137/137 135/135/135 138/138/138
f 138/138/138 139/139/139 137/137/137
f 139/139/139 138/138/138 140/140/140
f 140/140/140 141/141/141 139/139/139
f 141/141/141 140/140/140 142/142/142
f 142/142/142 143/143/143 141/141/141
f 144/144/144 146/146/146 145/145/145
f 145/145/145 147/147/147 144/144/144
f 147/147/147 145/145/145 148/148/148
f 148/148/148 149/149/149 147/147/147
f 149/149/149 148/148/148 150/150/150
f 150/150/150 151/151/151 149/149/149
f 151/151/151 150/150/150 152/152/152
f 152/152/152 153/153/153 151/151/151
f 154/154/154 156/156/156 155/155/155
f 154/154/154 155/155/155 157/157/157
f 155/155/155 158/158/158 157/157/157
f 155/155/155 159/159/159 158/158/158
f 158/158/158 160/160/160 157/157/157
f 154/154/154 157/157/157 161/161/161
f 162/162/162 164/164/164 163/163/163
f 163/163/163 165/165/165 162/162/162
f 166/166/166 168/168/168 167/167/167
f 167/167/167 169/169/169 166/166/166
f 170/170/170 172/172/172 171/171/171
f 171/171/171 173/173/173 170/170/170
f 174/174/174 176/176/176 175/175/175
f 175/175/175 177/177/177 174/174/174
f 178/178/178 180/180/180 179/179/179
f 179/179/179 181/181/181 178/178/178
f 182/182/182 184/184/184 183/183/183
f 183/183/183 185/185/185 182/182/182
f 186/186/186 188/188/188 187/187/187
f 187/187/187 189/189/189 186/186/186
f 190/190/190 192/192/192 191/191/191
f 191/191/191 193/193/193 190/190/190
f 194/194/194 196/196/196 195/195/195
f 195/195/195 197/197/197 194/194/194
f 198/198/198 200/200/200 199/199/199
f 199/199/199 201/201/201 198/198/198
f 202/202/202 204/204/204 203/203/203
f 202/202/202 203/203/203 205/205/205
f 202/202/202 205/205/205 206/206/206
f 205/205/205 207/207/207 206/206/206
f 205/205/205 208/208/208 207/207/207
f 207/207/207 209/209/209 206/206/206
f 202/202/202 206/206/206 210/210/210
f 202/202/202 210/210/210 211/211/211
