# 
# Wavefront OBJ file
# Created with Kaydara FBX
# 
mtllib ww2_woodwall.mtl

g ww2_woodwall
v -0.500000 -0.500000 -0.400000
v 0.500000 -0.500000 -0.500000
v -0.500000 -0.500000 -0.500000
v 0.500000 -0.500000 -0.400000
v -0.500000 -0.029849 -0.400000
v 0.500000 0.037404 -0.500000
v 0.500000 0.037404 -0.400000
v -0.500000 -0.029849 -0.500000
v -0.500000 -0.500000 -0.400000
v 0.500000 0.037404 -0.400000
v 0.500000 -0.500000 -0.400000
v -0.500000 -0.029849 -0.400000
v 0.500000 -0.500000 -0.400000
v 0.500000 0.037404 -0.500000
v 0.500000 -0.500000 -0.500000
v 0.500000 0.037404 -0.400000
v 0.500000 -0.500000 -0.500000
v -0.500000 -0.029849 -0.500000
v -0.500000 -0.500000 -0.500000
v 0.500000 0.037404 -0.500000
v -0.500000 -0.500000 -0.500000
v -0.500000 -0.029849 -0.400000
v -0.500000 -0.500000 -0.400000
v -0.500000 -0.029849 -0.500000
v -0.500000 0.312675 -0.400000
v 0.450134 0.036104 -0.500000
v -0.500000 0.312675 -0.500000
v 0.450134 0.036104 -0.400000
v -0.451168 0.500000 -0.400000
v 0.500000 0.302630 -0.500000
v 0.500000 0.302630 -0.400000
v -0.451168 0.500000 -0.500000
v -0.500000 0.312675 -0.400000
v 0.500000 0.302630 -0.400000
v 0.450134 0.036104 -0.400000
v -0.451168 0.500000 -0.400000
v 0.450134 0.036104 -0.400000
v 0.500000 0.302630 -0.500000
v 0.450134 0.036104 -0.500000
v 0.500000 0.302630 -0.400000
v 0.450134 0.036104 -0.500000
v -0.451168 0.500000 -0.500000
v -0.500000 0.312675 -0.500000
v 0.500000 0.302630 -0.500000
v -0.500000 0.312675 -0.500000
v -0.451168 0.500000 -0.400000
v -0.500000 0.312675 -0.400000
v -0.451168 0.500000 -0.500000
vt 0.880679 0.984833
vt 0.010253 0.892331
vt 0.880679 0.892331
vt 0.010253 0.984833
vt 0.010253 0.984833
vt 0.880679 0.892331
vt 0.880679 0.984833
vt 0.010253 0.892331
vt 0.005044 0.881445
vt 0.875470 0.397875
vt 0.875470 0.881445
vt 0.005044 0.458391
vt 0.888878 0.876890
vt 0.984815 0.413783
vt 0.984815 0.876890
vt 0.888878 0.413783
vt 0.875470 0.881445
vt 0.005044 0.458391
vt 0.005044 0.881445
vt 0.875470 0.397875
vt 0.888878 0.876890
vt 0.984375 0.437500
vt 0.984815 0.876890
vt 0.890625 0.437500
vt 0.886084 0.115258
vt 0.015658 0.012153
vt 0.886084 0.012153
vt 0.015658 0.115258
vt 0.015658 0.115258
vt 0.886084 0.012153
vt 0.886084 0.115258
vt 0.015658 0.012153
vt 0.012114 0.334998
vt 0.858984 0.135363
vt 0.874417 0.379196
vt 0.012114 0.160750
vt 0.880915 0.367415
vt 0.995162 0.124529
vt 0.995162 0.367415
vt 0.880915 0.124529
vt 0.874417 0.379196
vt 0.012114 0.160750
vt 0.012114 0.334998
vt 0.858984 0.135363
vt 0.880915 0.367415
vt 0.995162 0.124529
vt 0.995162 0.367415
vt 0.880915 0.124529
vn 0.000000 -1.000000 -0.000000
vn 0.000000 -1.000000 -0.000000
vn 0.000000 -1.000000 -0.000000
vn 0.000000 -1.000000 -0.000000
vn -0.067101 0.997746 0.000000
vn -0.067101 0.997746 0.000000
vn -0.067101 0.997746 0.000000
vn -0.067101 0.997746 0.000000
vn 0.000000 -0.000000 1.000000
vn 0.000000 -0.000000 1.000000
vn 0.000000 -0.000000 1.000000
vn 0.000000 -0.000000 1.000000
vn 1.000000 0.000000 0.000000
vn 1.000000 0.000000 0.000000
vn 1.000000 0.000000 0.000000
vn 1.000000 0.000000 0.000000
vn 0.000000 0.000000 -1.000000
vn 0.000000 0.000000 -1.000000
vn 0.000000 0.000000 -1.000000
vn 0.000000 0.000000 -1.000000
vn -1.000000 0.000000 0.000000
vn -1.000000 0.000000 0.000000
vn -1.000000 0.000000 0.000000
vn -1.000000 0.000000 0.000000
vn -0.279486 -0.960150 -0.000000
vn -0.279486 -0.960150 -0.000000
vn -0.279486 -0.960150 -0.000000
vn -0.279486 -0.960150 -0.000000
vn 0.203175 0.979142 0.000000
vn 0.203175 0.979142 0.000000
vn 0.203175 0.979142 0.000000
vn 0.203175 0.979142 0.000000
vn 0.000000 -0.000000 1.000000
vn 0.000000 -0.000000 1.000000
vn 0.000000 -0.000000 1.000000
vn 0.000000 -0.000000 1.000000
vn 0.982944 -0.183905 -0.000000
vn 0.982944 -0.183905 -0.000000
vn 0.982944 -0.183905 -0.000000
vn 0.982944 -0.183905 -0.000000
vn 0.000000 0.000000 -1.000000
vn 0.000000 0.000000 -1.000000
vn 0.000000 0.000000 -1.000000
vn 0.000000 0.000000 -1.000000
vn -0.967662 0.252250 0.000000
vn -0.967662 0.252250 0.000000
vn -0.967662 0.252250 0.000000
vn -0.967662 0.252250 0.000000
usemtl ww2_woodwall
f 1/1/1 3/3/3 2/2/2
f 2/2/2 4/4/4 1/1/1
f 5/5/5 7/7/7 6/6/6
f 6/6/6 8/8/8 5/5/5
f 9/9/9 11/11/11 10/10/10
f 10/10/10 12/12/12 9/9/9
f 13/13/13 15/15/15 14/14/14
f 14/14/14 16/16/16 13/13/13
f 17/17/17 19/19/19 18/18/18
f 18/18/18 20/20/20 17/17/17
f 21/21/21 23/23/23 22/22/22
f 22/22/22 24/24/24 21/21/21
f 25/25/25 27/27/27 26/26/26
f 26/26/26 28/28/28 25/25/25
f 29/29/29 31/31/31 30/30/30
f 30/30/30 32/32/32 29/29/29
f 33/33/33 35/35/35 34/34/34
f 34/34/34 36/36/36 33/33/33
f 37/37/37 39/39/39 38/38/38
f 38/38/38 40/40/40 37/37/37
f 41/41/41 43/43/43 42/42/42
f 42/42/42 44/44/44 41/41/41
f 45/45/45 47/47/47 46/46/46
f 46/46/46 48/48/48 45/45/45
