# 
# Wavefront OBJ file
# Created with Kaydara FBX
# 
mtllib ww2_box_02.mtl

g ww2_box_02
v -0.500000 -0.400000 -0.392000
v 0.500000 -0.400000 0.392000
v 0.500000 -0.400000 -0.392000
v -0.500000 -0.400000 0.392000
v -0.500000 0.400000 -0.328000
v 0.500000 0.400000 0.328000
v -0.500000 0.400000 0.328000
v 0.500000 0.400000 -0.328000
v -0.500000 -0.400000 -0.392000
v -0.500000 0.400000 0.328000
v -0.500000 -0.400000 0.392000
v -0.500000 0.400000 -0.328000
v -0.500000 -0.400000 0.392000
v 0.500000 0.400000 0.328000
v 0.500000 -0.400000 0.392000
v -0.500000 0.400000 0.328000
v 0.500000 -0.400000 0.392000
v 0.500000 0.400000 -0.328000
v 0.500000 -0.400000 -0.392000
v 0.500000 0.400000 0.328000
v 0.500000 -0.400000 -0.392000
v -0.500000 0.400000 -0.328000
v -0.500000 -0.400000 -0.392000
v 0.500000 0.400000 -0.328000
v -0.250000 -0.500000 -0.500000
v -0.250000 0.500000 0.400000
v -0.250000 0.500000 -0.400000
v -0.250000 -0.500000 0.500000
v -0.350000 -0.500000 -0.500000
v -0.350000 0.500000 0.400000
v -0.350000 -0.500000 0.500000
v -0.350000 0.500000 -0.400000
v -0.250000 -0.500000 -0.500000
v -0.350000 -0.500000 0.500000
v -0.250000 -0.500000 0.500000
v -0.350000 -0.500000 -0.500000
v -0.250000 -0.500000 0.500000
v -0.350000 0.500000 0.400000
v -0.250000 0.500000 0.400000
v -0.350000 -0.500000 0.500000
v -0.250000 0.500000 0.400000
v -0.350000 0.500000 -0.400000
v -0.250000 0.500000 -0.400000
v -0.350000 0.500000 0.400000
v -0.250000 0.500000 -0.400000
v -0.350000 -0.500000 -0.500000
v -0.250000 -0.500000 -0.500000
v -0.350000 0.500000 -0.400000
v 0.350000 -0.500000 -0.500000
v 0.350000 0.500000 0.400000
v 0.350000 0.500000 -0.400000
v 0.350000 -0.500000 0.500000
v 0.250000 -0.500000 -0.500000
v 0.250000 0.500000 0.400000
v 0.250000 -0.500000 0.500000
v 0.250000 0.500000 -0.400000
v 0.350000 -0.500000 -0.500000
v 0.250000 -0.500000 0.500000
v 0.350000 -0.500000 0.500000
v 0.250000 -0.500000 -0.500000
v 0.350000 -0.500000 0.500000
v 0.250000 0.500000 0.400000
v 0.350000 0.500000 0.400000
v 0.250000 -0.500000 0.500000
v 0.350000 0.500000 0.400000
v 0.250000 0.500000 -0.400000
v 0.350000 0.500000 -0.400000
v 0.250000 0.500000 0.400000
v 0.350000 0.500000 -0.400000
v 0.250000 -0.500000 -0.500000
v 0.350000 -0.500000 -0.500000
v 0.250000 0.500000 -0.400000
v -0.510038 0.076007 -0.110149
v -0.536507 0.185817 0.187763
v -0.510038 0.076007 0.135046
v -0.536507 0.185817 -0.162866
v -0.496530 0.246171 0.201249
v -0.496530 0.246171 -0.176351
v 0.510038 0.076007 -0.110149
v 0.536507 0.185817 0.187763
v 0.536507 0.185817 -0.162866
v 0.510038 0.076007 0.135046
v 0.496530 0.246171 0.201249
v 0.496530 0.246171 -0.176351
vt 0.660156 0.953125
vt 0.890625 0.617188
vt 0.660156 0.617188
vt 0.890625 0.953125
vt 0.012832 0.539504
vt 0.368214 0.012504
vt 0.368214 0.539504
vt 0.012832 0.012504
vt 0.569714 0.984510
vt 0.943160 0.550450
vt 0.976728 0.984510
vt 0.603282 0.550450
vt 0.553117 0.984246
vt 0.012246 0.551741
vt 0.012246 0.984246
vt 0.553117 0.551741
vt 0.976728 0.984510
vt 0.603282 0.550450
vt 0.569714 0.984510
vt 0.943160 0.550450
vt 0.012246 0.984246
vt 0.553117 0.551741
vt 0.553117 0.984246
vt 0.012246 0.551741
vt 0.375594 0.518635
vt 0.747780 0.089277
vt 0.417009 0.089277
vt 0.789340 0.518635
vt 0.375594 0.518635
vt 0.747780 0.089277
vt 0.789340 0.518635
vt 0.417009 0.089277
vt 0.840171 0.089134
vt 0.795539 0.517409
vt 0.840171 0.517409
vt 0.795539 0.089134
vt 0.795539 0.517409
vt 0.840171 0.089134
vt 0.795539 0.089134
vt 0.840171 0.517409
vt 0.747780 0.089277
vt 0.417009 0.036693
vt 0.417009 0.089277
vt 0.747780 0.036692
vt 0.795539 0.089134
vt 0.840171 0.517409
vt 0.795539 0.517409
vt 0.840171 0.089134
vt 0.375594 0.518635
vt 0.747780 0.089277
vt 0.417009 0.089277
vt 0.789340 0.518635
vt 0.375594 0.518635
vt 0.747780 0.089277
vt 0.789340 0.518635
vt 0.417009 0.089277
vt 0.840171 0.089134
vt 0.795539 0.517409
vt 0.840171 0.517409
vt 0.795539 0.089134
vt 0.795539 0.517409
vt 0.840171 0.089134
vt 0.795539 0.089134
vt 0.840171 0.517409
vt 0.747780 0.089277
vt 0.417009 0.036680
vt 0.417009 0.089277
vt 0.747780 0.036678
vt 0.795539 0.089134
vt 0.840171 0.517409
vt 0.795539 0.517409
vt 0.840171 0.089134
vt 0.995468 0.407385
vt 0.905408 0.137415
vt 0.995467 0.185187
vt 0.905409 0.455158
vt 0.847688 0.125194
vt 0.847689 0.467379
vt 0.995468 0.407385
vt 0.905408 0.137415
vt 0.905409 0.455158
vt 0.995467 0.185187
vt 0.847688 0.125194
vt 0.847689 0.467379
vn 0.000000 -1.000000 -0.000000
vn 0.000000 -1.000000 -0.000000
vn 0.000000 -1.000000 -0.000000
vn 0.000000 -1.000000 -0.000000
vn 0.000000 1.000000 0.000000
vn 0.000000 1.000000 0.000000
vn 0.000000 1.000000 0.000000
vn 0.000000 1.000000 0.000000
vn -1.000000 0.000000 -0.000000
vn -1.000000 0.000000 -0.000000
vn -1.000000 0.000000 -0.000000
vn -1.000000 0.000000 -0.000000
vn -0.000000 0.079745 0.996815
vn -0.000000 0.079745 0.996815
vn -0.000000 0.079745 0.996815
vn -0.000000 0.079745 0.996815
vn 1.000000 -0.000000 0.000000
vn 1.000000 -0.000000 0.000000
vn 1.000000 -0.000000 0.000000
vn 1.000000 -0.000000 0.000000
vn 0.000000 0.079745 -0.996815
vn 0.000000 0.079745 -0.996815
vn 0.000000 0.079745 -0.996815
vn 0.000000 0.079745 -0.996815
vn 1.000000 -0.000000 0.000000
vn 1.000000 -0.000000 0.000000
vn 1.000000 -0.000000 0.000000
vn 1.000000 -0.000000 0.000000
vn -1.000000 0.000000 -0.000000
vn -1.000000 0.000000 -0.000000
vn -1.000000 0.000000 -0.000000
vn -1.000000 0.000000 -0.000000
vn 0.000000 -1.000000 -0.000000
vn 0.000000 -1.000000 -0.000000
vn 0.000000 -1.000000 -0.000000
vn 0.000000 -1.000000 -0.000000
vn 0.000000 0.099504 0.995037
vn 0.000000 0.099504 0.995037
vn 0.000000 0.099504 0.995037
vn 0.000000 0.099504 0.995037
vn 0.000000 1.000000 0.000000
vn 0.000000 1.000000 0.000000
vn 0.000000 1.000000 0.000000
vn 0.000000 1.000000 0.000000
vn 0.000000 0.099504 -0.995037
vn 0.000000 0.099504 -0.995037
vn 0.000000 0.099504 -0.995037
vn 0.000000 0.099504 -0.995037
vn 1.000000 -0.000000 0.000000
vn 1.000000 -0.000000 0.000000
vn 1.000000 -0.000000 0.000000
vn 1.000000 -0.000000 0.000000
vn -1.000000 0.000000 -0.000000
vn -1.000000 0.000000 -0.000000
vn -1.000000 0.000000 -0.000000
vn -1.000000 0.000000 -0.000000
vn 0.000000 -1.000000 -0.000000
vn 0.000000 -1.000000 -0.000000
vn 0.000000 -1.000000 -0.000000
vn 0.000000 -1.000000 -0.000000
vn 0.000000 0.099504 0.995037
vn 0.000000 0.099504 0.995037
vn 0.000000 0.099504 0.995037
vn 0.000000 0.099504 0.995037
vn 0.000000 1.000000 0.000000
vn 0.000000 1.000000 0.000000
vn 0.000000 1.000000 0.000000
vn 0.000000 1.000000 0.000000
vn 0.000000 0.099504 -0.995037
vn 0.000000 0.099504 -0.995037
vn 0.000000 0.099504 -0.995037
vn 0.000000 0.099504 -0.995037
vn -0.972157 -0.234332 -0.000000
vn -0.964416 0.264388 -0.000000
vn -0.972157 -0.234332 -0.000000
vn -0.964416 0.264388 -0.000000
vn -0.833700 0.552218 -0.000000
vn -0.833700 0.552218 -0.000000
vn 0.972157 -0.234333 0.000000
vn 0.964416 0.264388 0.000000
vn 0.964416 0.264388 0.000000
vn 0.972157 -0.234332 0.000000
vn 0.833700 0.552218 0.000000
vn 0.833700 0.552218 0.000000
usemtl ww2_box_02
f 1/1/1 3/3/3 2/2/2
f 2/2/2 4/4/4 1/1/1
f 5/5/5 7/7/7 6/6/6
f 6/6/6 8/8/8 5/5/5
f 9/9/9 11/11/11 10/10/10
f 10/10/10 12/12/12 9/9/9
f 13/13/13 15/15/15 14/14/14
f 14/14/14 16/16/16 13/13/13
f 17/17/17 19/19/19 18/18/18
f 18/18/18 20/20/20 17/17/17
f 21/21/21 23/23/23 22/22/22
f 22/22/22 24/24/24 21/21/21
f 25/25/25 27/27/27 26/26/26
f 26/26/26 28/28/28 25/25/25
f 29/29/29 31/31/31 30/30/30
f 30/30/30 32/32/32 29/29/29
f 33/33/33 35/35/35 34/34/34
f 34/34/34 36/36/36 33/33/33
f 37/37/37 39/39/39 38/38/38
f 38/38/38 40/40/40 37/37/37
f 41/41/41 43/43/43 42/42/42
f 42/42/42 44/44/44 41/41/41
f 45/45/45 47/47/47 46/46/46
f 46/46/46 48/48/48 45/45/45
f 49/49/49 51/51/51 50/50/50
f 50/50/50 52/52/52 49/49/49
f 53/53/53 55/55/55 54/54/54
f 54/54/54 56/56/56 53/53/53
f 57/57/57 59/59/59 58/58/58
f 58/58/58 60/60/60 57/57/57
f 61/61/61 63/63/63 62/62/62
f 62/62/62 64/64/64 61/61/61
f 65/65/65 67/67/67 66/66/66
f 66/66/66 68/68/68 65/65/65
f 69/69/69 71/71/71 70/70/70
f 70/70/70 72/72/72 69/69/69
f 73/73/73 75/75/75 74/74/74
f 74/74/74 76/76/76 73/73/73
f 76/76/76 74/74/74 77/77/77
f 77/77/77 78/78/78 76/76/76
f 79/79/79 81/81/81 80/80/80
f 80/80/80 82/82/82 79/79/79
f 83/83/83 80/80/80 81/81/81
f 81/81/81 84/84/84 83/83/83
