# 
# Wavefront OBJ file
# Created with Kaydara FBX
# 
mtllib ww2_radiator.mtl

g ww2_radiator
v -0.400000 -0.485000 -0.203500
v -0.350000 -0.500000 0.220000
v -0.350000 -0.500000 -0.220000
v -0.400000 -0.485000 0.203500
v -0.400000 0.285000 -0.203500
v -0.350000 0.300000 0.220000
v -0.400000 0.285000 0.203500
v -0.350000 0.300000 -0.220000
v -0.400000 -0.485000 -0.203500
v -0.400000 0.285000 0.203500
v -0.400000 -0.485000 0.203500
v -0.400000 0.285000 -0.203500
v -0.400000 -0.485000 0.203500
v -0.350000 0.300000 0.220000
v -0.350000 -0.500000 0.220000
v -0.400000 0.285000 0.203500
v -0.350000 -0.500000 0.220000
v -0.350000 0.300000 -0.220000
v -0.350000 -0.500000 -0.220000
v -0.350000 0.300000 0.220000
v -0.350000 -0.500000 -0.220000
v -0.400000 0.285000 -0.203500
v -0.400000 -0.485000 -0.203500
v -0.350000 0.300000 -0.220000
v -0.434097 -0.500000 -0.087309
v -0.453532 -0.400094 -0.114700
v -0.453532 -0.500000 -0.114700
v -0.434097 -0.406112 -0.087309
v -0.478675 -0.392197 -0.104237
v -0.478675 -0.500000 -0.104237
v -0.453532 -0.500000 -0.059919
v -0.453532 -0.400094 -0.059919
v -0.435146 -0.379535 -0.114700
v -0.426390 -0.397375 -0.087309
v -0.449314 -0.350670 -0.104237
v -0.435146 -0.379535 -0.059919
v -0.355048 -0.379535 -0.114700
v -0.355048 -0.397375 -0.087309
v -0.355048 -0.350670 -0.104237
v -0.355048 -0.379535 -0.059919
v -0.478675 -0.500000 -0.104237
v -0.478675 -0.392197 -0.070381
v -0.478675 -0.500000 -0.070381
v -0.478675 -0.392197 -0.104237
v -0.453532 -0.400094 -0.059919
v -0.453532 -0.500000 -0.059919
v -0.449314 -0.350670 -0.070381
v -0.449314 -0.350670 -0.104237
v -0.435146 -0.379535 -0.059919
v -0.355048 -0.350670 -0.070381
v -0.355048 -0.350670 -0.104237
v -0.355048 -0.379535 -0.059919
v -0.478675 -0.500000 -0.104237
v -0.434097 -0.500000 -0.087309
v -0.453532 -0.500000 -0.114700
v -0.478675 -0.500000 -0.070381
v -0.453532 -0.500000 -0.059919
v 0.400000 -0.485000 -0.203500
v 0.350000 -0.500000 0.220000
v 0.400000 -0.485000 0.203500
v 0.350000 -0.500000 -0.220000
v 0.400000 0.285000 -0.203500
v 0.350000 0.300000 0.220000
v 0.350000 0.300000 -0.220000
v 0.400000 0.285000 0.203500
v 0.400000 -0.485000 -0.203500
v 0.400000 0.285000 0.203500
v 0.400000 0.285000 -0.203500
v 0.400000 -0.485000 0.203500
v 0.400000 -0.485000 0.203500
v 0.350000 0.300000 0.220000
v 0.400000 0.285000 0.203500
v 0.350000 -0.500000 0.220000
v 0.350000 -0.500000 0.220000
v 0.350000 0.300000 -0.220000
v 0.350000 0.300000 0.220000
v 0.350000 -0.500000 -0.220000
v 0.350000 -0.500000 -0.220000
v 0.400000 0.285000 -0.203500
v 0.350000 0.300000 -0.220000
v 0.400000 -0.485000 -0.203500
v -0.375000 -0.450000 0.200000
v 0.375000 -0.468975 0.000000
v -0.375000 -0.468975 -0.000000
v 0.375000 -0.450000 0.200000
v 0.375000 0.229992 0.200000
v -0.375000 0.242241 -0.000000
v 0.375000 0.242241 0.000000
v -0.375000 0.229992 0.200000
v 0.375000 0.229992 0.200000
v -0.375000 -0.450000 0.200000
v -0.375000 0.229992 0.200000
v 0.375000 -0.450000 0.200000
v -0.375000 -0.450000 -0.200000
v 0.375000 -0.468975 0.000000
v 0.375000 -0.450000 -0.200000
v -0.375000 -0.468975 -0.000000
v 0.375000 0.229992 -0.200000
v -0.375000 0.242241 -0.000000
v -0.375000 0.229992 -0.200000
v 0.375000 0.242241 0.000000
v 0.375000 0.229992 -0.200000
v -0.375000 -0.450000 -0.200000
v 0.375000 -0.450000 -0.200000
v -0.375000 0.229992 -0.200000
vt 0.034788 0.842163
vt 0.451331 0.890398
vt 0.002586 0.890398
vt 0.419130 0.842163
vt 0.034788 0.051929
vt 0.451331 0.003694
vt 0.419130 0.051929
vt 0.002586 0.003694
vt 0.034788 0.842163
vt 0.419130 0.051929
vt 0.419130 0.842163
vt 0.034788 0.051929
vt 0.419130 0.842163
vt 0.451331 0.003694
vt 0.451331 0.890398
vt 0.419130 0.051929
vt 0.418150 0.841846
vt 0.036877 0.053443
vt 0.036877 0.841846
vt 0.418150 0.053443
vt 0.002586 0.890398
vt 0.034788 0.051929
vt 0.034788 0.842163
vt 0.002586 0.003694
vt 0.384244 0.964994
vt 0.292144 0.933067
vt 0.384244 0.933067
vt 0.292144 0.964994
vt 0.292144 0.901543
vt 0.384244 0.901543
vt 0.384244 0.996922
vt 0.292144 0.996922
vt 0.200045 0.933067
vt 0.200045 0.964994
vt 0.200045 0.901543
vt 0.200045 0.996922
vt 0.107946 0.933067
vt 0.107946 0.964994
vt 0.107946 0.901543
vt 0.107946 0.996922
vt 0.384244 0.933067
vt 0.292144 0.964994
vt 0.384244 0.964994
vt 0.292144 0.933067
vt 0.292144 0.996922
vt 0.384244 0.996922
vt 0.200045 0.964994
vt 0.200045 0.933067
vt 0.200045 0.996922
vt 0.107946 0.964994
vt 0.107946 0.933067
vt 0.107946 0.996922
vt 0.022496 0.997274
vt 0.051107 0.901852
vt 0.004813 0.938300
vt 0.079718 0.997274
vt 0.097401 0.938300
vt 0.034788 0.842163
vt 0.451332 0.890398
vt 0.419130 0.842163
vt 0.002586 0.890398
vt 0.034788 0.051930
vt 0.451332 0.003694
vt 0.002586 0.003694
vt 0.419130 0.051930
vt 0.034788 0.842163
vt 0.419130 0.051930
vt 0.034788 0.051930
vt 0.419130 0.842163
vt 0.419130 0.842163
vt 0.451332 0.003694
vt 0.419130 0.051930
vt 0.451332 0.890398
vt 0.418150 0.841846
vt 0.036877 0.053443
vt 0.418150 0.053443
vt 0.036877 0.841846
vt 0.002586 0.890398
vt 0.034788 0.051930
vt 0.002586 0.003694
vt 0.034788 0.842163
vt 0.458726 0.815794
vt 0.991624 0.993192
vt 0.458726 0.993192
vt 0.991624 0.815794
vt 0.991624 0.184070
vt 0.458726 0.006669
vt 0.991624 0.006669
vt 0.458726 0.184070
vt 0.991624 0.184070
vt 0.458726 0.815771
vt 0.458726 0.184070
vt 0.991624 0.815771
vt 0.458726 0.815794
vt 0.991624 0.993192
vt 0.991624 0.815794
vt 0.458726 0.993192
vt 0.991624 0.184070
vt 0.458726 0.006669
vt 0.458726 0.184070
vt 0.991624 0.006669
vt 0.991624 0.184070
vt 0.458726 0.815771
vt 0.991624 0.815771
vt 0.458726 0.184070
vn -0.287348 -0.957826 -0.000000
vn -0.287348 -0.957826 -0.000000
vn -0.287348 -0.957826 -0.000000
vn -0.287348 -0.957826 -0.000000
vn -0.287348 0.957826 0.000000
vn -0.287348 0.957826 0.000000
vn -0.287348 0.957826 0.000000
vn -0.287348 0.957826 0.000000
vn -1.000000 0.000000 -0.000000
vn -1.000000 0.000000 -0.000000
vn -1.000000 0.000000 -0.000000
vn -1.000000 0.000000 -0.000000
vn -0.313378 -0.000000 0.949629
vn -0.313378 -0.000000 0.949629
vn -0.313378 -0.000000 0.949629
vn -0.313378 -0.000000 0.949629
vn 1.000000 -0.000000 0.000000
vn 1.000000 -0.000000 0.000000
vn 1.000000 -0.000000 0.000000
vn 1.000000 -0.000000 0.000000
vn -0.313377 0.000000 -0.949629
vn -0.313377 0.000000 -0.949629
vn -0.313377 0.000000 -0.949629
vn -0.313377 0.000000 -0.949629
vn 1.000000 -0.000000 0.000001
vn 0.129944 -0.057099 -0.989876
vn 0.276067 0.000000 -0.961138
vn 0.931380 -0.364048 0.000910
vn -0.816190 0.259288 -0.516337
vn -0.831915 0.000000 -0.554903
vn 0.276066 -0.000000 0.961139
vn 0.128722 -0.040251 0.990863
vn 0.068028 -0.139449 -0.987890
vn 0.404635 -0.914478 0.000878
vn -0.390845 0.763252 -0.514477
vn 0.052946 -0.140480 0.988667
vn 0.000000 -0.317306 -0.948323
vn 0.000000 -1.000000 -0.000000
vn 0.000000 0.818765 -0.574128
vn -0.000000 -0.317306 0.948323
vn -0.831915 0.000000 -0.554903
vn -0.812746 0.262637 0.520063
vn -0.831915 -0.000000 0.554903
vn -0.816190 0.259288 -0.516337
vn 0.128722 -0.040251 0.990863
vn 0.276066 -0.000000 0.961139
vn -0.392765 0.760272 0.517418
vn -0.390845 0.763252 -0.514477
vn 0.052946 -0.140480 0.988667
vn -0.000000 0.818766 0.574128
vn 0.000000 0.818765 -0.574128
vn -0.000000 -0.317306 0.948323
vn 0.000000 -1.000000 -0.000000
vn 0.000000 -1.000000 -0.000000
vn 0.000000 -1.000000 -0.000000
vn 0.000000 -1.000000 -0.000000
vn 0.000000 -1.000000 -0.000000
vn 0.287348 -0.957826 -0.000000
vn 0.287348 -0.957826 -0.000000
vn 0.287348 -0.957826 -0.000000
vn 0.287348 -0.957826 -0.000000
vn 0.287348 0.957826 0.000000
vn 0.287348 0.957826 0.000000
vn 0.287348 0.957826 0.000000
vn 0.287348 0.957826 0.000000
vn 1.000000 0.000000 0.000000
vn 1.000000 0.000000 0.000000
vn 1.000000 0.000000 0.000000
vn 1.000000 0.000000 0.000000
vn 0.313377 -0.000000 0.949629
vn 0.313377 -0.000000 0.949629
vn 0.313377 -0.000000 0.949629
vn 0.313377 -0.000000 0.949629
vn -1.000000 0.000000 0.000000
vn -1.000000 0.000000 0.000000
vn -1.000000 0.000000 0.000000
vn -1.000000 0.000000 0.000000
vn 0.313377 0.000000 -0.949629
vn 0.313377 0.000000 -0.949629
vn 0.313377 0.000000 -0.949629
vn 0.313377 0.000000 -0.949629
vn 0.000000 -0.995530 0.094450
vn 0.000000 -0.995530 0.094450
vn 0.000000 -0.995530 0.094450
vn 0.000000 -0.995530 0.094450
vn 0.000000 0.998130 0.061129
vn 0.000000 0.998130 0.061129
vn 0.000000 0.998130 0.061129
vn 0.000000 0.998130 0.061129
vn -0.000000 -0.000000 1.000000
vn -0.000000 -0.000000 1.000000
vn -0.000000 -0.000000 1.000000
vn -0.000000 -0.000000 1.000000
vn 0.000000 -0.995530 -0.094450
vn 0.000000 -0.995530 -0.094450
vn 0.000000 -0.995530 -0.094450
vn 0.000000 -0.995530 -0.094450
vn 0.000000 0.998130 -0.061129
vn 0.000000 0.998130 -0.061129
vn 0.000000 0.998130 -0.061129
vn 0.000000 0.998130 -0.061129
vn 0.000000 0.000000 -1.000000
vn 0.000000 0.000000 -1.000000
vn 0.000000 0.000000 -1.000000
vn 0.000000 0.000000 -1.000000
usemtl ww2_radiator
f 1/1/1 3/3/3 2/2/2
f 2/2/2 4/4/4 1/1/1
f 5/5/5 7/7/7 6/6/6
f 6/6/6 8/8/8 5/5/5
f 9/9/9 11/11/11 10/10/10
f 10/10/10 12/12/12 9/9/9
f 13/13/13 15/15/15 14/14/14
f 14/14/14 16/16/16 13/13/13
f 17/17/17 19/19/19 18/18/18
f 18/18/18 20/20/20 17/17/17
f 21/21/21 23/23/23 22/22/22
f 22/22/22 24/24/24 21/21/21
f 25/25/25 27/27/27 26/26/26
f 26/26/26 28/28/28 25/25/25
f 29/29/29 26/26/26 27/27/27
f 27/27/27 30/30/30 29/29/29
f 31/31/31 25/25/25 28/28/28
f 28/28/28 32/32/32 31/31/31
f 28/28/28 26/26/26 33/33/33
f 33/33/33 34/34/34 28/28/28
f 32/32/32 28/28/28 34/34/34
f 26/26/26 29/29/29 35/35/35
f 35/35/35 33/33/33 26/26/26
f 34/34/34 36/36/36 32/32/32
f 34/34/34 33/33/33 37/37/37
f 37/37/37 38/38/38 34/34/34
f 36/36/36 34/34/34 38/38/38
f 33/33/33 35/35/35 39/39/39
f 39/39/39 37/37/37 33/33/33
f 38/38/38 40/40/40 36/36/36
f 41/41/41 43/43/43 42/42/42
f 42/42/42 44/44/44 41/41/41
f 45/45/45 42/42/42 43/43/43
f 43/43/43 46/46/46 45/45/45
f 44/44/44 42/42/42 47/47/47
f 47/47/47 48/48/48 44/44/44
f 42/42/42 45/45/45 49/49/49
f 49/49/49 47/47/47 42/42/42
f 48/48/48 47/47/47 50/50/50
f 50/50/50 51/51/51 48/48/48
f 47/47/47 49/49/49 52/52/52
f 52/52/52 50/50/50 47/47/47
f 53/53/53 55/55/55 54/54/54
f 56/56/56 53/53/53 54/54/54
f 57/57/57 56/56/56 54/54/54
f 58/58/58 60/60/60 59/59/59
f 59/59/59 61/61/61 58/58/58
f 62/62/62 64/64/64 63/63/63
f 63/63/63 65/65/65 62/62/62
f 66/66/66 68/68/68 67/67/67
f 67/67/67 69/69/69 66/66/66
f 70/70/70 72/72/72 71/71/71
f 71/71/71 73/73/73 70/70/70
f 74/74/74 76/76/76 75/75/75
f 75/75/75 77/77/77 74/74/74
f 78/78/78 80/80/80 79/79/79
f 79/79/79 81/81/81 78/78/78
f 82/82/82 84/84/84 83/83/83
f 83/83/83 85/85/85 82/82/82
f 86/86/86 88/88/88 87/87/87
f 87/87/87 89/89/89 86/86/86
f 90/90/90 92/92/92 91/91/91
f 91/91/91 93/93/93 90/90/90
f 94/94/94 96/96/96 95/95/95
f 95/95/95 97/97/97 94/94/94
f 98/98/98 100/100/100 99/99/99
f 99/99/99 101/101/101 98/98/98
f 102/102/102 104/104/104 103/103/103
f 103/103/103 105/105/105 102/102/102
