# 
# Wavefront OBJ file
# Created with Kaydara FBX
# 
mtllib ww2_iron.mtl

g ww2_iron
v 0.117314 -0.500000 -0.017959
v 0.189168 -0.500000 0.112517
v 0.264807 -0.500000 0.002844
v 0.343198 0.102932 0.148580
v 0.246751 0.175742 0.057338
v 0.383006 0.120989 0.020392
v 0.189168 -0.500000 0.112517
v 0.146766 -0.232612 0.017601
v 0.235251 -0.252233 0.103111
v 0.117314 -0.500000 -0.017959
v 0.246751 0.175742 0.057338
v 0.343198 0.102932 0.148580
v 0.264807 -0.500000 0.002844
v 0.235251 -0.252233 0.103111
v 0.268009 -0.252233 -0.003416
v 0.189168 -0.500000 0.112517
v 0.383006 0.120989 0.020392
v 0.343198 0.102932 0.148580
v 0.117314 -0.500000 -0.017959
v 0.268009 -0.252233 -0.003416
v 0.146766 -0.232612 0.017601
v 0.264807 -0.500000 0.002844
v 0.246751 0.175742 0.057338
v 0.383006 0.120989 0.020392
v -0.368255 -0.146542 0.010601
v -0.377053 -0.233546 0.020486
v -0.366976 -0.207336 -0.053017
v 0.365343 -0.233281 0.106039
v 0.360366 -0.139945 0.060872
v 0.374292 -0.231351 0.013675
v -0.377053 -0.233546 0.020486
v -0.073881 -0.173131 0.038071
v -0.080582 -0.237667 0.054877
v -0.368255 -0.146542 0.010601
v 0.365343 -0.233281 0.106039
v 0.360366 -0.139945 0.060872
v -0.366976 -0.207336 -0.053017
v -0.080582 -0.237667 0.054877
v -0.072907 -0.225806 -0.003359
v -0.377053 -0.233546 0.020486
v 0.374292 -0.231351 0.013675
v 0.365343 -0.233281 0.106039
v -0.368255 -0.146542 0.010601
v -0.072907 -0.225806 -0.003359
v -0.073881 -0.173131 0.038071
v -0.366976 -0.207336 -0.053017
v 0.360366 -0.139945 0.060872
v 0.374292 -0.231351 0.013675
v -0.235228 -0.500000 -0.078842
v -0.240108 -0.500000 0.014806
v -0.163237 -0.500000 -0.018750
v -0.281921 -0.029758 0.092662
v -0.253781 -0.024424 -0.036307
v -0.167611 -0.021832 0.063800
v -0.253781 -0.024424 -0.036307
v -0.240108 -0.500000 0.014806
v -0.235228 -0.500000 -0.078842
v -0.281921 -0.029758 0.092662
v -0.240108 -0.500000 0.014806
v -0.167611 -0.021832 0.063800
v -0.163237 -0.500000 -0.018750
v -0.281921 -0.029758 0.092662
v -0.235228 -0.500000 -0.078842
v -0.167611 -0.021832 0.063800
v -0.253781 -0.024424 -0.036307
v -0.163237 -0.500000 -0.018750
vt 0.660156 0.285156
vt 0.339844 0.367188
vt 0.339844 0.203125
vt 0.660156 0.269531
vt 0.335938 0.187500
vt 0.660156 0.105469
vt 0.322608 0.957031
vt 0.017354 0.611211
vt 0.322608 0.611211
vt 0.017354 0.957031
vt 0.017354 0.070313
vt 0.322608 0.070313
vt 0.322608 0.957031
vt 0.017354 0.611211
vt 0.322608 0.611211
vt 0.017354 0.957031
vt 0.322608 0.070313
vt 0.017354 0.070313
vt 0.322608 0.957031
vt 0.017354 0.611211
vt 0.322608 0.611211
vt 0.017354 0.957031
vt 0.322608 0.070313
vt 0.017354 0.070313
vt 0.660156 0.585938
vt 0.340169 0.667969
vt 0.340169 0.503906
vt 0.660156 0.570313
vt 0.336263 0.488281
vt 0.660156 0.406250
vt 0.984375 0.957031
vt 0.679688 0.602344
vt 0.984375 0.602344
vt 0.679688 0.957031
vt 0.984375 0.070313
vt 0.679688 0.070313
vt 0.984375 0.957031
vt 0.679688 0.602344
vt 0.984375 0.602344
vt 0.679688 0.957031
vt 0.984375 0.070313
vt 0.679688 0.070313
vt 0.984375 0.957031
vt 0.679688 0.602344
vt 0.984375 0.602344
vt 0.679688 0.957031
vt 0.984375 0.070313
vt 0.679688 0.070313
vt 0.660156 0.285156
vt 0.339844 0.367188
vt 0.339844 0.203125
vt 0.660156 0.269531
vt 0.335938 0.187500
vt 0.660156 0.105469
vt 0.017354 0.070313
vt 0.322608 0.957031
vt 0.017354 0.957031
vt 0.322608 0.070313
vt 0.017354 0.957031
vt 0.322608 0.070313
vt 0.322608 0.957031
vt 0.017354 0.070313
vt 0.322608 0.957031
vt 0.017354 0.070313
vt 0.322608 0.070313
vt 0.017354 0.957031
vn 0.000000 -1.000000 -0.000000
vn 0.000000 -1.000000 -0.000000
vn 0.000000 -1.000000 -0.000000
vn 0.419007 0.872035 0.252959
vn 0.419007 0.872035 0.252959
vn 0.419007 0.872035 0.252959
vn -0.104369 -0.046513 0.993450
vn -0.922262 0.258481 -0.287439
vn 0.213581 -0.040114 0.976101
vn -0.829814 0.059584 -0.554850
vn -0.916900 0.249649 -0.311400
vn 0.215213 -0.188090 0.958282
vn 0.896259 -0.111889 -0.429186
vn 0.213581 -0.040114 0.976101
vn 0.719838 -0.028875 -0.693541
vn -0.104369 -0.046513 0.993450
vn 0.593655 -0.140730 -0.792318
vn 0.215213 -0.188090 0.958282
vn -0.829814 0.059584 -0.554850
vn 0.719838 -0.028875 -0.693541
vn -0.922262 0.258481 -0.287439
vn 0.896259 -0.111889 -0.429186
vn -0.916900 0.249649 -0.311400
vn 0.593655 -0.140730 -0.792318
vn -0.990613 0.088326 -0.104324
vn -0.990613 0.088326 -0.104324
vn -0.990613 0.088326 -0.104324
vn 0.990123 0.100230 0.098029
vn 0.990123 0.100230 0.098029
vn 0.990123 0.100230 0.098029
vn -0.085347 0.141204 0.986295
vn -0.105880 0.261450 0.959392
vn -0.109999 0.261153 0.959010
vn -0.081426 0.120640 0.989351
vn -0.083509 0.414296 0.906303
vn -0.080115 0.430730 0.898918
vn 0.018731 -0.948460 -0.316344
vn -0.010576 -0.979559 -0.200878
vn -0.015727 -0.979357 -0.201527
vn 0.025487 -0.942703 -0.332659
vn 0.010670 -0.999317 -0.035375
vn 0.012094 -0.999732 -0.019720
vn 0.155534 0.701958 -0.695028
vn 0.068400 0.616994 -0.783990
vn 0.060190 0.617788 -0.784038
vn 0.159806 0.715285 -0.680316
vn 0.035299 0.478305 -0.877484
vn 0.039470 0.463171 -0.885390
vn 0.000000 -1.000000 -0.000000
vn 0.000000 -1.000000 -0.000000
vn 0.000000 -1.000000 -0.000000
vn -0.062183 0.997681 0.027691
vn -0.062183 0.997681 0.027691
vn -0.062183 0.997681 0.027691
vn -0.253336 0.044167 -0.966370
vn -0.594889 -0.176578 0.784173
vn -0.351593 0.112525 -0.929366
vn -0.654410 -0.179789 0.734454
vn -0.594889 -0.176578 0.784173
vn 0.939457 -0.051337 0.338799
vn 0.998794 0.000659 0.049100
vn -0.654410 -0.179789 0.734454
vn -0.351593 0.112525 -0.929366
vn 0.939457 -0.051337 0.338799
vn -0.253336 0.044167 -0.966370
vn 0.998794 0.000659 0.049100
usemtl ww2_iron
f 1/1/1 3/3/3 2/2/2
f 4/4/4 6/6/6 5/5/5
f 7/7/7 9/9/9 8/8/8
f 8/8/8 10/10/10 7/7/7
f 11/11/11 8/8/8 9/9/9
f 9/9/9 12/12/12 11/11/11
f 13/13/13 15/15/15 14/14/14
f 14/14/14 16/16/16 13/13/13
f 14/14/14 15/15/15 17/17/17
f 17/17/17 18/18/18 14/14/14
f 19/19/19 21/21/21 20/20/20
f 20/20/20 22/22/22 19/19/19
f 20/20/20 21/21/21 23/23/23
f 23/23/23 24/24/24 20/20/20
f 25/25/25 27/27/27 26/26/26
f 28/28/28 30/30/30 29/29/29
f 31/31/31 33/33/33 32/32/32
f 32/32/32 34/34/34 31/31/31
f 32/32/32 33/33/33 35/35/35
f 35/35/35 36/36/36 32/32/32
f 37/37/37 39/39/39 38/38/38
f 38/38/38 40/40/40 37/37/37
f 38/38/38 39/39/39 41/41/41
f 41/41/41 42/42/42 38/38/38
f 43/43/43 45/45/45 44/44/44
f 44/44/44 46/46/46 43/43/43
f 44/44/44 45/45/45 47/47/47
f 47/47/47 48/48/48 44/44/44
f 49/49/49 51/51/51 50/50/50
f 52/52/52 54/54/54 53/53/53
f 55/55/55 57/57/57 56/56/56
f 56/56/56 58/58/58 55/55/55
f 59/59/59 61/61/61 60/60/60
f 60/60/60 62/62/62 59/59/59
f 63/63/63 65/65/65 64/64/64
f 64/64/64 66/66/66 63/63/63
